<?xml version="1.0" encoding="UTF-8" standalone="no"?>
<!-- Created with Inkscape (http://www.inkscape.org/) -->

<svg
   xmlns:dc="http://purl.org/dc/elements/1.1/"
   xmlns:cc="http://creativecommons.org/ns#"
   xmlns:rdf="http://www.w3.org/1999/02/22-rdf-syntax-ns#"
   xmlns:svg="http://www.w3.org/2000/svg"
   xmlns="http://www.w3.org/2000/svg"
   xmlns:sodipodi="http://sodipodi.sourceforge.net/DTD/sodipodi-0.dtd"
   xmlns:inkscape="http://www.inkscape.org/namespaces/inkscape"
   width="307.28000pt"
   height="223.89000pt"
   id="svg8621"
   sodipodi:version="0.32"
   inkscape:version="0.92.5 (2060ec1f9f, 2020-04-08)"
   sodipodi:docname="m0_Venn.svg"
   version="1.1">
  <defs
     id="defs3" />
  <sodipodi:namedview
     inkscape:document-units="mm"
     id="base"
     pagecolor="#ffffff"
     bordercolor="#666666"
     borderopacity="1.0"
     inkscape:pageopacity="0.0"
     inkscape:pageshadow="2"
     inkscape:zoom="1.3374553"
     inkscape:cx="217.98592"
     inkscape:cy="88.716299"
     inkscape:current-layer="layer1"
     inkscape:window-width="1333"
     inkscape:window-height="1356"
     inkscape:window-x="1920"
     inkscape:window-y="82"
     showborder="true"
     borderlayer="top"
     showgrid="false"
     inkscape:window-maximized="0" />
  <metadata
     id="metadata4">
    <rdf:RDF>
      <cc:Work
         rdf:about="">
        <dc:format>image/svg+xml</dc:format>
        <dc:type
           rdf:resource="http://purl.org/dc/dcmitype/StillImage" />
        <dc:title></dc:title>
      </cc:Work>
    </rdf:RDF>
  </metadata>
  <g
     inkscape:label="Layer 1"
     inkscape:groupmode="layer"
     id="layer1">
    <rect
       x="2.5324416"
       y="2.5291228"
       width="379.02979"
       height="274.79257"
       id="rect1310"
       style="fill:#ffffff;fill-opacity:1.0000000;stroke:#000000;stroke-width:5.0498838;stroke-miterlimit:4.0000000;stroke-dasharray:none;stroke-opacity:1.0000000" />
    <circle
       sodipodi:ry="120.00000"
       sodipodi:rx="120.00000"
       sodipodi:cy="180.00000"
       sodipodi:cx="180.00000"
       cx="180.00000"
       cy="180.00000"
       r="120.00000"
       id="circle1312"
       style="fill:#ffffff;fill-opacity:1.0000000;stroke:#000000;stroke-width:6.0000000;stroke-miterlimit:4.0000000;stroke-dasharray:none;stroke-opacity:1.0000000"
       transform="matrix(0.842564,0.000000,0.000000,0.840731,-10.24387,-10.52388)" />
    <circle
       sodipodi:ry="120.00000"
       sodipodi:rx="120.00000"
       sodipodi:cy="180.00000"
       sodipodi:cx="300.00000"
       cx="300.00000"
       cy="180.00000"
       r="120.00000"
       id="circle1316"
       style="fill:#ffffff;fill-opacity:1.0000000;stroke:#000000;stroke-width:6.0000000;stroke-miterlimit:4.0000000;stroke-dasharray:none;stroke-opacity:1.0000000"
       transform="matrix(0.842564,0.000000,0.000000,0.840731,-10.24387,-10.52388)" />
    <path
       d="M 191.97147,53.436405 C 223.25430,71.458270 242.52530,104.76406 242.52530,140.80780 C 242.52530,176.85154 223.25430,210.15733 191.97147,228.17919 C 160.68865,210.15733 141.41763,176.85154 141.41763,140.80780 C 141.41763,104.76406 160.68865,71.458270 191.97147,53.436405"
       id="path1320"
       style="fill:none;fill-opacity:1;stroke:#000000;stroke-width:5.0498838;stroke-miterlimit:4;stroke-dasharray:none;stroke-opacity:1" />
    <g
       id="g23"
       transform="translate(-34.393674,7.4768856)">
      <g
         word-spacing="normal"
         letter-spacing="normal"
         font-size-adjust="none"
         font-stretch="normal"
         font-weight="normal"
         font-variant="normal"
         font-style="normal"
         stroke-miterlimit="10.433"
         xml:space="preserve"
         transform="matrix(0.42645714,0,0,-0.42645714,-74.63,307.28)"
         id="content"
         style="font-style:normal;font-variant:normal;font-weight:normal;font-stretch:normal;letter-spacing:normal;word-spacing:normal;text-anchor:start;fill:none;fill-opacity:1;fill-rule:evenodd;stroke:#000000;stroke-linecap:butt;stroke-linejoin:miter;stroke-miterlimit:10.43299961;stroke-dasharray:none;stroke-dashoffset:0;stroke-opacity:1"><path
           id="path18"
           d="m 472.16,421.25 0.03,0.13 0.04,0.15 0.04,0.16 0.04,0.18 0.06,0.19 0.06,0.21 0.06,0.22 0.07,0.22 0.08,0.23 0.09,0.24 0.1,0.25 0.1,0.24 0.11,0.25 0.12,0.25 0.13,0.25 0.14,0.25 0.15,0.24 0.15,0.24 0.17,0.23 0.18,0.22 0.18,0.22 0.2,0.2 0.21,0.19 0.22,0.18 0.23,0.16 0.25,0.14 0.12,0.07 0.13,0.06 0.14,0.05 0.13,0.05 0.14,0.05 0.14,0.04 0.15,0.03 0.15,0.03 0.15,0.02 0.16,0.02 0.16,0.01 h 0.16 c 0.25,0 1.44,0 2.48,-0.64 -1.39,-0.25 -2.39,-1.5 -2.39,-2.69 0,-0.79 0.55,-1.75 1.89,-1.75 1.1,0 2.69,0.89 2.69,2.89 0,2.6 -2.94,3.28 -4.63,3.28 -2.89,0 -4.64,-2.64 -5.23,-3.78 -1.25,3.28 -3.94,3.78 -5.37,3.78 -5.19,0 -8.04,-6.42 -8.04,-7.67 0,-0.5 0.5,-0.5 0.61,-0.5 0.39,0 0.55,0.11 0.64,0.55 1.69,5.28 4.99,6.53 6.68,6.53 0.95,0 2.68,-0.44 2.68,-3.33 0,-1.54 -0.84,-4.89 -2.68,-11.86 -0.8,-3.09 -2.54,-5.18 -4.74,-5.18 -0.3,0 -1.44,0 -2.48,0.65 1.25,0.24 2.34,1.28 2.34,2.69 0,1.34 -1.09,1.73 -1.84,1.73 -1.5,0 -2.75,-1.29 -2.75,-2.89 0,-2.28 2.5,-3.28 4.68,-3.28 3.3,0 5.08,3.49 5.24,3.78 0.59,-1.84 2.39,-3.78 5.37,-3.78 5.14,0 7.99,6.42 7.99,7.67 0,0.5 -0.45,0.5 -0.61,0.5 -0.44,0 -0.55,-0.2 -0.64,-0.54 -1.64,-5.33 -5.03,-6.53 -6.63,-6.53 -1.95,0 -2.75,1.59 -2.75,3.29 0,1.1 0.3,2.19 0.86,4.38 z"
           inkscape:connector-curvature="0"
           style="fill:#000000;stroke-width:0" /><path
           id="path20"
           d="m 495.63,420.92 v 0.04 0.04 0.05 0.04 0.03 0.04 0.04 0.03 0.04 0.03 l -0.01,0.03 v 0.03 0.03 l -0.01,0.03 v 0.03 0.02 l -0.01,0.03 v 0.02 l -0.01,0.03 v 0.02 l -0.01,0.04 -0.02,0.04 -0.02,0.03 -0.02,0.03 -0.02,0.03 -0.02,0.03 -0.03,0.02 -0.03,0.02 -0.03,0.02 -0.04,0.01 -0.04,0.01 -0.05,0.02 h -0.02 -0.02 l -0.03,0.01 h -0.03 l -0.02,0.01 h -0.03 -0.03 -0.03 -0.03 l -0.04,0.01 h -0.03 -0.04 -0.03 -0.04 -0.04 -0.04 -0.04 -0.04 -0.05 -0.04 c -2.24,-2.2 -5.39,-2.23 -6.83,-2.23 v -1.25 c 0.84,0 3.14,0 5.04,0.97 v -17.77 c 0,-1.16 0,-1.61 -3.48,-1.61 h -1.31 v -1.25 c 0.62,0.03 4.9,0.14 6.2,0.14 1.08,0 5.47,-0.11 6.24,-0.14 v 1.25 h -1.33 c -3.49,0 -3.49,0.45 -3.49,1.61 z"
           inkscape:connector-curvature="0"
           style="fill:#000000;stroke-width:0" /></g>    </g>
    <g
       id="g48"
       transform="translate(158.50997,9.7199513)">
      <g
         word-spacing="normal"
         letter-spacing="normal"
         font-size-adjust="none"
         font-stretch="normal"
         font-weight="normal"
         font-variant="normal"
         font-style="normal"
         stroke-miterlimit="10.433"
         xml:space="preserve"
         transform="matrix(0.42645714,0,0,-0.42645714,-74.63,307.28)"
         id="g46"
         style="font-style:normal;font-variant:normal;font-weight:normal;font-stretch:normal;letter-spacing:normal;word-spacing:normal;text-anchor:start;fill:none;fill-opacity:1;fill-rule:evenodd;stroke:#000000;stroke-linecap:butt;stroke-linejoin:miter;stroke-miterlimit:10.43299961;stroke-dasharray:none;stroke-dashoffset:0;stroke-opacity:1"><path
           id="path42"
           d="m 472.16,421.25 0.03,0.13 0.04,0.15 0.04,0.16 0.04,0.18 0.06,0.19 0.06,0.21 0.06,0.22 0.07,0.22 0.08,0.23 0.09,0.24 0.1,0.25 0.1,0.24 0.11,0.25 0.12,0.25 0.13,0.25 0.14,0.25 0.15,0.24 0.15,0.24 0.17,0.23 0.18,0.22 0.18,0.22 0.2,0.2 0.21,0.19 0.22,0.18 0.23,0.16 0.25,0.14 0.12,0.07 0.13,0.06 0.14,0.05 0.13,0.05 0.14,0.05 0.14,0.04 0.15,0.03 0.15,0.03 0.15,0.02 0.16,0.02 0.16,0.01 h 0.16 c 0.25,0 1.44,0 2.48,-0.64 -1.39,-0.25 -2.39,-1.5 -2.39,-2.69 0,-0.79 0.55,-1.75 1.89,-1.75 1.1,0 2.69,0.89 2.69,2.89 0,2.6 -2.94,3.28 -4.63,3.28 -2.89,0 -4.64,-2.64 -5.23,-3.78 -1.25,3.28 -3.94,3.78 -5.37,3.78 -5.19,0 -8.04,-6.42 -8.04,-7.67 0,-0.5 0.5,-0.5 0.61,-0.5 0.39,0 0.55,0.11 0.64,0.55 1.69,5.28 4.99,6.53 6.68,6.53 0.95,0 2.68,-0.44 2.68,-3.33 0,-1.54 -0.84,-4.89 -2.68,-11.86 -0.8,-3.09 -2.54,-5.18 -4.74,-5.18 -0.3,0 -1.44,0 -2.48,0.65 1.25,0.24 2.34,1.28 2.34,2.69 0,1.34 -1.09,1.73 -1.84,1.73 -1.5,0 -2.75,-1.29 -2.75,-2.89 0,-2.28 2.5,-3.28 4.68,-3.28 3.3,0 5.08,3.49 5.24,3.78 0.59,-1.84 2.39,-3.78 5.37,-3.78 5.14,0 7.99,6.42 7.99,7.67 0,0.5 -0.45,0.5 -0.61,0.5 -0.44,0 -0.55,-0.2 -0.64,-0.54 -1.64,-5.33 -5.03,-6.53 -6.63,-6.53 -1.95,0 -2.75,1.59 -2.75,3.29 0,1.1 0.3,2.19 0.86,4.38 z"
           inkscape:connector-curvature="0"
           style="fill:#000000;stroke-width:0" /><path
           id="path44"
           d="m 501.55,405.11 h -1.18 c -0.1,-0.77 -0.46,-2.83 -0.91,-3.18 -0.26,-0.2 -2.95,-0.2 -3.44,-0.2 h -6.42 c 3.66,3.23 4.88,4.2 6.97,5.84 2.58,2.07 4.98,4.22 4.98,7.54 0,4.21 -3.68,6.79 -8.15,6.79 -4.31,0 -7.25,-3.03 -7.25,-6.23 0,-1.78 1.5,-1.96 1.86,-1.96 0.83,0 1.84,0.6 1.84,1.85 0,0.62 -0.25,1.84 -2.06,1.84 1.08,2.47 3.45,3.24 5.09,3.24 3.49,0 5.3,-2.71 5.3,-5.53 0,-3.04 -2.16,-5.44 -3.28,-6.69 l -8.39,-8.3 c -0.36,-0.31 -0.36,-0.39 -0.36,-1.36 h 14.36 z"
           inkscape:connector-curvature="0"
           style="fill:#000000;stroke-width:0" /></g>    </g>
    <g
       id="g81"
       transform="translate(53.098686,7.4095466)">
      <g
         word-spacing="normal"
         letter-spacing="normal"
         font-size-adjust="none"
         font-stretch="normal"
         font-weight="normal"
         font-variant="normal"
         font-style="normal"
         stroke-miterlimit="10.433"
         xml:space="preserve"
         transform="matrix(0.42645714,0,0,-0.42645714,-74.63,307.28)"
         id="g79"
         style="font-style:normal;font-variant:normal;font-weight:normal;font-stretch:normal;letter-spacing:normal;word-spacing:normal;text-anchor:start;fill:none;fill-opacity:1;fill-rule:evenodd;stroke:#000000;stroke-linecap:butt;stroke-linejoin:miter;stroke-miterlimit:10.43299961;stroke-dasharray:none;stroke-dashoffset:0;stroke-opacity:1"><path
           id="path71"
           d="m 472.16,421.25 0.03,0.13 0.04,0.15 0.04,0.16 0.04,0.18 0.06,0.19 0.06,0.21 0.06,0.22 0.07,0.22 0.08,0.23 0.09,0.24 0.1,0.25 0.1,0.24 0.11,0.25 0.12,0.25 0.13,0.25 0.14,0.25 0.15,0.24 0.15,0.24 0.17,0.23 0.18,0.22 0.18,0.22 0.2,0.2 0.21,0.19 0.22,0.18 0.23,0.16 0.25,0.14 0.12,0.07 0.13,0.06 0.14,0.05 0.13,0.05 0.14,0.05 0.14,0.04 0.15,0.03 0.15,0.03 0.15,0.02 0.16,0.02 0.16,0.01 h 0.16 c 0.25,0 1.44,0 2.48,-0.64 -1.39,-0.25 -2.39,-1.5 -2.39,-2.69 0,-0.79 0.55,-1.75 1.89,-1.75 1.1,0 2.69,0.89 2.69,2.89 0,2.6 -2.94,3.28 -4.63,3.28 -2.89,0 -4.64,-2.64 -5.23,-3.78 -1.25,3.28 -3.94,3.78 -5.37,3.78 -5.19,0 -8.04,-6.42 -8.04,-7.67 0,-0.5 0.5,-0.5 0.61,-0.5 0.39,0 0.55,0.11 0.64,0.55 1.69,5.28 4.99,6.53 6.68,6.53 0.95,0 2.68,-0.44 2.68,-3.33 0,-1.54 -0.84,-4.89 -2.68,-11.86 -0.8,-3.09 -2.54,-5.18 -4.74,-5.18 -0.3,0 -1.44,0 -2.48,0.65 1.25,0.24 2.34,1.28 2.34,2.69 0,1.34 -1.09,1.73 -1.84,1.73 -1.5,0 -2.75,-1.29 -2.75,-2.89 0,-2.28 2.5,-3.28 4.68,-3.28 3.3,0 5.08,3.49 5.24,3.78 0.59,-1.84 2.39,-3.78 5.37,-3.78 5.14,0 7.99,6.42 7.99,7.67 0,0.5 -0.45,0.5 -0.61,0.5 -0.44,0 -0.55,-0.2 -0.64,-0.54 -1.64,-5.33 -5.03,-6.53 -6.63,-6.53 -1.95,0 -2.75,1.59 -2.75,3.29 0,1.1 0.3,2.19 0.86,4.38 z"
           inkscape:connector-curvature="0"
           style="fill:#000000;stroke-width:0" /><path
           id="path73"
           d="m 495.63,420.92 v 0.04 0.04 0.05 0.04 0.03 0.04 0.04 0.03 0.04 0.03 l -0.01,0.03 v 0.03 0.03 l -0.01,0.03 v 0.03 0.02 l -0.01,0.03 v 0.02 l -0.01,0.03 v 0.02 l -0.01,0.04 -0.02,0.04 -0.02,0.03 -0.02,0.03 -0.02,0.03 -0.02,0.03 -0.03,0.02 -0.03,0.02 -0.03,0.02 -0.04,0.01 -0.04,0.01 -0.05,0.02 h -0.02 -0.02 l -0.03,0.01 h -0.03 l -0.02,0.01 h -0.03 -0.03 -0.03 -0.03 l -0.04,0.01 h -0.03 -0.04 -0.03 -0.04 -0.04 -0.04 -0.04 -0.04 -0.05 -0.04 c -2.24,-2.2 -5.39,-2.23 -6.83,-2.23 v -1.25 c 0.84,0 3.14,0 5.04,0.97 v -17.77 c 0,-1.16 0,-1.61 -3.48,-1.61 h -1.31 v -1.25 c 0.62,0.03 4.9,0.14 6.2,0.14 1.08,0 5.47,-0.11 6.24,-0.14 v 1.25 h -1.33 c -3.49,0 -3.49,0.45 -3.49,1.61 z"
           inkscape:connector-curvature="0"
           style="fill:#000000;stroke-width:0" /><path
           id="path75"
           d="m 523.04,421.25 0.03,0.13 0.03,0.15 0.05,0.16 0.04,0.18 0.06,0.19 0.06,0.21 0.06,0.22 0.07,0.22 0.08,0.23 0.09,0.24 0.1,0.25 0.1,0.24 0.11,0.25 0.12,0.25 0.13,0.25 0.14,0.25 0.14,0.24 0.16,0.24 0.17,0.23 0.17,0.22 0.19,0.22 0.2,0.2 0.21,0.19 0.22,0.18 0.23,0.16 0.25,0.14 0.12,0.07 0.13,0.06 0.14,0.05 0.13,0.05 0.14,0.05 0.14,0.04 0.15,0.03 0.15,0.03 0.15,0.02 0.16,0.02 0.15,0.01 h 0.17 c 0.25,0 1.43,0 2.48,-0.64 -1.39,-0.25 -2.39,-1.5 -2.39,-2.69 0,-0.79 0.55,-1.75 1.89,-1.75 1.09,0 2.69,0.89 2.69,2.89 0,2.6 -2.94,3.28 -4.63,3.28 -2.89,0 -4.64,-2.64 -5.23,-3.78 -1.25,3.28 -3.94,3.78 -5.38,3.78 -5.18,0 -8.03,-6.42 -8.03,-7.67 0,-0.5 0.5,-0.5 0.61,-0.5 0.39,0 0.55,0.11 0.64,0.55 1.69,5.28 4.99,6.53 6.67,6.53 0.96,0 2.69,-0.44 2.69,-3.33 0,-1.54 -0.84,-4.89 -2.69,-11.86 -0.79,-3.09 -2.53,-5.18 -4.73,-5.18 -0.3,0 -1.44,0 -2.48,0.65 1.25,0.24 2.34,1.28 2.34,2.69 0,1.34 -1.09,1.73 -1.84,1.73 -1.5,0 -2.75,-1.29 -2.75,-2.89 0,-2.28 2.5,-3.28 4.68,-3.28 3.3,0 5.08,3.49 5.24,3.78 0.59,-1.84 2.39,-3.78 5.37,-3.78 5.14,0 7.99,6.42 7.99,7.67 0,0.5 -0.46,0.5 -0.61,0.5 -0.44,0 -0.55,-0.2 -0.64,-0.54 -1.64,-5.33 -5.03,-6.53 -6.63,-6.53 -1.95,0 -2.75,1.59 -2.75,3.29 0,1.1 0.3,2.19 0.86,4.38 z"
           inkscape:connector-curvature="0"
           style="fill:#000000;stroke-width:0" /><path
           id="path77"
           d="m 552.43,405.11 h -1.18 c -0.1,-0.77 -0.46,-2.83 -0.91,-3.18 -0.27,-0.2 -2.95,-0.2 -3.44,-0.2 h -6.42 c 3.66,3.23 4.87,4.2 6.97,5.84 2.58,2.07 4.98,4.22 4.98,7.54 0,4.21 -3.68,6.79 -8.15,6.79 -4.31,0 -7.25,-3.03 -7.25,-6.23 0,-1.78 1.5,-1.96 1.86,-1.96 0.83,0 1.84,0.6 1.84,1.85 0,0.62 -0.25,1.84 -2.06,1.84 1.08,2.47 3.45,3.24 5.09,3.24 3.49,0 5.3,-2.71 5.3,-5.53 0,-3.04 -2.16,-5.44 -3.28,-6.69 l -8.39,-8.3 c -0.36,-0.31 -0.36,-0.39 -0.36,-1.36 h 14.36 z"
           inkscape:connector-curvature="0"
           style="fill:#000000;stroke-width:0" /></g>    </g>
    <g
       id="g163"
       transform="translate(-106.17178,-85.984185)">
      <g
         word-spacing="normal"
         letter-spacing="normal"
         font-size-adjust="none"
         font-stretch="normal"
         font-weight="normal"
         font-variant="normal"
         font-style="normal"
         stroke-miterlimit="10.433"
         xml:space="preserve"
         transform="matrix(0.42645714,0,0,-0.42645714,-74.63,307.28)"
         id="g161"
         style="font-style:normal;font-variant:normal;font-weight:normal;font-stretch:normal;letter-spacing:normal;word-spacing:normal;text-anchor:start;fill:none;fill-opacity:1;fill-rule:evenodd;stroke:#000000;stroke-linecap:butt;stroke-linejoin:miter;stroke-miterlimit:10.43299961;stroke-dasharray:none;stroke-dashoffset:0;stroke-opacity:1"><polygon
           id="polygon155"
           points="480.18,435.59 462.2,435.59 462.2,434.04 480.18,434.04 "
           style="fill:#000000;stroke-width:0" /><path
           id="path157"
           d="m 472.16,421.25 0.03,0.13 0.03,0.15 0.04,0.16 0.05,0.18 0.05,0.19 0.06,0.21 0.07,0.22 0.07,0.22 0.08,0.23 0.09,0.24 0.09,0.25 0.11,0.24 0.11,0.25 0.12,0.25 0.13,0.25 0.13,0.25 0.15,0.24 0.16,0.24 0.16,0.23 0.18,0.22 0.19,0.22 0.2,0.2 0.21,0.19 0.22,0.18 0.23,0.16 0.24,0.14 0.13,0.07 0.13,0.06 0.13,0.05 0.14,0.05 0.14,0.05 0.14,0.04 0.15,0.03 0.15,0.03 0.15,0.02 0.15,0.02 0.16,0.01 h 0.16 c 0.25,0 1.44,0 2.49,-0.64 -1.39,-0.25 -2.39,-1.5 -2.39,-2.69 0,-0.79 0.54,-1.75 1.89,-1.75 1.09,0 2.69,0.89 2.69,2.89 0,2.6 -2.94,3.28 -4.63,3.28 -2.89,0 -4.64,-2.64 -5.23,-3.78 -1.25,3.28 -3.94,3.78 -5.38,3.78 -5.19,0 -8.03,-6.42 -8.03,-7.67 0,-0.5 0.5,-0.5 0.61,-0.5 0.39,0 0.55,0.11 0.64,0.55 1.69,5.28 4.98,6.53 6.67,6.53 0.96,0 2.69,-0.44 2.69,-3.33 0,-1.54 -0.84,-4.89 -2.69,-11.86 -0.8,-3.09 -2.53,-5.18 -4.73,-5.18 -0.3,0 -1.44,0 -2.49,0.65 1.25,0.24 2.35,1.28 2.35,2.69 0,1.34 -1.1,1.73 -1.85,1.73 -1.5,0 -2.75,-1.29 -2.75,-2.89 0,-2.28 2.5,-3.28 4.69,-3.28 3.3,0 5.08,3.49 5.24,3.78 0.59,-1.84 2.39,-3.78 5.37,-3.78 5.14,0 7.98,6.42 7.98,7.67 0,0.5 -0.45,0.5 -0.61,0.5 -0.43,0 -0.54,-0.2 -0.64,-0.54 -1.64,-5.33 -5.03,-6.53 -6.62,-6.53 -1.95,0 -2.75,1.59 -2.75,3.29 0,1.1 0.3,2.19 0.86,4.38 z"
           inkscape:connector-curvature="0"
           style="fill:#000000;stroke-width:0" /><path
           id="path159"
           d="m 495.63,420.92 v 0.04 0.04 0.05 0.04 0.03 0.04 0.04 0.03 0.04 0.03 l -0.01,0.03 v 0.03 0.03 l -0.01,0.03 v 0.03 0.02 l -0.01,0.03 v 0.02 l -0.01,0.03 v 0.02 l -0.01,0.04 -0.02,0.04 -0.02,0.03 -0.02,0.03 -0.02,0.03 -0.02,0.03 -0.03,0.02 -0.03,0.02 -0.03,0.02 -0.04,0.01 -0.04,0.01 -0.05,0.02 h -0.02 -0.02 l -0.03,0.01 h -0.03 l -0.02,0.01 h -0.03 -0.03 -0.03 -0.03 l -0.04,0.01 h -0.03 -0.04 -0.03 -0.04 -0.04 -0.04 -0.04 -0.04 -0.05 -0.04 c -2.24,-2.2 -5.39,-2.23 -6.83,-2.23 v -1.25 c 0.84,0 3.14,0 5.04,0.97 v -17.77 c 0,-1.16 0,-1.61 -3.48,-1.61 h -1.31 v -1.25 c 0.62,0.03 4.9,0.14 6.2,0.14 1.08,0 5.47,-0.11 6.24,-0.14 v 1.25 h -1.33 c -3.49,0 -3.49,0.45 -3.49,1.61 z"
           inkscape:connector-curvature="0"
           style="fill:#000000;stroke-width:0" /></g>    </g>
    <g
       id="g211"
       transform="translate(201.12822,-86.731874)">
      <g
         word-spacing="normal"
         letter-spacing="normal"
         font-size-adjust="none"
         font-stretch="normal"
         font-weight="normal"
         font-variant="normal"
         font-style="normal"
         stroke-miterlimit="10.433"
         xml:space="preserve"
         transform="matrix(0.42645714,0,0,-0.42645714,-74.63,307.28)"
         id="g209"
         style="font-style:normal;font-variant:normal;font-weight:normal;font-stretch:normal;letter-spacing:normal;word-spacing:normal;text-anchor:start;fill:none;fill-opacity:1;fill-rule:evenodd;stroke:#000000;stroke-linecap:butt;stroke-linejoin:miter;stroke-miterlimit:10.43299961;stroke-dasharray:none;stroke-dashoffset:0;stroke-opacity:1"><polygon
           id="polygon203"
           points="462.2,434.04 480.18,434.04 480.18,435.59 462.2,435.59 "
           style="fill:#000000;stroke-width:0" /><path
           id="path205"
           d="m 472.16,421.25 0.03,0.13 0.03,0.15 0.04,0.16 0.05,0.18 0.05,0.19 0.06,0.21 0.07,0.22 0.07,0.22 0.08,0.23 0.09,0.24 0.09,0.25 0.11,0.24 0.11,0.25 0.12,0.25 0.13,0.25 0.13,0.25 0.15,0.24 0.16,0.24 0.16,0.23 0.18,0.22 0.19,0.22 0.2,0.2 0.21,0.19 0.22,0.18 0.23,0.16 0.24,0.14 0.13,0.07 0.13,0.06 0.13,0.05 0.14,0.05 0.14,0.05 0.14,0.04 0.15,0.03 0.15,0.03 0.15,0.02 0.15,0.02 0.16,0.01 h 0.16 c 0.25,0 1.44,0 2.49,-0.64 -1.39,-0.25 -2.39,-1.5 -2.39,-2.69 0,-0.79 0.54,-1.75 1.89,-1.75 1.09,0 2.69,0.89 2.69,2.89 0,2.6 -2.94,3.28 -4.63,3.28 -2.89,0 -4.64,-2.64 -5.23,-3.78 -1.25,3.28 -3.94,3.78 -5.38,3.78 -5.19,0 -8.03,-6.42 -8.03,-7.67 0,-0.5 0.5,-0.5 0.61,-0.5 0.39,0 0.55,0.11 0.64,0.55 1.69,5.28 4.98,6.53 6.67,6.53 0.96,0 2.69,-0.44 2.69,-3.33 0,-1.54 -0.84,-4.89 -2.69,-11.86 -0.8,-3.09 -2.53,-5.18 -4.73,-5.18 -0.3,0 -1.44,0 -2.49,0.65 1.25,0.24 2.35,1.28 2.35,2.69 0,1.34 -1.1,1.73 -1.85,1.73 -1.5,0 -2.75,-1.29 -2.75,-2.89 0,-2.28 2.5,-3.28 4.69,-3.28 3.3,0 5.08,3.49 5.24,3.78 0.59,-1.84 2.39,-3.78 5.37,-3.78 5.14,0 7.98,6.42 7.98,7.67 0,0.5 -0.45,0.5 -0.61,0.5 -0.43,0 -0.54,-0.2 -0.64,-0.54 -1.64,-5.33 -5.03,-6.53 -6.62,-6.53 -1.95,0 -2.75,1.59 -2.75,3.29 0,1.1 0.3,2.19 0.86,4.38 z"
           inkscape:connector-curvature="0"
           style="fill:#000000;stroke-width:0" /><path
           id="path207"
           d="m 501.55,405.11 h -1.18 c -0.1,-0.77 -0.46,-2.83 -0.91,-3.18 -0.26,-0.2 -2.95,-0.2 -3.44,-0.2 h -6.42 c 3.66,3.23 4.88,4.2 6.97,5.84 2.58,2.07 4.98,4.22 4.98,7.54 0,4.21 -3.68,6.79 -8.15,6.79 -4.31,0 -7.25,-3.03 -7.25,-6.23 0,-1.78 1.5,-1.96 1.86,-1.96 0.83,0 1.84,0.6 1.84,1.85 0,0.62 -0.25,1.84 -2.06,1.84 1.08,2.47 3.45,3.24 5.09,3.24 3.49,0 5.3,-2.71 5.3,-5.53 0,-3.04 -2.16,-5.44 -3.28,-6.69 l -8.39,-8.3 c -0.36,-0.31 -0.36,-0.39 -0.36,-1.36 h 14.36 z"
           inkscape:connector-curvature="0"
           style="fill:#000000;stroke-width:0" /></g>    </g>
    <path
       style="opacity:1;fill:#ff0000;fill-opacity:1;stroke:#000000;stroke-width:0.74886596;stroke-miterlimit:4;stroke-dasharray:none;stroke-dashoffset:0;stroke-opacity:1"
       d="M 5.6423748,139.67052 V 5.0865781 H 192.19067 378.73896 V 139.67052 274.25445 H 192.19067 5.6423748 Z M 162.6008,242.46911 c 7.71643,-1.70838 18.19467,-5.30557 24.07731,-8.26578 l 4.95508,-2.49345 7.38178,3.29274 c 23.2942,10.39067 48.70382,12.20958 73.20067,5.23998 9.0135,-2.56444 24.69652,-10.45528 32.54497,-16.37486 16.259,-12.2631 29.11368,-29.71445 35.75548,-48.54115 4.23593,-12.00706 5.57652,-20.30915 5.57652,-34.53454 0,-14.22539 -1.34059,-22.52748 -5.57652,-34.53455 C 333.87429,87.430803 321.01961,69.979464 304.76061,57.716354 296.91808,51.801238 281.24397,43.913107 272.19334,41.326591 247.91665,34.38873 222.77721,36.176443 199.2961,46.510454 l -7.53299,3.315263 -6.14158,-2.840903 c -13.94511,-6.450576 -24.36275,-8.916721 -40.1614,-9.507306 -8.99226,-0.336149 -13.43214,-0.144767 -19.81374,0.854076 -44.433931,6.954759 -79.13371,41.038905 -86.713091,85.174646 -1.481813,8.62879 -1.481813,25.94285 0,34.57164 3.651073,21.26068 13.650663,40.48507 29.135813,56.01412 16.288649,16.33483 36.141418,26.0987 60.568028,29.7882 5.06445,0.76496 28.54036,-0.21039 33.96366,-1.41108 z M 32.37224,50.927866 c -1.076722,-0.281377 -1.308455,-1.20187 -1.308455,-5.197471 0,-4.68751 -0.05822,-4.837948 -1.682299,-4.347272 -2.29558,0.693553 -3.435275,1.835571 -1.831837,1.835571 1.023953,0 1.27107,0.714702 1.27107,3.676135 0,2.241316 -0.364784,3.823329 -0.93461,4.053259 -0.514036,0.207418 0.579458,0.364656 2.429988,0.349418 1.850529,-0.01524 2.775793,-0.181575 2.056143,-0.36964 z m 308.2346,-1.727664 c 0,-0.822458 -0.33646,-1.495377 -0.74769,-1.495377 -0.41123,0 -0.74769,0.33646 -0.74769,0.747688 0,0.411229 -0.69873,0.747689 -1.55274,0.747689 -1.37933,0 -1.29582,-0.216184 0.74768,-1.935686 2.9152,-2.452971 3.07526,-5.22023 0.37315,-6.451389 -1.36448,-0.621698 -2.29242,-0.649303 -3.17767,-0.09453 -1.42177,0.890999 -2.14325,3.995477 -0.92855,3.995477 0.43983,0 0.79969,-0.67292 0.79969,-1.495377 0,-0.996918 0.49846,-1.495378 1.49538,-1.495378 2.42925,0 1.8114,2.977912 -1.27328,6.136906 l -2.76865,2.835357 h 3.89018 c 3.39173,0 3.89019,-0.191606 3.89019,-1.495377 z M 23.295279,46.866281 c 0.703654,-0.77753 1.049388,-1.643672 0.768298,-1.924762 -0.281089,-0.281091 -1.046962,0.254016 -1.701937,1.189125 -1.794957,2.562659 -2.801427,0.935211 -1.776219,-2.872121 0.714889,-2.654895 1.017574,-2.9986 1.955338,-2.220325 0.788383,0.654299 1.341179,0.689155 1.909907,0.120427 1.455494,-1.455493 -0.09732,-2.340533 -4.059025,-2.313479 -4.161061,0.02841 -5.787276,0.814027 -5.760378,2.782799 0.01237,0.905003 0.385293,0.73781 1.455008,-0.652317 2.059559,-2.676459 3.235049,-1.254842 2.182452,2.639421 -0.894845,3.310639 -2.158709,5.136011 -2.158709,3.117781 0,-0.699089 -0.504689,-1.271071 -1.121532,-1.271071 -1.085741,0 -1.547872,1.567498 -0.709346,2.406024 0.226703,0.226703 2.060219,0.412187 4.074479,0.412187 2.642194,0 4.01865,-0.39377 4.941664,-1.413689 z M 330.59527,46.118592 c 0.70366,-0.777529 1.04939,-1.643672 0.76829,-1.924762 -0.28108,-0.28109 -1.04696,0.254016 -1.70193,1.189125 -1.79496,2.56266 -2.80142,0.935212 -1.77622,-2.872121 0.71489,-2.654894 1.01758,-2.9986 1.95534,-2.220324 0.78838,0.654298 1.34118,0.689155 1.90991,0.120427 1.45549,-1.455494 -0.0973,-2.340534 -4.05903,-2.31348 -4.16106,0.02841 -5.78728,0.814028 -5.76037,2.7828 0.0123,0.905002 0.38529,0.73781 1.455,-0.652318 2.05956,-2.676458 3.23505,-1.254842 2.18246,2.639422 -0.89485,3.310638 -2.15872,5.136011 -2.15872,3.11778 0,-0.699089 -0.50469,-1.27107 -1.12153,-1.27107 -1.08574,0 -1.54787,1.567497 -0.70935,2.406023 0.22671,0.226703 2.06022,0.412187 4.07449,0.412187 2.64219,0 4.01864,-0.39377 4.94166,-1.413689 z M 24.334588,35.741808 c 0,-0.411229 -1.850529,-0.747688 -4.112287,-0.747688 -2.261758,0 -4.112287,0.336459 -4.112287,0.747688 0,0.411229 1.850529,0.747689 4.112287,0.747689 2.261758,0 4.112287,-0.33646 4.112287,-0.747689 z M 331.63458,34.99412 c 0,-0.411229 -1.85053,-0.747689 -4.11229,-0.747689 -2.26176,0 -4.11229,0.33646 -4.11229,0.747689 0,0.411228 1.85053,0.747688 4.11229,0.747688 2.26176,0 4.11229,-0.33646 4.11229,-0.747688 z"
       id="path76"
       inkscape:connector-curvature="0" />
  </g>
</svg>
