<?xml version="1.0" encoding="UTF-8" standalone="no"?>
<!-- Created with Inkscape (http://www.inkscape.org/) -->

<svg
   xmlns:dc="http://purl.org/dc/elements/1.1/"
   xmlns:cc="http://creativecommons.org/ns#"
   xmlns:rdf="http://www.w3.org/1999/02/22-rdf-syntax-ns#"
   xmlns:svg="http://www.w3.org/2000/svg"
   xmlns="http://www.w3.org/2000/svg"
   xmlns:sodipodi="http://sodipodi.sourceforge.net/DTD/sodipodi-0.dtd"
   xmlns:inkscape="http://www.inkscape.org/namespaces/inkscape"
   width="175.30444mm"
   height="110.01437mm"
   viewBox="0 0 175.30444 110.01437"
   version="1.1"
   id="svg1444"
   inkscape:version="0.92.5 (2060ec1f9f, 2020-04-08)"
   sodipodi:docname="coins-counter.svg">
  <defs
     id="defs1438" />
  <sodipodi:namedview
     id="base"
     pagecolor="#ffffff"
     bordercolor="#666666"
     borderopacity="1.0"
     inkscape:pageopacity="0.0"
     inkscape:pageshadow="2"
     inkscape:zoom="0.35"
     inkscape:cx="334.14114"
     inkscape:cy="-83.527398"
     inkscape:document-units="mm"
     inkscape:current-layer="layer1"
     showgrid="false"
     fit-margin-top="0"
     fit-margin-left="0"
     fit-margin-right="0"
     fit-margin-bottom="0"
     inkscape:window-width="1516"
     inkscape:window-height="1316"
     inkscape:window-x="2960"
     inkscape:window-y="122"
     inkscape:window-maximized="0" />
  <metadata
     id="metadata1441">
    <rdf:RDF>
      <cc:Work
         rdf:about="">
        <dc:format>image/svg+xml</dc:format>
        <dc:type
           rdf:resource="http://purl.org/dc/dcmitype/StillImage" />
        <dc:title></dc:title>
      </cc:Work>
    </rdf:RDF>
  </metadata>
  <g
     inkscape:label="Layer 1"
     inkscape:groupmode="layer"
     id="layer1"
     transform="translate(-17.425157,-16.719006)">
    <path
       inkscape:connector-curvature="0"
       id="path258"
       style="fill:none;stroke:#000000;stroke-width:0.46213886;stroke-linecap:round;stroke-linejoin:round;stroke-miterlimit:10;stroke-dasharray:none;stroke-opacity:1"
       d="m 96.572916,73.5907 h 44.915664 v 38.92267 H 96.572916 Z" />
    <path
       inkscape:connector-curvature="0"
       id="path260"
       style="fill:none;stroke:#000000;stroke-width:0.49741665;stroke-linecap:round;stroke-linejoin:round;stroke-miterlimit:10;stroke-dasharray:none;stroke-opacity:1"
       d="m 141.48858,77.67939 1.92934,-0.0275 1.92652,-0.0289 1.92934,-0.0251 1.92652,-0.0275 1.92899,-0.0289 1.92652,-0.0275 1.92652,-0.0289 1.92934,-0.0233" />
    <text
       id="text268"
       style="font-variant:normal;font-weight:normal;font-size:4.23333311px;font-family:'DejaVu Sans';-inkscape-font-specification:DejaVuSans;writing-mode:lr-tb;fill:#000000;fill-opacity:1;fill-rule:nonzero;stroke:none;stroke-width:0.35277775"
       x="98.74881"
       y="80.068176">
      <tspan
         style="stroke-width:0.35277775"
         id="tspan262"
         sodipodi:role="line"
         y="80.068176"
         x="98.74881 101.64441 104.90407 108.16374 110.85616">ADD25</tspan>
      <tspan
         style="stroke-width:0.35277775"
         id="tspan264"
         sodipodi:role="line"
         y="87.338715"
         x="99.413025 102.30862 105.5683 108.82796 111.52036">ADD10</tspan>
      <tspan
         style="stroke-width:0.35277775"
         id="tspan266"
         sodipodi:role="line"
         y="94.828339"
         x="98.972061 101.86766 105.12732 108.38698">ADD5</tspan>
    </text>
    <path
       inkscape:connector-curvature="0"
       id="path270"
       style="fill:none;stroke:#000000;stroke-width:0.49741665;stroke-linecap:round;stroke-linejoin:round;stroke-miterlimit:10;stroke-dasharray:none;stroke-opacity:1"
       d="m 96.767296,78.12036 -1.8288,-0.0138 -1.82739,-0.0109 -5.48182,-0.0416 -1.82703,-0.0109 -1.82316,-0.0138 -1.8288,-0.0152 -1.82739,-0.01 -1.82703,-0.0138 -1.82739,-0.0152 -1.82739,-0.01 -1.82704,-0.0152 -1.82739,-0.0138 -1.82738,-0.0109 -3.65443,-0.0275" />
    <path
       inkscape:connector-curvature="0"
       id="path272"
       style="fill:none;stroke:#000000;stroke-width:0.49741665;stroke-linecap:round;stroke-linejoin:round;stroke-miterlimit:10;stroke-dasharray:none;stroke-opacity:1"
       d="m 96.767296,85.60983 -1.8288,-0.0138 -1.82739,-0.0109 -3.65443,-0.0275 -1.82739,-0.0109 -1.82703,-0.0138 -1.82316,-0.0138 -1.8288,-0.0113 -1.82739,-0.0138 -1.82703,-0.0152 -1.82739,-0.01 -1.82739,-0.0138 -1.82704,-0.0152 -1.82739,-0.01 -1.82738,-0.0152 -1.82704,-0.0138 -1.82739,-0.0113" />
    <path
       inkscape:connector-curvature="0"
       id="path274"
       style="fill:none;stroke:#000000;stroke-width:0.49741665;stroke-linecap:round;stroke-linejoin:round;stroke-miterlimit:10;stroke-dasharray:none;stroke-opacity:1"
       d="m 96.989186,93.54063 -1.82738,-0.0109 -3.65443,-0.0279 -1.82739,-0.0109 -1.8288,-0.0138 -1.82703,-0.0138 -1.82739,-0.0109 -3.65443,-0.0275 -1.82739,-0.0113 -1.82739,-0.0138 -1.82739,-0.0152 -1.82703,-0.01 -1.82739,-0.0152 -1.82739,-0.0138 -1.82704,-0.01 -1.8288,-0.0152" />
    <path
       inkscape:connector-curvature="0"
       id="path276"
       style="fill:none;stroke:#000000;stroke-width:0.49741665;stroke-linecap:round;stroke-linejoin:round;stroke-miterlimit:10;stroke-dasharray:none;stroke-opacity:1"
       d="m 96.790576,105.73193 1.61643,0.92886 1.615014,0.93169" />
    <path
       inkscape:connector-curvature="0"
       id="path278"
       style="fill:none;stroke:#000000;stroke-width:0.49741665;stroke-linecap:round;stroke-linejoin:round;stroke-miterlimit:10;stroke-dasharray:none;stroke-opacity:1"
       d="m 100.02202,107.59248 -3.329164,2.34809" />
    <path
       inkscape:connector-curvature="0"
       id="path280"
       style="fill:none;stroke:#000000;stroke-width:0.49741665;stroke-linecap:round;stroke-linejoin:round;stroke-miterlimit:10;stroke-dasharray:none;stroke-opacity:1"
       d="m 96.448736,107.6655 -1.91523,0.0152 -1.91559,0.0138 -1.91946,0.0138 -3.83117,0.0275 -1.91523,0.0152 -1.91558,0.0138" />
    <path
       inkscape:connector-curvature="0"
       id="path282"
       style="fill:none;stroke:#000000;stroke-width:0.49741665;stroke-linecap:round;stroke-linejoin:round;stroke-miterlimit:10;stroke-dasharray:none;stroke-opacity:1"
       d="m 83.036476,107.76463 0.0109,1.77483 0.0138,1.77376 0.0109,1.77483 0.01,1.77482 0.0152,1.77377 0.01,1.77482 0.0138,1.77483 0.0109,1.77341" />
    <text
       id="text288"
       style="font-variant:normal;font-weight:normal;font-size:4.23333311px;font-family:'DejaVu Sans';-inkscape-font-specification:DejaVuSans;writing-mode:lr-tb;fill:#000000;fill-opacity:1;fill-rule:nonzero;stroke:none;stroke-width:0.35277775"
       x="77.356155"
       y="126.67343">
      <tspan
         style="stroke-width:0.35277775"
         id="tspan284"
         sodipodi:role="line"
         y="126.67343"
         x="77.356155 80.311005 81.483643 84.070206 86.394318">Clock</tspan>
      <tspan
         style="stroke-width:0.35277775"
         id="tspan286"
         sodipodi:role="line"
         y="102.09888"
         x="98.531082 101.27852 103.882 106.08334 108.68684">Reset</tspan>
    </text>
    <path
       inkscape:connector-curvature="0"
       id="path290"
       style="fill:none;stroke:#000000;stroke-width:0.49741665;stroke-linecap:round;stroke-linejoin:round;stroke-miterlimit:10;stroke-dasharray:none;stroke-opacity:1"
       d="m 96.548216,100.81103 -1.82739,-0.0138 -1.82739,-0.0109 -3.65442,-0.0275 -1.8288,-0.0109 -3.65443,-0.0279 -1.82738,-0.0109 -1.82704,-0.0138 -1.82739,-0.0152 -1.82739,-0.01 -1.82739,-0.0138 -1.82703,-0.0152 -1.82739,-0.01 -1.82739,-0.0152 -1.82704,-0.0138 -1.8288,-0.0109" />
    <path
       inkscape:connector-curvature="0"
       id="path292"
       style="fill:none;stroke:#000000;stroke-width:0.49741665;stroke-linecap:round;stroke-linejoin:round;stroke-miterlimit:10;stroke-dasharray:none;stroke-opacity:1"
       d="m 141.84841,81.80372 1.92934,-0.0289 1.92617,-0.0233 1.92652,-0.0289 1.92934,-0.0275 1.92652,-0.0289 1.92934,-0.0275 1.92652,-0.0289 1.92934,-0.0251" />
    <path
       inkscape:connector-curvature="0"
       id="path294"
       style="fill:none;stroke:#000000;stroke-width:0.49741665;stroke-linecap:round;stroke-linejoin:round;stroke-miterlimit:10;stroke-dasharray:none;stroke-opacity:1"
       d="m 141.84136,85.87442 1.9251,-0.0275 1.93076,-0.0247 1.92651,-0.0289 1.92935,-0.0275 1.92652,-0.0289 1.92511,-0.0275 1.9304,-0.0251 1.9251,-0.0289" />
    <path
       inkscape:connector-curvature="0"
       id="path296"
       style="fill:none;stroke:#000000;stroke-width:0.49741665;stroke-linecap:round;stroke-linejoin:round;stroke-miterlimit:10;stroke-dasharray:none;stroke-opacity:1"
       d="m 141.5796,89.72746 1.92651,-0.0289 1.92935,-0.0275 1.92651,-0.0247 1.92899,-0.0289 1.92652,-0.0275 1.92652,-0.0289 1.92934,-0.0279 1.92652,-0.0247" />
    <path
       inkscape:connector-curvature="0"
       id="path298"
       style="fill:none;stroke:#000000;stroke-width:0.49741665;stroke-linecap:round;stroke-linejoin:round;stroke-miterlimit:10;stroke-dasharray:none;stroke-opacity:1"
       d="m 141.71047,97.42789 1.92652,-0.0247 1.92934,-0.0275 1.92653,-0.0289 1.92934,-0.0275 1.92616,-0.0289 1.92652,-0.0251 1.92934,-0.0275 1.92652,-0.0289" />
    <path
       inkscape:connector-curvature="0"
       id="path300"
       style="fill:none;stroke:#000000;stroke-width:0.49741665;stroke-linecap:round;stroke-linejoin:round;stroke-miterlimit:10;stroke-dasharray:none;stroke-opacity:1"
       d="m 141.84136,101.47813 1.9251,-0.0275 1.93076,-0.0289 1.92651,-0.0275 1.92935,-0.0289 1.92652,-0.0251 1.92511,-0.0275 1.9304,-0.0289 1.9251,-0.0275" />
    <path
       inkscape:connector-curvature="0"
       id="path302"
       style="fill:none;stroke:#000000;stroke-width:0.49741665;stroke-linecap:round;stroke-linejoin:round;stroke-miterlimit:10;stroke-dasharray:none;stroke-opacity:1"
       d="m 141.51362,105.71817 1.92899,-0.0247 1.92652,-0.0275 1.92934,-0.0289 1.92652,-0.0275 1.92652,-0.0289 1.92935,-0.0275 1.92651,-0.0251 1.92899,-0.0289" />
    <path
       inkscape:connector-curvature="0"
       id="path304"
       style="fill:none;stroke:#000000;stroke-width:0.49741665;stroke-linecap:round;stroke-linejoin:round;stroke-miterlimit:10;stroke-dasharray:none;stroke-opacity:1"
       d="m 141.84136,109.70068 1.9251,-0.0275 1.93076,-0.0289 1.92651,-0.0233 1.92935,-0.0289 1.92652,-0.0275 1.92511,-0.0289 1.9304,-0.0275 1.9251,-0.0251" />
    <path
       inkscape:connector-curvature="0"
       id="path306"
       style="fill:none;stroke:#000000;stroke-width:0.49741665;stroke-linecap:round;stroke-linejoin:round;stroke-miterlimit:10;stroke-dasharray:none;stroke-opacity:1"
       d="m 17.677336,43.75346 1.76671,0.3623 1.76813,0.36795 1.76812,0.36654 1.77059,0.36406 1.76671,0.36654 1.76812,0.36371 1.76636,0.36654 1.76812,0.3623 1.76813,0.36795 1.76671,0.36653 1.76777,0.36407 1.76671,0.36653 1.77094,0.36372 1.76777,0.36653 1.76671,0.36231 1.76812,0.36794 1.76813,0.36654 1.76671,0.36407 1.76777,0.36653 1.76671,0.36372 1.76812,0.36653 1.77059,0.36231 1.76671,0.36794 1.76812,0.36654 1.76813,0.36407 1.76636,0.36653 1.76812,0.36372 1.76671,0.36653 1.76812,0.36231 1.76636,0.36794 1.77235,0.36654 1.76672,0.36407 1.76777,0.36653 1.76671,0.36372 1.76812,0.36653 1.76671,0.36231 1.76777,0.36794 1.76671,0.36654 1.77236,0.36407 1.76671,0.36653 1.76777,0.36372" />
    <path
       inkscape:connector-curvature="0"
       id="path308"
       style="fill:none;stroke:#000000;stroke-width:0.49741665;stroke-linecap:round;stroke-linejoin:round;stroke-miterlimit:10;stroke-dasharray:none;stroke-opacity:1"
       d="m 20.210286,23.81446 1.76812,0.36653 1.76671,0.36407 1.77059,0.36654 1.76812,0.3623 1.76672,0.36795 1.76777,0.36653 1.76671,0.36372 1.76812,0.36653 1.76812,0.36407 1.76636,0.36654 1.76812,0.3623 1.77095,0.36795 1.76635,0.36653 1.76812,0.36372 1.76813,0.36653 1.76671,0.36407 1.76777,0.36654 1.76671,0.36653 1.76812,0.36372 1.77059,0.36653 1.76671,0.36372 1.76813,0.36653 1.76812,0.36407 1.76671,0.36653 1.76777,0.36654 1.76671,0.36371 1.76812,0.36654 1.76671,0.36371 1.77059,0.36654 1.76813,0.36407 1.76812,0.36653 1.76636,0.36654 1.76812,0.36371 1.76671,0.36654 1.76812,0.36371 1.76636,0.36654 1.76812,0.36407 1.77095,0.36653 1.76777,0.36654 1.76671,0.36371 1.76812,0.36654" />
    <path
       inkscape:connector-curvature="0"
       id="path310"
       style="fill:none;stroke:#000000;stroke-width:0.49741665;stroke-linecap:round;stroke-linejoin:round;stroke-miterlimit:10;stroke-dasharray:none;stroke-opacity:1"
       d="m 42.672346,37.67757 -0.0716,1.11477 -0.2039,1.09855 -0.33902,1.06504 -0.46602,1.01141 -0.58843,0.94968 -0.6985,0.87101 -0.80081,0.77717 -0.89288,0.67381 -0.96591,0.55668 -1.03081,0.43674 -1.07209,0.3048 -1.10526,0.17215 -1.11336,0.0356 -1.11196,-0.10583 -1.0929,-0.23707 -1.05163,-0.36936 -0.99907,-0.50165 -0.93133,-0.61312 -0.8502,-0.72778 -0.75106,-0.8255 -0.64488,-0.91334 -0.52917,-0.98143 -0.40252,-1.04317 -0.27164,-1.08302 -0.13758,-1.10808 v -1.11478 l 0.13758,-1.10772 0.27164,-1.08338 0.40252,-1.04034 0.52917,-0.9839 0.64487,-0.91369 0.75107,-0.8255 0.85019,-0.72743 0.93133,-0.61348 0.99907,-0.49742 1.05163,-0.37324 1.09291,-0.23706 1.11195,-0.10619 1.11337,0.036 1.10525,0.17216 1.07209,0.30303 1.03082,0.43815 0.96591,0.55704 0.89288,0.6738 0.8008,0.77717 0.6985,0.87101 0.58844,0.94792 0.46601,1.01282 0.33902,1.06539 0.20391,1.09678 0.0716,1.11478" />
    <text
       id="text314"
       style="font-variant:normal;font-weight:normal;font-size:6.75548744px;font-family:'DejaVu Sans';-inkscape-font-specification:DejaVuSans;writing-mode:lr-tb;fill:#000000;fill-opacity:1;fill-rule:nonzero;stroke:none;stroke-width:0.35277775"
       x="35.827599"
       y="21.851593">
      <tspan
         style="stroke-width:0.35277775"
         id="tspan312"
         sodipodi:role="line"
         y="21.851593"
         x="35.827599 40.542923 44.670532 46.541794 50.818024 54.330872 56.472366 59.10025 63.227844 65.099121 66.970383 69.111877 73.394852 77.522461 83.041687 87.317917 89.459396 92.97226 94.843521 98.97113">Coins roll down slot</tspan>
    </text>
    <path
       inkscape:connector-curvature="0"
       id="path318"
       style="fill:none;stroke:#000000;stroke-width:0.21872222;stroke-linecap:round;stroke-linejoin:round;stroke-miterlimit:10;stroke-dasharray:none;stroke-opacity:1"
       d="m 55.004406,33.6813 -0.0815,0.45473 -0.24236,0.41346 -0.375,0.32385 -0.47237,0.21237 -0.52529,0.0702 -0.52634,-0.0702 -0.47273,-0.21237 -0.37606,-0.32385 -0.2413,-0.41346 -0.084,-0.45473 0.084,-0.45473 0.2413,-0.41346 0.37606,-0.32385 0.47273,-0.21202 0.52634,-0.0705 0.52529,0.0705 0.47237,0.21202 0.375,0.32385 0.24236,0.41346 0.0815,0.45473" />
    <path
       inkscape:connector-curvature="0"
       id="path320"
       style="fill:none;stroke:#000000;stroke-width:0.21872222;stroke-linecap:round;stroke-linejoin:round;stroke-miterlimit:10;stroke-dasharray:none;stroke-opacity:1"
       d="m 54.345766,36.48976 -0.0854,0.45897 -0.23989,0.40781 -0.37359,0.32949 -0.4766,0.20814 -0.52529,0.073 -0.52211,-0.073 -0.47695,-0.20814 -0.37324,-0.32949 -0.24413,-0.40781 -0.0811,-0.45897 0.0811,-0.45614 0.24413,-0.41204 0.37324,-0.32526 0.47695,-0.21061 0.52211,-0.0706 0.52529,0.0706 0.4766,0.21061 0.37359,0.32526 0.23989,0.41204 0.0854,0.45614" />
    <path
       inkscape:connector-curvature="0"
       id="path322"
       style="fill:none;stroke:#000000;stroke-width:0.21872222;stroke-linecap:round;stroke-linejoin:round;stroke-miterlimit:10;stroke-dasharray:none;stroke-opacity:1"
       d="m 53.685716,39.1356 -0.0857,0.45473 -0.23953,0.41204 -0.37783,0.32526 -0.47237,0.20814 -0.52528,0.0744 -0.52635,-0.0744 -0.47272,-0.20814 -0.37606,-0.32526 -0.2413,-0.41204 -0.084,-0.45473 0.084,-0.45897 0.2413,-0.40922 0.37606,-0.32808 0.47272,-0.20779 0.52635,-0.0744 0.52528,0.0744 0.47237,0.20779 0.37783,0.32808 0.23953,0.40922 0.0857,0.45897" />
    <text
       id="text326"
       style="font-variant:normal;font-weight:normal;font-size:5.47150087px;font-family:'DejaVu Sans';-inkscape-font-specification:DejaVuSans;writing-mode:lr-tb;fill:#000000;fill-opacity:1;fill-rule:nonzero;stroke:none;stroke-width:0.35277775"
       x="78.701111"
       y="68.990143">
      <tspan
         style="stroke-width:0.35277775"
         id="tspan324"
         sodipodi:role="line"
         y="68.990143"
         x="78.701111 82.170044 85.535019 89.003952 92.467407 95.832367 99.295837 101.44067 102.95627 106.30482 107.82043 109.5549 113.37401 114.8896 117.01804 120.0219 123.48534 125.63017 127.36464 130.83356 134.19853 137.662 141.02696 143.27576 146.62431 148.76913 152.13411 154.97929 156.71376 158.8586 162.20168 164.3465 167.69505">Sequential Circut generates total</tspan>
    </text>
    <text
       id="text336"
       style="font-variant:normal;font-weight:normal;font-size:4.23333311px;font-family:'DejaVu Sans';-inkscape-font-specification:DejaVuSans;writing-mode:lr-tb;fill:#000000;fill-opacity:1;fill-rule:nonzero;stroke:none;stroke-width:0.35277775"
       x="165.61536"
       y="87.338715">
      <tspan
         style="stroke-width:0.35277775"
         id="tspan328"
         sodipodi:role="line"
         y="87.338715"
         x="165.61536 168.44322 171.39809 174.65776 175.99971 177.65919 180.24574 181.58772 184.28014 185.62209 187.82341 190.4269">BCD to 7 seg</tspan>
      <tspan
         style="stroke-width:0.35277775"
         id="tspan330"
         sodipodi:role="line"
         y="92.266571"
         x="165.61536 173.66716 176.25795 178.93767">and</tspan>
      <tspan
         style="stroke-width:0.35277775"
         id="tspan332"
         sodipodi:role="line"
         y="97.194458"
         x="165.61536 168.30774 169.83174 172.0331 174.63658 177.32051 181.44377 184.04729 186.72701 188.38646">7-segment</tspan>
      <tspan
         style="stroke-width:0.35277775"
         id="tspan334"
         sodipodi:role="line"
         y="102.12231"
         x="168.29929 170.98323 172.15587 174.35719 177.04112 178.21376 180.80455 183.30647">displays</tspan>
    </text>
    <path
       inkscape:connector-curvature="0"
       id="path338"
       style="fill:none;stroke:#000000;stroke-width:0.49741665;stroke-linecap:round;stroke-linejoin:round;stroke-miterlimit:10;stroke-dasharray:none;stroke-opacity:1"
       d="m 57.883066,36.48306 1.76813,-0.23989 1.76671,-0.24412 1.76389,-0.23954 1.76776,-0.24412 1.76671,-0.23953 1.76813,-0.24413 1.76812,-0.23953 1.76389,-0.24271 1.76636,-0.23989 1.76812,-0.24377 1.76671,-0.23989 1.76389,-0.23954 1.76812,-0.24412 1.76636,-0.23954 1.76812,-0.24412 1.76812,-0.23989 1.76389,-0.24235 1.76671,-0.23989 1.76777,-0.24377 1.76671,-0.23989 1.76813,-0.24377 1.76389,-0.23989 1.76671,-0.23989 1.767774,-0.24236 1.76671,-0.2413 1.76812,-0.24236" />
    <path
       inkscape:connector-curvature="0"
       id="path340"
       style="fill:none;stroke:#000000;stroke-width:0.49741665;stroke-linecap:round;stroke-linejoin:round;stroke-miterlimit:10;stroke-dasharray:none;stroke-opacity:1"
       d="m 57.848496,36.43332 2.74108,-1.66617" />
    <path
       inkscape:connector-curvature="0"
       id="path342"
       style="fill:none;stroke:#000000;stroke-width:0.49741665;stroke-linecap:round;stroke-linejoin:round;stroke-miterlimit:10;stroke-dasharray:none;stroke-opacity:1"
       d="m 57.848496,36.43332 2.93546,1.27317" />
    <text
       id="text348"
       style="font-variant:normal;font-weight:normal;font-size:4.23333311px;font-family:'DejaVu Sans';-inkscape-font-specification:DejaVuSans;writing-mode:lr-tb;fill:#000000;fill-opacity:1;fill-rule:nonzero;stroke:none;stroke-width:0.35277775"
       x="107.19481"
       y="32.040802">
      <tspan
         style="stroke-width:0.35277775"
         id="tspan344"
         sodipodi:role="line"
         y="32.040802"
         x="107.19481 109.77715 112.45683 114.10361 116.70711 119.31059 120.65257 122.85391 125.45741 128.1371 130.33844 132.925 134.66492 136.86624 138.20821 140.799 142.45847 143.80045 147.13206 149.81177 152.40256 154.14246 155.80193 158.40544 160.14532 161.48729">Three sensors at Quarter,</tspan>
      <tspan
         style="stroke-width:0.35277775"
         id="tspan346"
         sodipodi:role="line"
         y="36.968658"
         x="107.19481 110.36133 111.53397 113.85808 116.15677 118.76027 119.93289 121.27487 123.86568 126.54538 129.22929 130.57127 133.83093 135.00357 139.12685 141.73035 143.0723 145.752 148.3555 149.52814 152.21207 154.89177">Nickel and Dime height</tspan>
    </text>
    <path
       inkscape:connector-curvature="0"
       id="path350"
       style="fill:none;stroke:#000000;stroke-width:0.49741665;stroke-linecap:round;stroke-linejoin:round;stroke-miterlimit:10;stroke-dasharray:none;stroke-opacity:1"
       d="m 65.680166,76.38117 h 3.13231" />
    <path
       inkscape:connector-curvature="0"
       id="path352"
       style="fill:none;stroke:#000000;stroke-width:0.49741665;stroke-linecap:round;stroke-linejoin:round;stroke-miterlimit:10;stroke-dasharray:none;stroke-opacity:1"
       d="m 69.105986,72.56411 h 3.13478" />
    <path
       inkscape:connector-curvature="0"
       id="path354"
       style="fill:none;stroke:#000000;stroke-width:0.49741665;stroke-linecap:round;stroke-linejoin:round;stroke-miterlimit:10;stroke-dasharray:none;stroke-opacity:1"
       d="m 72.826386,76.38117 h 3.13372" />
    <path
       inkscape:connector-curvature="0"
       id="path356"
       style="fill:none;stroke:#000000;stroke-width:0.49741665;stroke-linecap:round;stroke-linejoin:round;stroke-miterlimit:10;stroke-dasharray:none;stroke-opacity:1"
       d="M 68.812476,76.18679 V 72.66324" />
    <path
       inkscape:connector-curvature="0"
       id="path358"
       style="fill:none;stroke:#000000;stroke-width:0.49741665;stroke-linecap:round;stroke-linejoin:round;stroke-miterlimit:10;stroke-dasharray:none;stroke-opacity:1"
       d="M 72.534286,76.28345 V 72.75849" />
    <path
       inkscape:connector-curvature="0"
       id="path360"
       style="fill:none;stroke:#000000;stroke-width:0.49741665;stroke-linecap:round;stroke-linejoin:round;stroke-miterlimit:10;stroke-dasharray:none;stroke-opacity:1"
       d="m 65.680166,83.87099 h 3.13231" />
    <path
       inkscape:connector-curvature="0"
       id="path362"
       style="fill:none;stroke:#000000;stroke-width:0.49741665;stroke-linecap:round;stroke-linejoin:round;stroke-miterlimit:10;stroke-dasharray:none;stroke-opacity:1"
       d="m 69.105986,80.05358 h 3.13478" />
    <path
       inkscape:connector-curvature="0"
       id="path364"
       style="fill:none;stroke:#000000;stroke-width:0.49741665;stroke-linecap:round;stroke-linejoin:round;stroke-miterlimit:10;stroke-dasharray:none;stroke-opacity:1"
       d="m 72.826386,83.87099 h 3.13372" />
    <path
       inkscape:connector-curvature="0"
       id="path366"
       style="fill:none;stroke:#000000;stroke-width:0.49741665;stroke-linecap:round;stroke-linejoin:round;stroke-miterlimit:10;stroke-dasharray:none;stroke-opacity:1"
       d="M 68.812476,83.67661 V 80.15307" />
    <path
       inkscape:connector-curvature="0"
       id="path368"
       style="fill:none;stroke:#000000;stroke-width:0.49741665;stroke-linecap:round;stroke-linejoin:round;stroke-miterlimit:10;stroke-dasharray:none;stroke-opacity:1"
       d="M 72.534286,83.77574 V 80.2522" />
    <path
       inkscape:connector-curvature="0"
       id="path370"
       style="fill:none;stroke:#000000;stroke-width:0.49741665;stroke-linecap:round;stroke-linejoin:round;stroke-miterlimit:10;stroke-dasharray:none;stroke-opacity:1"
       d="m 65.874196,92.1969 h 3.13513" />
    <path
       inkscape:connector-curvature="0"
       id="path372"
       style="fill:none;stroke:#000000;stroke-width:0.49741665;stroke-linecap:round;stroke-linejoin:round;stroke-miterlimit:10;stroke-dasharray:none;stroke-opacity:1"
       d="m 69.302836,88.37561 h 3.13232" />
    <path
       inkscape:connector-curvature="0"
       id="path374"
       style="fill:none;stroke:#000000;stroke-width:0.49741665;stroke-linecap:round;stroke-linejoin:round;stroke-miterlimit:10;stroke-dasharray:none;stroke-opacity:1"
       d="m 73.024996,92.1969 h 3.13231" />
    <path
       inkscape:connector-curvature="0"
       id="path376"
       style="fill:none;stroke:#000000;stroke-width:0.49741665;stroke-linecap:round;stroke-linejoin:round;stroke-miterlimit:10;stroke-dasharray:none;stroke-opacity:1"
       d="m 69.009326,91.99864 v -3.5239" />
    <path
       inkscape:connector-curvature="0"
       id="path378"
       style="fill:none;stroke:#000000;stroke-width:0.49741665;stroke-linecap:round;stroke-linejoin:round;stroke-miterlimit:10;stroke-dasharray:none;stroke-opacity:1"
       d="M 72.728666,92.09777 V 88.57423" />
  </g>
</svg>
