<?xml version="1.0" encoding="UTF-8" standalone="no"?>
<!-- Created with Inkscape (http://www.inkscape.org/) -->

<svg
   xmlns:dc="http://purl.org/dc/elements/1.1/"
   xmlns:cc="http://creativecommons.org/ns#"
   xmlns:rdf="http://www.w3.org/1999/02/22-rdf-syntax-ns#"
   xmlns:svg="http://www.w3.org/2000/svg"
   xmlns="http://www.w3.org/2000/svg"
   xmlns:sodipodi="http://sodipodi.sourceforge.net/DTD/sodipodi-0.dtd"
   xmlns:inkscape="http://www.inkscape.org/namespaces/inkscape"
   width="187.48488mm"
   height="81.781113mm"
   viewBox="0 0 187.48488 81.781113"
   version="1.1"
   id="svg1105"
   inkscape:version="0.92.5 (2060ec1f9f, 2020-04-08)"
   sodipodi:docname="counter.svg">
  <defs
     id="defs1099" />
  <sodipodi:namedview
     id="base"
     pagecolor="#ffffff"
     bordercolor="#666666"
     borderopacity="1.0"
     inkscape:pageopacity="0.0"
     inkscape:pageshadow="2"
     inkscape:zoom="1.4"
     inkscape:cx="337.36714"
     inkscape:cy="-51.971453"
     inkscape:document-units="mm"
     inkscape:current-layer="layer1"
     showgrid="false"
     fit-margin-top="0"
     fit-margin-left="0"
     fit-margin-right="0"
     fit-margin-bottom="0"
     inkscape:window-width="1036"
     inkscape:window-height="1356"
     inkscape:window-x="1920"
     inkscape:window-y="82"
     inkscape:window-maximized="0" />
  <metadata
     id="metadata1102">
    <rdf:RDF>
      <cc:Work
         rdf:about="">
        <dc:format>image/svg+xml</dc:format>
        <dc:type
           rdf:resource="http://purl.org/dc/dcmitype/StillImage" />
        <dc:title />
      </cc:Work>
    </rdf:RDF>
  </metadata>
  <g
     inkscape:label="Layer 1"
     inkscape:groupmode="layer"
     id="layer1"
     transform="translate(282.73053,214.84889)">
    <path
       inkscape:connector-curvature="0"
       id="path20"
       style="fill:none;stroke:#000000;stroke-width:0.40569443;stroke-linecap:round;stroke-linejoin:round;stroke-miterlimit:10;stroke-dasharray:none;stroke-opacity:1"
       d="m -218.25969,-200.4739 h 16.84937 v 33.44756 h -16.84937 z" />
    <path
       inkscape:connector-curvature="0"
       id="path22"
       style="fill:none;stroke:#000000;stroke-width:0.40569443;stroke-linecap:round;stroke-linejoin:round;stroke-miterlimit:10;stroke-dasharray:none;stroke-opacity:1"
       d="m -183.67371,-199.81386 h 16.84938 v 33.44651 h -16.84938 z" />
    <path
       inkscape:connector-curvature="0"
       id="path24"
       style="fill:none;stroke:#000000;stroke-width:0.58913881;stroke-linecap:round;stroke-linejoin:round;stroke-miterlimit:10;stroke-dasharray:none;stroke-opacity:1"
       d="m -134.75049,-206.10036 h 25.66176 v 46.34054 h -25.66176 z" />
    <path
       inkscape:connector-curvature="0"
       id="path26"
       style="fill:none;stroke:#000000;stroke-width:0.28222221;stroke-linecap:round;stroke-linejoin:round;stroke-miterlimit:10;stroke-dasharray:none;stroke-opacity:1"
       d="m -282.58942,-184.27788 h 16.84937 v 16.32691 h -16.84937 z" />
    <path
       inkscape:connector-curvature="0"
       id="path28"
       style="fill:none;stroke:#000000;stroke-width:0.49741665;stroke-linecap:round;stroke-linejoin:round;stroke-miterlimit:10;stroke-dasharray:none;stroke-opacity:1"
       d="m -218.25546,-177.59556 1.61502,0.92745 1.61643,0.93134" />
    <path
       inkscape:connector-curvature="0"
       id="path30"
       style="fill:none;stroke:#000000;stroke-width:0.49741665;stroke-linecap:round;stroke-linejoin:round;stroke-miterlimit:10;stroke-dasharray:none;stroke-opacity:1"
       d="m -215.02401,-175.73677 -1.66617,1.17404 -1.66476,1.17546" />
    <path
       inkscape:connector-curvature="0"
       id="path32"
       style="fill:none;stroke:#000000;stroke-width:0.49741665;stroke-linecap:round;stroke-linejoin:round;stroke-miterlimit:10;stroke-dasharray:none;stroke-opacity:1"
       d="m -240.47375,-180.46329 -0.018,1.8863 -0.0177,1.88807 -0.018,1.88665 -0.0166,1.88349 -0.0222,1.88806" />
    <path
       inkscape:connector-curvature="0"
       id="path34"
       style="fill:none;stroke:#000000;stroke-width:0.49741665;stroke-linecap:round;stroke-linejoin:round;stroke-miterlimit:10;stroke-dasharray:none;stroke-opacity:1"
       d="m -240.31924,-180.44001 1.98685,0.0332 1.98578,0.0275 1.99002,0.0318" />
    <path
       inkscape:connector-curvature="0"
       id="path36"
       style="fill:none;stroke:#000000;stroke-width:0.49741665;stroke-linecap:round;stroke-linejoin:round;stroke-miterlimit:10;stroke-dasharray:none;stroke-opacity:1"
       d="m -240.58664,-171.11468 1.98578,0.0275 1.98579,0.0318 1.98967,0.0289" />
    <path
       inkscape:connector-curvature="0"
       id="path38"
       style="fill:none;stroke:#000000;stroke-width:0.49741665;stroke-linecap:round;stroke-linejoin:round;stroke-miterlimit:10;stroke-dasharray:none;stroke-opacity:1"
       d="m -234.43102,-180.35463 -0.0109,0.0317 v 0.0317" />
    <path
       inkscape:connector-curvature="0"
       id="path40"
       style="fill:none;stroke:#000000;stroke-width:0.49741665;stroke-linecap:round;stroke-linejoin:round;stroke-miterlimit:10;stroke-dasharray:none;stroke-opacity:1"
       d="m -234.36752,-180.40014 -0.0275,-0.0177 -0.054,-0.0138 h -0.0564 l 0.0564,-0.018 h 0.23706 l 0.0635,-0.007 h 0.43392 l 0.0564,0.0138 0.0346,0.0113 0.0564,0.0138 0.036,0.0109 h 0.0522 l 0.0564,0.0205 0.0455,0.0113 0.036,0.007 0.0744,0.0166 0.0455,0.0247 0.0427,0.0152 0.0275,0.0166 0.0356,0.0251 0.0635,0.007 0.0388,0.018 0.0247,0.0247 0.0385,0.007 0.0289,0.018 0.0413,0.0314 0.0402,0.018 0.0522,0.0247 0.0744,0.0251 0.0346,0.0138 0.0356,0.018 0.0388,0.0138 0.0356,0.0247 0.0346,0.0109 0.0384,0.007 h 0.036 l 0.0455,0.018 0.0469,0.0247 0.0522,0.007 0.036,0.0251 0.0385,0.0233 h 0.0702 l 0.0388,0.018 0.0632,0.0318 0.0455,0.0317 0.018,0.0247 0.0356,0.018 0.0279,0.0247 0.0466,0.007 0.0346,0.007 0.036,0.0317 0.0275,0.0247 0.0536,0.0251 0.0275,0.0176 0.0565,0.0251 0.0427,0.0247 0.0388,0.018 0.0455,0.0233 0.0247,0.0152 0.0564,0.0247 0.036,0.0317 0.0564,0.0346 0.0247,0.0152 0.0455,0.0346 0.036,0.0138 0.0564,0.0494 0.0166,0.0251 0.0289,0.0314 0.018,0.0251 0.0162,0.0247 0.0289,0.0247 0.018,0.0497 0.0526,0.0564 0.0289,0.0497 0.0455,0.0565 0.0342,0.0593 0.018,0.0385 0.0469,0.0427 0.0385,0.0565 0.0346,0.0497 0.0356,0.0385 0.0388,0.0497 0.0247,0.0247 0.0275,0.0251 0.036,0.048 0.0109,0.043 0.0275,0.0385 0.018,0.0356 0.0247,0.0251 0.0275,0.0138 0.0289,0.0247 0.018,0.0318 0.0346,0.0427 0.0289,0.0413 0.0275,0.0402 0.018,0.0314 0.0289,0.0346 0.0233,0.0247 0.0289,0.0388 0.018,0.0247 0.018,0.0427 0.0204,0.0497 0.0251,0.0385 0.0275,0.0427 0.018,0.0318 0.0289,0.0413 0.0166,0.0317 0.0289,0.0427 0.007,0.0455 0.0208,0.0247 0.007,0.043 0.018,0.0314 0.018,0.036 0.0204,0.0318 0.0251,0.0317 0.018,0.0494 0.0289,0.0635 0.0162,0.0413 0.0222,0.0497 0.0247,0.0427 0.0275,0.0564 0.018,0.0565 0.036,0.0497 0.0385,0.0494 0.018,0.0251 0.0275,0.0317 0.007,0.048 0.0109,0.0318 0.007,0.0427 0.018,0.0388 0.0275,0.0494 0.018,0.036 0.0208,0.0632 0.007,0.0497 0.0289,0.0318 0.0275,0.0497 0.0251,0.0314 0.0289,0.0346 0.0109,0.0318 0.0166,0.0247 0.007,0.0635 0.0113,0.0356 0.007,0.0497 0.0109,0.0564 0.018,0.0497 0.01,0.055 0.008,0.0427 0.01,0.0317 0.007,0.0497 0.0109,0.0494 v 0.0455 l 0.0109,0.0854 0.007,0.073 0.01,0.072 v 0.073 l 0.008,0.0674 v 0.2286 l 0.009,0.0317 0.018,0.0564 v 0.23036 l -0.007,0.0318 v 0.0427 l -0.0109,0.048 -0.01,0.0402 -0.008,0.048 -0.0166,0.0568 -0.0219,0.0494 -0.0166,0.0497 -0.008,0.0564 -0.0162,0.0607 -0.0289,0.0483 -0.0113,0.0314 -0.0166,0.0318 -0.0177,0.0497 -0.018,0.0318 -0.0275,0.0427 -0.018,0.0317 -0.036,0.0565 -0.0109,0.0356 v 0.0317 l -0.007,0.0318 -0.0455,0.091 -0.0113,0.0318 -0.0162,0.0631 -0.0113,0.036 -0.0247,0.0635 -0.0109,0.0356 -0.0166,0.0318 -0.0289,0.0497 -0.018,0.0318 -0.01,0.0314 -0.018,0.0346 -0.0247,0.0469 -0.0289,0.0346 -0.0279,0.0564 -0.0356,0.0494 -0.0275,0.0497 -0.0109,0.0384 -0.018,0.0251 -0.0166,0.0247 -0.0289,0.0247 -0.018,0.0413 -0.0247,0.0497 -0.0388,0.0318 -0.0177,0.0247 -0.0346,0.0318 -0.018,0.0247 -0.0385,0.0497 -0.018,0.0318 -0.036,0.0427 -0.0275,0.0138 -0.0289,0.0247 -0.0166,0.0251 -0.0247,0.0427 -0.0289,0.048 -0.0275,0.0251 -0.0289,0.0318 -0.0247,0.0314 -0.0166,0.0251 -0.0289,0.0247 -0.018,0.0247 -0.0275,0.0251 -0.036,0.007 -0.0384,0.0497 -0.0247,0.0427 -0.0388,0.0318 -0.018,0.0247 -0.0522,0.0317 -0.0289,0.0247 -0.018,0.0251 -0.0166,0.0247 -0.0219,0.0233 -0.0166,0.0317 -0.0247,0.036 -0.0289,0.0247 -0.018,0.0247 -0.0455,0.0251 -0.036,0.0138 -0.0275,0.0177 -0.0289,0.0251 -0.0275,0.0138 -0.0247,0.0247 -0.0564,0.0427 -0.0279,0.0166 -0.0427,0.0152 -0.0384,0.018 -0.0469,0.0317 -0.0635,0.0318 -0.0522,0.0247 -0.0564,0.0346 -0.036,0.0247 -0.0275,0.0247 -0.0356,0.0317 -0.0526,0.0138 -0.0455,0.0247 -0.0356,0.018 -0.0388,0.018 -0.0356,0.0247 -0.0275,0.0138 -0.0455,0.036 -0.0251,0.0138 -0.0564,0.007 -0.0716,0.0251 -0.0384,0.01 -0.0635,0.008 -0.0635,0.007 -0.0702,0.01 -0.0635,0.0152 -0.0564,0.0166 -0.0522,0.008 -0.0399,0.01 -0.0251,0.0138 -0.0385,0.0109 -0.0702,0.007 -0.0564,0.007 h -0.0524 l -0.0469,0.018 -0.0275,0.0138 -0.0522,0.018 -0.0469,0.007 -0.0565,0.0109 h -0.1337 l -0.0388,0.007 -0.0356,0.007 -0.0346,0.0109 -0.0289,0.0138 -0.0342,0.018 -0.0289,0.018 -0.0346,0.0247 -0.0649,0.007 -0.0275,0.0247 -0.0635,0.0247 -0.0289,0.0251 -0.0522,0.0247 -0.0564,0.007 -0.0247,0.0251 -0.0568,0.0384 -0.0275,0.0247 -0.0247,0.0251 -0.0564,0.0166 -0.0251,0.0177 -0.0385,0.007 -0.0247,0.0247 -0.0289,0.0317 -0.0388,0.0247 -0.0342,0.007 -0.036,0.0109 h -0.0356 l -0.0388,0.007 -0.0631,0.007 h -0.0526 l -0.0385,-0.007 h -0.036 l -0.0522,-0.018 h -0.0402 l -0.0342,-0.007 -0.036,-0.007 -0.0342,-0.007 -0.0568,-0.0177 -0.0632,-0.018 h -0.0815 l -0.0564,0.0109 h -0.0635 l -0.0536,-0.0109 -0.0455,0.0109" />
    <path
       inkscape:connector-curvature="0"
       id="path42"
       style="fill:none;stroke:#000000;stroke-width:0.49741665;stroke-linecap:round;stroke-linejoin:round;stroke-miterlimit:10;stroke-dasharray:none;stroke-opacity:1"
       d="m -229.1323,-175.49688 1.77482,-0.007 1.77765,-0.007 1.77483,-0.007 1.77764,-0.007 1.77483,-0.008 1.77764,-0.007" />
    <path
       inkscape:connector-curvature="0"
       id="path44"
       style="fill:none;stroke:#000000;stroke-width:0.49741665;stroke-linecap:round;stroke-linejoin:round;stroke-miterlimit:10;stroke-dasharray:none;stroke-opacity:1"
       d="m -265.66279,-177.73773 1.80234,-0.01 1.80375,-0.0138 1.8027,-0.0152 1.7981,-0.01 1.80411,-0.0152 1.80234,-0.0138 1.79846,-0.0113 1.80234,-0.0138 1.80376,-0.0138 1.80269,-0.0109 1.79811,-0.0138 1.80411,-0.0138 1.80234,-0.0109 1.79846,-0.0141" />
    <path
       inkscape:connector-curvature="0"
       id="path46"
       style="fill:none;stroke:#000000;stroke-width:0.49741665;stroke-linecap:round;stroke-linejoin:round;stroke-miterlimit:10;stroke-dasharray:none;stroke-opacity:1"
       d="m -240.65438,-173.84588 -1.85208,0.004 -1.84785,0.007 -1.85208,0.003 -1.84926,0.007 -1.84785,0.004" />
    <path
       inkscape:connector-curvature="0"
       id="path48"
       style="fill:none;stroke:#000000;stroke-width:0.49741665;stroke-linecap:round;stroke-linejoin:round;stroke-miterlimit:10;stroke-dasharray:none;stroke-opacity:1"
       d="m -260.36019,-156.54602 1.81363,0.63924 1.81328,0.63535" />
    <path
       inkscape:connector-curvature="0"
       id="path50"
       style="fill:none;stroke:#000000;stroke-width:0.49741665;stroke-linecap:round;stroke-linejoin:round;stroke-miterlimit:10;stroke-dasharray:none;stroke-opacity:1"
       d="m -256.87792,-155.03577 -1.76812,1.11477 -1.76636,1.11901" />
    <path
       inkscape:connector-curvature="0"
       id="path52"
       style="fill:none;stroke:#000000;stroke-width:0.49741665;stroke-linecap:round;stroke-linejoin:round;stroke-miterlimit:10;stroke-dasharray:none;stroke-opacity:1"
       d="m -260.36019,-152.69051 1.81363,0.63959 1.81328,0.63782" />
    <path
       inkscape:connector-curvature="0"
       id="path54"
       style="fill:none;stroke:#000000;stroke-width:0.49741665;stroke-linecap:round;stroke-linejoin:round;stroke-miterlimit:10;stroke-dasharray:none;stroke-opacity:1"
       d="m -256.66978,-151.45579 -1.76812,1.11478 -1.76671,1.11901" />
    <path
       inkscape:connector-curvature="0"
       id="path56"
       style="fill:none;stroke:#000000;stroke-width:0.49741665;stroke-linecap:round;stroke-linejoin:round;stroke-miterlimit:10;stroke-dasharray:none;stroke-opacity:1"
       d="m -260.14782,-149.10876 1.81187,0.63783 1.81081,0.63535" />
    <path
       inkscape:connector-curvature="0"
       id="path58"
       style="fill:none;stroke:#000000;stroke-width:0.49741665;stroke-linecap:round;stroke-linejoin:round;stroke-miterlimit:10;stroke-dasharray:none;stroke-opacity:1"
       d="m -251.6427,-161.72762 v 0" />
    <path
       inkscape:connector-curvature="0"
       id="path60"
       style="fill:none;stroke:#000000;stroke-width:0.49741665;stroke-linecap:round;stroke-linejoin:round;stroke-miterlimit:10;stroke-dasharray:none;stroke-opacity:1"
       d="m -260.4759,-156.66878 2.15124,-1.40441" />
    <path
       inkscape:connector-curvature="0"
       id="path62"
       style="fill:none;stroke:#000000;stroke-width:0.49741665;stroke-linecap:round;stroke-linejoin:round;stroke-miterlimit:10;stroke-dasharray:none;stroke-opacity:1"
       d="m -256.57876,-147.75832 -2.26131,1.54199" />
    <path
       inkscape:connector-curvature="0"
       id="path64"
       style="fill:none;stroke:#000000;stroke-width:0.49741665;stroke-linecap:round;stroke-linejoin:round;stroke-miterlimit:10;stroke-dasharray:none;stroke-opacity:1"
       d="m -258.94202,-145.95598 0.11959,3.29636" />
    <path
       inkscape:connector-curvature="0"
       id="path66"
       style="fill:none;stroke:#000000;stroke-width:0.49741665;stroke-linecap:round;stroke-linejoin:round;stroke-miterlimit:10;stroke-dasharray:none;stroke-opacity:1"
       d="m -258.33172,-158.1501 -0.0744,-2.55093" />
    <path
       inkscape:connector-curvature="0"
       id="path68"
       style="fill:none;stroke:#000000;stroke-width:0.49741665;stroke-linecap:round;stroke-linejoin:round;stroke-miterlimit:10;stroke-dasharray:none;stroke-opacity:1"
       d="m -260.26776,-160.8993 1.91805,-0.0882 1.91558,-0.0882" />
    <path
       inkscape:connector-curvature="0"
       id="path70"
       style="fill:none;stroke:#000000;stroke-width:0.13405555;stroke-linecap:round;stroke-linejoin:round;stroke-miterlimit:10;stroke-dasharray:none;stroke-opacity:1"
       d="m -248.83423,-154.75073 -0.0497,0.28963 -0.14464,0.26176 -0.22331,0.20814 -0.28117,0.1337 -0.31115,0.0455 -0.31291,-0.0455 -0.28257,-0.1337 -0.22331,-0.20814 -0.14464,-0.26176 -0.0483,-0.28963 0.0483,-0.28928 0.14464,-0.25611 0.22331,-0.20814 0.28257,-0.13512 0.31291,-0.0455 0.31115,0.0455 0.28117,0.13512 0.22331,0.20814 0.14464,0.25611 0.0497,0.28928" />
    <path
       inkscape:connector-curvature="0"
       id="path72"
       style="fill:none;stroke:#000000;stroke-width:0.49741665;stroke-linecap:round;stroke-linejoin:round;stroke-miterlimit:10;stroke-dasharray:none;stroke-opacity:1"
       d="m -249.79061,-153.94181 -0.81598,1.91558 -0.81844,1.91135 -0.81704,1.91276" />
    <path
       inkscape:connector-curvature="0"
       id="path74"
       style="fill:none;stroke:#000000;stroke-width:0.49741665;stroke-linecap:round;stroke-linejoin:round;stroke-miterlimit:10;stroke-dasharray:none;stroke-opacity:1"
       d="m -249.8333,-153.72662 1.651,3.78143 0.82938,1.89053" />
    <path
       inkscape:connector-curvature="0"
       id="path76"
       style="fill:none;stroke:#000000;stroke-width:0.49741665;stroke-linecap:round;stroke-linejoin:round;stroke-miterlimit:10;stroke-dasharray:none;stroke-opacity:1"
       d="m -252.35249,-147.98445 2.44193,-0.0384 2.4377,-0.0413" />
    <path
       inkscape:connector-curvature="0"
       id="path78"
       style="fill:none;stroke:#000000;stroke-width:0.49741665;stroke-linecap:round;stroke-linejoin:round;stroke-miterlimit:10;stroke-dasharray:none;stroke-opacity:1"
       d="m -249.98923,-147.91672 0.043,1.80905 0.0427,1.8108 0.0427,1.80517" />
    <path
       inkscape:connector-curvature="0"
       id="path80"
       style="fill:none;stroke:#000000;stroke-width:0.49741665;stroke-linecap:round;stroke-linejoin:round;stroke-miterlimit:10;stroke-dasharray:none;stroke-opacity:1"
       d="m -249.67067,-142.62787 -3.55,0.0413 -1.77765,0.0219 -1.77341,0.0208 -1.77483,0.0208 -1.77518,0.0247 -1.77764,0.0219 -1.77483,0.0208" />
    <path
       inkscape:connector-curvature="0"
       id="path82"
       style="fill:none;stroke:#000000;stroke-width:0.13405555;stroke-linecap:round;stroke-linejoin:round;stroke-miterlimit:10;stroke-dasharray:none;stroke-opacity:1"
       d="m -264.209,-142.51216 -0.0497,0.28927 -0.14463,0.26035 -0.2219,0.20532 -0.28258,0.1337 -0.31009,0.0455 -0.31397,-0.0455 -0.28258,-0.1337 -0.22189,-0.20532 -0.14464,-0.26035 -0.0497,-0.28927 0.0497,-0.28928 0.14464,-0.26071 0.22189,-0.20813 0.28258,-0.13477 0.31397,-0.0455 0.31009,0.0455 0.28258,0.13477 0.2219,0.20813 0.14463,0.26071 0.0497,0.28928" />
    <path
       inkscape:connector-curvature="0"
       id="path84"
       style="fill:none;stroke:#000000;stroke-width:0.13405555;stroke-linecap:round;stroke-linejoin:round;stroke-miterlimit:10;stroke-dasharray:none;stroke-opacity:1"
       d="m -272.63298,-142.60459 -0.0497,0.28928 -0.1404,0.26211 -0.22613,0.20779 -0.27975,0.13123 -0.31257,0.0452 -0.3115,-0.0452 -0.28116,-0.13123 -0.22613,-0.20779 -0.14182,-0.26211 -0.0497,-0.28928 0.0497,-0.28787 0.14182,-0.26176 0.22613,-0.20814 0.28116,-0.13088 0.3115,-0.0455 0.31257,0.0455 0.27975,0.13088 0.22613,0.20814 0.1404,0.26176 0.0497,0.28787" />
    <path
       inkscape:connector-curvature="0"
       id="path86"
       style="fill:none;stroke:#000000;stroke-width:0.49741665;stroke-linecap:round;stroke-linejoin:round;stroke-miterlimit:10;stroke-dasharray:none;stroke-opacity:1"
       d="m -274.50305,-146.06076 1.7847,-0.0109 1.78859,-0.007 1.78611,-0.0109 1.78858,-0.01 1.78435,-0.0109 1.78894,-0.007" />
    <path
       inkscape:connector-curvature="0"
       id="path88"
       style="fill:none;stroke:#000000;stroke-width:0.49741665;stroke-linecap:round;stroke-linejoin:round;stroke-miterlimit:10;stroke-dasharray:none;stroke-opacity:1"
       d="m -269.26077,-150.25528 0.0536,2.1276 0.055,2.12337" />
    <path
       inkscape:connector-curvature="0"
       id="path90"
       style="fill:none;stroke:#000000;stroke-width:0.49741665;stroke-linecap:round;stroke-linejoin:round;stroke-miterlimit:10;stroke-dasharray:none;stroke-opacity:1"
       d="m -274.7567,-142.5866 -4.86163,0.0497" />
    <path
       inkscape:connector-curvature="0"
       id="path92"
       style="fill:none;stroke:#000000;stroke-width:0.49741665;stroke-linecap:round;stroke-linejoin:round;stroke-miterlimit:10;stroke-dasharray:none;stroke-opacity:1"
       d="m -279.62926,-142.67056 0.007,2.13042 0.008,2.12761 0.003,2.12619" />
    <path
       inkscape:connector-curvature="0"
       id="path94"
       style="fill:none;stroke:#000000;stroke-width:0.49741665;stroke-linecap:round;stroke-linejoin:round;stroke-miterlimit:10;stroke-dasharray:none;stroke-opacity:1"
       d="m -281.54485,-136.6871 2.00378,-0.0222 2.00096,-0.0247" />
    <path
       inkscape:connector-curvature="0"
       id="path96"
       style="fill:none;stroke:#000000;stroke-width:0.49741665;stroke-linecap:round;stroke-linejoin:round;stroke-miterlimit:10;stroke-dasharray:none;stroke-opacity:1"
       d="m -281.45665,-136.29305 1.89089,2.97357" />
    <path
       inkscape:connector-curvature="0"
       id="path98"
       style="fill:none;stroke:#000000;stroke-width:0.49741665;stroke-linecap:round;stroke-linejoin:round;stroke-miterlimit:10;stroke-dasharray:none;stroke-opacity:1"
       d="m -279.54813,-133.43237 0.91793,-1.52259 0.9204,-1.52823" />
    <path
       inkscape:connector-curvature="0"
       id="path100"
       style="fill:none;stroke:#000000;stroke-width:0.49741665;stroke-linecap:round;stroke-linejoin:round;stroke-miterlimit:10;stroke-dasharray:none;stroke-opacity:1"
       d="m -250.49335,-173.11563 v 0" />
    <path
       inkscape:connector-curvature="0"
       id="path102"
       style="fill:none;stroke:#000000;stroke-width:0.49741665;stroke-linecap:round;stroke-linejoin:round;stroke-miterlimit:10;stroke-dasharray:none;stroke-opacity:1"
       d="m -250.08413,-173.84871 0.0289,1.78435 0.0318,1.78188 0.0275,1.78471 0.0317,1.78435 0.0289,1.78187 0.0317,1.78612 0.0275,1.78435 0.0317,1.78188 0.0289,1.7847 0.0314,1.78435" />
    <path
       inkscape:connector-curvature="0"
       id="path104"
       style="fill:none;stroke:#000000;stroke-width:0.28574997;stroke-linecap:round;stroke-linejoin:round;stroke-miterlimit:10;stroke-dasharray:none;stroke-opacity:1"
       d="m -258.37017,-142.5231 -0.0857,0.3182 -0.23566,0.2286 -0.3249,0.0857 -0.32385,-0.0857 -0.23707,-0.2286 -0.0882,-0.3182 0.0882,-0.31715 0.23707,-0.2286 0.32385,-0.0854 0.3249,0.0854 0.23566,0.2286 0.0857,0.31715" />
    <path
       inkscape:connector-curvature="0"
       id="path106"
       style="fill:none;stroke:#000000;stroke-width:0.74436104;stroke-linecap:round;stroke-linejoin:round;stroke-miterlimit:10;stroke-dasharray:none;stroke-opacity:1"
       d="m -259.35407,-142.68855 v 0.26458" />
    <path
       inkscape:connector-curvature="0"
       id="path108"
       style="fill:none;stroke:#000000;stroke-width:0.74436104;stroke-linecap:round;stroke-linejoin:round;stroke-miterlimit:10;stroke-dasharray:none;stroke-opacity:1"
       d="m -259.18897,-142.82226 h 0.0388" />
    <path
       inkscape:connector-curvature="0"
       id="path110"
       style="fill:none;stroke:#000000;stroke-width:0.74436104;stroke-linecap:round;stroke-linejoin:round;stroke-miterlimit:10;stroke-dasharray:none;stroke-opacity:1"
       d="m -259.18897,-142.68855 0.16969,0.1337" />
    <path
       inkscape:connector-curvature="0"
       id="path112"
       style="fill:none;stroke:#000000;stroke-width:0.74436104;stroke-linecap:round;stroke-linejoin:round;stroke-miterlimit:10;stroke-dasharray:none;stroke-opacity:1"
       d="m -259.18897,-142.55485 h 0.0388" />
    <path
       inkscape:connector-curvature="0"
       id="path114"
       style="fill:none;stroke:#000000;stroke-width:0.74436104;stroke-linecap:round;stroke-linejoin:round;stroke-miterlimit:10;stroke-dasharray:none;stroke-opacity:1"
       d="m -259.01928,-142.82226 h 0.0342" />
    <path
       inkscape:connector-curvature="0"
       id="path116"
       style="fill:none;stroke:#000000;stroke-width:0.74436104;stroke-linecap:round;stroke-linejoin:round;stroke-miterlimit:10;stroke-dasharray:none;stroke-opacity:1"
       d="m -259.18897,-142.29027 h 0.0388" />
    <path
       inkscape:connector-curvature="0"
       id="path118"
       style="fill:none;stroke:#000000;stroke-width:0.3845278;stroke-linecap:round;stroke-linejoin:round;stroke-miterlimit:10;stroke-dasharray:none;stroke-opacity:1"
       d="m -258.74517,-142.40598 h 0.0222" />
    <path
       inkscape:connector-curvature="0"
       id="path120"
       style="fill:none;stroke:#000000;stroke-width:0.3845278;stroke-linecap:round;stroke-linejoin:round;stroke-miterlimit:10;stroke-dasharray:none;stroke-opacity:1"
       d="m -258.74517,-142.59366 h 0.0222" />
    <path
       inkscape:connector-curvature="0"
       id="path122"
       style="fill:none;stroke:#000000;stroke-width:0.3845278;stroke-linecap:round;stroke-linejoin:round;stroke-miterlimit:10;stroke-dasharray:none;stroke-opacity:1"
       d="m -258.74517,-142.40598 h -0.0949 v 0.0632" />
    <path
       inkscape:connector-curvature="0"
       id="path124"
       style="fill:none;stroke:#000000;stroke-width:0.3845278;stroke-linecap:round;stroke-linejoin:round;stroke-miterlimit:10;stroke-dasharray:none;stroke-opacity:1"
       d="m -258.84007,-142.15939 h 0.0219" />
    <path
       inkscape:connector-curvature="0"
       id="path126"
       style="fill:none;stroke:#000000;stroke-width:0.3845278;stroke-linecap:round;stroke-linejoin:round;stroke-miterlimit:10;stroke-dasharray:none;stroke-opacity:1"
       d="m -258.84007,-142.03274 h 0.0219" />
    <text
       id="text130"
       style="font-variant:normal;font-weight:normal;font-size:4.23333311px;font-family:'DejaVu Sans';-inkscape-font-specification:DejaVuSans;writing-mode:lr-tb;fill:#000000;fill-opacity:1;fill-rule:nonzero;stroke:none;stroke-width:0.35277775"
       x="-279.6293"
       y="-174.20641">
      <tspan
         style="stroke-width:0.35277775"
         id="tspan128"
         sodipodi:role="line"
         y="-174.20641"
         x="-279.6293 -276.29767 -273.61374">OSC</tspan>
    </text>
    <path
       inkscape:connector-curvature="0"
       id="path132"
       style="fill:none;stroke:#000000;stroke-width:0.49741665;stroke-linecap:round;stroke-linejoin:round;stroke-miterlimit:10;stroke-dasharray:none;stroke-opacity:1"
       d="m -262.60103,-180.7568 v 1.17545" />
    <path
       inkscape:connector-curvature="0"
       id="path134"
       style="fill:none;stroke:#000000;stroke-width:0.49741665;stroke-linecap:round;stroke-linejoin:round;stroke-miterlimit:10;stroke-dasharray:none;stroke-opacity:1"
       d="m -264.03684,-179.36651 h 1.34761" />
    <path
       inkscape:connector-curvature="0"
       id="path136"
       style="fill:none;stroke:#000000;stroke-width:0.49741665;stroke-linecap:round;stroke-linejoin:round;stroke-miterlimit:10;stroke-dasharray:none;stroke-opacity:1"
       d="m -262.44934,-180.9085 h 1.35184" />
    <path
       inkscape:connector-curvature="0"
       id="path138"
       style="fill:none;stroke:#000000;stroke-width:0.49741665;stroke-linecap:round;stroke-linejoin:round;stroke-miterlimit:10;stroke-dasharray:none;stroke-opacity:1"
       d="m -260.8823,-180.73634 v 1.17546" />
    <path
       inkscape:connector-curvature="0"
       id="path140"
       style="fill:none;stroke:#000000;stroke-width:0.49741665;stroke-linecap:round;stroke-linejoin:round;stroke-miterlimit:10;stroke-dasharray:none;stroke-opacity:1"
       d="m -259.18615,-180.73634 v 1.17546" />
    <path
       inkscape:connector-curvature="0"
       id="path142"
       style="fill:none;stroke:#000000;stroke-width:0.49741665;stroke-linecap:round;stroke-linejoin:round;stroke-miterlimit:10;stroke-dasharray:none;stroke-opacity:1"
       d="m -260.62054,-179.34181 h 1.35043" />
    <path
       inkscape:connector-curvature="0"
       id="path144"
       style="fill:none;stroke:#000000;stroke-width:0.49741665;stroke-linecap:round;stroke-linejoin:round;stroke-miterlimit:10;stroke-dasharray:none;stroke-opacity:1"
       d="m -259.03022,-180.88768 h 1.34761" />
    <path
       inkscape:connector-curvature="0"
       id="path146"
       style="fill:none;stroke:#000000;stroke-width:0.49741665;stroke-linecap:round;stroke-linejoin:round;stroke-miterlimit:10;stroke-dasharray:none;stroke-opacity:1"
       d="m -257.46353,-180.71412 v 1.17405" />
    <path
       inkscape:connector-curvature="0"
       id="path148"
       style="fill:none;stroke:#000000;stroke-width:0.49741665;stroke-linecap:round;stroke-linejoin:round;stroke-miterlimit:10;stroke-dasharray:none;stroke-opacity:1"
       d="m -257.33406,-179.49738 h 1.34761" />
    <path
       inkscape:connector-curvature="0"
       id="path150"
       style="fill:none;stroke:#000000;stroke-width:0.49741665;stroke-linecap:round;stroke-linejoin:round;stroke-miterlimit:10;stroke-dasharray:none;stroke-opacity:1"
       d="m -201.22017,-193.06839 h 17.23213" />
    <path
       inkscape:connector-curvature="0"
       id="path152"
       style="fill:none;stroke:#000000;stroke-width:0.49741665;stroke-linecap:round;stroke-linejoin:round;stroke-miterlimit:10;stroke-dasharray:none;stroke-opacity:1"
       d="m -201.07271,-187.53684 h 17.23355" />
    <path
       inkscape:connector-curvature="0"
       id="path154"
       style="fill:none;stroke:#000000;stroke-width:0.49741665;stroke-linecap:round;stroke-linejoin:round;stroke-miterlimit:10;stroke-dasharray:none;stroke-opacity:1"
       d="m -201.07271,-182.44378 h 17.23355" />
    <path
       inkscape:connector-curvature="0"
       id="path156"
       style="fill:none;stroke:#000000;stroke-width:0.49741665;stroke-linecap:round;stroke-linejoin:round;stroke-miterlimit:10;stroke-dasharray:none;stroke-opacity:1"
       d="m -200.97358,-176.96056 h 17.23355" />
    <text
       id="text162"
       style="font-variant:normal;font-weight:normal;font-size:3.55947256px;font-family:'DejaVu Sans';-inkscape-font-specification:DejaVuSans;writing-mode:lr-tb;fill:#000000;fill-opacity:1;fill-rule:nonzero;stroke:none;stroke-width:0.35277775"
       x="-213.79568"
       y="-186.24081">
      <tspan
         style="stroke-width:0.35277775"
         id="tspan158"
         sodipodi:role="line"
         y="-186.24081"
         x="-213.79568 -211.53186 -210.25044 -207.99373 -207.00777">4-bit</tspan>
      <tspan
         style="stroke-width:0.35277775"
         id="tspan160"
         sodipodi:role="line"
         y="-182.0974"
         x="-217.18074 -214.69623 -212.52139 -210.26823 -208.01511 -206.61978 -204.43071">Counter</tspan>
    </text>
    <text
       id="text170"
       style="font-variant:normal;font-weight:normal;font-size:4.23333311px;font-family:'DejaVu Sans';-inkscape-font-specification:DejaVuSans;writing-mode:lr-tb;fill:#000000;fill-opacity:1;fill-rule:nonzero;stroke:none;stroke-width:0.35277775"
       x="-179.80585"
       y="-187.86552">
      <tspan
         style="stroke-width:0.35277775"
         id="tspan164"
         sodipodi:role="line"
         y="-187.86552"
         x="-179.80585 -176.97797 -174.0231">BCD</tspan>
      <tspan
         style="stroke-width:0.35277775"
         id="tspan166"
         sodipodi:role="line"
         y="-182.93765"
         x="-181.1478 -177.1219 -175.46243">to</tspan>
      <tspan
         style="stroke-width:0.35277775"
         id="tspan168"
         sodipodi:role="line"
         y="-178.0098"
         x="-181.1478 -178.45541 -176.9314 -174.73006 -172.12656">7-seg</tspan>
    </text>
    <path
       inkscape:connector-curvature="0"
       id="path172"
       style="fill:none;stroke:#000000;stroke-width:0.49741665;stroke-linecap:round;stroke-linejoin:round;stroke-miterlimit:10;stroke-dasharray:none;stroke-opacity:1"
       d="m -166.75413,-195.90861 1.86584,-0.004 1.86725,-0.007 1.86584,-0.007 1.86584,-0.003 1.86585,-0.008 1.86584,-0.002 1.86725,-0.007 1.86584,-0.007 1.86584,-0.004 1.86584,-0.007 1.86726,-0.007 1.86584,-0.004 1.86584,-0.007 1.86584,-0.003 1.86726,-0.008 1.86584,-0.007 1.86619,-0.003" />
    <path
       inkscape:connector-curvature="0"
       id="path174"
       style="fill:none;stroke:#000000;stroke-width:0.49741665;stroke-linecap:round;stroke-linejoin:round;stroke-miterlimit:10;stroke-dasharray:none;stroke-opacity:1"
       d="m -166.80387,-191.35389 1.86584,-0.007 1.86725,-0.004 3.73168,-0.0138 1.86584,-0.004 1.86726,-0.007 1.86584,-0.003 1.86619,-0.007 1.86585,-0.008 1.86725,-0.003 3.73168,-0.0138 1.86584,-0.004 1.86725,-0.007 1.86585,-0.007 1.86584,-0.004 1.86584,-0.007" />
    <path
       inkscape:connector-curvature="0"
       id="path176"
       style="fill:none;stroke:#000000;stroke-width:0.49741665;stroke-linecap:round;stroke-linejoin:round;stroke-miterlimit:10;stroke-dasharray:none;stroke-opacity:1"
       d="m -166.70474,-187.04612 1.86619,-0.004 1.86584,-0.007 1.86725,-0.007 1.86585,-0.004 3.73168,-0.0138 1.86725,-0.004 1.86584,-0.007 1.86584,-0.003 1.86585,-0.007 1.86725,-0.007 1.86584,-0.004 3.73169,-0.0138 1.86584,-0.004 1.86725,-0.007 1.86584,-0.007" />
    <path
       inkscape:connector-curvature="0"
       id="path178"
       style="fill:none;stroke:#000000;stroke-width:0.49741665;stroke-linecap:round;stroke-linejoin:round;stroke-miterlimit:10;stroke-dasharray:none;stroke-opacity:1"
       d="m -166.41229,-182.73977 1.86725,-0.003 1.86584,-0.007 1.86584,-0.004 1.86585,-0.007 1.86725,-0.007 1.86584,-0.004 3.73168,-0.0138 1.86726,-0.003 1.86584,-0.008 1.86584,-0.007 1.86584,-0.003 1.86584,-0.007 1.86726,-0.004 3.73168,-0.0138 1.86584,-0.004" />
    <path
       inkscape:connector-curvature="0"
       id="path180"
       style="fill:none;stroke:#000000;stroke-width:0.49741665;stroke-linecap:round;stroke-linejoin:round;stroke-miterlimit:10;stroke-dasharray:none;stroke-opacity:1"
       d="m -166.60526,-178.03653 3.73168,-0.0138 1.86585,-0.004 1.86725,-0.007 1.86584,-0.004 3.73168,-0.0138 1.86584,-0.003 1.86726,-0.008 1.86584,-0.007 1.86584,-0.003 1.86584,-0.007 1.86725,-0.007 1.86584,-0.004 1.86585,-0.007 1.86584,-0.004 1.86725,-0.007" />
    <path
       inkscape:connector-curvature="0"
       id="path182"
       style="fill:none;stroke:#000000;stroke-width:0.49741665;stroke-linecap:round;stroke-linejoin:round;stroke-miterlimit:10;stroke-dasharray:none;stroke-opacity:1"
       d="m -166.41229,-173.53615 1.86725,-0.002 1.86584,-0.007 1.86584,-0.004 1.86585,-0.007 1.86725,-0.007 1.86584,-0.004 3.73168,-0.0138 1.86726,-0.003 1.86584,-0.008 1.86584,-0.007 1.86584,-0.003 1.86584,-0.007 1.86726,-0.004 3.73168,-0.0138 1.86584,-0.004" />
    <path
       inkscape:connector-curvature="0"
       id="path184"
       style="fill:none;stroke:#000000;stroke-width:0.49741665;stroke-linecap:round;stroke-linejoin:round;stroke-miterlimit:10;stroke-dasharray:none;stroke-opacity:1"
       d="m -166.60526,-169.1289 1.86584,-0.004 3.73169,-0.0138 1.86725,-0.004 1.86584,-0.007 1.86584,-0.003 3.73168,-0.0138 1.86726,-0.004 3.73168,-0.0138 1.86584,-0.004 1.86725,-0.007 1.86584,-0.003 1.86585,-0.008 1.86584,-0.007 1.86725,-0.003" />
    <text
       id="text200"
       style="font-variant:normal;font-weight:normal;font-size:2.95623636px;font-family:'DejaVu Sans';-inkscape-font-specification:DejaVuSans;writing-mode:lr-tb;fill:#000000;fill-opacity:1;fill-rule:nonzero;stroke:none;stroke-width:0.35277775"
       x="-153.63388"
       y="-197.08081">
      <tspan
         style="stroke-width:0.35277775"
         id="tspan186"
         y="-197.08081"
         x="-153.63388">a</tspan>
      <tspan
         style="stroke-width:0.35277775"
         id="tspan188"
         y="-192.576"
         x="-153.63388">b</tspan>
      <tspan
         style="stroke-width:0.35277775"
         id="tspan190"
         y="-187.77766"
         x="-153.72897">c</tspan>
      <tspan
         style="stroke-width:0.35277775"
         id="tspan192"
         y="-183.46992"
         x="-153.53606">d</tspan>
      <tspan
         style="stroke-width:0.35277775"
         id="tspan194"
         y="-179.16217"
         x="-153.43683">e</tspan>
      <tspan
         style="stroke-width:0.35277775"
         id="tspan196"
         y="-174.46031"
         x="-153.43683">f</tspan>
      <tspan
         style="stroke-width:0.35277775"
         id="tspan198"
         y="-170.15256"
         x="-153.43683">g</tspan>
    </text>
    <path
       inkscape:connector-curvature="0"
       id="path202"
       style="fill:none;stroke:#000000;stroke-width:0.49741665;stroke-linecap:round;stroke-linejoin:round;stroke-miterlimit:10;stroke-dasharray:none;stroke-opacity:1"
       d="m -140.02451,-211.08475 h 0.036" />
    <path
       inkscape:connector-curvature="0"
       id="path204"
       style="fill:none;stroke:#000000;stroke-width:0.71613884;stroke-linecap:round;stroke-linejoin:round;stroke-miterlimit:10;stroke-dasharray:none;stroke-opacity:1"
       d="m -127.94435,-201.34491 h 13.33359" />
    <path
       inkscape:connector-curvature="0"
       id="path206"
       style="fill:none;stroke:#000000;stroke-width:0.73730546;stroke-linecap:round;stroke-linejoin:round;stroke-miterlimit:10;stroke-dasharray:none;stroke-opacity:1"
       d="m -129.55689,-199.50659 0.0138,1.73496 0.0138,1.73638 0.0138,1.73496 0.0113,1.73637 0.0138,1.73496 0.0152,1.73637 0.0138,1.73496 0.0138,1.73637 0.0138,1.73497" />
    <path
       inkscape:connector-curvature="0"
       id="path208"
       style="fill:none;stroke:#000000;stroke-width:0.73730546;stroke-linecap:round;stroke-linejoin:round;stroke-miterlimit:10;stroke-dasharray:none;stroke-opacity:1"
       d="m -113.1499,-199.59478 0.0137,1.73496 0.0152,1.73637 0.0137,1.73496 0.0109,1.73637 0.0138,1.73497 0.0141,1.73637 0.0138,1.73496 0.0152,1.73637 0.0138,1.73496" />
    <path
       inkscape:connector-curvature="0"
       id="path210"
       style="fill:none;stroke:#000000;stroke-width:0.71613884;stroke-linecap:round;stroke-linejoin:round;stroke-miterlimit:10;stroke-dasharray:none;stroke-opacity:1"
       d="m -128.00502,-182.99341 h 13.335" />
    <path
       inkscape:connector-curvature="0"
       id="path212"
       style="fill:none;stroke:#000000;stroke-width:0.73730546;stroke-linecap:round;stroke-linejoin:round;stroke-miterlimit:10;stroke-dasharray:none;stroke-opacity:1"
       d="m -129.49762,-181.87158 0.0137,1.73602 0.0152,1.73496 0.0138,1.73637 0.0138,1.73496 0.0113,1.73638 0.0138,1.73496 0.0138,1.73637 0.0152,1.73496 0.0137,1.73637" />
    <path
       inkscape:connector-curvature="0"
       id="path214"
       style="fill:none;stroke:#000000;stroke-width:0.73730546;stroke-linecap:round;stroke-linejoin:round;stroke-miterlimit:10;stroke-dasharray:none;stroke-opacity:1"
       d="m -113.08923,-181.9626 0.0138,1.73497 0.0138,1.73637 0.0138,1.73496 0.0152,1.73602 0.0138,1.73496 0.0109,1.73637 0.0138,1.73496 0.0141,1.73637 0.0138,1.73496" />
    <path
       inkscape:connector-curvature="0"
       id="path216"
       style="fill:none;stroke:#000000;stroke-width:0.71613884;stroke-linecap:round;stroke-linejoin:round;stroke-miterlimit:10;stroke-dasharray:none;stroke-opacity:1"
       d="m -127.94435,-165.35876 h 13.33359" />
    <text
       id="text232"
       style="font-variant:normal;font-weight:normal;font-size:2.95623636px;font-family:'DejaVu Sans';-inkscape-font-specification:DejaVuSans;writing-mode:lr-tb;fill:#000000;fill-opacity:1;fill-rule:nonzero;stroke:none;stroke-width:0.35277775"
       x="-122.30006"
       y="-202.46342">
      <tspan
         style="stroke-width:0.35277775"
         id="tspan218"
         y="-202.46342"
         x="-122.30006">a</tspan>
      <tspan
         style="stroke-width:0.35277775"
         id="tspan220"
         y="-191.20624"
         x="-115.98589">b</tspan>
      <tspan
         style="stroke-width:0.35277775"
         id="tspan222"
         y="-172.89348"
         x="-115.68961">c</tspan>
      <tspan
         style="stroke-width:0.35277775"
         id="tspan224"
         y="-166.52971"
         x="-122.25183">d</tspan>
      <tspan
         style="stroke-width:0.35277775"
         id="tspan226"
         y="-173.28622"
         x="-128.51637">e</tspan>
      <tspan
         style="stroke-width:0.35277775"
         id="tspan228"
         y="-191.00917"
         x="-128.4213">f</tspan>
      <tspan
         style="stroke-width:0.35277775"
         id="tspan230"
         y="-184.54617"
         x="-122.44888">g</tspan>
    </text>
    <path
       inkscape:connector-curvature="0"
       id="path234"
       style="fill:none;stroke:#000000;stroke-width:0.49741665;stroke-linecap:round;stroke-linejoin:round;stroke-miterlimit:10;stroke-dasharray:none;stroke-opacity:1"
       d="m -108.95785,-162.6907 h 4.40549" />
    <text
       id="text240"
       style="font-variant:normal;font-weight:normal;font-size:4.23333311px;font-family:'DejaVu Sans';-inkscape-font-specification:DejaVuSans;writing-mode:lr-tb;fill:#000000;fill-opacity:1;fill-rule:nonzero;stroke:none;stroke-width:0.35277775"
       x="-103.01028"
       y="-161.18533">
      <tspan
         style="stroke-width:0.35277775"
         id="tspan236"
         sodipodi:role="line"
         y="-161.18533"
         x="-103.01028 -99.75061">DP</tspan>
      <tspan
         style="stroke-width:0.35277775"
         id="tspan238"
         sodipodi:role="line"
         y="-145.54321"
         x="-123.05934 -119.7997 -117.19618 -114.87209 -113.69945 -109.57619 -106.9854 -105.81276 -104.47079 -102.0705 -99.483917 -96.804214">Decimal Pont</tspan>
    </text>
    <path
       inkscape:connector-curvature="0"
       id="path242"
       style="fill:none;stroke:#000000;stroke-width:0.49741665;stroke-linecap:round;stroke-linejoin:round;stroke-miterlimit:10;stroke-dasharray:none;stroke-opacity:1"
       d="m -102.56939,-152.33773 0.36653,-2.20063 0.36654,-2.20486 0.36653,-2.20063" />
    <path
       inkscape:connector-curvature="0"
       id="path244"
       style="fill:none;stroke:#000000;stroke-width:0.49741665;stroke-linecap:round;stroke-linejoin:round;stroke-miterlimit:10;stroke-dasharray:none;stroke-opacity:1"
       d="m -101.68745,-159.16716 -1.54622,2.42394" />
    <path
       inkscape:connector-curvature="0"
       id="path246"
       style="fill:none;stroke:#000000;stroke-width:0.49741665;stroke-linecap:round;stroke-linejoin:round;stroke-miterlimit:10;stroke-dasharray:none;stroke-opacity:1"
       d="m -101.91076,-159.16716 1.32292,2.42394" />
    <text
       id="text256"
       style="font-variant:normal;font-weight:normal;font-size:4.23333311px;font-family:'DejaVu Sans';-inkscape-font-specification:DejaVuSans;writing-mode:lr-tb;fill:#000000;fill-opacity:1;fill-rule:nonzero;stroke:none;stroke-width:0.35277775"
       x="-190.69347"
       y="-211.63255">
      <tspan
         style="stroke-width:0.35277775"
         id="tspan248"
         sodipodi:role="line"
         y="-211.63255"
         x="-190.69347 -187.7386 -185.15204 -181.02878 -178.34483 -177.17221 -174.49251 -171.9017 -170.24223 -169.06961 -166.48305 -163.80333 -161.21254">Combinational</tspan>
      <tspan
         style="stroke-width:0.35277775"
         id="tspan250"
         sodipodi:role="line"
         x="-190.69347"
         y="-206.34088" />
      <tspan
         style="stroke-width:0.35277775"
         id="tspan252"
         sodipodi:role="line"
         y="-211.19434"
         x="-221.31485 -218.63092 -216.02742 -213.34349 -210.66379 -208.06029 -205.38058 -203.72112 -202.54849 -199.95769">Sequential</tspan>
      <tspan
         style="stroke-width:0.35277775"
         id="tspan254"
         sodipodi:role="line"
         x="-190.69347"
         y="-205.90266" />
    </text>
    <path
       inkscape:connector-curvature="0"
       id="path316"
       style="fill:none;stroke:#000000;stroke-width:0.49741665;stroke-linecap:round;stroke-linejoin:round;stroke-miterlimit:10;stroke-dasharray:none;stroke-opacity:1"
       d="m -257.99693,-205.87176 v 0" />
    <text
       xml:space="preserve"
       style="font-style:normal;font-weight:normal;font-size:5.64444447px;line-height:1.25;font-family:sans-serif;text-align:start;letter-spacing:0px;word-spacing:0px;text-anchor:start;fill:#000000;fill-opacity:1;stroke:none;stroke-width:0.26458332"
       x="-218.85234"
       y="-206.88187"
       id="text165"><tspan
         sodipodi:role="line"
         x="-218.85234"
         y="-206.88187"
         id="tspan163"
         style="stroke-width:0.26458332"><tspan
           x="-218.85234"
           y="-206.88187"
           style="font-size:4.23333311px;stroke-width:0.26458332"
           id="tspan161">circuit</tspan></tspan></text>
    <text
       xml:space="preserve"
       style="font-style:normal;font-weight:normal;font-size:5.64444447px;line-height:1.25;font-family:sans-serif;text-align:start;letter-spacing:0px;word-spacing:0px;text-anchor:start;fill:#000000;fill-opacity:1;stroke:none;stroke-width:0.26458332"
       x="-182.70622"
       y="-207.4628"
       id="text171"><tspan
         sodipodi:role="line"
         x="-182.70622"
         y="-207.4628"
         id="tspan169"
         style="stroke-width:0.26458332"><tspan
           x="-182.70622"
           y="-207.4628"
           style="font-size:4.23333311px;stroke-width:0.26458332"
           id="tspan167">circuit</tspan></tspan></text>
  </g>
</svg>
