<?xml version="1.0" encoding="UTF-8" standalone="no"?>
<!-- Created with Inkscape (http://www.inkscape.org/) -->

<svg
   xmlns:dc="http://purl.org/dc/elements/1.1/"
   xmlns:cc="http://creativecommons.org/ns#"
   xmlns:rdf="http://www.w3.org/1999/02/22-rdf-syntax-ns#"
   xmlns:svg="http://www.w3.org/2000/svg"
   xmlns="http://www.w3.org/2000/svg"
   xmlns:sodipodi="http://sodipodi.sourceforge.net/DTD/sodipodi-0.dtd"
   xmlns:inkscape="http://www.inkscape.org/namespaces/inkscape"
   width="183.34995mm"
   height="57.833508mm"
   viewBox="0 0 183.34995 57.833508"
   version="1.1"
   id="svg3545"
   inkscape:version="0.92.5 (2060ec1f9f, 2020-04-08)"
   sodipodi:docname="example-K-map-hazard-free.svg">
  <defs
     id="defs3539" />
  <sodipodi:namedview
     id="base"
     pagecolor="#ffffff"
     bordercolor="#666666"
     borderopacity="1.0"
     inkscape:pageopacity="0.0"
     inkscape:pageshadow="2"
     inkscape:zoom="0.35"
     inkscape:cx="346.48808"
     inkscape:cy="109.29166"
     inkscape:document-units="mm"
     inkscape:current-layer="layer1"
     showgrid="false"
     fit-margin-top="0"
     fit-margin-left="0"
     fit-margin-right="0"
     fit-margin-bottom="0"
     inkscape:window-width="1148"
     inkscape:window-height="836"
     inkscape:window-x="2688"
     inkscape:window-y="242"
     inkscape:window-maximized="0" />
  <metadata
     id="metadata3542">
    <rdf:RDF>
      <cc:Work
         rdf:about="">
        <dc:format>image/svg+xml</dc:format>
        <dc:type
           rdf:resource="http://purl.org/dc/dcmitype/StillImage" />
        <dc:title></dc:title>
      </cc:Work>
    </rdf:RDF>
  </metadata>
  <g
     inkscape:label="Layer 1"
     inkscape:groupmode="layer"
     id="layer1"
     transform="translate(217.91902,-119.91658)">
    <g
       transform="matrix(0.35277777,0,0,0.35277777,-244.7694,-58.11217)"
       id="g3420">
      <path
         d="m 91.047,520.988 h 47.629 v 47.391 H 91.047 Z"
         style="fill:none;stroke:#000000;stroke-width:1.48000002;stroke-linecap:round;stroke-linejoin:round;stroke-miterlimit:10;stroke-dasharray:none;stroke-opacity:1"
         id="path300"
         inkscape:connector-curvature="0" />
      <path
         d="m 91.215,544.52 h 46.332"
         style="fill:none;stroke:#000000;stroke-width:1.40999997;stroke-linecap:round;stroke-linejoin:round;stroke-miterlimit:10;stroke-dasharray:none;stroke-opacity:1"
         id="path302"
         inkscape:connector-curvature="0" />
      <path
         d="m 115.215,521.18 v 47.34"
         style="fill:none;stroke:#000000;stroke-width:1.40999997;stroke-linecap:round;stroke-linejoin:round;stroke-miterlimit:10;stroke-dasharray:none;stroke-opacity:1"
         id="path304"
         inkscape:connector-curvature="0" />
      <text
         y="513.39648"
         x="159.36719"
         style="font-variant:normal;font-weight:normal;font-size:12px;font-family:'DejaVu Sans';-inkscape-font-specification:DejaVuSans;writing-mode:lr-tb;fill:#000000;fill-opacity:1;fill-rule:nonzero;stroke:none"
         id="text310">
        <tspan
           x="159.36719"
           y="513.39648"
           id="tspan306">A</tspan>
        <tspan
           x="75.437492"
           y="559.6582"
           id="tspan308">C</tspan>
      </text>
      <path
         d="m 88.215,545.18 h -1.34"
         style="fill:none;stroke:#000000;stroke-width:1.40999997;stroke-linecap:round;stroke-linejoin:round;stroke-miterlimit:10;stroke-dasharray:none;stroke-opacity:1"
         id="path312"
         inkscape:connector-curvature="0" />
      <path
         d="m 86.875,545.852 v 21"
         style="fill:none;stroke:#000000;stroke-width:1.40999997;stroke-linecap:round;stroke-linejoin:round;stroke-miterlimit:10;stroke-dasharray:none;stroke-opacity:1"
         id="path314"
         inkscape:connector-curvature="0" />
      <path
         d="m 86.875,566.852 h 1.672"
         style="fill:none;stroke:#000000;stroke-width:1.40999997;stroke-linecap:round;stroke-linejoin:round;stroke-miterlimit:10;stroke-dasharray:none;stroke-opacity:1"
         id="path316"
         inkscape:connector-curvature="0" />
      <path
         d="m 138.688,521.168 h 47.637 v 47.391 h -47.637 z"
         style="fill:none;stroke:#000000;stroke-width:1.48000002;stroke-linecap:round;stroke-linejoin:round;stroke-miterlimit:10;stroke-dasharray:none;stroke-opacity:1"
         id="path318"
         inkscape:connector-curvature="0" />
      <path
         d="m 138.855,544.699 h 46.34"
         style="fill:none;stroke:#000000;stroke-width:1.40999997;stroke-linecap:round;stroke-linejoin:round;stroke-miterlimit:10;stroke-dasharray:none;stroke-opacity:1"
         id="path320"
         inkscape:connector-curvature="0" />
      <path
         d="m 162.855,521.371 v 47.328"
         style="fill:none;stroke:#000000;stroke-width:1.40999997;stroke-linecap:round;stroke-linejoin:round;stroke-miterlimit:10;stroke-dasharray:none;stroke-opacity:1"
         id="path322"
         inkscape:connector-curvature="0" />
      <text
         y="582.61914"
         x="135.00781"
         style="font-variant:normal;font-weight:normal;font-size:12px;font-family:'DejaVu Sans';-inkscape-font-specification:DejaVuSans;writing-mode:lr-tb;fill:#000000;fill-opacity:1;fill-rule:nonzero;stroke:none"
         id="text326">
        <tspan
           x="135.00781"
           y="582.61914"
           id="tspan324">B</tspan>
      </text>
      <path
         d="M 138.617,518.648 V 516.98"
         style="fill:none;stroke:#000000;stroke-width:1.40999997;stroke-linecap:round;stroke-linejoin:round;stroke-miterlimit:10;stroke-dasharray:none;stroke-opacity:1"
         id="path328"
         inkscape:connector-curvature="0" />
      <path
         d="m 138.617,516.98 5.258,0.02 5.262,0.031 5.269,0.02 5.258,0.019 5.262,0.02 5.269,0.019 5.262,0.02 5.258,0.019 5.269,0.02"
         style="fill:none;stroke:#000000;stroke-width:1.40999997;stroke-linecap:round;stroke-linejoin:round;stroke-miterlimit:10;stroke-dasharray:none;stroke-opacity:1"
         id="path330"
         inkscape:connector-curvature="0" />
      <path
         d="m 185.984,517.168 0.18,1.66"
         style="fill:none;stroke:#000000;stroke-width:1.40999997;stroke-linecap:round;stroke-linejoin:round;stroke-miterlimit:10;stroke-dasharray:none;stroke-opacity:1"
         id="path332"
         inkscape:connector-curvature="0" />
      <path
         d="m 114.926,570.461 0.191,1.66"
         style="fill:none;stroke:#000000;stroke-width:1.40999997;stroke-linecap:round;stroke-linejoin:round;stroke-miterlimit:10;stroke-dasharray:none;stroke-opacity:1"
         id="path334"
         inkscape:connector-curvature="0" />
      <path
         d="m 115.297,572.121 h 47.187"
         style="fill:none;stroke:#000000;stroke-width:1.40999997;stroke-linecap:round;stroke-linejoin:round;stroke-miterlimit:10;stroke-dasharray:none;stroke-opacity:1"
         id="path336"
         inkscape:connector-curvature="0" />
      <path
         d="m 162.484,571.75 v -1.109"
         style="fill:none;stroke:#000000;stroke-width:1.40999997;stroke-linecap:round;stroke-linejoin:round;stroke-miterlimit:10;stroke-dasharray:none;stroke-opacity:1"
         id="path338"
         inkscape:connector-curvature="0" />
      <text
         y="537.60742"
         x="146.85156"
         style="font-variant:normal;font-weight:normal;font-size:12px;font-family:'DejaVu Sans';-inkscape-font-specification:DejaVuSans;writing-mode:lr-tb;fill:#000000;fill-opacity:1;fill-rule:nonzero;stroke:none"
         id="text348">
        <tspan
           x="146.85156"
           y="537.60742"
           id="tspan340">1</tspan>
        <tspan
           x="171.19141"
           y="537.85352"
           id="tspan342">1</tspan>
        <tspan
           x="122.57422"
           y="561.78711"
           id="tspan344">1</tspan>
        <tspan
           x="147.19141"
           y="561.95898"
           id="tspan346">1</tspan>
      </text>
      <path
         d="m 149.648,549.891 -0.168,-0.02 -0.042,-0.113 -0.106,-0.153 -0.105,-0.132 -0.168,-0.039 -0.129,-0.075 -0.125,-0.093 -0.125,-0.059 -0.129,-0.019 h -0.379 l -0.106,0.019 -0.125,0.074 -0.168,0.059 -0.105,0.039 -0.148,0.035 -0.192,0.059 -0.336,0.039 -0.191,0.054 -0.145,0.02 h -0.129 l -0.125,0.019 -0.191,0.02 -0.168,0.039 -0.168,0.016 -0.168,0.039 -0.168,0.019 h -0.191 l -0.149,0.02 h -0.566 l -0.106,-0.02 h -0.105 l -0.211,-0.039 h -0.149 l -0.191,-0.019 h -0.359 l -0.145,0.019 -0.148,0.02 -0.192,0.019 h -0.125 l -0.125,0.02 h -0.316 l -0.191,-0.02 -0.336,-0.039 -0.192,-0.019 -0.254,-0.016 -0.23,-0.019 h -0.422 l -0.211,-0.02 h -0.187 l -0.129,-0.02 -0.125,-0.019 -0.149,-0.039 -0.148,-0.035 -0.231,-0.039 -0.191,-0.02 h -1.305 l -0.168,-0.019 h -0.105 l -0.149,-0.02 -0.168,-0.035 -0.191,-0.059 -0.125,-0.039 -0.106,-0.035 -0.148,-0.019 h -2.32 l -0.25,0.019 h -0.254 l -0.235,0.02 h -0.379 l -0.187,-0.02 h -0.148 l -0.125,-0.019 -0.149,-0.02 -0.129,-0.019 -0.105,-0.02 -0.125,-0.035 -0.106,-0.039 -0.125,-0.02 -0.129,-0.039 -0.144,-0.074 -0.192,-0.074 -0.21,-0.059 -0.126,-0.019 -0.128,-0.02 -0.149,-0.019 -0.144,-0.016 -0.168,-0.039 -0.192,-0.02 -0.211,-0.019 -0.191,-0.039 -0.125,-0.016 -0.106,-0.019 H 130 l -0.145,-0.02 -0.191,-0.039 -0.105,-0.02 -0.211,-0.019 h -0.571 l -0.168,-0.016 h -0.273 l -0.148,-0.019 -0.126,-0.02 -0.128,-0.019 -0.25,-0.039 -0.106,-0.02 -0.148,-0.035 -0.297,-0.039 -0.188,-0.039 -0.148,-0.02 h -0.402 l -0.102,0.02 -0.172,0.039 -0.105,0.019 -0.168,0.039 -0.149,0.016 -0.125,0.02 -0.191,0.039 -0.125,0.039 -0.149,0.035 -0.144,0.039 -0.149,0.059 -0.128,0.035 -0.188,0.058 -0.211,0.059 -0.191,0.074 -0.231,0.074 -0.168,0.078 -0.148,0.114 -0.192,0.074 -0.168,0.113 -0.148,0.117 -0.168,0.055 -0.105,0.078 -0.168,0.114 -0.125,0.152 -0.063,0.094 -0.129,0.168 -0.062,0.097 -0.063,0.094 -0.086,0.113 -0.062,0.114 -0.086,0.113 -0.063,0.117 -0.062,0.113 -0.125,0.188 -0.129,0.191 -0.082,0.113 -0.063,0.114 -0.086,0.094 -0.086,0.113 -0.082,0.097 -0.086,0.055 -0.082,0.113 -0.085,0.133 -0.106,0.133 -0.062,0.098 -0.129,0.168 -0.063,0.113 -0.062,0.098 -0.063,0.113 -0.211,0.226 -0.086,0.114 -0.082,0.094 -0.211,0.304 -0.086,0.133 -0.043,0.152 -0.039,0.114 -0.066,0.113 -0.188,0.398 -0.023,0.153 -0.039,0.113 -0.024,0.133 -0.042,0.113 -0.04,0.133 -0.066,0.152 -0.039,0.153 -0.063,0.171 -0.042,0.149 -0.024,0.172 -0.039,0.152 -0.086,0.305 -0.043,0.133 -0.019,0.148 -0.086,0.305 -0.043,0.191 -0.02,0.152 -0.043,0.149 -0.019,0.172 -0.024,0.113 -0.019,0.152 -0.02,0.114 v 1.441 l 0.039,0.152 0.086,0.305 0.063,0.133 0.105,0.187 0.086,0.094 0.082,0.098 0.086,0.113 0.106,0.113 0.082,0.094 0.128,0.152 0.149,0.133 0.125,0.094 0.125,0.098 0.148,0.093 0.086,0.055 0.082,0.059 0.129,0.094 0.145,0.152 0.066,0.113 0.039,0.133 0.086,0.152 0.149,0.153 0.082,0.152 0.086,0.187 0.085,0.153 0.063,0.133 0.082,0.113 0.086,0.078 0.105,0.094 0.125,0.113 0.106,0.074 0.148,0.153 0.125,0.093 0.172,0.098 0.106,0.055 0.144,0.113 0.129,0.078 0.125,0.133 0.129,0.074 0.187,0.078 0.211,0.035 0.211,0.04 0.125,0.039 0.149,0.019 h 0.148 l 0.149,0.02 h 0.504 l 0.148,0.015 h 0.168 l 0.148,0.02 h 0.379 l 0.125,0.019 0.129,0.02 0.125,0.019 0.106,0.02 0.148,0.019 0.168,0.016 0.168,0.039 0.129,0.02 0.145,0.019 0.191,0.035 0.316,0.059 0.168,0.059 0.149,0.035 0.168,0.039 0.316,0.058 0.211,0.016 0.148,0.019 0.168,0.059 0.168,0.055 0.168,0.019 0.192,0.02 0.148,0.019 h 0.106 l 0.336,0.039 0.148,0.02 h 0.125 l 0.106,0.016 0.168,0.019 0.128,0.02 0.145,0.019 0.129,0.02 0.187,0.039 0.106,0.015 0.105,0.02 0.129,0.019 0.211,0.02 h 1.031 l 0.129,-0.02 h 2.485 l 0.129,0.02 h 0.105 l 0.125,0.02 h 0.719 l 0.125,-0.02 h 0.254 l 0.125,-0.02 0.168,-0.019 h 1.414 l 0.105,0.019 h 0.125 l 0.149,0.02 h 1.328 l 0.148,0.02 h 0.125 l 0.125,0.019 0.172,0.02 h 0.168 l 0.149,0.015 h 1.011 l 0.231,0.039 0.125,0.02 0.129,0.019 0.125,0.02 0.105,0.019 0.125,0.016 0.149,0.02 h 0.148 l 0.125,0.019 0.105,0.02 0.172,0.039 h 0.672 l 0.168,0.035 0.129,0.019 0.168,0.039 h 0.105 l 0.106,0.02 0.125,0.02 h 0.105 l 0.129,0.015 h 0.653 l 0.191,0.039 0.106,0.02 h 0.144 l 0.149,0.019 h 0.316 l 0.297,0.039 0.144,0.016 0.129,0.019 0.149,0.04 0.125,0.019 0.105,0.02 0.125,0.019 0.129,0.016 h 0.59 l 0.125,0.019 h 0.105 l 0.297,0.039 h 0.106 l 0.125,0.02 0.168,-0.02 0.191,-0.019 0.168,-0.039 0.148,-0.016 h 1.497 l 0.125,0.016 h 0.105 l 0.129,0.019 0.168,0.02 0.148,0.019 0.188,-0.019 0.105,-0.02 0.149,-0.035 0.125,-0.039 0.148,-0.078 0.149,-0.055 0.168,-0.058 0.148,-0.035 0.125,-0.059 0.105,-0.02 0.211,-0.054 0.211,-0.059 0.106,-0.039 0.125,-0.035 0.105,-0.039 0.106,-0.059 0.105,-0.035 0.149,-0.039 0.191,-0.059 0.125,-0.035 0.336,-0.078 0.106,-0.035 0.21,-0.059 0.172,-0.039 0.211,-0.054 0.207,-0.059 0.172,-0.039 0.145,-0.055 0.129,-0.039 0.125,-0.039 0.129,-0.035 0.124,-0.039 0.126,-0.059 0.148,-0.035 0.125,-0.078 0.148,-0.094 0.106,-0.113 0.086,-0.113 0.125,-0.114 0.105,-0.113 0.129,-0.117 0.145,-0.094 0.129,-0.094 0.148,-0.093 0.082,-0.078 0.063,-0.094 0.085,-0.113 0.063,-0.114 0.086,-0.113 0.105,-0.117 0.106,-0.149 0.062,-0.152 0.125,-0.133 0.063,-0.172 0.066,-0.113 0.082,-0.133 0.043,-0.133 0.063,-0.113 0.043,-0.113 0.062,-0.113 0.043,-0.118 0.043,-0.128 0.02,-0.118 0.086,-0.113 0.019,-0.113 0.063,-0.153 0.062,-0.132 0.067,-0.153 0.105,-0.133 0.082,-0.113 0.063,-0.133 0.043,-0.093 0.023,-0.114 0.082,-0.152 0.086,-0.113 0.082,-0.153 0.086,-0.113 0.043,-0.133 0.019,-0.113 v -0.605 l -0.019,-0.133 -0.024,-0.153 -0.062,-0.113 -0.02,-0.152 -0.043,-0.133 -0.125,-0.266 -0.043,-0.132 -0.062,-0.114 -0.043,-0.133 -0.062,-0.152 -0.067,-0.113 -0.082,-0.153 -0.062,-0.171 -0.086,-0.153 -0.106,-0.187 -0.062,-0.172 -0.086,-0.152 -0.063,-0.168 -0.062,-0.172 -0.043,-0.172 -0.043,-0.168 -0.039,-0.172 -0.043,-0.133 -0.063,-0.152 -0.066,-0.133 -0.082,-0.133 -0.086,-0.152 -0.063,-0.113 -0.043,-0.114 -0.062,-0.113 -0.043,-0.094 -0.168,-0.133 -0.105,-0.078 -0.149,-0.152 -0.062,-0.094 -0.106,-0.074 -0.105,-0.078 -0.125,-0.055 -0.149,-0.078 -0.148,-0.055 -0.149,-0.078 -0.168,-0.094 -0.148,-0.093 -0.102,-0.094 -0.148,-0.117 -0.086,-0.074 -0.105,-0.094 -0.106,-0.098 -0.082,-0.074 -0.148,-0.152 -0.129,-0.114 -0.145,-0.132 -0.086,-0.075 -0.086,-0.078 -0.101,-0.113 -0.086,-0.055 -0.106,-0.117 -0.125,-0.094 -0.105,-0.039 -0.106,-0.035 -0.129,-0.039 -0.148,-0.039 -0.105,-0.055 -0.125,-0.058 -0.125,-0.055 -0.129,-0.059 -0.145,-0.074 -0.129,-0.078 -0.148,-0.074 -0.145,-0.094 -0.148,-0.098 -0.129,-0.093 -0.125,-0.075 -0.086,-0.097 -0.102,-0.094 -0.191,-0.172 -0.125,-0.074 -0.086,-0.059 -0.086,-0.054 -0.082,-0.059 -0.105,-0.094 -0.106,-0.019 -0.148,-0.074 -0.168,-0.059 h -0.106 l -0.125,-0.02 h -0.297 l -0.148,-0.019 h -0.359 l -0.188,-0.016 h -0.191 l -0.422,-0.039 -0.336,-0.039 -0.125,-0.019 -0.106,-0.036 -0.129,-0.019 -0.105,-0.039 -0.125,-0.02 -0.148,-0.039 -0.106,-0.015 h -0.359 l -0.145,0.054 -0.105,0.059 -0.129,0.074 -0.125,0.078 -0.106,0.074 -0.125,0.075 -0.086,0.078 -0.125,0.074 -0.128,0.078 -0.106,0.074 -0.105,0.059 -0.125,0.074 -0.149,0.059 -0.148,0.035 -0.168,0.059 -0.125,-0.04"
         style="fill:none;stroke:#008000;stroke-width:1.40999997;stroke-linecap:round;stroke-linejoin:round;stroke-miterlimit:10;stroke-dasharray:none;stroke-opacity:1"
         id="path350"
         inkscape:connector-curvature="0" />
      <path
         d="m 159.324,524.594 v -0.114 l -0.086,-0.132 -0.144,-0.02 h -0.106 l -0.105,-0.039 h -0.719 l -0.125,0.059 -0.168,0.035 -0.105,0.019 h -0.149 l -0.191,0.039 h -1.074 l -0.125,0.02 -0.172,0.019 -0.125,0.02 -0.168,0.035 -0.149,0.039 -0.168,0.02 -0.191,0.039 -0.168,0.015 h -0.254 l -0.168,0.02 -0.23,0.02 h -1.309 l -0.125,0.039 -0.168,0.019 -0.148,0.02 -0.168,0.015 -0.149,0.059 -0.125,0.019 -0.148,0.02 -0.125,0.035 h -0.129 l -0.125,0.02 -0.129,0.019 -0.145,0.02 h -0.148 l -0.191,0.058 -0.125,0.016 -0.168,0.019 -0.129,0.039 -0.106,0.02 -0.125,0.02 -0.191,0.019 h -0.82 l -0.149,0.016 -0.336,0.078 -0.148,0.019 -0.168,0.055 -0.129,0.039 -0.207,0.094 -0.129,0.039 -0.106,0.055 -0.105,0.078 -0.125,0.113 -0.168,0.094 -0.172,0.078 -0.125,0.113 -0.168,0.074 -0.105,0.079 -0.125,0.054 -0.106,0.059 -0.105,0.035 -0.129,0.098 -0.106,0.054 -0.125,0.114 -0.148,0.097 -0.106,0.113 -0.125,0.114 -0.128,0.152 -0.145,0.172 -0.148,0.148 -0.149,0.114 -0.148,0.152 -0.125,0.133 -0.149,0.172 -0.105,0.133 -0.106,0.171 -0.105,0.094 -0.082,0.113 -0.067,0.094 -0.062,0.098 -0.063,0.148 -0.125,0.305 -0.086,0.172 -0.042,0.152 -0.083,0.207 -0.085,0.192 -0.106,0.187 -0.086,0.192 -0.105,0.207 -0.063,0.171 -0.062,0.168 -0.086,0.172 -0.102,0.172 -0.086,0.188 -0.105,0.191 -0.106,0.172 -0.062,0.168 -0.063,0.152 -0.086,0.133 -0.043,0.152 -0.043,0.094 -0.019,0.153 -0.086,0.226 -0.063,0.113 -0.043,0.098 -0.062,0.152 -0.02,0.114 -0.043,0.132 -0.042,0.094 -0.126,0.266 -0.042,0.113 -0.063,0.172 -0.019,0.168 -0.024,0.117 -0.062,0.133 v 0.129 l -0.043,0.133 v 0.703 l 0.023,0.191 0.082,0.207 0.043,0.094 0.043,0.098 0.039,0.093 0.066,0.094 0.04,0.094 0.066,0.117 0.062,0.094 0.043,0.113 0.039,0.094 0.106,0.058 0.086,0.075 0.148,0.152 0.125,0.152 0.086,0.075 0.168,0.152 0.106,0.113 0.105,0.153 0.063,0.093 0.125,0.114 0.066,0.097 0.082,0.055 0.168,0.152 0.086,0.059 0.148,0.152 0.125,0.094 0.086,0.094 0.082,0.058 0.149,0.149 0.086,0.058 0.082,0.094 0.148,0.172 0.106,0.133 0.105,0.094 0.086,0.058 0.082,0.074 0.086,0.078 0.149,0.133 0.105,0.094 0.105,0.113 0.083,0.075 0.191,0.152 0.105,0.113 0.125,0.078 0.125,0.094 0.106,0.113 0.129,0.059 0.125,0.074 0.129,0.059 0.187,0.093 0.106,0.094 0.125,0.039 0.086,0.059 0.125,0.055 0.128,0.058 0.106,0.055 0.125,0.058 0.105,0.055 0.149,0.039 0.125,0.059 0.168,0.054 0.148,0.059 0.168,0.039 0.192,0.055 0.125,0.058 0.148,0.036 0.129,0.039 0.125,0.058 0.125,0.02 0.129,0.035 0.144,0.019 0.129,0.02 0.125,0.019 h 0.149 l 0.148,0.02 0.168,0.016 h 0.168 l 0.168,0.019 h 0.656 l 0.231,-0.019 h 0.187 l 0.192,-0.016 h 0.191 l 0.168,-0.02 h 1.117 l 0.188,0.02 h 0.105 l 0.149,0.016 0.297,0.039 0.25,0.039 0.148,0.039 0.129,0.015 h 0.144 l 0.129,0.02 0.149,0.02 0.125,0.019 0.168,0.02 0.125,0.039 0.211,0.015 0.172,0.039 0.187,0.02 0.148,0.019 0.168,0.02 0.192,0.019 h 0.652 l 0.192,-0.019 h 1.179 l 0.149,0.019 h 0.125 l 0.125,0.016 h 0.949 l 0.168,-0.016 H 162 l 0.168,-0.019 h 0.191 l 0.149,-0.02 0.168,-0.019 0.191,-0.02 0.168,-0.019 0.188,-0.02 0.168,-0.015 0.148,-0.02 0.129,-0.019 0.144,-0.02 0.129,-0.019 0.149,-0.02 0.144,-0.035 0.149,-0.02 0.148,-0.039 0.106,-0.019 0.148,-0.02 h 0.399 l 0.168,-0.019 h 0.339 l 0.168,-0.016 h 1.516 l 0.148,-0.02 h 0.235 l 0.125,-0.019 h 0.633 l 0.125,0.019 0.129,0.036 0.25,0.078 0.148,0.039 0.125,0.015 0.148,0.04 0.149,0.019 0.105,0.02 0.149,0.019 h 0.125 l 0.129,0.02 h 1.179 l 0.106,0.015 0.187,0.02 h 0.297 l 0.106,0.019 h 0.105 l 0.125,0.02 h 0.297 l 0.211,0.019 h 0.211 l 0.211,0.02 h 0.379 l 0.125,-0.02 h 0.105 l 0.149,-0.019 h 0.105 l 0.125,-0.02 0.211,-0.039 0.106,-0.015 0.316,-0.059 0.234,-0.039 0.145,-0.02 0.148,-0.035 0.168,-0.019 0.106,-0.039 0.148,-0.055 0.168,-0.059 0.168,-0.054 0.191,-0.039 0.336,-0.078 0.106,-0.036 0.191,-0.039 0.106,-0.058 0.148,-0.035 0.125,-0.039 0.106,-0.059 0.105,-0.055 0.125,-0.058 0.129,-0.055 0.125,-0.059 0.125,-0.074 0.105,-0.058 0.129,-0.055 0.106,-0.078 0.125,-0.094 0.148,-0.113 0.149,-0.133 0.168,-0.133 0.187,-0.152 0.192,-0.153 0.191,-0.171 0.188,-0.133 0.148,-0.149 0.168,-0.113 0.148,-0.117 0.082,-0.113 0.149,-0.094 0.168,-0.153 0.148,-0.093 0.106,-0.094 0.105,-0.098 0.106,-0.093 0.129,-0.055 0.144,-0.133 0.129,-0.117 0.187,-0.133 0.106,-0.055 0.129,-0.093 0.125,-0.098 0.148,-0.113 0.125,-0.094 0.129,-0.094 0.207,-0.078 0.129,-0.094 0.149,-0.074 0.082,-0.078 0.086,-0.074 0.148,-0.153 0.082,-0.093 0.043,-0.118 0.086,-0.113 0.082,-0.133 0.086,-0.132 0.125,-0.149 0.062,-0.133 0.086,-0.152 0.125,-0.266 0.043,-0.132 0.063,-0.133 0.086,-0.227 0.043,-0.117 0.019,-0.133 0.02,-0.113 0.023,-0.153 v -0.433 l 0.02,-0.152 0.023,-0.153 v -0.285 l 0.039,-0.152 v -0.434 l -0.039,-0.172 v -0.32 l -0.023,-0.152 -0.02,-0.133 -0.023,-0.153 -0.039,-0.226 -0.024,-0.152 -0.043,-0.094 -0.019,-0.117 -0.043,-0.133 -0.02,-0.149 -0.043,-0.097 -0.125,-0.266 -0.066,-0.133 -0.063,-0.113 -0.082,-0.113 -0.105,-0.114 -0.106,-0.093 -0.086,-0.133 -0.105,-0.113 -0.062,-0.114 -0.211,-0.265 -0.106,-0.118 -0.105,-0.113 -0.086,-0.113 -0.106,-0.094 -0.101,-0.113 -0.106,-0.078 -0.211,-0.188 -0.129,-0.078 -0.105,-0.074 -0.125,-0.113 -0.106,-0.059 -0.128,-0.094 -0.125,-0.093 -0.125,-0.098 -0.129,-0.129 -0.125,-0.059 -0.125,-0.093 -0.106,-0.079 -0.129,-0.093 -0.082,-0.094 -0.129,-0.078 -0.105,-0.094 -0.106,-0.058 -0.148,-0.055 -0.082,-0.078 -0.106,-0.094 -0.086,-0.074 -0.082,-0.133 -0.128,-0.059 -0.106,-0.093 -0.125,-0.094 -0.125,-0.098 -0.148,-0.074 -0.129,-0.113 -0.125,-0.078 -0.149,-0.075 -0.125,-0.093 -0.086,-0.059 -0.105,-0.055 -0.106,-0.078 -0.082,-0.094 -0.129,-0.039 -0.124,-0.054 -0.106,-0.059 -0.125,-0.039 -0.086,-0.055 -0.105,-0.058 -0.106,-0.02 -0.082,-0.074 -0.148,-0.039 -0.106,-0.055 -0.148,-0.039 -0.125,-0.058 -0.149,-0.016 -0.129,-0.039 -0.25,-0.078 -0.128,-0.055 h -0.188 l -0.148,-0.019 -0.192,-0.04 -0.187,-0.035 -0.192,-0.019 -0.211,-0.02 -0.187,-0.058 h -0.211 l -0.445,-0.075 -0.231,-0.039 -0.23,-0.035 -0.211,-0.058 -0.168,-0.02 -0.211,-0.019 -0.192,-0.02 h -1.011 l -0.149,0.02 -0.168,0.019 -0.148,0.02 -0.125,0.039 -0.149,0.019 -0.148,0.016 -0.145,0.019 h -0.296 l -0.125,0.039 h -0.129 l -0.168,-0.039 h -0.149 l -0.187,-0.019 -0.192,-0.035 -0.187,-0.059 -0.192,-0.074 -0.191,-0.039 -0.144,-0.059 -0.168,-0.035 -0.149,-0.019 -0.105,-0.039 -0.129,-0.02 -0.106,-0.02 -0.125,-0.054 -0.148,-0.02 -0.125,-0.019 -0.168,-0.02 -0.106,-0.035 -0.234,-0.02 -0.25,-0.078 -0.191,-0.019 -0.168,-0.016 h -0.106 l -0.148,-0.019 -0.211,-0.02 -0.149,-0.039 -0.105,-0.019 -0.125,-0.036 -0.125,-0.039 -0.149,-0.058 -0.128,-0.055 -0.106,-0.039 -0.102,-0.039 -0.105,-0.035 -0.105,-0.02 -0.106,-0.039 -0.148,-0.019 -0.106,-0.02 -0.105,-0.016 -0.192,-0.039 h -0.715 l -0.191,0.075 -0.105,0.019 -0.106,0.059 -0.105,0.019 -0.106,0.016 h -0.144 l -0.149,0.039 h -0.129 l -0.125,0.019 h -0.441 l -0.149,0.02 -0.168,0.02 h -0.167 l -0.172,0.035 -0.168,0.039 -0.125,0.019 -0.192,0.039 -0.187,0.016 -0.297,0.039 -0.106,0.039 -0.168,0.039 -0.148,0.016 -0.125,0.019 -0.168,0.039 -0.297,0.039 -0.168,0.02 -0.148,0.035 -0.149,0.02 -0.144,0.019 -0.129,0.059 -0.106,0.035 -0.105,0.02 h -0.566 l -0.129,-0.02"
         style="fill:none;stroke:#3333cc;stroke-width:1.40999997;stroke-linecap:round;stroke-linejoin:round;stroke-miterlimit:10;stroke-dasharray:none;stroke-opacity:1"
         id="path352"
         inkscape:connector-curvature="0" />
      <text
         y="523.17773"
         x="207.46875"
         style="font-variant:normal;font-weight:normal;font-size:12px;font-family:'DejaVu Sans';-inkscape-font-specification:DejaVuSans;writing-mode:lr-tb;fill:#3333cc;fill-opacity:1;fill-rule:nonzero;stroke:none"
         id="text356">
        <tspan
           x="207.46875 215.46075"
           y="523.17773"
           sodipodi:role="line"
           id="tspan354">AC</tspan>
      </text>
      <text
         y="566.39648"
         x="202.51562"
         style="font-variant:normal;font-weight:normal;font-size:12px;font-family:'DejaVu Sans';-inkscape-font-specification:DejaVuSans;writing-mode:lr-tb;fill:#008000;fill-opacity:1;fill-rule:nonzero;stroke:none"
         id="text360">
        <tspan
           x="202.51562 210.53162"
           y="566.39648"
           sodipodi:role="line"
           id="tspan358">BC</tspan>
      </text>
      <path
         d="m 216.68,511.812 8.136,-0.246"
         style="fill:none;stroke:#3333cc;stroke-width:1.40999997;stroke-linecap:round;stroke-linejoin:round;stroke-miterlimit:10;stroke-dasharray:none;stroke-opacity:1"
         id="path362"
         inkscape:connector-curvature="0" />
      <path
         d="m 184.723,530.32 4.722,-1.879 4.723,-1.875 4.723,-1.878 4.718,-1.876"
         style="fill:none;stroke:#3333cc;stroke-width:1.40999997;stroke-linecap:round;stroke-linejoin:round;stroke-miterlimit:10;stroke-dasharray:none;stroke-opacity:1"
         id="path364"
         inkscape:connector-curvature="0" />
      <path
         d="m 160.293,560.832 11.492,0.594 5.75,0.297 5.746,0.297 5.75,0.296 5.746,0.297"
         style="fill:none;stroke:#008000;stroke-width:1.40999997;stroke-linecap:round;stroke-linejoin:round;stroke-miterlimit:10;stroke-dasharray:none;stroke-opacity:1"
         id="path366"
         inkscape:connector-curvature="0" />
      <path
         d="m 369.977,585.363 0.035,5.621 0.117,16.864 0.035,5.621"
         style="fill:none;stroke:#008000;stroke-width:1.40999997;stroke-linecap:round;stroke-linejoin:round;stroke-miterlimit:10;stroke-dasharray:none;stroke-opacity:1"
         id="path368"
         inkscape:connector-curvature="0" />
      <path
         d="m 370.383,586.574 -0.192,-0.058 -0.156,-0.141 0.223,-0.059 0.187,-0.027 0.192,-0.027 0.316,-0.028 0.285,-0.058 0.313,-0.028 0.316,-0.058 0.285,-0.028 0.348,-0.027 0.633,-0.117 0.285,-0.027 0.316,-0.055 0.286,-0.031 0.316,-0.055 0.254,-0.031 0.348,-0.028 0.316,-0.027 0.219,-0.027 0.285,-0.032 0.254,-0.027 h 0.851 l 0.285,-0.027 h 0.317 l 0.316,-0.028 0.285,-0.031 0.286,-0.054 0.222,-0.032 0.25,-0.054 0.223,-0.086 0.254,-0.059 0.285,-0.055 0.281,-0.086 0.317,-0.027 0.285,-0.059 0.57,-0.054 0.285,-0.031 h 4.078 l 0.286,0.031 0.253,0.027 0.317,0.027 0.281,0.028 0.223,0.031 0.254,0.027 0.222,0.028 0.219,0.031 0.254,0.027 0.187,0.028 0.223,0.058 0.191,0.028 0.157,0.027 0.191,0.031 0.156,0.028 0.161,0.027 0.25,0.059 0.222,0.054 0.223,0.059 0.219,0.054 0.254,0.059 0.285,0.055 0.222,0.058 0.286,0.059 0.25,0.055 0.191,0.058 0.223,0.055 0.187,0.058 0.191,0.055 0.188,0.031 0.16,0.055 0.188,0.031 0.191,0.055 0.188,0.059 0.191,0.086 0.191,0.054 0.188,0.059 0.191,0.055 0.188,0.086 0.254,0.058 0.191,0.082 0.25,0.086 0.191,0.059 0.157,0.086 0.16,0.054 0.254,0.086 0.25,0.086 0.254,0.199 0.222,0.114 0.125,0.113 0.192,0.113 0.187,0.086 0.223,0.227 0.223,0.23 0.125,0.086 0.125,0.113 0.128,0.114 0.188,0.168 0.191,0.172 0.192,0.226 0.125,0.117 0.125,0.168 0.097,0.145 0.157,0.168 0.093,0.144 0.223,0.285 0.156,0.254 0.129,0.145 0.125,0.195 0.129,0.172 0.125,0.199 0.094,0.172 0.129,0.199 0.125,0.172 0.125,0.196 0.129,0.171 0.187,0.286 0.192,0.257 0.093,0.168 0.129,0.172 0.25,0.399 0.129,0.226 0.094,0.172 0.094,0.199 0.097,0.168 0.094,0.2 0.094,0.23 0.062,0.227 0.098,0.253 0.063,0.231 0.062,0.226 0.094,0.2 0.031,0.199 0.066,0.254 0.032,0.23 0.062,0.254 0.063,0.172 0.031,0.199 0.062,0.172 0.032,0.168 v 0.172 l 0.035,0.172 v 0.738 l -0.035,0.258 v 0.227 l -0.032,0.253 -0.062,0.231 -0.063,0.254 -0.062,0.258 -0.094,0.254 -0.098,0.257 -0.093,0.286 -0.094,0.253 -0.098,0.258 -0.093,0.227 -0.094,0.199 -0.063,0.227 -0.097,0.171 -0.125,0.399 -0.094,0.168 -0.098,0.144 -0.062,0.172 -0.125,0.282 -0.094,0.171 -0.066,0.172 -0.094,0.199 -0.063,0.168 -0.093,0.172 -0.098,0.172 -0.094,0.168 -0.062,0.199 -0.094,0.172 -0.066,0.199 -0.063,0.2 -0.062,0.172 -0.063,0.168 -0.098,0.144 -0.062,0.172 -0.125,0.254 -0.094,0.199 -0.129,0.285 -0.094,0.227 -0.093,0.172 -0.16,0.199 -0.094,0.168 -0.125,0.086 -0.129,0.172 -0.125,0.14 -0.191,0.086 -0.125,0.172 -0.161,0.113 -0.156,0.114 -0.16,0.113 -0.125,0.144 -0.191,0.114 -0.188,0.113 -0.16,0.172 -0.156,0.086 -0.161,0.113 -0.156,0.113 -0.254,0.141 -0.218,0.145 -0.161,0.054 -0.285,0.114 -0.187,0.085 -0.285,0.145 -0.192,0.082 -0.156,0.086 -0.223,0.086 -0.254,0.113 -0.25,0.114 -0.285,0.113 -0.285,0.117 -0.254,0.082 -0.222,0.086 -0.282,0.086 -0.16,0.058 -0.223,0.086 -0.218,0.055 -0.16,0.059 -0.188,0.027 -0.191,0.059 -0.219,0.027 -0.192,0.055 -0.253,0.058 -0.254,0.055 -0.282,0.059 -0.253,0.085 -0.286,0.086 -0.222,0.086 -0.219,0.082 -0.762,0.258 -0.219,0.086 -0.191,0.086 -0.223,0.055 -0.218,0.058 -0.16,0.055 -0.188,0.031 -0.316,0.055 -0.254,0.059 -0.348,0.054 -0.254,0.032 -0.285,0.027 -0.316,0.055 -0.313,0.085 -0.285,0.086 -0.508,0.172 -0.223,0.086 -0.281,0.113 -0.191,0.086 -0.188,0.055 -0.191,0.059 -0.16,0.054 -0.219,0.032 h -0.16 l -0.219,0.027 -0.223,0.027 -0.253,0.028 -0.317,0.031 -0.316,0.055 -0.285,0.031 h -0.282 l -0.254,0.027 h -0.824 l -0.281,0.055 -0.254,0.059 -0.16,0.027 -0.219,0.086 -0.191,0.058 -0.188,0.055 -0.285,0.113 -0.254,0.059 -0.16,0.027 -0.156,0.032 -0.254,0.054 -0.156,0.028 -0.161,0.031 -0.187,0.054 -0.254,0.028 -0.254,0.031 -0.285,0.027 h -0.285 l -0.25,0.028 -0.285,0.031 h -0.16 L 375,614.734 h -1.359 l -0.192,-0.027 h -0.187 l -0.192,-0.031 -0.156,-0.028 -0.191,-0.027 -0.285,-0.031 -0.223,-0.028 -0.219,-0.054 -0.191,-0.059 -0.188,-0.054 -0.222,-0.059 -0.223,-0.086 h -0.156 l -0.223,-0.027 h -0.602 l 0.317,-0.145 0.222,-0.14"
         style="fill:none;stroke:#008000;stroke-width:1.40999997;stroke-linecap:round;stroke-linejoin:round;stroke-miterlimit:10;stroke-dasharray:none;stroke-opacity:1"
         id="path370"
         inkscape:connector-curvature="0" />
      <path
         d="m 369.062,539.879 0.04,5.621 0.035,5.621 0.078,11.242 0.035,5.621"
         style="fill:none;stroke:#3333cc;stroke-width:1.40999997;stroke-linecap:round;stroke-linejoin:round;stroke-miterlimit:10;stroke-dasharray:none;stroke-opacity:1"
         id="path372"
         inkscape:connector-curvature="0" />
      <path
         d="m 369.469,541.09 -0.188,-0.055 -0.16,-0.144 0.223,-0.055 0.187,-0.031 0.192,-0.028 0.316,-0.027 0.285,-0.059 0.317,-0.027 0.316,-0.059 0.281,-0.027 0.348,-0.027 0.316,-0.059 0.317,-0.054 0.285,-0.032 0.316,-0.054 0.285,-0.028 0.317,-0.058 0.254,-0.028 0.347,-0.031 0.317,-0.027 0.219,-0.028 0.285,-0.027 0.254,-0.031 h 0.855 l 0.281,-0.028 h 0.317 l 0.316,-0.027 0.285,-0.031 0.286,-0.055 0.222,-0.027 0.25,-0.059 0.223,-0.086 0.254,-0.054 0.285,-0.059 0.285,-0.086 0.316,-0.027 0.282,-0.059 0.855,-0.082 h 4.078 l 0.285,0.027 0.254,0.028 0.317,0.027 0.285,0.031 0.219,0.028 0.254,0.027 0.222,0.031 0.219,0.028 0.254,0.027 0.191,0.027 0.219,0.059 0.191,0.027 0.157,0.028 0.191,0.031 0.156,0.027 0.16,0.028 0.254,0.058 0.219,0.055 0.445,0.117 0.25,0.055 0.286,0.058 0.222,0.055 0.285,0.059 0.254,0.054 0.188,0.059 0.223,0.058 0.187,0.055 0.191,0.059 0.188,0.027 0.16,0.055 0.191,0.031 0.188,0.055 0.191,0.058 0.188,0.086 0.191,0.055 0.188,0.058 0.191,0.055 0.188,0.086 0.254,0.059 0.191,0.086 0.254,0.086 0.187,0.054 0.161,0.086 0.156,0.059 0.254,0.082 0.254,0.086 0.25,0.199 0.222,0.113 0.125,0.114 0.192,0.117 0.191,0.082 0.219,0.23 0.222,0.227 0.126,0.086 0.128,0.113 0.125,0.113 0.192,0.172 0.187,0.168 0.192,0.231 0.125,0.113 0.125,0.168 0.097,0.144 0.157,0.172 0.097,0.141 0.219,0.285 0.16,0.254 0.125,0.145 0.125,0.199 0.129,0.168 0.125,0.199 0.094,0.172 0.129,0.199 0.125,0.172 0.129,0.199 0.125,0.168 0.191,0.285 0.188,0.258 0.093,0.168 0.129,0.172 0.125,0.199 0.129,0.199 0.125,0.227 0.094,0.172 0.094,0.199 0.097,0.172 0.094,0.199 0.094,0.227 0.066,0.226 0.094,0.258 0.125,0.453 0.094,0.199 0.035,0.2 0.062,0.257 0.032,0.227 0.062,0.254 0.063,0.172 0.031,0.199 0.066,0.172 0.031,0.172 v 0.168 l 0.032,0.172 v 0.738 l -0.032,0.258 v 0.226 l -0.031,0.258 -0.066,0.227 -0.063,0.253 -0.062,0.258 -0.094,0.254 -0.098,0.258 -0.093,0.285 -0.094,0.254 -0.094,0.258 -0.097,0.226 -0.094,0.2 -0.063,0.226 -0.097,0.172 -0.125,0.399 -0.094,0.171 -0.094,0.141 -0.066,0.172 -0.063,0.141 -0.062,0.144 -0.094,0.168 -0.063,0.172 -0.097,0.199 -0.063,0.172 -0.093,0.168 -0.098,0.172 -0.094,0.172 -0.062,0.199 -0.094,0.168 -0.063,0.199 -0.066,0.199 -0.125,0.344 -0.094,0.141 -0.066,0.172 -0.125,0.254 -0.094,0.199 -0.129,0.285 -0.094,0.226 -0.093,0.172 -0.16,0.2 -0.094,0.171 -0.125,0.086 -0.129,0.168 -0.125,0.145 -0.192,0.082 -0.125,0.172 -0.156,0.113 -0.16,0.113 -0.156,0.118 -0.129,0.14 -0.188,0.113 -0.191,0.114 -0.156,0.172 -0.16,0.085 -0.157,0.114 -0.16,0.113 -0.254,0.141 -0.218,0.144 -0.161,0.055 -0.285,0.117 -0.187,0.082 -0.285,0.145 -0.192,0.086 -0.156,0.082 -0.223,0.086 -0.25,0.113 -0.254,0.117 -0.57,0.227 -0.254,0.086 -0.219,0.085 -0.285,0.083 -0.16,0.058 -0.219,0.086 -0.222,0.055 -0.157,0.058 -0.191,0.028 -0.191,0.058 -0.219,0.028 -0.192,0.058 -0.253,0.055 -0.25,0.058 -0.286,0.055 -0.254,0.086 -0.285,0.086 -0.218,0.086 -0.223,0.086 -0.254,0.082 -0.254,0.086 -0.25,0.086 -0.223,0.086 -0.191,0.086 -0.219,0.054 -0.222,0.059 -0.157,0.059 -0.191,0.027 -0.316,0.055 -0.254,0.058 -0.348,0.059 -0.254,0.027 -0.281,0.027 -0.317,0.059 -0.316,0.086 -0.285,0.082 -0.508,0.172 -0.219,0.086 -0.285,0.113 -0.191,0.086 -0.188,0.055 -0.191,0.058 -0.156,0.059 -0.223,0.027 h -0.156 l -0.446,0.055 -0.254,0.031 -0.316,0.028 -0.312,0.058 -0.286,0.027 h -0.285 l -0.254,0.028 h -0.82 l -0.285,0.058 -0.254,0.055 -0.156,0.031 -0.223,0.082 -0.191,0.059 -0.188,0.055 -0.285,0.117 -0.254,0.055 -0.156,0.027 -0.16,0.031 -0.254,0.055 -0.156,0.031 -0.161,0.027 -0.187,0.055 -0.254,0.031 -0.254,0.028 -0.285,0.027 h -0.281 l -0.254,0.031 -0.285,0.028 h -0.157 l -0.191,0.027 h -1.359 l -0.192,-0.027 h -0.187 l -0.192,-0.028 -0.156,-0.031 -0.191,-0.027 -0.286,-0.028 -0.218,-0.031 -0.223,-0.055 -0.191,-0.058 -0.188,-0.055 -0.223,-0.058 -0.218,-0.086 h -0.16 l -0.223,-0.028 h -0.598 l 0.317,-0.14 0.218,-0.145"
         style="fill:none;stroke:#3333cc;stroke-width:1.40999997;stroke-linecap:round;stroke-linejoin:round;stroke-miterlimit:10;stroke-dasharray:none;stroke-opacity:1"
         id="path374"
         inkscape:connector-curvature="0" />
      <path
         d="m 370.676,636.562 0.035,5.622 0.117,16.863 0.035,5.621"
         style="fill:none;stroke:#ff00ff;stroke-width:1.40999997;stroke-linecap:round;stroke-linejoin:round;stroke-miterlimit:10;stroke-dasharray:none;stroke-opacity:1"
         id="path376"
         inkscape:connector-curvature="0" />
      <path
         d="m 371.082,637.773 -0.191,-0.058 -0.157,-0.141 0.223,-0.058 0.188,-0.028 0.191,-0.027 0.316,-0.027 0.286,-0.059 0.312,-0.027 0.316,-0.059 0.286,-0.027 0.347,-0.028 0.633,-0.117 0.285,-0.027 0.317,-0.055 0.285,-0.031 0.316,-0.055 0.254,-0.031 0.348,-0.027 0.316,-0.028 0.219,-0.027 0.285,-0.031 0.254,-0.028 h 0.851 l 0.286,-0.027 h 0.316 l 0.316,-0.031 0.286,-0.028 0.285,-0.054 0.222,-0.032 0.25,-0.054 0.223,-0.086 0.254,-0.059 0.285,-0.054 0.281,-0.086 0.317,-0.028 0.285,-0.058 0.57,-0.055 0.285,-0.031 h 4.079 l 0.285,0.031 0.254,0.027 0.316,0.028 0.281,0.027 0.223,0.031 0.254,0.028 0.223,0.027 0.218,0.031 0.254,0.028 0.192,0.027 0.218,0.059 0.192,0.027 0.156,0.027 0.191,0.031 0.157,0.028 0.16,0.027 0.25,0.059 0.222,0.054 0.223,0.059 0.219,0.055 0.254,0.058 0.285,0.055 0.223,0.059 0.285,0.058 0.25,0.055 0.191,0.058 0.223,0.055 0.187,0.059 0.192,0.054 0.187,0.032 0.16,0.054 0.188,0.032 0.191,0.054 0.188,0.059 0.191,0.086 0.192,0.055 0.187,0.058 0.191,0.055 0.188,0.086 0.254,0.058 0.191,0.082 0.25,0.086 0.192,0.059 0.156,0.086 0.16,0.054 0.254,0.086 0.25,0.086 0.254,0.2 0.223,0.113 0.125,0.113 0.191,0.113 0.187,0.086 0.223,0.227 0.223,0.23 0.125,0.086 0.125,0.114 0.129,0.113 0.187,0.168 0.192,0.172 0.191,0.226 0.125,0.117 0.125,0.168 0.098,0.145 0.156,0.168 0.094,0.145 0.222,0.285 0.16,0.254 0.125,0.14 0.125,0.199 0.129,0.172 0.125,0.2 0.094,0.171 0.129,0.2 0.125,0.168 0.125,0.199 0.129,0.172 0.187,0.285 0.192,0.254 0.094,0.172 0.128,0.171 0.25,0.399 0.129,0.226 0.094,0.172 0.094,0.2 0.098,0.168 0.093,0.199 0.094,0.23 0.063,0.227 0.097,0.254 0.063,0.23 0.062,0.227 0.094,0.199 0.031,0.199 0.067,0.254 0.031,0.231 0.062,0.253 0.063,0.172 0.031,0.2 0.063,0.171 0.031,0.168 v 0.172 l 0.035,0.172 v 0.738 l -0.035,0.258 v 0.227 l -0.031,0.254 -0.063,0.23 -0.062,0.254 -0.063,0.258 -0.094,0.254 -0.097,0.258 -0.094,0.285 -0.094,0.254 -0.097,0.257 -0.094,0.227 -0.094,0.199 -0.062,0.227 -0.098,0.172 -0.125,0.398 -0.094,0.168 -0.098,0.145 -0.062,0.172 -0.125,0.281 -0.094,0.172 -0.066,0.171 -0.094,0.2 -0.062,0.168 -0.094,0.172 -0.098,0.171 -0.094,0.168 -0.062,0.2 -0.094,0.171 -0.066,0.2 -0.063,0.199 -0.062,0.172 -0.063,0.168 -0.097,0.144 -0.063,0.172 -0.125,0.254 -0.094,0.199 -0.129,0.285 -0.093,0.227 -0.094,0.172 -0.16,0.199 -0.094,0.168 -0.125,0.086 -0.129,0.172 -0.125,0.141 -0.191,0.085 -0.125,0.172 -0.16,0.114 -0.157,0.113 -0.16,0.113 -0.125,0.145 -0.191,0.113 -0.188,0.113 -0.16,0.172 -0.156,0.086 -0.16,0.113 -0.157,0.114 -0.253,0.14 -0.219,0.145 -0.16,0.054 -0.285,0.114 -0.188,0.086 -0.285,0.144 -0.192,0.082 -0.156,0.086 -0.222,0.086 -0.254,0.113 -0.25,0.114 -0.286,0.113 -0.285,0.117 -0.254,0.082 -0.222,0.086 -0.282,0.086 -0.16,0.059 -0.222,0.086 -0.219,0.054 -0.16,0.059 -0.188,0.027 -0.191,0.055 -0.219,0.031 -0.191,0.055 -0.254,0.058 -0.254,0.055 -0.281,0.059 -0.254,0.086 -0.285,0.086 -0.223,0.086 -0.219,0.082 -0.762,0.257 -0.218,0.086 -0.192,0.086 -0.218,0.055 -0.223,0.059 -0.16,0.054 -0.188,0.032 -0.316,0.054 -0.254,0.059 -0.348,0.054 -0.254,0.032 -0.285,0.027 -0.316,0.055 -0.313,0.086 -0.285,0.086 -0.508,0.171 -0.218,0.086 -0.286,0.114 -0.191,0.086 -0.187,0.054 -0.192,0.059 -0.16,0.055 -0.219,0.031 h -0.16 l -0.219,0.027 -0.222,0.028 -0.254,0.027 -0.317,0.031 -0.316,0.055 -0.281,0.031 h -0.285 l -0.254,0.027 h -0.825 l -0.281,0.055 -0.254,0.059 -0.16,0.027 -0.219,0.086 -0.191,0.059 -0.188,0.054 -0.285,0.114 -0.254,0.058 -0.16,0.027 -0.156,0.028 -0.254,0.058 -0.156,0.028 -0.16,0.031 -0.188,0.055 -0.254,0.027 -0.254,0.031 -0.285,0.028 h -0.285 l -0.25,0.027 -0.285,0.031 h -0.16 l -0.188,0.028 h -1.359 l -0.192,-0.028 h -0.187 l -0.191,-0.031 -0.157,-0.027 -0.191,-0.028 -0.285,-0.031 -0.223,-0.027 -0.219,-0.055 -0.191,-0.059 -0.188,-0.058 -0.222,-0.055 -0.223,-0.086 h -0.156 l -0.223,-0.027 h -0.601 l 0.316,-0.145 0.223,-0.14"
         style="fill:none;stroke:#ff00ff;stroke-width:1.40999997;stroke-linecap:round;stroke-linejoin:round;stroke-miterlimit:10;stroke-dasharray:none;stroke-opacity:1"
         id="path378"
         inkscape:connector-curvature="0" />
      <path
         d="m 461.48,551.246 -0.125,-0.172 -0.191,-0.086 -0.125,-0.14"
         style="fill:none;stroke:#000000;stroke-width:1.40999997;stroke-linecap:round;stroke-linejoin:round;stroke-miterlimit:10;stroke-dasharray:none;stroke-opacity:1"
         id="path380"
         inkscape:connector-curvature="0" />
      <path
         d="m 460.945,550.707 -0.16,-0.145 -0.191,-0.085 -0.188,-0.114 0.188,-0.086 h 0.191 l 0.192,0.059 0.218,0.027 0.223,0.059 0.254,0.113 0.25,0.086 0.191,0.086 0.254,0.113 0.125,0.086 0.254,0.141 0.125,0.113 0.129,0.113 0.219,0.172 0.129,0.114 0.218,0.171 0.067,0.141 0.125,0.145 0.125,0.14 0.097,0.172 0.125,0.086 0.094,0.168 0.129,0.113 0.094,0.172 0.125,0.141 0.066,0.144 0.125,0.172 0.125,0.082 0.098,0.172 0.125,0.113 0.062,0.172 0.063,0.141 0.098,0.172 0.093,0.14 0.094,0.172 0.094,0.145 0.098,0.168 0.062,0.144 0.094,0.141 0.062,0.141 0.098,0.144 0.094,0.141 0.062,0.172 0.094,0.14 0.098,0.231 0.093,0.168 0.063,0.172 0.062,0.14 0.098,0.172 0.125,0.285 0.16,0.285 0.063,0.2 0.062,0.168 0.094,0.171 0.062,0.172 0.098,0.168 0.063,0.172 0.093,0.227 0.094,0.172 0.098,0.226 0.187,0.344 0.063,0.168 0.097,0.144 0.063,0.141 0.062,0.172 0.063,0.199 0.097,0.199 0.063,0.2 0.094,0.199 0.093,0.168 0.067,0.172 0.062,0.171 0.094,0.172 0.063,0.2 0.062,0.168 0.067,0.199 0.125,0.343 0.031,0.168 0.062,0.172 0.032,0.2 0.066,0.226 0.031,0.227 0.063,0.257 0.031,0.227 0.062,0.199 0.063,0.227 0.031,0.172 0.067,0.172 0.062,0.398 0.063,0.227 0.062,0.398 0.063,0.172 0.031,0.168 0.035,0.199 0.031,0.231 0.063,0.226 0.062,0.254 0.032,0.285 0.031,0.258 0.031,0.254 v 0.258 l 0.031,0.226 0.032,0.258 0.035,0.254 v 0.258 l 0.031,0.254 0.031,0.258 v 0.253 l 0.031,0.258 v 1.563 l 0.032,0.285 v 0.285 l 0.031,0.285 v 4.379 l -0.031,0.258 v 0.254 l -0.032,0.258 -0.031,0.226 -0.031,0.199 -0.066,0.227 -0.063,0.344 -0.031,0.168 -0.031,0.199 -0.063,0.23 -0.031,0.227 -0.063,0.199 -0.031,0.227 -0.035,0.172 -0.063,0.199 -0.062,0.398 -0.063,0.2 -0.031,0.167 -0.062,0.399 -0.036,0.199 -0.062,0.199 -0.031,0.2 -0.063,0.343 -0.031,0.2 -0.031,0.167 -0.063,0.2 -0.031,0.258 -0.066,0.226 -0.063,0.258 -0.062,0.195 -0.063,0.199 -0.062,0.172 -0.032,0.172 -0.066,0.172 -0.031,0.168 -0.063,0.145 -0.094,0.281 -0.062,0.172 -0.129,0.285 -0.094,0.285 -0.062,0.141 -0.032,0.171 -0.066,0.141 -0.125,0.344 -0.125,0.254 -0.066,0.226 -0.094,0.2 -0.125,0.23 -0.063,0.168 -0.128,0.172 -0.125,0.285 -0.094,0.141 -0.098,0.172 -0.094,0.14 -0.093,0.172 -0.098,0.199 -0.094,0.172 -0.094,0.199 -0.128,0.2 -0.094,0.199 -0.094,0.168 -0.062,0.172 -0.161,0.285 -0.156,0.199 -0.094,0.172 -0.129,0.254 -0.093,0.172 -0.094,0.199 -0.129,0.168 -0.094,0.199 -0.125,0.172 -0.129,0.172 -0.125,0.199 -0.16,0.168 -0.125,0.172 -0.16,0.226 -0.125,0.172 -0.094,0.227 -0.129,0.285 -0.125,0.199 -0.031,0.172 -0.125,0.285 -0.097,0.168 -0.188,0.344 -0.16,0.227 -0.156,0.14 -0.192,0.231 -0.187,0.281 -0.446,0.344 -0.25,0.226 -0.16,0.114 -0.125,0.113 -0.129,0.086 -0.156,0.172 -0.16,0.171 -0.188,0.227 -0.191,0.227 -0.219,0.199"
         style="fill:none;stroke:#000000;stroke-width:1.40999997;stroke-linecap:round;stroke-linejoin:round;stroke-miterlimit:10;stroke-dasharray:none;stroke-opacity:1"
         id="path382"
         inkscape:connector-curvature="0" />
      <path
         d="m 462.273,550.562 -0.097,-0.167 -0.125,-0.172 0.222,0.113 h 0.696 l 0.219,-0.059 h 0.316 l 0.285,-0.027 0.316,-0.113 0.317,-0.059 0.316,-0.113 0.317,-0.055 0.316,-0.086 0.317,-0.027 0.316,-0.031 h 1.453 l 0.316,0.031 0.317,0.027 0.316,0.055 0.317,0.031 h 0.347 l 0.348,0.028 0.379,-0.028 h 0.379 l 0.347,-0.086 0.348,-0.027 0.317,-0.059 0.285,-0.058 0.285,-0.028 0.254,-0.027 0.285,-0.027 0.316,-0.059 h 2.75 l 0.317,0.059 0.316,0.027 0.316,0.055 h 0.317 l 0.348,0.058 0.316,0.028 0.348,0.058 0.347,0.055 0.379,0.059 0.348,0.027 0.347,0.113 0.348,0.059 0.317,0.086 0.347,0.054 0.348,0.145 0.348,0.113 0.695,0.172 0.347,0.082 0.379,0.059 0.379,0.113 0.414,0.113 0.411,0.086 0.441,0.145 0.441,0.14 0.446,0.114 0.41,0.086 0.41,0.171 0.379,0.114 0.383,0.14 0.347,0.172 0.348,0.086 0.348,0.141 0.949,0.34 0.281,0.086 0.317,0.113 0.285,0.117 0.316,0.055 0.316,0.172 0.317,0.086 0.348,0.113 0.347,0.086 0.317,0.082 0.347,0.058 0.285,0.114 0.633,0.171 0.317,0.055 0.316,0.086 0.316,0.059 0.348,0.054 0.695,0.172 0.348,0.028 0.316,0.117 0.317,0.027 0.316,0.055 0.285,0.058 0.282,0.028 h 0.285 l 0.285,0.086 0.223,0.027 0.254,0.031 0.218,0.082 0.223,0.059 0.285,0.059 0.188,0.054 0.285,0.028 0.222,0.085 0.219,0.059 0.254,0.055 0.223,0.058 0.254,0.086 0.218,0.114 0.254,0.113 0.192,0.113 0.218,0.113 0.223,0.086 0.192,0.114 0.218,0.113 0.192,0.172 0.218,0.144 0.223,0.141 0.285,0.141 0.192,0.171 0.281,0.172 0.223,0.141 0.222,0.144 0.25,0.2 0.254,0.113 0.223,0.199 0.254,0.168 0.25,0.172 0.254,0.172 0.285,0.168 0.508,0.398 0.25,0.258 0.285,0.227 0.254,0.285 0.285,0.254 0.254,0.258 0.281,0.257 0.285,0.254 0.223,0.2 0.222,0.226 0.219,0.172 0.192,0.199 0.187,0.199 0.223,0.172 0.191,0.227 0.219,0.172 0.223,0.226 0.125,0.141 0.222,0.144 0.125,0.141 0.129,0.141 0.188,0.144 0.129,0.172 0.156,0.141 0.191,0.172 0.156,0.168 0.161,0.199 0.156,0.172 0.191,0.226 0.188,0.231 0.222,0.254 0.254,0.285 0.285,0.285 0.188,0.285 0.254,0.34 0.187,0.371 0.223,0.367 0.191,0.371 0.188,0.34 0.191,0.313 0.094,0.285 0.125,0.199 0.098,0.227 0.187,0.343 0.067,0.168 0.156,0.285 0.094,0.2 0.097,0.23 0.125,0.168 0.157,0.172 0.222,0.254 0.125,0.199 0.129,0.199 0.156,0.145 0.129,0.226 0.125,0.2"
         style="fill:none;stroke:#000000;stroke-width:1.40999997;stroke-linecap:round;stroke-linejoin:round;stroke-miterlimit:10;stroke-dasharray:none;stroke-opacity:1"
         id="path384"
         inkscape:connector-curvature="0" />
      <path
         d="m 461.355,598.492 0.188,-0.027 0.316,-0.059 h 0.317 l 0.222,-0.027 h 0.188 l 0.223,-0.027 0.191,-0.032 0.219,-0.027 0.191,-0.027 0.188,-0.032 0.382,-0.054 h 0.157 l 0.191,-0.028 h 0.156 l 0.192,-0.031 0.156,-0.027 0.191,-0.028 0.188,-0.027 0.223,-0.031 h 0.191 l 0.219,-0.028 0.222,-0.027 0.188,-0.031 0.191,-0.027 0.157,-0.028 0.253,-0.027 0.254,-0.031 0.223,-0.055 0.156,-0.031 h 0.981 l 0.222,-0.028 0.286,-0.054 0.218,-0.059 0.254,-0.027 h 0.192 l 0.218,-0.059 0.192,-0.027 0.254,-0.059 0.218,-0.055 0.254,-0.031 H 471 l 0.219,-0.027 0.254,-0.027 0.222,-0.028 h 0.95 l 0.156,-0.031 h 3.164 l 0.25,0.031 0.191,0.028 h 0.918 l 0.156,0.027 0.317,0.027 h 2.34 l 0.222,-0.027 h 1.075 l 0.222,-0.027 h 0.442 l 0.285,-0.028 0.254,-0.031 h 0.281 l 0.57,-0.055 0.285,-0.031 0.856,-0.082 0.219,-0.031 0.254,-0.028 0.191,-0.027 0.219,-0.027 0.222,-0.059 0.188,-0.027 0.191,-0.059 0.192,-0.055 0.187,-0.058 0.192,-0.059 0.218,-0.082 0.192,-0.086 0.222,-0.086 0.188,-0.113 0.223,-0.086 0.187,-0.086 0.383,-0.172 0.219,-0.113 0.222,-0.086 0.223,-0.113 0.219,-0.113 0.222,-0.114 0.223,-0.14 0.219,-0.172 0.191,-0.141 0.219,-0.144 0.191,-0.141 0.223,-0.145 0.219,-0.14 0.222,-0.172 0.192,-0.141 0.219,-0.172 0.191,-0.171 0.187,-0.168 0.192,-0.145 0.156,-0.141 0.192,-0.144 0.156,-0.113 0.16,-0.114 0.156,-0.113 0.192,-0.141 0.156,-0.113 0.16,-0.144 0.156,-0.172 0.192,-0.114 0.156,-0.14 0.191,-0.172 0.192,-0.141 0.187,-0.171 0.192,-0.141 0.156,-0.145 0.16,-0.14 0.188,-0.114 0.16,-0.113 0.285,-0.258 0.25,-0.226 0.129,-0.113 0.125,-0.086 0.125,-0.114 0.191,-0.086 0.156,-0.14 0.161,-0.145 0.156,-0.14 0.191,-0.172 0.192,-0.114 0.156,-0.113 0.16,-0.172 0.187,-0.113 0.161,-0.141 0.156,-0.144 0.191,-0.086 0.282,-0.227 0.222,-0.172 0.125,-0.085 0.16,-0.114 0.125,-0.086 0.161,-0.113 0.187,-0.113 0.098,-0.141 0.187,-0.113 0.16,-0.172 0.219,-0.172 0.223,-0.168 0.191,-0.172 0.188,-0.113 0.191,-0.172 0.188,-0.113 0.191,-0.172 0.187,-0.141 0.161,-0.144 0.187,-0.114 0.16,-0.113 0.157,-0.113 0.16,-0.141 0.156,-0.113 0.16,-0.117 0.156,-0.082 0.286,-0.199 0.222,-0.2 0.125,-0.113 0.192,-0.172 0.125,-0.086 0.128,-0.14 0.188,-0.118 0.094,-0.168 0.129,-0.171 0.187,-0.172 0.129,-0.168 0.156,-0.172 0.192,-0.199 0.156,-0.141 0.191,-0.199 0.188,-0.172 0.191,-0.172 0.157,-0.141 0.191,-0.113 0.094,-0.144 0.191,-0.114 0.094,-0.14 0.129,-0.145 0.125,-0.14 0.125,-0.086 0.129,-0.141 0.125,-0.145 0.191,-0.14 0.094,-0.145 0.125,-0.113 0.191,-0.168 0.094,-0.144 0.129,-0.141 0.125,-0.145 0.187,-0.199 0.161,-0.226 0.156,-0.168 0.129,-0.2 0.156,-0.171 0.16,-0.2 0.156,-0.226 0.063,-0.145 0.097,-0.14 0.157,-0.227 0.129,-0.199 0.125,-0.344 0.093,-0.141 0.094,-0.171 0.067,-0.172 0.125,-0.2 0.062,-0.14 0.098,-0.227 0.062,-0.144 0.063,-0.141 0.062,-0.172 0.16,-0.226 0.157,-0.2 0.125,-0.171 0.097,-0.2 0.094,-0.199 0.063,-0.226 0.062,-0.172 0.031,-0.2 0.035,-0.167 0.063,-0.2 0.125,-0.285 0.094,-0.258 0.097,-0.254 0.094,-0.199 0.094,-0.172 0.097,-0.168 0.032,-0.199 0.031,-0.172 0.062,-0.199 0.094,-0.227 0.063,-0.257 0.066,-0.172 0.063,-0.141 0.062,-0.172 0.063,-0.168 0.062,-0.144 0.098,-0.227 0.094,-0.199 0.093,-0.254 0.094,-0.258 0.098,-0.258 0.093,-0.167 0.094,-0.2 0.067,-0.172 0.187,-0.398 0.16,0.113 0.188,0.344"
         style="fill:none;stroke:#000000;stroke-width:1.40999997;stroke-linecap:round;stroke-linejoin:round;stroke-miterlimit:10;stroke-dasharray:none;stroke-opacity:1"
         id="path386"
         inkscape:connector-curvature="0" />
      <path
         d="m 343.98,545.926 5.993,-0.133 5.992,-0.137 5.992,-0.133 5.992,-0.136"
         style="fill:none;stroke:#000000;stroke-width:1.40999997;stroke-linecap:round;stroke-linejoin:round;stroke-miterlimit:10;stroke-dasharray:none;stroke-opacity:1"
         id="path388"
         inkscape:connector-curvature="0" />
      <path
         d="m 344.613,645.113 10.078,-0.375 5.043,-0.187 10.078,-0.375"
         style="fill:none;stroke:#000000;stroke-width:1.40999997;stroke-linecap:round;stroke-linejoin:round;stroke-miterlimit:10;stroke-dasharray:none;stroke-opacity:1"
         id="path390"
         inkscape:connector-curvature="0" />
      <path
         d="m 344.137,660.074 10.234,-0.578 5.113,-0.293 10.235,-0.578"
         style="fill:none;stroke:#000000;stroke-width:1.40999997;stroke-linecap:round;stroke-linejoin:round;stroke-miterlimit:10;stroke-dasharray:none;stroke-opacity:1"
         id="path392"
         inkscape:connector-curvature="0" />
      <path
         d="m 401.594,553.066 5.715,0.098 5.718,0.102 5.719,0.097 5.719,0.102 5.719,0.097 5.714,0.102"
         style="fill:none;stroke:#000000;stroke-width:1.40999997;stroke-linecap:round;stroke-linejoin:round;stroke-miterlimit:10;stroke-dasharray:none;stroke-opacity:1"
         id="path394"
         inkscape:connector-curvature="0" />
      <path
         d="m 435.141,553.719 0.441,9.074"
         style="fill:none;stroke:#000000;stroke-width:1.40999997;stroke-linecap:round;stroke-linejoin:round;stroke-miterlimit:10;stroke-dasharray:none;stroke-opacity:1"
         id="path396"
         inkscape:connector-curvature="0" />
      <path
         d="m 435.363,563.105 5.621,-0.089 5.625,-0.09 5.621,-0.09 5.625,-0.09 5.622,-0.09 5.625,-0.09"
         style="fill:none;stroke:#000000;stroke-width:1.40999997;stroke-linecap:round;stroke-linejoin:round;stroke-miterlimit:10;stroke-dasharray:none;stroke-opacity:1"
         id="path398"
         inkscape:connector-curvature="0" />
      <path
         d="m 402.445,598.492 6.215,0.008 6.211,0.008 6.215,0.004 6.215,0.008"
         style="fill:none;stroke:#000000;stroke-width:1.40999997;stroke-linecap:round;stroke-linejoin:round;stroke-miterlimit:10;stroke-dasharray:none;stroke-opacity:1"
         id="path400"
         inkscape:connector-curvature="0" />
      <path
         d="m 427.141,598.293 0.023,-6.191 0.039,-12.383"
         style="fill:none;stroke:#000000;stroke-width:1.40999997;stroke-linecap:round;stroke-linejoin:round;stroke-miterlimit:10;stroke-dasharray:none;stroke-opacity:1"
         id="path402"
         inkscape:connector-curvature="0" />
      <path
         d="m 427.016,581.199 10.64,0.047 5.321,0.027 5.32,0.024 5.32,0.027 5.317,0.024 5.32,0.023 5.32,0.027"
         style="fill:none;stroke:#000000;stroke-width:1.40999997;stroke-linecap:round;stroke-linejoin:round;stroke-miterlimit:10;stroke-dasharray:none;stroke-opacity:1"
         id="path404"
         inkscape:connector-curvature="0" />
      <path
         d="m 512.645,569.992 11.226,0.055 5.617,0.031 5.614,0.027 5.617,0.028 5.613,0.027 5.613,0.031"
         style="fill:none;stroke:#000000;stroke-width:1.40999997;stroke-linecap:round;stroke-linejoin:round;stroke-miterlimit:10;stroke-dasharray:none;stroke-opacity:1"
         id="path406"
         inkscape:connector-curvature="0" />
      <text
         y="548.98633"
         x="325.98828"
         style="font-variant:normal;font-weight:normal;font-size:12px;font-family:'DejaVu Sans';-inkscape-font-specification:DejaVuSans;writing-mode:lr-tb;fill:#000000;fill-opacity:1;fill-rule:nonzero;stroke:none"
         id="text418">
        <tspan
           x="325.98828"
           y="548.98633"
           id="tspan408">A</tspan>
        <tspan
           x="324.5"
           y="568.64258"
           id="tspan410">C</tspan>
        <tspan
           x="314.76172"
           y="597.93945"
           id="tspan412">B</tspan>
        <tspan
           x="320.83203"
           y="614.24023"
           id="tspan414">C</tspan>
        <tspan
           x="345.94141"
           y="540.54102"
           id="tspan416">1</tspan>
      </text>
      <path
         d="m 346.605,586.09 4.543,-0.086 4.54,-0.086"
         style="fill:none;stroke:#000000;stroke-width:1.31343997;stroke-linecap:round;stroke-linejoin:round;stroke-miterlimit:10;stroke-dasharray:none;stroke-opacity:1"
         id="path420"
         inkscape:connector-curvature="0" />
      <path
         d="m 356.074,586.574 -2.746,-6.386 -2.742,-6.387"
         style="fill:none;stroke:#000000;stroke-width:1.31343997;stroke-linecap:round;stroke-linejoin:round;stroke-miterlimit:10;stroke-dasharray:none;stroke-opacity:1"
         id="path422"
         inkscape:connector-curvature="0" />
      <path
         d="m 351.078,573.32 v 0"
         style="fill:none;stroke:#000000;stroke-width:1.31343997;stroke-linecap:round;stroke-linejoin:round;stroke-miterlimit:10;stroke-dasharray:none;stroke-opacity:1"
         id="path424"
         inkscape:connector-curvature="0" />
      <path
         d="m 350.668,573.66 -4.281,11.633"
         style="fill:none;stroke:#000000;stroke-width:1.31343997;stroke-linecap:round;stroke-linejoin:round;stroke-miterlimit:10;stroke-dasharray:none;stroke-opacity:1"
         id="path426"
         inkscape:connector-curvature="0" />
      <path
         d="m 350.805,568.426 v -0.172 l -0.028,-0.168 -0.164,0.141 -0.191,0.226 -0.137,0.199 -0.058,0.258 -0.082,0.172 -0.11,0.254 -0.055,0.226 -0.218,0.344 -0.028,0.227 -0.109,0.226 -0.055,0.172 -0.082,0.172 v 0.453 l -0.027,0.227 v 0.969 l 0.027,0.226 0.11,0.399 0.164,0.343 0.109,0.082 0.109,0.086 0.165,0.114 h 0.66 l 0.191,-0.028 0.192,-0.086 0.195,-0.14 0.164,-0.086 0.191,-0.086 0.11,-0.114 0.136,-0.113 0.192,-0.172 0.191,-0.199 0.082,-0.14 0.113,-0.114 0.083,-0.172 0.136,-0.199 0.082,-0.199 v -0.684 l 0.055,-0.254 v -0.597 l -0.027,-0.172 -0.055,-0.168 -0.055,-0.172 -0.136,-0.172 -0.141,-0.172 -0.164,-0.113 -0.219,-0.086 -0.137,-0.027 h -0.437 l -0.25,-0.028 -0.164,-0.027 -0.192,0.027 -0.082,0.254 v 0.231 l 0.055,0.199"
         style="fill:none;stroke:#000000;stroke-width:1.31343997;stroke-linecap:round;stroke-linejoin:round;stroke-miterlimit:10;stroke-dasharray:none;stroke-opacity:1"
         id="path428"
         inkscape:connector-curvature="0" />
      <path
         d="m 351.348,566.805 -0.41,-5.235"
         style="fill:none;stroke:#000000;stroke-width:1.40999997;stroke-linecap:round;stroke-linejoin:round;stroke-miterlimit:10;stroke-dasharray:none;stroke-opacity:1"
         id="path430"
         inkscape:connector-curvature="0" />
      <path
         d="m 351.473,561.203 10.711,-0.531 5.351,-0.266"
         style="fill:none;stroke:#000000;stroke-width:1.40999997;stroke-linecap:round;stroke-linejoin:round;stroke-miterlimit:10;stroke-dasharray:none;stroke-opacity:1"
         id="path432"
         inkscape:connector-curvature="0" />
      <path
         d="m 351.41,586.035 0.133,5.317 0.137,5.32 0.132,5.32 0.137,5.317"
         style="fill:none;stroke:#000000;stroke-width:1.40999997;stroke-linecap:round;stroke-linejoin:round;stroke-miterlimit:10;stroke-dasharray:none;stroke-opacity:1"
         id="path434"
         inkscape:connector-curvature="0" />
      <path
         d="m 353.594,606.77 -0.129,-0.114 -0.188,-0.144 -0.129,-0.082 -0.156,-0.2 -0.222,-0.031 -0.125,0.113 -0.129,0.172 -0.188,0.227 -0.191,0.316 -0.188,0.313 -0.191,0.312 -0.156,0.34 -0.129,0.285 -0.094,0.227 -0.063,0.226 -0.062,0.231 -0.066,0.227 -0.032,0.253 v 0.231 l -0.031,0.254 v 0.797 l 0.16,0.113 0.317,0.144 0.156,0.055 0.191,0.031 0.156,0.028 0.192,0.027 0.219,-0.027 h 0.191 l 0.156,-0.028 0.223,-0.117 0.191,-0.254 0.094,-0.172 0.094,-0.226 0.062,-0.227 0.067,-0.285 0.031,-0.258 v -0.511 l -0.063,-0.227 -0.066,-0.199 -0.062,-0.199 -0.125,-0.172 -0.161,-0.141 -0.156,-0.113 -0.191,-0.113 -0.254,-0.032 h -0.156 l -0.157,0.086 -0.129,0.086 -0.156,0.172 -0.191,0.141 -0.188,0.172 -0.191,0.14 -0.156,0.172 -0.129,0.141 -0.125,0.117 -0.16,0.199 -0.125,0.168 -0.094,0.227 -0.031,0.285 v 0.199 l 0.031,0.172 0.062,0.172 0.157,0.113 0.129,0.113 0.218,0.086 0.285,0.055 0.192,0.059 0.316,0.027 0.25,-0.027 0.192,-0.086 0.285,-0.114 0.156,-0.172 0.098,-0.199 0.125,-0.226 0.031,-0.2 0.031,-0.226 0.031,-0.231 v -0.48 l -0.031,-0.258 -0.125,-0.226 -0.129,-0.2 -0.156,-0.199 -0.191,-0.14 -0.125,-0.118 -0.157,-0.082 -0.16,-0.086 h -0.222 l -0.219,0.028 -0.223,0.172 -0.125,0.14 -0.16,0.199 -0.125,0.227 -0.129,0.258 v 0.312 l -0.062,0.34 -0.032,0.344 v 0.34 l 0.032,0.371 0.062,0.367 0.067,0.316 0.156,0.313 0.129,0.226 0.187,0.172 0.192,0.114 0.187,0.054 0.254,0.032 h 0.191 l 0.313,-0.086 0.351,-0.145 0.25,-0.226 0.317,-0.254 0.223,-0.286 0.187,-0.343 0.191,-0.34 0.125,-0.34 0.067,-0.344 0.031,-0.312 -0.031,-0.254 -0.031,-0.258 -0.098,-0.227 -0.219,-0.257 -0.222,-0.227 -0.286,-0.226 -0.254,-0.172 -0.218,-0.141 -0.223,-0.144 -0.223,-0.086 -0.187,-0.055 -0.223,-0.027 h -0.222 l -0.25,0.113 -0.223,0.113 -0.285,0.199 -0.223,0.227 -0.187,0.226 -0.254,0.286 -0.157,0.285 -0.097,0.285 -0.125,0.285 -0.094,0.281 -0.031,0.258 -0.067,0.199 -0.031,0.172 v 0.254 l 0.129,0.199 0.156,0.059 0.285,0.082 0.633,0.117 0.348,0.028 h 0.348 l 0.347,-0.059 0.317,-0.141 0.316,-0.199 0.254,-0.258 0.187,-0.281 0.129,-0.316 0.032,-0.313 0.093,-0.281 v -0.285 l -0.031,-0.285 -0.094,-0.258 -0.16,-0.254 -0.285,-0.199 -0.316,-0.172 -0.379,-0.141 -0.41,-0.086 -0.379,-0.058 -0.348,-0.028 h -0.441 l -0.161,0.059 -0.125,0.113 -0.16,0.285 -0.093,0.227 -0.094,0.172 -0.031,0.226 -0.036,0.254 v 0.231 l 0.036,0.281 0.125,0.285 0.156,0.258 0.16,0.285 0.254,0.199 0.281,0.141 0.285,0.113 0.317,0.028 0.316,0.031 0.316,-0.031 0.254,-0.083 0.254,-0.144 0.25,-0.254 0.223,-0.285 0.191,-0.344 0.157,-0.34 0.093,-0.34 0.067,-0.312 0.031,-0.316 v -0.282 l -0.098,-0.23 -0.156,-0.254 -0.223,-0.172 -0.285,-0.141 -0.316,-0.144 -0.219,-0.086 -0.285,-0.055 -0.254,0.028 -0.219,0.113 -0.222,0.172 -0.125,0.285 -0.098,0.312 -0.031,0.372 -0.063,0.398 v 1.391 l 0.094,0.312 0.098,0.316 0.187,0.227 0.192,0.227 0.187,0.14 0.254,0.117 0.191,0.082 h 0.219 l 0.16,0.032 0.188,-0.032 0.16,-0.027 0.156,-0.113 0.16,-0.172 0.125,-0.254 0.094,-0.285 0.129,-0.313 0.063,-0.312 0.062,-0.285 v -0.258 l -0.062,-0.199 -0.126,-0.227 -0.253,-0.172 -0.317,-0.168 -0.316,-0.172 -0.442,-0.113 -0.382,-0.086 -0.379,-0.054 -0.317,-0.032 h -0.285 l -0.187,0.114 -0.161,0.199 -0.093,0.312 -0.157,0.399 -0.031,0.457 -0.066,0.484 -0.063,0.453 v 1.254 l 0.063,0.313 0.097,0.254 0.157,0.171 0.191,0.114 0.188,0.086 0.222,0.054 0.223,0.059 h 0.219 l 0.254,-0.086 0.222,-0.168 0.285,-0.23 0.25,-0.313 0.254,-0.312 0.223,-0.313 0.125,-0.312 0.125,-0.344 0.066,-0.313 v -0.281 l -0.129,-0.285 -0.156,-0.258 -0.285,-0.199 -0.348,-0.199 -0.347,-0.168 -0.379,-0.086 -0.254,-0.086 h -0.508 l -0.156,0.086 -0.156,0.113 -0.129,0.172 -0.094,0.199 -0.063,0.168 -0.097,0.145 -0.063,0.168 -0.093,0.312 -0.063,0.231 v 0.48 l 0.063,0.23 0.093,0.2 0.129,0.14 0.188,0.086 0.16,0.086 0.187,-0.031 0.192,-0.082 0.187,-0.172 0.223,-0.258 0.191,-0.281 0.188,-0.344 0.129,-0.312 0.093,-0.34 0.032,-0.344 v -0.34 l -0.094,-0.285 -0.16,-0.285 -0.223,-0.281 -0.281,-0.199 -0.316,-0.172 -0.286,-0.114 -0.254,-0.058 -0.222,-0.028 -0.219,-0.027 -0.254,0.168 -0.094,0.172 -0.097,0.258 -0.032,0.281 -0.031,0.371 v 1.137 l 0.031,0.344 0.098,0.253 0.125,0.172 0.192,0.114 0.218,0.058 0.223,0.028 h 0.285 l 0.25,-0.114 0.223,-0.172 0.222,-0.254 0.157,-0.316 0.129,-0.281 0.125,-0.317 0.062,-0.339 v -0.911 l -0.094,-0.285 -0.222,-0.199 -0.188,-0.199 -0.316,-0.141 -0.317,-0.086 -0.316,-0.054 h -0.254 l -0.254,0.054 -0.187,0.059 -0.161,0.168 -0.125,0.23 -0.125,0.282 -0.066,0.343 -0.062,0.367 -0.032,0.372 0.063,0.371 0.062,0.339 0.129,0.258 0.188,0.2 0.191,0.113 0.254,0.055 0.316,0.058 0.317,-0.058 0.281,-0.114 0.223,-0.199 0.191,-0.285 0.125,-0.281 0.063,-0.313 0.062,-0.285 v -0.285 l -0.094,-0.227 -0.125,-0.172 -0.222,-0.086 -0.254,-0.054 -0.188,0.027 -0.222,0.113 -0.157,0.227 -0.031,0.312 -0.066,0.372 0.097,0.285 0.094,0.199"
         style="fill:none;stroke:#000000;stroke-width:1.40999997;stroke-linecap:round;stroke-linejoin:round;stroke-miterlimit:10;stroke-dasharray:none;stroke-opacity:1"
         id="path436"
         inkscape:connector-curvature="0" />
      <path
         d="m 334.809,609.387 5.043,-0.114 5.039,-0.113 5.043,-0.113 5.039,-0.117 10.086,-0.227 5.039,-0.113"
         style="fill:none;stroke:#000000;stroke-width:1.40999997;stroke-linecap:round;stroke-linejoin:round;stroke-miterlimit:10;stroke-dasharray:none;stroke-opacity:1"
         id="path438"
         inkscape:connector-curvature="0" />
      <path
         d="m 326.684,594.254 5.261,0.058 5.258,0.055 5.262,0.059 5.262,0.054 5.261,0.059 5.262,0.055 5.258,0.058 5.262,0.059"
         style="fill:none;stroke:#000000;stroke-width:1.40999997;stroke-linecap:round;stroke-linejoin:round;stroke-miterlimit:10;stroke-dasharray:none;stroke-opacity:1"
         id="path440"
         inkscape:connector-curvature="0" />
      <path
         d="m 323.238,556.309 5.926,0.101 5.93,0.098"
         style="fill:none;stroke:#000000;stroke-width:1.40999997;stroke-linecap:round;stroke-linejoin:round;stroke-miterlimit:10;stroke-dasharray:none;stroke-opacity:1"
         id="path442"
         inkscape:connector-curvature="0" />
      <text
         y="590.4043"
         x="330.55859"
         style="font-variant:normal;font-weight:normal;font-size:12px;font-family:'DejaVu Sans';-inkscape-font-specification:DejaVuSans;writing-mode:lr-tb;fill:#000000;fill-opacity:1;fill-rule:nonzero;stroke:none"
         id="text446">
        <tspan
           x="330.55859"
           y="590.4043"
           id="tspan444">1</tspan>
      </text>
      <text
         y="619.91406"
         x="333.07031"
         style="font-variant:normal;font-weight:normal;font-size:8.37011719px;font-family:'DejaVu Sans';-inkscape-font-specification:DejaVuSans;writing-mode:lr-tb;fill:#000000;fill-opacity:1;fill-rule:nonzero;stroke:none"
         id="text450">
        <tspan
           x="333.07031 338.39371 341.40695"
           y="619.91406"
           sodipodi:role="line"
           id="tspan448">1-0</tspan>
      </text>
      <text
         y="558.05469"
         x="343.25391"
         style="font-variant:normal;font-weight:normal;font-size:9.14453125px;font-family:'DejaVu Sans';-inkscape-font-specification:DejaVuSans;writing-mode:lr-tb;fill:#000000;fill-opacity:1;fill-rule:nonzero;stroke:none"
         id="text454">
        <tspan
           x="343.25391 349.06982 352.36188"
           y="558.05469"
           sodipodi:role="line"
           id="tspan452">0-1</tspan>
      </text>
      <path
         d="m 156.25,558.102 -0.191,0.054 -0.188,0.059 0.188,-0.086 0.191,-0.172 0.125,-0.113 0.098,-0.141 0.187,-0.141 0.192,-0.171 0.218,-0.172 0.192,-0.172 0.156,-0.199 0.191,-0.168 0.094,-0.2 0.223,-0.171 0.094,-0.141 0.062,-0.172 0.129,-0.172 0.094,-0.312 0.16,-0.168 0.125,-0.199 0.156,-0.2 0.192,-0.199 0.093,-0.23 0.129,-0.2 0.063,-0.199 0.062,-0.226 0.063,-0.2 0.062,-0.226 0.031,-0.227 0.067,-0.23 0.062,-0.227 0.032,-0.199 0.062,-0.227 0.063,-0.171 0.031,-0.168 0.066,-0.172 v -0.313 l 0.063,-0.226 0.031,-0.172 0.062,-0.285 v -0.172 l 0.063,-0.141 v -0.172 l 0.031,-0.168 v -0.172 l 0.031,-0.199 0.036,-0.172 0.031,-0.168 0.031,-0.172 v -0.597 l 0.094,-0.227 0.031,-0.199 0.031,-0.23 0.063,-0.254 0.031,-0.285 v -0.969 l -0.031,-0.168 -0.063,-0.313 v -0.172 l -0.031,-0.171 -0.031,-0.168 v -0.313 l -0.031,-0.23 -0.063,-0.168 -0.062,-0.344 -0.067,-0.227 -0.094,-0.226 v -0.199 l -0.062,-0.231 -0.031,-0.168 -0.063,-0.199 -0.031,-0.199 -0.066,-0.2 -0.125,-0.171 -0.032,-0.2 -0.129,-0.172 -0.031,-0.167 -0.094,-0.313 -0.093,-0.23 -0.063,-0.2 -0.098,-0.195 -0.062,-0.23 -0.094,-0.168 -0.062,-0.2 -0.067,-0.199 -0.093,-0.199 -0.063,-0.199 -0.094,-0.172 -0.097,-0.141 -0.125,-0.172 -0.094,-0.144 -0.063,-0.141 -0.16,-0.226 -0.125,-0.2 -0.097,-0.199 -0.094,-0.199 -0.125,-0.172 -0.129,-0.168 -0.094,-0.172 v -0.172 l -0.062,-0.172 -0.125,-0.199 -0.129,-0.226 -0.063,-0.168 -0.191,-0.231 -0.188,-0.199 -0.093,-0.168 -0.098,-0.172 -0.031,-0.172 -0.094,-0.168 -0.191,-0.031 -0.094,-0.168 -0.156,-0.172 -0.161,0.114 0.032,0.199 0.031,0.285 v 0.312 l 0.062,0.34 0.036,0.231 v 1.136 l 0.062,0.286 v 0.226 l 0.031,0.227 v 0.172 l 0.032,0.285 0.031,0.199 0.094,0.254 v 0.199 l 0.066,-0.172 -0.066,-0.168 -0.094,-0.172 -0.031,-0.171 -0.032,-0.227 -0.093,-0.172 -0.067,-0.141 -0.031,-0.257 -0.063,-0.254 -0.062,-0.172 -0.063,-0.141 -0.097,-0.144 -0.063,-0.227 -0.031,-0.226 v -0.399 l -0.031,-0.172 v -0.199 l -0.031,-0.227 -0.063,-0.226 v -0.199 l -0.031,-0.199 0.094,-0.145 h 0.222 l 0.25,-0.027 h 1.266 l 0.191,0.058 0.219,0.028 0.254,0.027 h 0.223 l 0.187,-0.027 h 0.383 l 0.219,0.086 0.093,0.226 0.067,0.227"
         style="fill:none;stroke:#00ff00;stroke-width:1.40999997;stroke-linecap:round;stroke-linejoin:round;stroke-miterlimit:10;stroke-dasharray:none;stroke-opacity:1"
         id="path456"
         inkscape:connector-curvature="0" />
      <text
         y="549.27148"
         x="405.16406"
         style="font-variant:normal;font-weight:normal;font-size:12px;font-family:'DejaVu Sans';-inkscape-font-specification:DejaVuSans;writing-mode:lr-tb;fill:#000000;fill-opacity:1;fill-rule:nonzero;stroke:none"
         id="text468">
        <tspan
           x="405.16406 412.79605 417.11606 424.74805 429.06805"
           y="549.27148"
           sodipodi:role="line"
           id="tspan458">0-0-1</tspan>
        <tspan
           x="406.49219 414.12418 418.44418 426.07617 430.39618"
           y="609.68945"
           sodipodi:role="line"
           id="tspan460">1-0-0</tspan>
        <tspan
           x="103.17969 107.40369 111.20767 121.25168 125.05569 133.04767 141.42368 145.22769 155.27168 159.07568 167.10368 175.47968 179.28368 189.32768 193.13168 201.33968"
           y="615.60742"
           sodipodi:role="line"
           id="tspan462">f = AC + BC + AB</tspan>
        <tspan
           x="103.17969 110.7757 118.1077 121.91168 125.23569 132.56769 140.1637 147.77167 155.15169 160.08368 163.88768 175.57568 178.89969 186.49568 189.81969 201.50768 208.85168 212.17569"
           y="643.54492"
           sodipodi:role="line"
           id="tspan464">no longer minimal,</tspan>
        <tspan
           x="103.17969 110.78769 118.3837 123.08768 126.89169 134.48767 141.8317 148.11969 155.46368 160.17969 167.78769 172.10768 176.33168 180.99968 188.37968"
           y="657.51367"
           sodipodi:role="line"
           id="tspan466">but hazard-free</tspan>
      </text>
      <path
         d="m 133.801,604.227 h 7.043"
         style="fill:none;stroke:#000000;stroke-width:1.40999997;stroke-linecap:round;stroke-linejoin:round;stroke-miterlimit:10;stroke-dasharray:none;stroke-opacity:1"
         id="path470"
         inkscape:connector-curvature="0" />
      <path
         d="m 403.051,650.051 5.117,-0.008 5.113,-0.008 5.114,-0.004 5.117,-0.008 10.226,-0.015 5.117,-0.008 5.114,-0.004"
         style="fill:none;stroke:#000000;stroke-width:1.40999997;stroke-linecap:round;stroke-linejoin:round;stroke-miterlimit:10;stroke-dasharray:none;stroke-opacity:1"
         id="path472"
         inkscape:connector-curvature="0" />
      <path
         d="m 444.371,650.164 0.024,-5.156 0.019,-5.16 0.024,-5.157 0.023,-5.16 0.047,-10.312 0.023,-5.16 0.024,-5.157 0.023,-5.16 0.024,-5.156 0.019,-5.16"
         style="fill:none;stroke:#000000;stroke-width:1.40999997;stroke-linecap:round;stroke-linejoin:round;stroke-miterlimit:10;stroke-dasharray:none;stroke-opacity:1"
         id="path474"
         inkscape:connector-curvature="0" />
      <path
         d="m 444.496,593.371 6.598,-0.09 6.597,-0.086 6.598,-0.09"
         style="fill:none;stroke:#000000;stroke-width:1.40999997;stroke-linecap:round;stroke-linejoin:round;stroke-miterlimit:10;stroke-dasharray:none;stroke-opacity:1"
         id="path476"
         inkscape:connector-curvature="0" />
      <text
         y="646.9668"
         x="413.80469"
         style="font-variant:normal;font-weight:normal;font-size:12px;font-family:'DejaVu Sans';-inkscape-font-specification:DejaVuSans;writing-mode:lr-tb;fill:#000000;fill-opacity:1;fill-rule:nonzero;stroke:none"
         id="text492">
        <tspan
           x="413.80469"
           y="646.9668"
           id="tspan478">1</tspan>
        <tspan
           x="534.38672"
           y="566.06055"
           id="tspan480">1</tspan>
        <tspan
           x="331.25391"
           y="645.88477"
           id="tspan482">A</tspan>
        <tspan
           x="331.16797"
           y="664.2793"
           id="tspan484">B</tspan>
        <tspan
           x="429.94922 437.55722 444.88922 448.21323 451.53723 459.14523 462.94922"
           y="668.41602"
           sodipodi:role="line"
           id="tspan486">Solid 1</tspan>
        <tspan
           x="526.19531 541.41132 549.01935 556.35132 559.67535 562.99933 570.60736 574.41132"
           y="597.30273"
           sodipodi:role="line"
           id="tspan488">Solid 1</tspan>
        <tspan
           x="526.19531 535.20734 542.55133 548.83936 556.18335 560.89935 568.50732 572.82733 577.05133 581.71936 589.0993"
           y="625.24023"
           sodipodi:role="line"
           id="tspan490">Hazard-free</tspan>
      </text>
      <path
         d="m 539.254,591.605 -0.086,-0.054 -0.297,-0.039 h -0.293 l -0.211,0.019 -0.148,0.039 -0.125,0.055 -0.192,0.078 -0.168,0.074 -0.191,0.059 -0.211,0.074 -0.23,0.039 -0.254,0.074 -0.274,0.079 -0.293,0.054 -0.297,0.039 -0.296,0.02 h -0.504 l -0.211,-0.039 -0.192,-0.074 -0.187,-0.079 -0.211,-0.113 -0.192,-0.113 -0.211,-0.133 -0.187,-0.113 -0.191,-0.133 -0.188,-0.133 -0.148,-0.133 -0.125,-0.152 -0.129,-0.172 -0.149,-0.207 -0.125,-0.207 -0.148,-0.25 -0.125,-0.226 -0.129,-0.227 -0.106,-0.246 -0.125,-0.227 -0.105,-0.246 -0.062,-0.211 -0.086,-0.187 -0.125,-0.305 -0.043,-0.172 -0.043,-0.187 -0.039,-0.246 -0.024,-0.25 -0.043,-0.266 -0.039,-0.301 -0.023,-0.285 -0.02,-0.324 -0.023,-0.301 -0.039,-0.285 -0.024,-0.285 -0.019,-0.266 -0.024,-0.266 -0.019,-0.246 -0.02,-0.265 v -0.246 l -0.023,-0.246 -0.02,-0.227 v -1.898 l 0.02,-0.227 v -0.207 l 0.023,-0.172 v -1.101 l 0.02,-0.188 v -0.191 l 0.019,-0.168 v -0.172 l 0.024,-0.172 v -0.172 l 0.019,-0.168 0.024,-0.152 v -0.684 l 0.039,-0.133 0.023,-0.132 0.043,-0.133 v -0.114 l 0.039,-0.113 0.043,-0.094 0.024,-0.191 0.039,-0.113 0.023,-0.114 0.043,-0.093 0.039,-0.098 0.043,-0.133 0.043,-0.113 v -0.168 l 0.02,-0.172 0.043,-0.113 v -0.59"
         style="fill:none;stroke:#000000;stroke-width:1.40999997;stroke-linecap:round;stroke-linejoin:round;stroke-miterlimit:10;stroke-dasharray:none;stroke-opacity:1"
         id="path494"
         inkscape:connector-curvature="0" />
      <path
         d="m 531.746,575.488 -0.019,-0.113 -0.106,-0.059 -0.125,0.211 -0.105,0.168 -0.129,0.211 -0.149,0.227 -0.144,0.226 -0.149,0.25 -0.148,0.246 -0.188,0.247 -0.148,0.226 -0.211,0.246 -0.168,0.207 -0.172,0.211 -0.144,0.153 -0.129,0.152 -0.106,0.148 -0.125,0.153 -0.125,0.191 -0.148,0.207 -0.149,0.192 -0.086,0.207 -0.125,0.21 -0.086,0.227 -0.21,0.453 -0.063,0.172 -0.082,0.172 -0.062,0.094 -0.086,0.058 0.148,-0.097 0.145,-0.168"
         style="fill:none;stroke:#000000;stroke-width:1.40999997;stroke-linecap:round;stroke-linejoin:round;stroke-miterlimit:10;stroke-dasharray:none;stroke-opacity:1"
         id="path496"
         inkscape:connector-curvature="0" />
      <path
         d="m 532.465,574.805 v -0.133 l -0.063,-0.113 -0.105,0.019 v 0.133 l 0.039,0.191 0.148,0.188 0.086,0.152 0.125,0.133 0.149,0.172 0.148,0.168 0.168,0.191 0.188,0.207 0.211,0.192 0.211,0.187 0.21,0.211 0.211,0.188 0.235,0.23 0.25,0.227 0.234,0.246 0.231,0.246 0.191,0.246 0.188,0.211 0.148,0.187 0.125,0.133 0.105,0.133 0.129,0.113 0.082,0.114 0.086,0.097 0.086,0.094 0.063,0.113 0.105,0.133 0.106,0.094 0.062,0.133 -0.062,-0.133 -0.129,-0.133"
         style="fill:none;stroke:#000000;stroke-width:1.40999997;stroke-linecap:round;stroke-linejoin:round;stroke-miterlimit:10;stroke-dasharray:none;stroke-opacity:1"
         id="path498"
         inkscape:connector-curvature="0" />
      <path
         d="m 426.832,663.703 -0.129,-0.055 -0.125,-0.058 h -2.234 l -0.125,-0.02 h -0.149 l -0.191,-0.035 h -0.168 l -0.211,-0.039 -0.188,-0.019 -0.191,-0.055 -0.191,-0.039 -0.188,-0.059 -0.168,-0.074 -0.172,-0.094 -0.168,-0.058 -0.144,-0.075 -0.172,-0.078 -0.125,-0.074 -0.125,-0.039 -0.106,-0.074 -0.128,-0.078 -0.125,-0.094 -0.129,-0.094 -0.106,-0.058 -0.125,-0.133 -0.105,-0.055 -0.125,-0.133 -0.106,-0.078 -0.105,-0.094 -0.086,-0.093 -0.082,-0.059 -0.067,-0.094 -0.082,-0.058 -0.086,-0.055 -0.125,-0.133 -0.085,-0.078 -0.125,-0.168 -0.086,-0.098 -0.082,-0.113 -0.086,-0.113 -0.125,-0.133 -0.129,-0.172 -0.125,-0.168 -0.125,-0.172 -0.129,-0.191 -0.149,-0.133 -0.105,-0.148 -0.125,-0.153 -0.082,-0.152 -0.172,-0.266 -0.082,-0.093 -0.063,-0.098 -0.085,-0.074 -0.086,-0.059 -0.063,-0.094 -0.105,-0.113 -0.106,-0.172 -0.043,-0.093 -0.062,-0.094 -0.082,-0.113 -0.086,-0.098 -0.106,-0.113 -0.082,-0.114 -0.066,-0.133 -0.125,-0.187 -0.063,-0.133 -0.062,-0.098 -0.067,-0.132 -0.062,-0.114 -0.063,-0.093 -0.043,-0.094 -0.043,-0.098 -0.062,-0.168 -0.043,-0.113 -0.039,-0.098 -0.023,-0.132 -0.043,-0.227 -0.04,-0.094 -0.066,-0.133 -0.039,-0.113 -0.043,-0.133 -0.043,-0.191 -0.062,-0.188 -0.063,-0.191 -0.043,-0.113 -0.062,-0.133 -0.063,-0.172 -0.043,-0.094 -0.062,-0.133 -0.043,-0.113 -0.024,-0.133 -0.039,-0.093 -0.023,-0.114 -0.043,-0.172 v -0.113 l 0.066,-0.172 0.02,-0.113"
         style="fill:none;stroke:#000000;stroke-width:1.40999997;stroke-linecap:round;stroke-linejoin:round;stroke-miterlimit:10;stroke-dasharray:none;stroke-opacity:1"
         id="path500"
         inkscape:connector-curvature="0" />
      <path
         d="m 415.594,654.582 -0.02,-0.133 -0.125,-0.054 -0.105,0.074 -0.043,0.172 -0.024,0.132 -0.039,0.133 -0.043,0.188 -0.023,0.191 -0.02,0.188 -0.043,0.23 -0.019,0.246 -0.043,0.266 -0.043,0.246 -0.043,0.285 -0.063,0.246 -0.062,0.227 -0.063,0.191 -0.085,0.188 -0.063,0.172 -0.043,0.152 -0.062,0.168 -0.043,0.152 -0.039,0.133 -0.043,0.113 -0.024,0.133 -0.039,0.152 -0.066,0.133 -0.063,0.114 -0.125,0.171 -0.043,0.094 -0.086,0.192 -0.062,0.168 -0.063,0.117 -0.043,0.093 -0.082,0.133 -0.062,0.133 0.144,-0.211 0.106,-0.187"
         style="fill:none;stroke:#000000;stroke-width:1.40999997;stroke-linecap:round;stroke-linejoin:round;stroke-miterlimit:10;stroke-dasharray:none;stroke-opacity:1"
         id="path502"
         inkscape:connector-curvature="0" />
      <path
         d="m 416.418,653.73 -0.063,0.133 -0.085,0.114 0.085,0.132 0.125,0.075 0.086,0.058 0.082,0.055 0.129,0.039 0.106,0.059 0.125,0.054 0.148,0.078 0.149,0.055 0.144,0.098 0.149,0.074 0.148,0.058 0.149,0.055 0.125,0.039 0.148,0.055 0.125,0.019 0.148,0.02 0.149,0.039 0.125,0.02 0.148,0.035 h 0.149 l 0.144,0.039 0.129,0.019 0.125,0.02 0.129,0.019 h 0.231 l 0.125,0.036 0.128,0.039 0.106,0.019 0.125,0.055 0.105,0.039 h 0.125 l 0.106,0.059 0.191,0.035 0.086,0.058 0.125,0.039 0.106,0.035 0.125,0.059 0.129,0.059 0.21,0.093 0.126,0.039 0.124,0.036 h 0.278"
         style="fill:none;stroke:#000000;stroke-width:1.40999997;stroke-linecap:round;stroke-linejoin:round;stroke-miterlimit:10;stroke-dasharray:none;stroke-opacity:1"
         id="path504"
         inkscape:connector-curvature="0" />
      <path
         d="m 150.289,563.902 -0.059,0.051 0.086,0.024 0.098,-0.012 h 0.379 l 0.102,-0.012 h 0.07 l 0.14,-0.015 0.125,-0.024 0.098,-0.027 0.07,-0.012 h 0.282 l 0.097,-0.012 0.114,-0.011 0.113,-0.028 0.082,-0.012 0.102,-0.027 0.14,-0.051 0.11,-0.023 0.085,-0.012 0.125,-0.027 0.098,-0.024 0.129,-0.05 0.113,-0.028 0.098,-0.023 0.098,-0.063 0.113,-0.027 0.113,-0.012 0.141,-0.011 h 0.082 l 0.097,-0.012 h 0.606 l 0.098,-0.016 0.086,-0.011 0.113,-0.012 0.082,-0.012 0.125,-0.051 0.101,-0.078 0.082,-0.051 0.059,-0.062 0.055,-0.039 0.086,-0.074 0.054,-0.075 0.043,-0.117 0.071,-0.125 0.082,-0.187 0.043,-0.129 0.027,-0.063 0.031,-0.14 0.012,-0.137 0.027,-0.063 0.043,-0.14 0.028,-0.113 0.015,-0.079 0.028,-0.125 0.015,-0.074 v -0.57 l 0.012,-0.125 v -0.078 l 0.043,-0.114 v -0.683 l 0.015,-0.086 0.028,-0.09 0.015,-0.125 v -0.406 l 0.012,-0.102 0.016,-0.101 v -0.531 l 0.012,-0.126 0.015,-0.101 v -2.289 l -0.015,-0.113 v -0.239 l -0.012,-0.113 -0.016,-0.102 -0.012,-0.113 -0.015,-0.113 -0.016,-0.117 -0.012,-0.125 -0.015,-0.125 -0.012,-0.141 -0.031,-0.141 -0.012,-0.148 -0.027,-0.141 -0.031,-0.125 -0.028,-0.128 -0.027,-0.126 -0.043,-0.113 -0.012,-0.129 -0.031,-0.125 -0.039,-0.113 -0.031,-0.113 -0.055,-0.114 -0.016,-0.113 -0.039,-0.129 -0.031,-0.125 -0.055,-0.125 -0.043,-0.14 -0.054,-0.153 -0.043,-0.152 -0.028,-0.137 -0.027,-0.129 -0.016,-0.101 -0.027,-0.102 -0.027,-0.074 -0.032,-0.074 -0.039,-0.141 -0.031,-0.074 v -0.078 l -0.027,-0.102 -0.012,-0.101 -0.031,-0.098 -0.012,-0.102 -0.016,-0.101 -0.011,-0.102 -0.016,-0.125 -0.012,-0.129 -0.031,-0.125 v -0.14 l -0.012,-0.137 -0.015,-0.141 -0.012,-0.14 v -0.102 l -0.015,-0.113 v -0.086 l -0.016,-0.102 v -0.226 l -0.027,-0.129 v -0.949 l -0.012,-0.113 v -0.215 l -0.016,-0.114 v -0.203 l -0.015,-0.097 v -0.102 l -0.028,-0.113 v -0.129 l -0.012,-0.125 -0.031,-0.129 -0.011,-0.137 -0.016,-0.129 v -0.328 l -0.027,-0.101 v -0.098 l -0.016,-0.102 -0.012,-0.113 -0.043,-0.101 v -0.469 l -0.015,-0.113 v -0.129 l -0.012,-0.125 -0.016,-0.125 -0.011,-0.129 -0.016,-0.114 v -0.367 l -0.027,-0.136 v -0.278 l -0.016,-0.152 v -0.445 l -0.012,-0.137 v -1.832 l 0.012,-0.129 0.016,-0.137 v -0.254 l 0.027,-0.14 v -1.25 l -0.027,-0.153 v -0.859 l -0.016,-0.074 -0.012,-0.09 v -0.305 l -0.015,-0.074 v -0.078 l -0.028,-0.086 v -0.078 l -0.015,-0.086 v -0.797 l 0.015,-0.078 v -0.328 l -0.015,-0.114 v -0.289 l -0.012,-0.089 v -0.09 l -0.016,-0.075 v -0.543 l 0.016,-0.078 0.012,-0.101 0.015,-0.074 v -1.606 l -0.015,-0.141 v -0.113 l -0.012,-0.125 -0.016,-0.101 v -0.379 l -0.015,-0.102 -0.012,-0.125 -0.027,-0.113 -0.016,-0.129 -0.055,-0.227 v -0.113 l -0.015,-0.113 v -0.113 l -0.016,-0.118 v -0.086 l -0.012,-0.089 -0.015,-0.075 -0.012,-0.078 -0.031,-0.101 -0.039,-0.086 -0.032,-0.114 -0.039,-0.117 -0.031,-0.097 -0.027,-0.09 -0.028,-0.102 -0.085,-0.203 -0.055,-0.113 -0.043,-0.102 -0.039,-0.101 -0.059,-0.114 -0.054,-0.085 -0.059,-0.102 -0.055,-0.078 -0.054,-0.086 -0.043,-0.09 -0.059,-0.074 -0.039,-0.067 -0.043,-0.062 -0.07,-0.074 -0.071,-0.063 -0.086,-0.066 -0.07,-0.074 -0.043,-0.075 -0.07,-0.05 -0.055,-0.067 -0.07,-0.035 -0.098,-0.078 -0.07,-0.063 -0.098,-0.074 -0.097,-0.062 -0.071,-0.078 -0.101,-0.075 -0.082,-0.078 -0.098,-0.086 -0.07,-0.051 -0.086,-0.066 -0.071,-0.047 -0.054,-0.039 -0.086,-0.062 -0.086,-0.067 -0.082,-0.047 -0.071,-0.066 -0.085,-0.035 -0.098,-0.051 -0.082,-0.051 -0.129,-0.039 -0.07,-0.051 -0.071,-0.039 -0.07,-0.035 -0.055,-0.039 -0.086,-0.027 -0.082,-0.035 -0.101,-0.039 -0.11,-0.04 -0.086,-0.035 -0.113,-0.027 -0.07,-0.039 -0.141,-0.063 -0.07,-0.023 -0.082,-0.039 -0.113,-0.024 -0.086,-0.039 -0.11,-0.039 -0.086,-0.023 -0.07,-0.027 -0.125,-0.036 -0.07,-0.027 -0.071,-0.012 -0.07,-0.027 -0.101,-0.023 -0.082,-0.012 h -0.071 l -0.086,-0.016 h -0.855 l -0.098,0.016 -0.07,0.012 -0.098,0.023 -0.113,0.039 -0.059,0.039 -0.07,0.024 -0.07,0.027 -0.082,0.023 -0.071,0.028 -0.129,0.05 -0.082,0.063 -0.086,0.051 -0.054,0.051 -0.071,0.074 -0.085,0.051 -0.098,0.089 -0.055,0.036 -0.113,0.05 -0.055,0.051 -0.058,0.051 -0.071,0.051 -0.054,0.05 -0.071,0.028 -0.113,0.074 -0.055,0.063 -0.086,0.05 -0.07,0.078 -0.055,0.075 -0.07,0.062 -0.043,0.063 -0.07,0.129 -0.043,0.062 -0.043,0.074 -0.043,0.114 -0.039,0.078 -0.043,0.113 -0.043,0.09 -0.043,0.074 -0.039,0.102 -0.086,0.125 -0.027,0.078 -0.028,0.074 -0.031,0.078 -0.027,0.086 -0.043,0.09 -0.028,0.09 -0.027,0.086 -0.016,0.089 -0.027,0.075 -0.027,0.129 -0.028,0.086 -0.027,0.078 -0.043,0.113 -0.027,0.062 -0.043,0.09 -0.043,0.102 -0.043,0.097 -0.028,0.118 -0.027,0.097 -0.043,0.117 -0.027,0.098 -0.016,0.09 -0.027,0.09 -0.016,0.074 -0.012,0.078 -0.015,0.074 -0.028,0.141 -0.027,0.137 v 0.09 l -0.015,0.101 -0.012,0.102 v 0.086 l -0.016,0.101 v 0.633 l -0.015,0.141 v 0.136 l -0.012,0.141 -0.016,0.113 -0.027,0.102 -0.016,0.09 v 0.148 l -0.011,0.129 v 1.176 l -0.016,0.113 v 0.113 l -0.012,0.114 v 0.203 l 0.012,0.074 0.016,0.09 0.027,0.09 0.016,0.074 0.011,0.074 0.028,0.129 0.015,0.113 v 0.582 l 0.016,0.102 0.027,0.074 0.012,0.09 0.031,0.074 0.012,0.078 v 0.075 l 0.015,0.14 0.012,0.074 0.016,0.075 0.015,0.078 v 0.074 l 0.012,0.129 0.028,0.125 0.031,0.09 0.011,0.074 0.028,0.09 0.015,0.074 0.016,0.078 v 0.074 l 0.012,0.102 0.015,0.09 v 0.113 l 0.012,0.102 v 0.214 l 0.031,0.227 0.012,0.102 0.016,0.085 0.011,0.102 v 0.102 l 0.016,0.101 v 0.113 l 0.016,0.079 v 0.097 l 0.011,0.153 v 0.078 l 0.016,0.136 0.012,0.079 v 0.187 l 0.015,0.113 0.016,0.102 0.027,0.101 0.012,0.114 0.016,0.101 0.027,0.102 0.016,0.125 0.011,0.129 0.016,0.136 0.055,0.282 0.031,0.125 0.012,0.125 0.015,0.129 0.012,0.101 v 0.492 l 0.016,0.075 v 0.089 l 0.015,0.09 v 0.617 l 0.012,0.153 v 0.14 l 0.016,0.149 0.011,0.14 v 0.141 l 0.016,0.137 v 0.519 l 0.016,0.114 v 0.113 l 0.011,0.113 v 0.305 l 0.016,0.101 0.012,0.125 0.015,0.114 0.016,0.129 v 1.504 l 0.012,0.101 0.015,0.125 0.012,0.074 v 0.09 l 0.016,0.078 v 0.746 l 0.015,0.164 v 0.149 l 0.012,0.152 v 0.824 l 0.016,0.075 0.027,0.125 0.012,0.129 v 1.742 l 0.015,0.078 0.016,0.113 0.012,0.102 v 0.605 l -0.012,0.141 v 0.152 l -0.016,0.149 -0.027,0.152 -0.016,0.152 v 0.493 l -0.011,0.089 v 0.075 l -0.016,0.089 -0.012,0.09 v 0.25 l -0.015,0.09 v 0.215 l -0.016,0.141 v 0.136 l -0.012,0.153 -0.015,0.152 -0.028,0.152 -0.015,0.176 -0.039,0.176 -0.032,0.191 -0.039,0.192 -0.043,0.175 -0.027,0.153 -0.031,0.101 -0.028,0.086 v 0.684 l -0.011,0.101 v 0.442 l 0.011,0.125 v 0.191 l 0.016,0.09 0.027,0.102 0.028,0.097 0.043,0.129 0.015,0.102 0.012,0.086 0.016,0.09 v 0.492 l 0.027,0.09 0.027,0.074 0.028,0.078 v 0.113 l 0.043,0.137 0.015,0.078 0.028,0.063 0.015,0.074 0.028,0.078 0.039,0.09 0.058,0.097 0.055,0.102 0.07,0.113 0.028,0.067 0.058,0.074 0.055,0.074 0.058,0.102 0.055,0.101 0.07,0.102 0.086,0.101 0.055,0.063 0.07,0.101 0.071,0.079 0.054,0.062 0.071,0.102 0.058,0.05 0.098,0.051 0.055,0.047 0.058,0.102 0.082,0.101 0.086,0.078 0.098,0.086 0.054,0.039 0.086,0.102 0.071,0.09 0.097,0.097 0.098,0.102 0.07,0.078 0.071,0.074 0.07,0.078 0.059,0.063 0.054,0.051 0.059,0.074 0.055,0.039 0.097,0.102 0.086,0.062 0.098,0.113 0.07,0.063 0.082,0.09 0.07,0.074 0.086,0.078 0.055,0.051 0.059,0.035 0.14,0.078 0.098,0.051 0.098,0.062 0.097,0.051 0.102,0.063 0.07,0.027 0.067,0.023 0.085,0.024 0.071,0.027 0.07,0.039 0.098,0.051 0.058,0.035 0.082,0.028 0.086,0.023 0.114,0.039 0.07,0.012 0.141,0.039 0.152,0.023 0.141,0.016 0.125,0.012 0.085,0.011 h 0.114 l 0.113,0.012 0.07,0.016 h 0.575 l 0.085,-0.016 0.083,-0.023 0.113,-0.039 0.086,-0.051 0.054,-0.074 0.016,-0.079 0.027,-0.086 0.055,-0.113 0.059,-0.191 0.027,-0.153"
         style="fill:none;stroke:#ff00ff;stroke-width:1.40999997;stroke-linecap:round;stroke-linejoin:round;stroke-miterlimit:10;stroke-dasharray:none;stroke-opacity:1"
         id="path506"
         inkscape:connector-curvature="0" />
      <path
         d="m 154.012,564.203 8.343,7.461 4.172,3.727 12.516,11.191"
         style="fill:none;stroke:#ff00ff;stroke-width:1.40999997;stroke-linecap:round;stroke-linejoin:round;stroke-miterlimit:10;stroke-dasharray:none;stroke-opacity:1"
         id="path508"
         inkscape:connector-curvature="0" />
      <text
         y="592.77539"
         x="181.83984"
         style="font-variant:normal;font-weight:normal;font-size:12px;font-family:'DejaVu Sans';-inkscape-font-specification:DejaVuSans;writing-mode:lr-tb;fill:#ff00ff;fill-opacity:1;fill-rule:nonzero;stroke:none"
         id="text514">
        <tspan
           x="181.83984 190.04784"
           y="592.77539"
           sodipodi:role="line"
           id="tspan510">AB</tspan>
        <tspan
           x="211.83592 219.82793 227.43593 235.04393 238.84793 243.55193 251.14793 254.47192 260.71191 264.51593 269.21994 276.59991 281.32794"
           y="590.36914"
           sodipodi:role="line"
           id="tspan512">Add this term</tspan>
      </text>
    </g>
  </g>
</svg>
