<?xml version="1.0" encoding="UTF-8" standalone="no"?>
<!-- Created with Inkscape (http://www.inkscape.org/) -->

<svg
   xmlns:dc="http://purl.org/dc/elements/1.1/"
   xmlns:cc="http://creativecommons.org/ns#"
   xmlns:rdf="http://www.w3.org/1999/02/22-rdf-syntax-ns#"
   xmlns:svg="http://www.w3.org/2000/svg"
   xmlns="http://www.w3.org/2000/svg"
   xmlns:sodipodi="http://sodipodi.sourceforge.net/DTD/sodipodi-0.dtd"
   xmlns:inkscape="http://www.inkscape.org/namespaces/inkscape"
   width="169.8432mm"
   height="67.999283mm"
   viewBox="0 0 169.8432 67.999283"
   version="1.1"
   id="svg2552"
   inkscape:version="0.92.5 (2060ec1f9f, 2020-04-08)"
   sodipodi:docname="example-K-map-hazards.svg">
  <defs
     id="defs2546" />
  <sodipodi:namedview
     id="base"
     pagecolor="#ffffff"
     bordercolor="#666666"
     borderopacity="1.0"
     inkscape:pageopacity="0.0"
     inkscape:pageshadow="2"
     inkscape:zoom="0.7"
     inkscape:cx="390.42106"
     inkscape:cy="-118.4028"
     inkscape:document-units="mm"
     inkscape:current-layer="layer1"
     showgrid="false"
     fit-margin-top="0"
     fit-margin-left="0"
     fit-margin-right="0"
     fit-margin-bottom="0"
     inkscape:window-width="1148"
     inkscape:window-height="836"
     inkscape:window-x="2688"
     inkscape:window-y="242"
     inkscape:window-maximized="0" />
  <metadata
     id="metadata2549">
    <rdf:RDF>
      <cc:Work
         rdf:about="">
        <dc:format>image/svg+xml</dc:format>
        <dc:type
           rdf:resource="http://purl.org/dc/dcmitype/StillImage" />
        <dc:title></dc:title>
      </cc:Work>
    </rdf:RDF>
  </metadata>
  <g
     inkscape:label="Layer 1"
     inkscape:groupmode="layer"
     id="layer1"
     transform="translate(-17.131966,-15.047981)">
    <path
       inkscape:connector-curvature="0"
       id="path108"
       style="fill:none;stroke:#000000;stroke-width:0.52211112;stroke-linecap:round;stroke-linejoin:round;stroke-miterlimit:10;stroke-dasharray:none;stroke-opacity:1"
       d="m 22.400888,33.27324 h 16.80246 v 16.71849 h -16.80246 z" />
    <path
       inkscape:connector-curvature="0"
       id="path110"
       style="fill:none;stroke:#000000;stroke-width:0.49741665;stroke-linecap:round;stroke-linejoin:round;stroke-miterlimit:10;stroke-dasharray:none;stroke-opacity:1"
       d="m 22.460158,41.57446 h 16.3449" />
    <path
       inkscape:connector-curvature="0"
       id="path112"
       style="fill:none;stroke:#000000;stroke-width:0.49741665;stroke-linecap:round;stroke-linejoin:round;stroke-miterlimit:10;stroke-dasharray:none;stroke-opacity:1"
       d="m 30.926828,33.34062 v 16.7005" />
    <text
       id="text118"
       style="font-variant:normal;font-weight:normal;font-size:4.23333311px;font-family:'DejaVu Sans';-inkscape-font-specification:DejaVuSans;writing-mode:lr-tb;fill:#000000;fill-opacity:1;fill-rule:nonzero;stroke:none;stroke-width:0.35277775"
       x="46.502808"
       y="30.595011">
      <tspan
         style="stroke-width:0.35277775"
         id="tspan114"
         y="30.595011"
         x="46.502808">A</tspan>
      <tspan
         style="stroke-width:0.35277775"
         id="tspan116"
         y="46.915108"
         x="16.894255">C</tspan>
    </text>
    <path
       inkscape:connector-curvature="0"
       id="path120"
       style="fill:none;stroke:#000000;stroke-width:0.49741665;stroke-linecap:round;stroke-linejoin:round;stroke-miterlimit:10;stroke-dasharray:none;stroke-opacity:1"
       d="m 21.401828,41.80729 h -0.47273" />
    <path
       inkscape:connector-curvature="0"
       id="path122"
       style="fill:none;stroke:#000000;stroke-width:0.49741665;stroke-linecap:round;stroke-linejoin:round;stroke-miterlimit:10;stroke-dasharray:none;stroke-opacity:1"
       d="m 20.929098,42.04295 v 7.40833" />
    <path
       inkscape:connector-curvature="0"
       id="path124"
       style="fill:none;stroke:#000000;stroke-width:0.49741665;stroke-linecap:round;stroke-linejoin:round;stroke-miterlimit:10;stroke-dasharray:none;stroke-opacity:1"
       d="m 20.929098,49.45128 h 0.58985" />
    <path
       inkscape:connector-curvature="0"
       id="path126"
       style="fill:none;stroke:#000000;stroke-width:0.52211112;stroke-linecap:round;stroke-linejoin:round;stroke-miterlimit:10;stroke-dasharray:none;stroke-opacity:1"
       d="m 39.207578,33.33674 h 16.80527 v 16.71849 h -16.80527 z" />
    <path
       inkscape:connector-curvature="0"
       id="path128"
       style="fill:none;stroke:#000000;stroke-width:0.49741665;stroke-linecap:round;stroke-linejoin:round;stroke-miterlimit:10;stroke-dasharray:none;stroke-opacity:1"
       d="m 39.266848,41.63796 h 16.34736" />
    <path
       inkscape:connector-curvature="0"
       id="path130"
       style="fill:none;stroke:#000000;stroke-width:0.49741665;stroke-linecap:round;stroke-linejoin:round;stroke-miterlimit:10;stroke-dasharray:none;stroke-opacity:1"
       d="M 47.733508,33.40695 V 50.10462" />
    <text
       id="text134"
       style="font-variant:normal;font-weight:normal;font-size:4.23333311px;font-family:'DejaVu Sans';-inkscape-font-specification:DejaVuSans;writing-mode:lr-tb;fill:#000000;fill-opacity:1;fill-rule:nonzero;stroke:none;stroke-width:0.35277775"
       x="37.90799"
       y="55.013832">
      <tspan
         style="stroke-width:0.35277775"
         id="tspan132"
         y="55.013832"
         x="37.90799">B</tspan>
    </text>
    <path
       inkscape:connector-curvature="0"
       id="path136"
       style="fill:none;stroke:#000000;stroke-width:0.49741665;stroke-linecap:round;stroke-linejoin:round;stroke-miterlimit:10;stroke-dasharray:none;stroke-opacity:1"
       d="M 39.182528,32.44774 V 31.8579" />
    <path
       inkscape:connector-curvature="0"
       id="path138"
       style="fill:none;stroke:#000000;stroke-width:0.49741665;stroke-linecap:round;stroke-linejoin:round;stroke-miterlimit:10;stroke-dasharray:none;stroke-opacity:1"
       d="m 39.182528,31.8579 1.85491,0.008 1.85631,0.01 1.85879,0.007 1.8549,0.007 1.85632,0.008 1.85879,0.007 1.85631,0.007 1.85491,0.007 1.85914,0.007" />
    <path
       inkscape:connector-curvature="0"
       id="path140"
       style="fill:none;stroke:#000000;stroke-width:0.49741665;stroke-linecap:round;stroke-linejoin:round;stroke-miterlimit:10;stroke-dasharray:none;stroke-opacity:1"
       d="m 55.892908,31.92563 0.0632,0.58561" />
    <path
       inkscape:connector-curvature="0"
       id="path142"
       style="fill:none;stroke:#000000;stroke-width:0.49741665;stroke-linecap:round;stroke-linejoin:round;stroke-miterlimit:10;stroke-dasharray:none;stroke-opacity:1"
       d="m 30.824868,50.72481 0.0674,0.58561" />
    <path
       inkscape:connector-curvature="0"
       id="path144"
       style="fill:none;stroke:#000000;stroke-width:0.49741665;stroke-linecap:round;stroke-linejoin:round;stroke-miterlimit:10;stroke-dasharray:none;stroke-opacity:1"
       d="m 30.955748,51.31042 h 16.64688" />
    <path
       inkscape:connector-curvature="0"
       id="path146"
       style="fill:none;stroke:#000000;stroke-width:0.49741665;stroke-linecap:round;stroke-linejoin:round;stroke-miterlimit:10;stroke-dasharray:none;stroke-opacity:1"
       d="M 47.602628,51.18095 V 50.78796" />
    <text
       id="text156"
       style="font-variant:normal;font-weight:normal;font-size:4.23333311px;font-family:'DejaVu Sans';-inkscape-font-specification:DejaVuSans;writing-mode:lr-tb;fill:#000000;fill-opacity:1;fill-rule:nonzero;stroke:none;stroke-width:0.35277775"
       x="42.087555"
       y="39.134712">
      <tspan
         style="stroke-width:0.35277775"
         id="tspan148"
         y="39.134712"
         x="42.087555">1</tspan>
      <tspan
         style="stroke-width:0.35277775"
         id="tspan150"
         y="39.221519"
         x="50.674133">1</tspan>
      <tspan
         style="stroke-width:0.35277775"
         id="tspan152"
         y="47.666145"
         x="33.523071">1</tspan>
      <tspan
         style="stroke-width:0.35277775"
         id="tspan154"
         y="47.726768"
         x="42.207458">1</tspan>
    </text>
    <path
       inkscape:connector-curvature="0"
       id="path158"
       style="fill:none;stroke:#008000;stroke-width:0.49741665;stroke-linecap:round;stroke-linejoin:round;stroke-miterlimit:10;stroke-dasharray:none;stroke-opacity:1"
       d="m 43.074378,43.46782 -0.0593,-0.005 -0.0152,-0.0413 -0.0374,-0.0526 -0.037,-0.0469 -0.0593,-0.0138 -0.0455,-0.0261 -0.0441,-0.0346 -0.0441,-0.019 -0.0455,-0.007 h -0.13371 l -0.037,0.007 -0.0441,0.0261 -0.0593,0.0205 -0.0374,0.0127 -0.0522,0.0138 -0.0677,0.0205 -0.0593,0.007 -0.0593,0.005 -0.0674,0.0208 -0.0511,0.007 h -0.0452 l -0.0441,0.007 -0.0677,0.007 -0.0593,0.0124 -0.0593,0.007 -0.0593,0.0138 -0.0593,0.007 h -0.0674 l -0.0526,0.006 h -0.20108 l -0.0356,-0.006 h -0.0374 l -0.0744,-0.0138 h -0.0522 l -0.0677,-0.007 h -0.12665 l -0.0512,0.007 -0.0522,0.007 -0.0674,0.007 h -0.0441 l -0.0441,0.006 h -0.11183 l -0.0674,-0.006 -0.11853,-0.0138 -0.0677,-0.007 -0.0896,-0.007 -0.0811,-0.007 h -0.14888 l -0.0744,-0.005 h -0.066 l -0.0455,-0.007 -0.0441,-0.007 -0.10477,-0.0279 -0.0815,-0.0124 -0.0674,-0.007 h -0.46038 l -0.0593,-0.007 h -0.037 l -0.0526,-0.007 -0.0589,-0.0138 -0.0677,-0.0194 -0.0441,-0.0138 -0.037,-0.0138 -0.0526,-0.006 h -0.81844 l -0.0882,0.006 h -0.0896 l -0.0825,0.007 h -0.1337 l -0.0663,-0.007 h -0.0522 l -0.0441,-0.006 -0.0526,-0.007 -0.0455,-0.007 -0.037,-0.007 -0.0441,-0.0138 -0.0374,-0.0127 -0.0441,-0.007 -0.0452,-0.0138 -0.0512,-0.0261 -0.0674,-0.0279 -0.0744,-0.019 -0.0441,-0.007 -0.0455,-0.007 -0.0526,-0.007 -0.0508,-0.007 -0.0593,-0.0138 -0.0677,-0.006 -0.0741,-0.007 -0.0677,-0.0138 -0.0441,-0.007 -0.037,-0.007 h -0.0526 l -0.0508,-0.005 -0.0677,-0.0138 -0.037,-0.007 -0.0744,-0.007 h -0.20109 l -0.0593,-0.007 h -0.0967 l -0.0522,-0.007 -0.0441,-0.006 -0.0455,-0.007 -0.0882,-0.0138 -0.0374,-0.007 -0.0522,-0.0138 -0.0526,-0.006 -0.0522,-0.007 -0.0663,-0.0141 -0.0522,-0.007 h -0.14181 l -0.0374,0.007 -0.0593,0.0141 -0.037,0.007 -0.0593,0.0124 -0.0526,0.007 -0.0441,0.007 -0.0674,0.0138 -0.0441,0.0127 -0.0522,0.0138 -0.0512,0.0138 -0.0522,0.019 -0.0455,0.0138 -0.0663,0.0208 -0.0744,0.0194 -0.0674,0.0275 -0.0815,0.0261 -0.0593,0.0261 -0.0522,0.0413 -0.0674,0.0265 -0.0593,0.0399 -0.0526,0.0399 -0.0593,0.0208 -0.037,0.0261 -0.0593,0.0399 -0.0441,0.054 -0.0222,0.0328 -0.0455,0.0607 -0.0219,0.0332 -0.0222,0.0346 -0.0303,0.0399 -0.0219,0.0399 -0.0303,0.0399 -0.0441,0.0801 -0.0441,0.0674 -0.0455,0.0663 -0.0289,0.0413 -0.0233,0.0399 -0.0289,0.0332 -0.0303,0.0399 -0.0289,0.0332 -0.0303,0.0208 -0.0289,0.0399 -0.0303,0.0469 -0.0374,0.0469 -0.0219,0.0328 -0.0455,0.0607 -0.0222,0.0402 -0.0219,0.0328 -0.0222,0.0402 -0.037,0.0413 -0.0374,0.0399 -0.0303,0.0399 -0.0289,0.0332 -0.0741,0.10759 -0.0303,0.0469 -0.0152,0.0536 -0.0138,0.0399 -0.0236,0.0402 -0.066,0.14041 -0.008,0.0536 -0.0138,0.0402 -0.008,0.0466 -0.0152,0.0402 -0.0138,0.0469 -0.0236,0.0536 -0.0138,0.0536 -0.0233,0.0593 -0.0138,0.054 -0.008,0.0603 -0.0138,0.054 -0.0152,0.0522 -0.0152,0.054 -0.0152,0.0466 -0.007,0.054 -0.0303,0.10724 -0.0152,0.0663 -0.007,0.0536 -0.0152,0.054 -0.007,0.0603 -0.009,0.0402 -0.007,0.0536 -0.007,0.0399 v 0.50871 l 0.0138,0.0536 0.0152,0.0526 0.0152,0.0536 0.0222,0.0469 0.037,0.0674 0.0303,0.0332 0.0289,0.0332 0.0303,0.0399 0.0374,0.0413 0.0289,0.0332 0.0455,0.0536 0.0522,0.0469 0.0882,0.066 0.0522,0.0332 0.0303,0.0208 0.0289,0.0205 0.0455,0.0332 0.0512,0.0536 0.0233,0.0402 0.0138,0.0469 0.0303,0.0536 0.0526,0.0522 0.0289,0.054 0.0303,0.0674 0.0303,0.0536 0.0219,0.0469 0.0289,0.0402 0.0303,0.0261 0.0374,0.0332 0.0441,0.0413 0.037,0.0261 0.0522,0.0536 0.0444,0.0332 0.0603,0.0332 0.0374,0.0205 0.0508,0.0402 0.0455,0.0275 0.0441,0.0469 0.0441,0.0261 0.0677,0.0261 0.14887,0.0275 0.0441,0.0124 0.0522,0.007 h 0.0522 l 0.0526,0.007 h 0.1778 l 0.0522,0.007 h 0.0593 l 0.0526,0.007 h 0.1337 l 0.0441,0.007 0.0452,0.007 0.0441,0.006 0.0374,0.007 0.0522,0.007 0.0593,0.007 0.0593,0.0138 0.0455,0.007 0.0512,0.006 0.0674,0.0138 0.11183,0.0208 0.0593,0.019 0.0522,0.0138 0.0593,0.0138 0.0744,0.0127 0.037,0.007 0.0744,0.007 0.0526,0.007 0.0593,0.0208 0.0593,0.019 0.0593,0.007 0.0674,0.007 0.0522,0.007 h 0.0374 l 0.0593,0.007 0.0593,0.005 0.0522,0.007 h 0.0441 l 0.0374,0.007 0.0593,0.007 0.0455,0.007 0.0508,0.007 0.0455,0.005 0.0663,0.0141 0.0741,0.0138 0.0455,0.007 0.0744,0.007 h 0.36407 l 0.0452,-0.007 h 0.87665 l 0.0455,0.007 h 0.037 l 0.0441,0.005 h 0.25365 l 0.0441,-0.005 h 0.0896 l 0.0441,-0.007 0.0593,-0.007 h 0.49883 l 0.037,0.007 h 0.0441 l 0.0526,0.007 h 0.46849 l 0.0522,0.005 h 0.0441 l 0.0441,0.007 0.0607,0.007 h 0.0593 l 0.0526,0.007 h 0.35666 l 0.0815,0.0138 0.0441,0.007 0.0455,0.006 0.0441,0.007 0.037,0.007 0.0441,0.007 0.0526,0.007 h 0.0522 l 0.0441,0.007 0.0374,0.007 0.0603,0.0124 h 0.23706 l 0.0593,0.0138 0.0455,0.007 0.0593,0.0138 h 0.0374 l 0.037,0.006 0.0441,0.007 h 0.0374 l 0.0452,0.007 h 0.23037 l 0.0674,0.0138 0.0374,0.007 h 0.0508 l 0.0526,0.007 h 0.11147 l 0.0526,0.006 0.0522,0.007 0.0508,0.007 0.0455,0.007 0.0526,0.0138 0.0441,0.007 0.037,0.005 0.0441,0.007 0.0455,0.007 h 0.20814 l 0.0441,0.007 h 0.0374 l 0.10442,0.0138 h 0.0374 l 0.0441,0.007 0.0593,-0.007 0.0674,-0.007 0.0593,-0.0138 0.0526,-0.007 h 0.52776 l 0.0441,0.007 h 0.037 l 0.0455,0.007 0.0593,0.007 0.0526,0.007 0.066,-0.007 0.037,-0.007 0.0526,-0.0138 0.0441,-0.0124 0.0522,-0.0275 0.0526,-0.0194 0.0593,-0.0208 0.0522,-0.0138 0.0441,-0.0191 0.0374,-0.007 0.0744,-0.0208 0.0744,-0.019 0.037,-0.0138 0.0441,-0.0138 0.0374,-0.0127 0.037,-0.0204 0.037,-0.0138 0.0526,-0.0124 0.0674,-0.0208 0.0441,-0.0138 0.0593,-0.0124 0.0593,-0.0138 0.0374,-0.0138 0.0744,-0.0194 0.0607,-0.0138 0.0741,-0.0208 0.073,-0.0191 0.0607,-0.0138 0.0512,-0.0194 0.0455,-0.0138 0.0441,-0.0138 0.0455,-0.0138 0.0441,-0.0124 0.0441,-0.0208 0.0522,-0.0138 0.0441,-0.0261 0.0526,-0.0332 0.037,-0.0399 0.0303,-0.0416 0.0441,-0.0399 0.037,-0.0399 0.0455,-0.0399 0.0512,-0.0332 0.0455,-0.0332 0.0508,-0.0342 0.0303,-0.0265 0.0222,-0.0328 0.0303,-0.0416 0.0219,-0.0399 0.0303,-0.0399 0.0374,-0.0402 0.037,-0.0536 0.0222,-0.0536 0.0441,-0.0469 0.0219,-0.0593 0.0233,-0.0399 0.0293,-0.0469 0.0148,-0.0469 0.0222,-0.0399 0.0152,-0.0413 0.0219,-0.0402 0.0152,-0.0399 0.0152,-0.0469 0.007,-0.0399 0.0303,-0.0399 0.007,-0.0402 0.0222,-0.0536 0.0219,-0.0469 0.0236,-0.0536 0.037,-0.0469 0.0289,-0.0399 0.0222,-0.0469 0.0152,-0.0332 0.008,-0.0399 0.0289,-0.0536 0.0303,-0.0402 0.0289,-0.0536 0.0303,-0.0399 0.0152,-0.0469 0.007,-0.0399 v -0.2152 l -0.007,-0.0469 -0.008,-0.0536 -0.0222,-0.0399 -0.007,-0.0536 -0.0152,-0.0455 -0.0441,-0.0938 -0.0152,-0.0469 -0.0222,-0.0413 -0.0152,-0.0469 -0.0219,-0.0522 -0.0236,-0.0413 -0.0289,-0.0526 -0.0219,-0.0607 -0.0303,-0.0536 -0.0374,-0.0663 -0.0219,-0.0607 -0.0303,-0.0536 -0.0222,-0.0607 -0.0219,-0.0593 -0.0303,-0.121 -0.0138,-0.0593 -0.0152,-0.0469 -0.0222,-0.054 -0.0233,-0.0466 -0.0289,-0.0469 -0.0303,-0.054 -0.0219,-0.0399 -0.0152,-0.0399 -0.0222,-0.0399 -0.0152,-0.0346 -0.0593,-0.0469 -0.037,-0.0261 -0.0526,-0.0536 -0.0219,-0.0332 -0.0374,-0.0275 -0.037,-0.0265 -0.0441,-0.0204 -0.0526,-0.0261 -0.0522,-0.0208 -0.0522,-0.0261 -0.0593,-0.0332 -0.0526,-0.0346 -0.037,-0.0328 -0.0512,-0.0402 -0.0303,-0.0261 -0.037,-0.0342 -0.0374,-0.0332 -0.0289,-0.0261 -0.0522,-0.054 -0.0455,-0.0399 -0.0512,-0.0469 -0.0303,-0.0275 -0.0303,-0.0261 -0.037,-0.0399 -0.0289,-0.0208 -0.0374,-0.0399 -0.0437,-0.0332 -0.0744,-0.0275 -0.0455,-0.0124 -0.0526,-0.0138 -0.037,-0.0208 -0.0441,-0.0194 -0.0441,-0.0205 -0.0455,-0.0194 -0.0512,-0.0275 -0.0455,-0.0261 -0.0522,-0.0275 -0.0512,-0.0332 -0.0522,-0.0332 -0.0455,-0.0332 -0.0441,-0.0275 -0.0303,-0.0332 -0.037,-0.0328 -0.0663,-0.0607 -0.0441,-0.0261 -0.0607,-0.0416 -0.0289,-0.019 -0.037,-0.0332 -0.0374,-0.007 -0.0522,-0.0275 -0.0593,-0.019 h -0.0374 l -0.0441,-0.007 h -0.10442 l -0.0526,-0.007 h -0.12665 l -0.0663,-0.007 h -0.0674 l -0.0744,-0.007 -0.0744,-0.005 -0.11853,-0.0138 -0.0441,-0.007 -0.037,-0.0138 -0.0455,-0.007 -0.0374,-0.0127 -0.0441,-0.007 -0.0522,-0.0138 -0.0374,-0.007 h -0.12665 l -0.0512,0.0208 -0.037,0.0194 -0.0455,0.0275 -0.0441,0.0261 -0.037,0.0275 -0.0441,0.0261 -0.0303,0.0265 -0.0441,0.0275 -0.0455,0.0261 -0.0374,0.0275 -0.037,0.0194 -0.0441,0.0275 -0.0526,0.0194 -0.0522,0.0138 -0.0593,0.0204 -0.0441,-0.0138" />
    <path
       inkscape:connector-curvature="0"
       id="path160"
       style="fill:none;stroke:#3333cc;stroke-width:0.49741665;stroke-linecap:round;stroke-linejoin:round;stroke-miterlimit:10;stroke-dasharray:none;stroke-opacity:1"
       d="m 46.487498,34.54501 v -0.0413 l -0.0303,-0.0469 -0.0508,-0.005 h -0.0374 l -0.037,-0.0138 h -0.25365 l -0.0441,0.019 -0.0593,0.0138 -0.037,0.007 h -0.0526 l -0.0674,0.0138 h -0.37888 l -0.0441,0.007 -0.0607,0.005 -0.0441,0.007 -0.0593,0.0138 -0.0526,0.0138 -0.0593,0.007 -0.0674,0.0127 -0.0593,0.007 h -0.0896 l -0.0593,0.007 -0.0811,0.007 h -0.46177 l -0.0441,0.0138 -0.0593,0.006 -0.0522,0.007 -0.0593,0.007 -0.0526,0.0205 -0.0441,0.006 -0.0522,0.007 -0.0455,0.0138 h -0.0441 l -0.0441,0.007 -0.0455,0.007 -0.0508,0.007 h -0.0526 l -0.0674,0.0194 -0.0441,0.007 -0.0593,0.007 -0.0455,0.0138 -0.0374,0.006 -0.0441,0.007 -0.0674,0.007 h -0.28928 l -0.0526,0.007 -0.0593,0.0138 -0.0593,0.0127 -0.0522,0.007 -0.0593,0.0208 -0.0455,0.0138 -0.0744,0.0332 -0.0441,0.0138 -0.037,0.0191 -0.0374,0.0275 -0.0441,0.0402 -0.0593,0.0328 -0.0607,0.0265 -0.0441,0.0399 -0.0593,0.0275 -0.037,0.0261 -0.0441,0.0208 -0.0374,0.0194 -0.037,0.0138 -0.0455,0.0328 -0.037,0.0208 -0.0441,0.0399 -0.0526,0.0332 -0.037,0.0413 -0.0441,0.0399 -0.0455,0.0526 -0.0511,0.0607 -0.0522,0.0536 -0.0526,0.0399 -0.0522,0.054 -0.0441,0.0469 -0.0526,0.0603 -0.037,0.0469 -0.037,0.0593 -0.0374,0.0346 -0.0303,0.0399 -0.0441,0.0663 -0.066,0.16122 -0.0303,0.0593 -0.0152,0.0536 -0.0289,0.0744 -0.0303,0.066 -0.0374,0.0677 -0.0303,0.066 -0.037,0.0744 -0.0222,0.0593 -0.0219,0.0607 -0.0303,0.0607 -0.0374,0.0593 -0.0289,0.0674 -0.037,0.0677 -0.0374,0.0593 -0.0219,0.0607 -0.0222,0.0536 -0.03,0.0469 -0.0152,0.0536 -0.0152,0.0332 -0.007,0.0536 -0.0303,0.0801 -0.0219,0.0399 -0.0152,0.0332 -0.0222,0.0536 -0.007,0.0399 -0.0152,0.0469 -0.0152,0.0346 -0.0441,0.0938 -0.0152,0.0399 -0.0222,0.0593 -0.008,0.0607 -0.007,0.0399 -0.0219,0.0469 v 0.0469 l -0.0152,0.0466 v 0.248 l 0.008,0.0663 0.0289,0.0744 0.0303,0.066 0.0138,0.0346 0.0236,0.0332 0.0138,0.0332 0.0233,0.0399 0.0222,0.0332 0.0152,0.0413 0.0138,0.0332 0.037,0.019 0.0303,0.0275 0.0522,0.054 0.0444,0.0536 0.03,0.0261 0.0593,0.054 0.0374,0.0399 0.037,0.0536 0.0222,0.0332 0.0441,0.0399 0.0233,0.0332 0.0289,0.0208 0.0593,0.0536 0.0303,0.0194 0.0526,0.0536 0.0441,0.0332 0.0303,0.0342 0.0289,0.0194 0.0522,0.0536 0.0303,0.0208 0.0289,0.0332 0.0522,0.0607 0.0374,0.0466 0.037,0.0332 0.0303,0.0194 0.0289,0.0275 0.0303,0.0261 0.0526,0.0469 0.037,0.0346 0.036,0.0399 0.0303,0.0261 0.0674,0.054 0.0374,0.0399 0.0441,0.0275 0.0441,0.0332 0.037,0.0399 0.0455,0.0194 0.0441,0.0275 0.0455,0.019 0.066,0.0346 0.0374,0.0332 0.0441,0.0138 0.0303,0.0194 0.0441,0.0205 0.0455,0.0194 0.037,0.0205 0.0441,0.0208 0.0374,0.0194 0.0522,0.0138 0.0441,0.0194 0.0593,0.0205 0.0522,0.0194 0.0593,0.0138 0.0677,0.0205 0.0441,0.0194 0.0522,0.0138 0.0455,0.0138 0.0441,0.0194 0.0441,0.007 0.0455,0.0138 0.0512,0.007 0.0455,0.007 0.0437,0.005 h 0.0526 l 0.0522,0.007 0.0593,0.007 h 0.0593 l 0.0593,0.007 h 0.23178 l 0.0811,-0.007 h 0.0663 l 0.0674,-0.007 h 0.0674 l 0.0593,-0.007 h 0.39405 l 0.0663,0.007 h 0.037 l 0.15734,0.0205 0.0882,0.0138 0.0522,0.0127 0.0455,0.007 h 0.0512 l 0.0455,0.007 0.0522,0.007 0.0441,0.007 0.0593,0.007 0.0441,0.0123 0.0744,0.007 0.0607,0.0138 0.066,0.007 0.0526,0.007 0.0593,0.006 0.0674,0.007 h 0.23001 l 0.0677,-0.007 h 0.41593 l 0.0526,0.007 h 0.0441 l 0.0441,0.007 h 0.33478 l 0.0593,-0.007 h 0.54293 l 0.0593,-0.007 h 0.0677 l 0.0522,-0.006 0.0593,-0.007 0.0674,-0.007 0.0593,-0.007 0.0663,-0.007 0.0593,-0.007 0.0522,-0.007 0.0455,-0.006 0.0511,-0.007 0.0455,-0.007 0.0508,-0.007 0.0526,-0.0138 0.0522,-0.007 0.0522,-0.0123 0.0374,-0.007 0.0522,-0.007 h 0.14076 l 0.0593,-0.007 h 0.11994 l 0.0593,-0.007 h 0.53446 l 0.0526,-0.007 h 0.0811 l 0.0455,-0.005 h 0.22331 l 0.0441,0.005 0.0455,0.0138 0.0882,0.0275 0.0522,0.0127 0.0441,0.007 0.0526,0.0138 0.0522,0.007 0.037,0.007 0.0526,0.006 h 0.0441 l 0.0455,0.007 h 0.41627 l 0.037,0.007 0.0663,0.007 h 0.10443 l 0.0374,0.007 h 0.037 l 0.0441,0.007 h 0.10477 l 0.0744,0.007 h 0.0744 l 0.0744,0.006 h 0.1337 l 0.0441,-0.006 h 0.037 l 0.0526,-0.007 h 0.037 l 0.0441,-0.007 0.14888,-0.0275 0.15698,-0.0261 0.0512,-0.007 0.0522,-0.0138 0.0593,-0.006 0.0374,-0.0138 0.0522,-0.0205 0.0593,-0.0194 0.0593,-0.0205 0.0677,-0.0141 0.0593,-0.0123 0.0593,-0.0138 0.037,-0.0138 0.0674,-0.0123 0.0374,-0.0208 0.0522,-0.0138 0.0441,-0.0123 0.0374,-0.0205 0.037,-0.0194 0.0441,-0.0208 0.0455,-0.0205 0.0441,-0.0194 0.0441,-0.0275 0.0374,-0.0194 0.0455,-0.0205 0.037,-0.0265 0.0441,-0.0328 0.0526,-0.0416 0.0522,-0.0466 0.0593,-0.0469 0.066,-0.0526 0.0677,-0.0536 0.0674,-0.0607 0.0663,-0.0469 0.0522,-0.0536 0.0593,-0.0399 0.0526,-0.0402 0.0289,-0.0399 0.0522,-0.0332 0.0593,-0.0536 0.0522,-0.0332 0.0374,-0.0342 0.0744,-0.0663 0.0455,-0.0205 0.0508,-0.0469 0.0455,-0.0402 0.0663,-0.0466 0.037,-0.0194 0.0455,-0.0346 0.0441,-0.0328 0.0526,-0.0402 0.0437,-0.0328 0.0455,-0.0346 0.073,-0.0261 0.0455,-0.0332 0.0526,-0.0275 0.0289,-0.0261 0.0303,-0.0279 0.0522,-0.0522 0.0289,-0.0346 0.0152,-0.0399 0.0303,-0.0399 0.0289,-0.0469 0.0303,-0.0469 0.0441,-0.0536 0.0222,-0.0469 0.0303,-0.0536 0.0441,-0.0938 0.0148,-0.0469 0.0222,-0.0469 0.0455,-0.11959 0.007,-0.0469 0.007,-0.0399 0.008,-0.054 v -0.15895 l 0.007,-0.0526 0.008,-0.0536 v -0.10055 l 0.0138,-0.054 v -0.15416 l -0.0138,-0.0593 v -0.1143 l -0.008,-0.054 -0.007,-0.0466 -0.008,-0.0526 -0.007,-0.0413 -0.007,-0.0399 -0.009,-0.0526 -0.0148,-0.0342 -0.007,-0.0402 -0.0152,-0.0469 -0.007,-0.0536 -0.0152,-0.0332 -0.0438,-0.0935 -0.0236,-0.0469 -0.0219,-0.0399 -0.0289,-0.0402 -0.0374,-0.0399 -0.037,-0.0346 -0.0303,-0.0466 -0.0374,-0.0402 -0.0219,-0.0399 -0.0744,-0.0938 -0.0744,-0.0797 -0.0303,-0.0399 -0.0374,-0.0332 -0.037,-0.0413 -0.036,-0.0265 -0.037,-0.0328 -0.0374,-0.0346 -0.0452,-0.0261 -0.0374,-0.0261 -0.0441,-0.0402 -0.037,-0.0205 -0.0455,-0.0332 -0.0441,-0.0346 -0.0441,-0.0328 -0.0455,-0.0469 -0.0441,-0.0194 -0.0441,-0.0346 -0.0374,-0.0261 -0.0455,-0.0332 -0.0289,-0.0342 -0.0455,-0.0261 -0.037,-0.0332 -0.037,-0.0208 -0.0526,-0.0194 -0.0289,-0.0275 -0.037,-0.0328 -0.0303,-0.0279 -0.0289,-0.0466 -0.0455,-0.0194 -0.0374,-0.0332 -0.0441,-0.0342 -0.0441,-0.0332 -0.0522,-0.0261 -0.0455,-0.0402 -0.0441,-0.0275 -0.0526,-0.0261 -0.0437,-0.0346 -0.0303,-0.019 -0.0374,-0.0208 -0.037,-0.0261 -0.0289,-0.0332 -0.0455,-0.0138 -0.0441,-0.0208 -0.0374,-0.019 -0.0441,-0.0138 -0.0303,-0.0208 -0.037,-0.0194 -0.0374,-0.007 -0.0289,-0.0261 -0.0522,-0.0138 -0.0374,-0.0208 -0.0522,-0.0123 -0.0441,-0.0208 -0.0522,-0.007 -0.0455,-0.0123 -0.0882,-0.0279 -0.0455,-0.019 h -0.0663 l -0.0522,-0.007 -0.0677,-0.0138 -0.066,-0.0138 -0.0677,-0.007 -0.0741,-0.006 -0.0663,-0.0208 h -0.0744 l -0.0744,-0.0138 -0.0826,-0.0123 -0.16263,-0.0275 -0.0744,-0.0194 -0.0593,-0.007 -0.0744,-0.007 -0.0674,-0.007 h -0.357 l -0.0526,0.007 -0.0593,0.007 -0.0522,0.007 -0.0441,0.0123 -0.10477,0.0141 -0.0508,0.007 h -0.10478 l -0.0441,0.0138 h -0.0455 l -0.0593,-0.0138 h -0.0526 l -0.066,-0.007 -0.0674,-0.0141 -0.0663,-0.019 -0.0674,-0.0275 -0.0677,-0.0127 -0.0508,-0.0205 -0.0593,-0.0138 -0.0526,-0.006 -0.037,-0.0138 -0.0455,-0.007 -0.0374,-0.007 -0.0441,-0.0194 -0.0522,-0.007 -0.0441,-0.007 -0.0593,-0.007 -0.037,-0.0138 -0.0829,-0.007 -0.0441,-0.0123 -0.0441,-0.0138 -0.0674,-0.007 -0.0593,-0.007 h -0.0374 l -0.0522,-0.007 -0.0744,-0.005 -0.0522,-0.0138 -0.0374,-0.007 -0.0441,-0.0138 -0.0441,-0.0123 -0.0522,-0.0208 -0.0455,-0.0205 -0.0374,-0.0123 -0.037,-0.0138 -0.036,-0.0138 -0.037,-0.007 -0.0374,-0.0123 -0.0522,-0.007 -0.0744,-0.0138 -0.0677,-0.0124 h -0.25188 l -0.0677,0.0261 -0.037,0.007 -0.0374,0.0194 -0.0744,0.0138 h -0.0522 l -0.0512,0.0138 h -0.0455 l -0.0437,0.007 h -0.15593 l -0.0522,0.006 -0.0593,0.007 h -0.0593 l -0.0607,0.0138 -0.0593,0.0138 -0.0441,0.007 -0.0677,0.0123 -0.066,0.007 -0.10477,0.0138 -0.037,0.0138 -0.0593,0.0123 -0.0526,0.007 -0.0441,0.007 -0.0593,0.0138 -0.0522,0.007 -0.0526,0.005 -0.0593,0.007 -0.0522,0.0138 -0.0522,0.007 -0.0512,0.007 -0.0455,0.0194 -0.037,0.0138 -0.0374,0.007 h -0.19967 l -0.0455,-0.007" />
    <text
       id="text164"
       style="font-variant:normal;font-weight:normal;font-size:4.23333311px;font-family:'DejaVu Sans';-inkscape-font-specification:DejaVuSans;writing-mode:lr-tb;fill:#3333cc;fill-opacity:1;fill-rule:nonzero;stroke:none;stroke-width:0.35277775"
       x="63.47197"
       y="34.045616">
      <tspan
         style="stroke-width:0.35277775"
         id="tspan162"
         sodipodi:role="line"
         y="34.045616"
         x="63.47197 66.291367">AC</tspan>
    </text>
    <text
       id="text168"
       style="font-variant:normal;font-weight:normal;font-size:4.23333311px;font-family:'DejaVu Sans';-inkscape-font-specification:DejaVuSans;writing-mode:lr-tb;fill:#008000;fill-opacity:1;fill-rule:nonzero;stroke:none;stroke-width:0.35277775"
       x="61.724609"
       y="49.29084">
      <tspan
         style="stroke-width:0.35277775"
         id="tspan166"
         sodipodi:role="line"
         y="49.29084"
         x="61.724609 64.552475">BC</tspan>
    </text>
    <path
       inkscape:connector-curvature="0"
       id="path170"
       style="fill:none;stroke:#3333cc;stroke-width:0.49741665;stroke-linecap:round;stroke-linejoin:round;stroke-miterlimit:10;stroke-dasharray:none;stroke-opacity:1"
       d="m 66.721418,30.03616 2.87055,-0.0882" />
    <path
       inkscape:connector-curvature="0"
       id="path172"
       style="fill:none;stroke:#3333cc;stroke-width:0.49741665;stroke-linecap:round;stroke-linejoin:round;stroke-miterlimit:10;stroke-dasharray:none;stroke-opacity:1"
       d="m 55.447698,36.56537 3.33199,-1.32574 1.66617,-0.66146 1.66476,-0.66287" />
    <path
       inkscape:connector-curvature="0"
       id="path174"
       style="fill:none;stroke:#008000;stroke-width:0.49741665;stroke-linecap:round;stroke-linejoin:round;stroke-miterlimit:10;stroke-dasharray:none;stroke-opacity:1"
       d="m 46.829338,47.32932 4.05412,0.2092 2.02848,0.10477 2.02706,0.10478 2.02847,0.10477 2.02741,0.10478" />
    <path
       inkscape:connector-curvature="0"
       id="path176"
       style="fill:none;stroke:#008000;stroke-width:0.49741665;stroke-linecap:round;stroke-linejoin:round;stroke-miterlimit:10;stroke-dasharray:none;stroke-opacity:1"
       d="m 111.78173,56.04399 0.0138,1.98155 0.0127,1.98297 0.0413,5.94889" />
    <path
       inkscape:connector-curvature="0"
       id="path178"
       style="fill:none;stroke:#008000;stroke-width:0.49741665;stroke-linecap:round;stroke-linejoin:round;stroke-miterlimit:10;stroke-dasharray:none;stroke-opacity:1"
       d="m 111.92531,56.46979 -0.0663,-0.0194 -0.0564,-0.0508 0.0787,-0.0194 0.066,-0.0109 0.0677,-0.01 0.11147,-0.01 0.10055,-0.0208 0.11147,-0.01 0.11183,-0.0194 0.10055,-0.0109 0.12276,-0.01 0.11148,-0.0208 0.11183,-0.0194 0.0991,-0.01 0.11148,-0.0204 0.10054,-0.01 0.11183,-0.0205 0.0896,-0.01 0.12242,-0.01 0.11183,-0.0109 0.0783,-0.01 0.0995,-0.01 0.0892,-0.0109 h 0.30197 l 0.10055,-0.01 h 0.11183 l 0.11006,-0.009 0.10055,-0.01 0.10054,-0.0208 0.0787,-0.01 0.0896,-0.0208 0.0773,-0.0303 0.0896,-0.0191 0.10054,-0.0208 0.10054,-0.0303 0.11148,-0.01 0.10054,-0.0194 0.0995,-0.0109 0.20108,-0.0194 h 1.43863 l 0.10054,0.01 0.0896,0.01 0.11183,0.0109 0.10055,0.01 0.0769,0.01 0.0896,0.01 0.0787,0.0109 0.0772,0.01 0.0896,0.01 0.0674,0.01 0.0773,0.0208 0.0674,0.01 0.0564,0.0113 0.0663,0.01 0.0564,0.01 0.055,0.01 0.0896,0.0205 0.0773,0.0208 0.0787,0.019 0.0783,0.0208 0.0896,0.0194 0.0991,0.0205 0.0787,0.0194 0.10054,0.0208 0.0896,0.0205 0.0663,0.0194 0.0783,0.0205 0.0663,0.0194 0.0674,0.0208 0.0677,0.009 0.055,0.0208 0.0674,0.01 0.0663,0.0194 0.0674,0.0205 0.0663,0.0303 0.0674,0.0194 0.0677,0.0208 0.066,0.0205 0.0674,0.0289 0.0882,0.0208 0.0677,0.0303 0.0896,0.0303 0.066,0.0191 0.0564,0.0303 0.0554,0.0208 0.0896,0.0289 0.0893,0.0303 0.0896,0.0702 0.0773,0.0399 0.0455,0.0413 0.0663,0.0402 0.0674,0.0303 0.0773,0.0797 0.0783,0.0801 0.0441,0.0303 0.0455,0.0399 0.0441,0.0399 0.0677,0.0607 0.066,0.0607 0.0677,0.0801 0.0441,0.0399 0.0452,0.0607 0.0332,0.0494 0.055,0.0607 0.0346,0.0497 0.0773,0.10055 0.0564,0.0896 0.0441,0.0508 0.0455,0.0706 0.0441,0.0607 0.0441,0.0702 0.0346,0.0593 0.0441,0.0702 0.0441,0.0607 0.0455,0.0702 0.0438,0.0607 0.0677,0.0991 0.066,0.091 0.0346,0.0607 0.0441,0.0593 0.0441,0.0702 0.0455,0.0702 0.0441,0.0801 0.0332,0.0607 0.0342,0.0702 0.0332,0.0607 0.0332,0.0702 0.0332,0.0801 0.0233,0.0797 0.0332,0.091 0.0441,0.1598 0.0342,0.0702 0.0113,0.0706 0.0219,0.0907 0.0109,0.0801 0.0222,0.091 0.0219,0.0593 0.0113,0.0702 0.0233,0.0607 0.0109,0.0607 v 0.0593 l 0.0113,0.0607 v 0.26035 l -0.0113,0.091 v 0.0797 l -0.0109,0.091 -0.0233,0.0801 -0.0222,0.0893 -0.0219,0.091 -0.0332,0.091 -0.0332,0.0896 -0.0342,0.10055 -0.0332,0.0896 -0.0332,0.091 -0.0346,0.0797 -0.0328,0.0705 -0.0222,0.0797 -0.0332,0.0607 -0.0233,0.0702 -0.0222,0.0706 -0.0328,0.0603 -0.0332,0.0497 -0.0222,0.0607 -0.0233,0.0497 -0.0219,0.0508 -0.0332,0.0593 -0.0222,0.0607 -0.0342,0.0702 -0.0222,0.0607 -0.0332,0.0593 -0.0328,0.0607 -0.0346,0.0607 -0.0222,0.0702 -0.0328,0.0593 -0.0222,0.0702 -0.0233,0.0702 -0.0441,0.12135 -0.0332,0.0497 -0.0219,0.0607 -0.0455,0.0892 -0.0332,0.0706 -0.0441,0.10054 -0.0346,0.0797 -0.0328,0.0607 -0.0554,0.0705 -0.0342,0.0603 -0.0441,0.0303 -0.0455,0.0593 -0.0441,0.0511 -0.0663,0.0303 -0.0455,0.0593 -0.055,0.0399 -0.0564,0.0413 -0.055,0.0399 -0.0455,0.0497 -0.0663,0.0399 -0.0674,0.0402 -0.055,0.0607 -0.0568,0.0303 -0.055,0.0399 -0.0564,0.0399 -0.0882,0.0512 -0.0787,0.0494 -0.0564,0.0208 -0.0991,0.0399 -0.0674,0.0303 -0.10089,0.0497 -0.066,0.0303 -0.0564,0.0303 -0.0787,0.0289 -0.0882,0.0413 -0.0896,0.0399 -0.20109,0.0801 -0.0896,0.0303 -0.0773,0.03 -0.10054,0.0289 -0.0564,0.0208 -0.0773,0.0303 -0.0787,0.0194 -0.055,0.0205 -0.0674,0.01 -0.0663,0.0205 -0.0783,0.01 -0.0677,0.0205 -0.0882,0.0194 -0.0896,0.0205 -0.10054,0.0194 -0.0896,0.0303 -0.10054,0.0303 -0.0773,0.0303 -0.0783,0.0303 -0.0896,0.0303 -0.0896,0.0289 -0.0882,0.0303 -0.0787,0.0303 -0.0674,0.0303 -0.0773,0.0205 -0.0787,0.0194 -0.055,0.0208 -0.0674,0.01 -0.11183,0.0208 -0.0896,0.0191 -0.12241,0.0208 -0.0882,0.01 -0.10054,0.01 -0.11183,0.0208 -0.11148,0.0303 -0.10054,0.0303 -0.0896,0.0289 -0.0896,0.0303 -0.0773,0.0303 -0.10054,0.0399 -0.0674,0.0303 -0.0663,0.0208 -0.0674,0.0191 -0.0554,0.0208 -0.0783,0.01 h -0.055 l -0.0787,0.01 -0.0787,0.0109 -0.0882,0.01 -0.11148,0.01 -0.11183,0.0204 -0.10054,0.01 h -0.10054 l -0.0896,0.01 h -0.28928 l -0.10054,0.0204 -0.0896,0.0194 -0.055,0.0109 -0.0787,0.0289 -0.0677,0.0208 -0.066,0.0208 -0.10054,0.0399 -0.0896,0.0194 -0.055,0.0109 -0.0564,0.01 -0.0882,0.0194 -0.0568,0.0109 -0.055,0.01 -0.0674,0.0208 -0.17921,0.0194 -0.0991,0.01 h -0.10054 l -0.0896,0.0109 -0.1009,0.01 h -0.055 l -0.0674,0.01 h -0.47978 l -0.0674,-0.01 h -0.0663 l -0.0674,-0.01 -0.055,-0.0109 -0.0677,-0.01 -0.10054,-0.01 -0.0769,-0.01 -0.0787,-0.0208 -0.0663,-0.0205 -0.0674,-0.0194 -0.0787,-0.0205 -0.0769,-0.0303 h -0.0568 l -0.0769,-0.01 h -0.21237 l 0.11148,-0.0494 0.0773,-0.0511" />
    <path
       inkscape:connector-curvature="0"
       id="path180"
       style="fill:none;stroke:#3333cc;stroke-width:0.49741665;stroke-linecap:round;stroke-linejoin:round;stroke-miterlimit:10;stroke-dasharray:none;stroke-opacity:1"
       d="m 111.45929,39.99789 0.0275,3.96628 0.0127,1.98156 0.0275,3.96593" />
    <path
       inkscape:connector-curvature="0"
       id="path182"
       style="fill:none;stroke:#3333cc;stroke-width:0.49741665;stroke-linecap:round;stroke-linejoin:round;stroke-miterlimit:10;stroke-dasharray:none;stroke-opacity:1"
       d="m 111.60287,40.42511 -0.0663,-0.0205 -0.0564,-0.0497 0.0787,-0.0205 0.0674,-0.01 0.066,-0.0109 0.11183,-0.01 0.10054,-0.0194 0.11148,-0.0109 0.11183,-0.0194 0.10054,-0.0109 0.12276,-0.01 0.11148,-0.0191 0.11148,-0.0208 0.10089,-0.01 0.11148,-0.0208 0.0991,-0.009 0.11184,-0.0208 0.0896,-0.01 0.12241,-0.01 0.11183,-0.0113 0.0783,-0.01 0.10054,-0.01 0.0882,-0.01 h 0.30198 l 0.10054,-0.0109 h 0.11148 l 0.11183,-0.01 0.10054,-0.01 0.0991,-0.0205 0.0787,-0.01 0.0896,-0.0205 0.0773,-0.0289 0.0896,-0.0208 0.10054,-0.0205 0.10054,-0.0289 0.11148,-0.0113 0.10054,-0.019 0.1009,-0.0113 0.0991,-0.01 0.10054,-0.01 h 1.44004 l 0.0991,0.01 0.0896,0.01 0.11183,0.0113 0.10055,0.01 0.0783,0.01 0.0882,0.0113 0.15734,0.019 0.0882,0.01 0.0674,0.0109 0.0787,0.0194 0.066,0.0109 0.0564,0.01 0.0663,0.01 0.0564,0.01 0.055,0.0109 0.0896,0.0194 0.0787,0.0205 0.0773,0.0194 0.0783,0.0208 0.0896,0.019 0.10054,0.0208 0.0773,0.0208 0.10054,0.019 0.0896,0.0208 0.0663,0.019 0.0783,0.0208 0.0677,0.0194 0.066,0.0205 0.0677,0.01 0.055,0.0205 0.0674,0.01 0.0663,0.0205 0.0674,0.0194 0.0677,0.0303 0.066,0.0205 0.0674,0.0194 0.0663,0.0208 0.0674,0.0303 0.0896,0.019 0.0663,0.0303 0.0896,0.0303 0.066,0.0194 0.0564,0.0303 0.0554,0.0205 0.17886,0.0607 0.0896,0.0706 0.0773,0.0399 0.0455,0.0399 0.066,0.0399 0.0677,0.0303 0.0787,0.0801 0.0769,0.0797 0.0455,0.0303 0.0882,0.0801 0.0677,0.0607 0.066,0.0607 0.0674,0.0797 0.0444,0.0402 0.0452,0.0603 0.0332,0.0497 0.0564,0.0607 0.0332,0.0497 0.0787,0.10054 0.055,0.091 0.0441,0.0494 0.0455,0.0702 0.0441,0.0607 0.0455,0.0702 0.0332,0.0593 0.0441,0.0706 0.0451,0.0607 0.0441,0.0702 0.0441,0.0607 0.0677,0.10054 0.066,0.0896 0.0346,0.0607 0.0441,0.0593 0.0441,0.0702 0.0455,0.0702 0.0441,0.0811 0.0346,0.0593 0.0328,0.0705 0.0332,0.0603 0.0332,0.0706 0.0342,0.0797 0.0222,0.0815 0.0332,0.0896 0.0219,0.0797 0.0236,0.0815 0.0328,0.0702 0.0113,0.0688 0.0219,0.091 0.0109,0.0801 0.0222,0.0907 0.0233,0.0607 0.0113,0.0692 0.0219,0.0603 0.0109,0.0607 v 0.0607 l 0.0113,0.0593 v 0.26176 l -0.0113,0.0896 v 0.0801 l -0.0109,0.091 -0.0219,0.0797 -0.0236,0.091 -0.0219,0.0896 -0.0332,0.091 -0.0332,0.0896 -0.0346,0.10055 -0.0328,0.091 -0.0332,0.0896 -0.0332,0.0797 -0.0342,0.0702 -0.0222,0.0815 -0.0332,0.0593 -0.0219,0.0702 -0.0236,0.0702 -0.0328,0.0607 -0.0332,0.0497 -0.0222,0.0607 -0.0233,0.0508 -0.0222,0.0497 -0.0328,0.0607 -0.0222,0.0593 -0.0332,0.0702 -0.0233,0.0607 -0.0332,0.0603 -0.0328,0.0593 -0.0332,0.0607 -0.0236,0.0705 -0.0328,0.0603 -0.0441,0.14075 -0.0236,0.0593 -0.0219,0.0607 -0.0332,0.0494 -0.0219,0.0607 -0.0455,0.091 -0.0332,0.0702 -0.0441,0.0991 -0.0346,0.0815 -0.0332,0.0593 -0.055,0.0702 -0.0342,0.0607 -0.0441,0.0303 -0.0441,0.0607 -0.0455,0.0494 -0.0663,0.0303 -0.0455,0.0607 -0.055,0.0402 -0.0564,0.0399 -0.055,0.0399 -0.0441,0.0497 -0.0677,0.0399 -0.0674,0.0413 -0.055,0.0593 -0.0568,0.0303 -0.11007,0.0801 -0.0896,0.0508 -0.0787,0.0497 -0.055,0.0205 -0.10054,0.0402 -0.0674,0.0303 -0.10089,0.0494 -0.066,0.0303 -0.0564,0.0303 -0.0773,0.0303 -0.17921,0.0801 -0.20108,0.0797 -0.0882,0.0303 -0.0787,0.0303 -0.10054,0.0303 -0.055,0.0194 -0.0787,0.0303 -0.0787,0.0204 -0.055,0.0194 -0.0674,0.0109 -0.0663,0.0194 -0.0783,0.01 -0.0677,0.0208 -0.0882,0.019 -0.0896,0.0208 -0.10054,0.0208 -0.0896,0.0289 -0.10054,0.0303 -0.0773,0.0303 -0.0783,0.0303 -0.0896,0.03 -0.0882,0.0303 -0.0896,0.0303 -0.0787,0.0289 -0.066,0.0303 -0.0787,0.0208 -0.0787,0.0194 -0.055,0.0204 -0.0674,0.01 -0.11183,0.0204 -0.0882,0.0194 -0.12242,0.0204 -0.0896,0.01 -0.10054,0.01 -0.11184,0.0208 -0.11147,0.0303 -0.10054,0.0303 -0.0896,0.0303 -0.0882,0.0289 -0.0787,0.03 -0.10055,0.0402 -0.0663,0.0303 -0.0674,0.0204 -0.0674,0.0194 -0.0554,0.0208 -0.0783,0.01 h -0.0554 l -0.0783,0.01 -0.0787,0.0109 -0.0882,0.01 -0.11147,0.01 -0.11183,0.0208 -0.10055,0.01 h -0.10054 l -0.0896,0.01 h -0.28927 l -0.10055,0.0208 -0.0896,0.0208 -0.0554,0.01 -0.0783,0.0303 -0.0663,0.0194 -0.0674,0.0205 -0.10054,0.0402 -0.0896,0.0204 -0.055,0.01 -0.0568,0.01 -0.0882,0.0204 -0.0564,0.01 -0.055,0.009 -0.0674,0.0208 -0.0896,0.01 -0.0882,0.01 -0.10054,0.0113 h -0.10069 l -0.0893,0.009 -0.10089,0.01 h -0.055 l -0.0674,0.01 h -0.47978 l -0.066,-0.01 h -0.0677 l -0.066,-0.01 -0.0564,-0.009 -0.0677,-0.0113 -0.0991,-0.01 -0.0787,-0.01 -0.0783,-0.0208 -0.0663,-0.0194 -0.0674,-0.0205 -0.0773,-0.0194 -0.0787,-0.0303 h -0.0564 l -0.0769,-0.0109 h -0.21237 l 0.11148,-0.0497 0.0787,-0.0494" />
    <path
       inkscape:connector-curvature="0"
       id="path184"
       style="fill:none;stroke:#000000;stroke-width:0.49741665;stroke-linecap:round;stroke-linejoin:round;stroke-miterlimit:10;stroke-dasharray:none;stroke-opacity:1"
       d="m 144.0623,44.00686 -0.0441,-0.0593 -0.066,-0.0303 -0.0455,-0.0512" />
    <path
       inkscape:connector-curvature="0"
       id="path186"
       style="fill:none;stroke:#000000;stroke-width:0.49741665;stroke-linecap:round;stroke-linejoin:round;stroke-miterlimit:10;stroke-dasharray:none;stroke-opacity:1"
       d="m 143.87357,43.81671 -0.0564,-0.0497 -0.0663,-0.0303 -0.0674,-0.0399 0.0674,-0.0303 h 0.0663 l 0.0674,0.0194 0.0787,0.0109 0.0773,0.019 0.0896,0.0402 0.0896,0.0303 0.066,0.0303 0.0896,0.0399 0.0441,0.0303 0.0896,0.0497 0.0455,0.0399 0.0441,0.0413 0.0783,0.0593 0.0441,0.0399 0.0787,0.0607 0.0222,0.0512 0.0441,0.0494 0.0455,0.0497 0.0328,0.0607 0.0441,0.0303 0.0346,0.0607 0.0441,0.0399 0.0332,0.0593 0.0455,0.0508 0.0219,0.0497 0.0441,0.0607 0.0455,0.0303 0.0332,0.0593 0.0441,0.0413 0.0219,0.0593 0.0236,0.0508 0.0328,0.0593 0.0332,0.0512 0.0332,0.0593 0.0346,0.0508 0.0328,0.0607 0.0222,0.0497 0.0342,0.0497 0.0222,0.0508 0.0332,0.0497 0.0328,0.0508 0.0222,0.0593 0.0346,0.0512 0.0328,0.0797 0.0332,0.0607 0.0233,0.0593 0.0222,0.0512 0.0332,0.0593 0.0441,0.10055 0.0564,0.10054 0.0219,0.0702 0.0222,0.0607 0.0346,0.0593 0.0219,0.0607 0.0332,0.0607 0.0219,0.0593 0.0332,0.0811 0.0346,0.0593 0.0328,0.0815 0.0332,0.0593 0.0346,0.0607 0.0219,0.0603 0.0332,0.0497 0.0222,0.0511 0.0219,0.0589 0.0236,0.0706 0.0328,0.0702 0.0222,0.0702 0.0332,0.0702 0.0342,0.0607 0.0222,0.0607 0.0219,0.0593 0.0332,0.0607 0.0233,0.0702 0.0222,0.0607 0.0219,0.0702 0.0222,0.0593 0.0219,0.0607 0.0113,0.0607 0.0233,0.0593 0.0109,0.0702 0.0222,0.0815 0.0109,0.0797 0.0222,0.0896 0.0109,0.0815 0.0219,0.0702 0.0236,0.0797 0.0109,0.0607 0.0219,0.0593 0.0222,0.14076 0.0219,0.0797 0.0222,0.14075 0.0233,0.0607 0.0113,0.0603 0.0109,0.0706 0.0109,0.0797 0.0222,0.0801 0.0219,0.091 0.0109,0.10055 0.0124,0.0896 0.0113,0.0907 v 0.0896 l 0.0109,0.0801 0.0109,0.091 0.0109,0.0896 v 0.0907 l 0.0113,0.091 0.0109,0.0896 v 0.091 l 0.0109,0.0896 v 0.55245 l 0.0109,0.0995 v 0.10054 l 0.0113,0.10054 v 1.54622 l -0.0113,0.0896 v 0.0907 l -0.0109,0.0896 -0.0109,0.0801 -0.0109,0.0702 -0.0222,0.0815 -0.0109,0.0593 -0.0222,0.12101 -0.0124,0.0702 -0.0219,0.0801 -0.0109,0.0801 -0.0222,0.0702 -0.0109,0.0797 -0.0109,0.0607 -0.0222,0.0702 -0.0124,0.0705 -0.0109,0.0702 -0.0222,0.0702 -0.0109,0.0607 -0.0332,0.21096 -0.0219,0.0702 -0.0113,0.0702 -0.0123,0.0593 -0.0109,0.0607 -0.0109,0.0702 -0.0109,0.0607 -0.0222,0.0702 -0.0109,0.0896 -0.0222,0.0801 -0.0233,0.091 -0.0441,0.14041 -0.0222,0.0593 -0.0109,0.0607 -0.0219,0.0607 -0.0113,0.0607 -0.0233,0.0494 -0.0332,0.10054 -0.0219,0.0593 -0.0441,0.10054 -0.0346,0.1009 -0.0219,0.0508 -0.0113,0.0593 -0.0219,0.0512 -0.0222,0.0593 -0.0233,0.0607 -0.0441,0.0907 -0.0222,0.0801 -0.0328,0.0702 -0.0455,0.0801 -0.0222,0.0607 -0.0441,0.0593 -0.0455,0.10054 -0.0328,0.0508 -0.0332,0.0593 -0.0346,0.0512 -0.0332,0.0593 -0.0328,0.0702 -0.0346,0.0607 -0.0332,0.0702 -0.0441,0.0702 -0.0332,0.0702 -0.0342,0.0607 -0.0222,0.0593 -0.055,0.10054 -0.0564,0.0706 -0.0332,0.0603 -0.0455,0.0896 -0.0328,0.0607 -0.0332,0.0706 -0.0455,0.0603 -0.0332,0.0705 -0.0441,0.0593 -0.0455,0.0603 -0.0441,0.0706 -0.055,0.0607 -0.0455,0.0593 -0.055,0.0811 -0.0455,0.0593 -0.0332,0.0811 -0.0441,0.0995 -0.0455,0.0702 -0.0109,0.0607 -0.0441,0.10054 -0.0332,0.0607 -0.0342,0.0593 -0.0332,0.0607 -0.055,0.0797 -0.0568,0.0512 -0.0674,0.0797 -0.066,0.10055 -0.0787,0.0593 -0.0773,0.0607 -0.0455,0.0402 -0.0441,0.0399 -0.0565,0.0413 -0.0441,0.0399 -0.0441,0.0303 -0.0564,0.0593 -0.055,0.0607 -0.0677,0.0801 -0.066,0.0797 -0.0787,0.0702" />
    <path
       inkscape:connector-curvature="0"
       id="path188"
       style="fill:none;stroke:#000000;stroke-width:0.49741665;stroke-linecap:round;stroke-linejoin:round;stroke-miterlimit:10;stroke-dasharray:none;stroke-opacity:1"
       d="m 144.34206,43.76697 -0.0332,-0.0607 -0.0452,-0.0607 0.0783,0.0402 h 0.24553 l 0.0783,-0.0194 h 0.11183 l 0.0991,-0.0109 0.11147,-0.0402 0.11184,-0.0191 0.11147,-0.0402 0.11148,-0.0204 0.11183,-0.0303 0.22331,-0.0194 h 0.51259 l 0.2233,0.0194 0.11148,0.0204 0.11148,0.01 h 0.12277 l 0.12276,0.01 0.13371,-0.01 h 0.13476 l 0.12276,-0.0303 0.12277,-0.01 0.11148,-0.0208 0.0991,-0.0194 0.10089,-0.01 0.0893,-0.0109 0.10089,-0.01 0.11148,-0.0204 h 0.97014 l 0.11147,0.0204 0.11184,0.01 0.11147,0.0205 h 0.11183 l 0.12242,0.0194 0.11183,0.0109 0.12241,0.0194 0.12277,0.0205 0.1337,0.0194 0.12277,0.0109 0.12241,0.0402 0.12277,0.019 0.11148,0.0303 0.12276,0.0208 0.12277,0.0494 0.12241,0.0402 0.36795,0.091 0.13511,0.019 0.13371,0.0413 0.14464,0.0402 0.14464,0.0289 0.15592,0.0508 0.15699,0.0497 0.15557,0.0399 0.145,0.0303 0.14605,0.0607 0.1337,0.0399 0.13335,0.0497 0.12277,0.0607 0.12276,0.0303 0.12242,0.0494 0.11183,0.0416 0.2233,0.0797 0.10055,0.0303 0.11147,0.0399 0.10055,0.0402 0.11042,0.019 0.11147,0.0607 0.11183,0.0303 0.12242,0.0399 0.12276,0.0303 0.11148,0.0303 0.12277,0.0194 0.10054,0.0413 0.11183,0.0289 0.11148,0.0303 0.11148,0.0208 0.11183,0.0303 0.11147,0.019 0.12277,0.0208 0.12277,0.0303 0.12241,0.0289 0.12277,0.0109 0.11148,0.0399 0.11183,0.01 0.11147,0.0205 0.10055,0.0194 0.10054,0.0109 h 0.10089 l 0.0991,0.0289 0.0783,0.0113 0.0896,0.01 0.0787,0.0303 0.0773,0.0194 0.10054,0.0205 0.0674,0.0194 0.0995,0.0109 0.0783,0.0303 0.0787,0.0194 0.0896,0.0205 0.0773,0.0194 0.0892,0.0303 0.0787,0.0399 0.0882,0.0402 0.0677,0.0413 0.0783,0.0399 0.0772,0.0303 0.0674,0.0399 0.0787,0.0399 0.0663,0.0593 0.0783,0.0511 0.0773,0.0497 0.10054,0.0508 0.0674,0.0593 0.1009,0.0607 0.0769,0.0497 0.0787,0.0508 0.0896,0.0702 0.0896,0.0402 0.0773,0.0702 0.0893,0.0607 0.0896,0.0593 0.0882,0.0607 0.1009,0.0603 0.17886,0.14076 0.0896,0.0896 0.0995,0.0797 0.0892,0.10054 0.10089,0.091 0.0896,0.0896 0.10054,0.091 0.10054,0.0896 0.0773,0.0702 0.0783,0.0815 0.0787,0.0593 0.066,0.0702 0.0677,0.0702 0.0773,0.0607 0.0674,0.0797 0.0787,0.0607 0.0769,0.0801 0.0455,0.0508 0.0773,0.0497 0.0455,0.0497 0.0441,0.0508 0.0674,0.0497 0.0441,0.0607 0.0554,0.0494 0.0674,0.0607 0.0564,0.0607 0.055,0.0702 0.0554,0.0593 0.0674,0.0815 0.0674,0.0797 0.0773,0.0896 0.0896,0.10055 0.10054,0.10089 0.0663,0.10054 0.0896,0.11995 0.0674,0.13088 0.0773,0.13088 0.0674,0.12947 0.0677,0.12135 0.066,0.11007 0.0332,0.10054 0.0455,0.0691 0.0332,0.0811 0.0328,0.0593 0.0346,0.0607 0.0219,0.0607 0.0554,0.10054 0.0342,0.0702 0.0332,0.0801 0.0441,0.0607 0.0565,0.0593 0.0773,0.0907 0.0455,0.0705 0.0441,0.0702 0.0564,0.0494 0.0441,0.0801 0.0441,0.0702" />
    <path
       inkscape:connector-curvature="0"
       id="path190"
       style="fill:none;stroke:#000000;stroke-width:0.49741665;stroke-linecap:round;stroke-linejoin:round;stroke-miterlimit:10;stroke-dasharray:none;stroke-opacity:1"
       d="m 144.01821,60.6742 0.0677,-0.01 0.11148,-0.019 h 0.11147 l 0.0773,-0.0109 h 0.0677 l 0.0769,-0.01 0.0677,-0.01 0.0783,-0.0109 0.0663,-0.01 0.0674,-0.01 0.0663,-0.01 0.0674,-0.0113 h 0.0554 l 0.0674,-0.01 h 0.055 l 0.0677,-0.01 0.0565,-0.0113 0.066,-0.01 0.0677,-0.01 0.0769,-0.01 h 0.0677 l 0.0783,-0.0109 0.0773,-0.01 0.0677,-0.01 0.066,-0.0109 0.0565,-0.01 0.0896,-0.01 0.0882,-0.01 0.0787,-0.0204 0.055,-0.01 h 0.34608 l 0.0783,-0.0109 0.10055,-0.0194 0.0787,-0.0205 0.0882,-0.01 h 0.0674 l 0.0787,-0.0205 0.0663,-0.01 0.0892,-0.019 0.0787,-0.0208 0.0882,-0.01 h 0.0787 l 0.0783,-0.01 0.0882,-0.0109 0.0787,-0.01 h 0.33478 l 0.0554,-0.01 h 1.11619 l 0.0896,0.01 0.066,0.01 h 0.32385 l 0.055,0.0109 0.11183,0.01 h 0.8255 l 0.0783,-0.01 h 0.37889 l 0.0787,-0.0109 h 0.15557 l 0.1009,-0.01 0.0896,-0.01 h 0.10054 l 0.10055,-0.0109 0.0991,-0.01 0.20108,-0.0194 0.10089,-0.0109 0.10055,-0.01 0.0783,-0.01 0.0882,-0.0109 0.0677,-0.01 0.0783,-0.01 0.0773,-0.0205 0.0677,-0.01 0.066,-0.0205 0.0674,-0.0194 0.0663,-0.0208 0.0674,-0.019 0.0787,-0.0303 0.0663,-0.0303 0.0783,-0.0303 0.0663,-0.0399 0.0783,-0.0303 0.0677,-0.0303 0.066,-0.0289 0.0677,-0.0303 0.0783,-0.0399 0.0773,-0.0303 0.0787,-0.0402 0.0783,-0.0413 0.0772,-0.0399 0.0787,-0.0497 0.0783,-0.0607 0.0663,-0.0494 0.0787,-0.0512 0.066,-0.0494 0.0787,-0.0497 0.0783,-0.0511 0.0773,-0.0593 0.0677,-0.0508 0.0783,-0.0607 0.0663,-0.0593 0.0674,-0.0607 0.0663,-0.0494 0.0565,-0.0512 0.066,-0.0497 0.0565,-0.0399 0.0554,-0.0399 0.0564,-0.0413 0.066,-0.0497 0.0564,-0.0399 0.0554,-0.0511 0.0564,-0.0593 0.066,-0.0399 0.0568,-0.0512 0.066,-0.0589 0.0674,-0.0512 0.0663,-0.0607 0.0674,-0.0494 0.0554,-0.0497 0.0564,-0.0512 0.0674,-0.0399 0.055,-0.0399 0.10089,-0.091 0.0441,-0.0399 0.0455,-0.0402 0.0437,-0.0399 0.0445,-0.0303 0.0452,-0.0399 0.0663,-0.0303 0.0564,-0.0497 0.055,-0.0508 0.0564,-0.0497 0.0663,-0.0607 0.0674,-0.0399 0.0554,-0.0399 0.0564,-0.0607 0.066,-0.0399 0.0564,-0.0497 0.0554,-0.0512 0.0674,-0.0289 0.10054,-0.0811 0.0773,-0.0593 0.0455,-0.0303 0.055,-0.0399 0.0455,-0.0303 0.055,-0.0399 0.0677,-0.0402 0.0328,-0.0508 0.0677,-0.0402 0.055,-0.0603 0.0787,-0.0593 0.0773,-0.0607 0.0674,-0.0607 0.0674,-0.0399 0.0663,-0.0607 0.0674,-0.0402 0.0663,-0.0593 0.0674,-0.0508 0.055,-0.0497 0.0677,-0.0399 0.055,-0.0399 0.0565,-0.0413 0.055,-0.0497 0.0568,-0.0399 0.055,-0.0402 0.0565,-0.0303 0.10054,-0.0702 0.0773,-0.0702 0.0455,-0.0399 0.066,-0.0607 0.0455,-0.0303 0.0441,-0.0497 0.0663,-0.0399 0.0342,-0.0607 0.0441,-0.0607 0.0677,-0.0593 0.0441,-0.0607 0.0564,-0.0603 0.066,-0.0706 0.0568,-0.0494 0.066,-0.0706 0.0677,-0.0603 0.066,-0.0593 0.0565,-0.0512 0.0663,-0.0399 0.0342,-0.0497 0.0663,-0.0399 0.0332,-0.0512 0.0455,-0.0494 0.0437,-0.0512 0.0455,-0.0303 0.0882,-0.0991 0.0677,-0.0512 0.0332,-0.0494 0.0452,-0.0399 0.0663,-0.0607 0.0332,-0.0497 0.0455,-0.0508 0.0441,-0.0497 0.0674,-0.0702 0.055,-0.0801 0.0564,-0.0607 0.0441,-0.0702 0.0568,-0.0607 0.055,-0.0702 0.0565,-0.0801 0.0219,-0.0494 0.0332,-0.0512 0.055,-0.0797 0.0455,-0.0706 0.0222,-0.0603 0.0219,-0.0593 0.0346,-0.0512 0.0332,-0.0607 0.0219,-0.0593 0.0441,-0.0702 0.0236,-0.0512 0.0328,-0.0797 0.0222,-0.0497 0.0219,-0.0508 0.0222,-0.0593 0.0564,-0.0815 0.055,-0.0702 0.0455,-0.0593 0.0663,-0.1404 0.0233,-0.0801 0.0222,-0.0607 0.0109,-0.0702 0.0109,-0.0607 0.0222,-0.0702 0.0441,-0.10055 0.0342,-0.0896 0.0332,-0.091 0.0332,-0.0702 0.0346,-0.0593 0.0328,-0.0607 0.0109,-0.0702 0.0113,-0.0607 0.0219,-0.0702 0.0346,-0.0801 0.0219,-0.0896 0.0222,-0.0607 0.0219,-0.0508 0.0222,-0.0593 0.0219,-0.0607 0.0236,-0.0497 0.0332,-0.0811 0.0328,-0.0702 0.0346,-0.0896 0.0332,-0.091 0.0328,-0.0896 0.0332,-0.0607 0.0346,-0.0702 0.0219,-0.0607 0.0663,-0.1404 0.0564,0.0413 0.0332,0.0593 0.0332,0.0607" />
    <path
       inkscape:connector-curvature="0"
       id="path192"
       style="fill:none;stroke:#000000;stroke-width:0.49741665;stroke-linecap:round;stroke-linejoin:round;stroke-miterlimit:10;stroke-dasharray:none;stroke-opacity:1"
       d="m 102.61092,42.13114 4.22804,-0.0963 2.11384,-0.0469 2.11385,-0.0483" />
    <path
       inkscape:connector-curvature="0"
       id="path194"
       style="fill:none;stroke:#000000;stroke-width:0.49741665;stroke-linecap:round;stroke-linejoin:round;stroke-miterlimit:10;stroke-dasharray:none;stroke-opacity:1"
       d="m 122.93585,44.64892 2.01719,0.036 2.01753,0.0342 2.01613,0.036 2.01753,0.0342 2.01719,0.036 2.01753,0.0346" />
    <path
       inkscape:connector-curvature="0"
       id="path196"
       style="fill:none;stroke:#000000;stroke-width:0.49741665;stroke-linecap:round;stroke-linejoin:round;stroke-miterlimit:10;stroke-dasharray:none;stroke-opacity:1"
       d="m 134.77014,44.88034 0.15734,3.20146" />
    <path
       inkscape:connector-curvature="0"
       id="path198"
       style="fill:none;stroke:#000000;stroke-width:0.49741665;stroke-linecap:round;stroke-linejoin:round;stroke-miterlimit:10;stroke-dasharray:none;stroke-opacity:1"
       d="m 134.84881,48.19186 1.98437,-0.0317 1.98296,-0.0317 1.98438,-0.0318 1.98296,-0.0314 1.98438,-0.0318 1.98296,-0.0332" />
    <path
       inkscape:connector-curvature="0"
       id="path200"
       style="fill:none;stroke:#000000;stroke-width:0.49741665;stroke-linecap:round;stroke-linejoin:round;stroke-miterlimit:10;stroke-dasharray:none;stroke-opacity:1"
       d="m 123.23607,60.6742 4.38503,0.005 2.1911,0.003 2.19251,0.003" />
    <path
       inkscape:connector-curvature="0"
       id="path202"
       style="fill:none;stroke:#000000;stroke-width:0.49741665;stroke-linecap:round;stroke-linejoin:round;stroke-miterlimit:10;stroke-dasharray:none;stroke-opacity:1"
       d="m 131.94791,60.604 0.008,-2.1844 0.007,-2.18405 0.008,-2.1844" />
    <path
       inkscape:connector-curvature="0"
       id="path204"
       style="fill:none;stroke:#000000;stroke-width:0.49741665;stroke-linecap:round;stroke-linejoin:round;stroke-miterlimit:10;stroke-dasharray:none;stroke-opacity:1"
       d="m 131.90382,54.57361 1.87713,0.008 1.87678,0.01 1.87677,0.008 1.87713,0.009 3.75356,0.0166 1.87713,0.01 1.87678,0.008" />
    <path
       inkscape:connector-curvature="0"
       id="path206"
       style="fill:none;stroke:#000000;stroke-width:0.49741665;stroke-linecap:round;stroke-linejoin:round;stroke-miterlimit:10;stroke-dasharray:none;stroke-opacity:1"
       d="m 162.11183,50.62003 1.98049,0.009 1.98155,0.0109 3.96029,0.0194 1.9819,0.01 1.98014,0.0113 1.98155,0.009" />
    <text
       id="text218"
       style="font-variant:normal;font-weight:normal;font-size:4.23333311px;font-family:'DejaVu Sans';-inkscape-font-specification:DejaVuSans;writing-mode:lr-tb;fill:#000000;fill-opacity:1;fill-rule:nonzero;stroke:none;stroke-width:0.35277775"
       x="96.263763"
       y="43.210945">
      <tspan
         style="stroke-width:0.35277775"
         id="tspan208"
         y="43.210945"
         x="96.263763">A</tspan>
      <tspan
         style="stroke-width:0.35277775"
         id="tspan210"
         y="50.143852"
         x="95.740097">C</tspan>
      <tspan
         style="stroke-width:0.35277775"
         id="tspan212"
         y="60.480507"
         x="92.304657">B</tspan>
      <tspan
         style="stroke-width:0.35277775"
         id="tspan214"
         y="66.229698"
         x="94.446121">C</tspan>
      <tspan
         style="stroke-width:0.35277775"
         id="tspan216"
         y="40.230247"
         x="103.30278">1</tspan>
    </text>
    <path
       inkscape:connector-curvature="0"
       id="path220"
       style="fill:none;stroke:#000000;stroke-width:0.46335241;stroke-linecap:round;stroke-linejoin:round;stroke-miterlimit:10;stroke-dasharray:none;stroke-opacity:1"
       d="m 103.53837,56.30011 1.60126,-0.0303 1.60267,-0.0303" />
    <path
       inkscape:connector-curvature="0"
       id="path222"
       style="fill:none;stroke:#000000;stroke-width:0.46335241;stroke-linecap:round;stroke-linejoin:round;stroke-miterlimit:10;stroke-dasharray:none;stroke-opacity:1"
       d="m 106.87741,56.46979 -0.96732,-2.25178 -0.96872,-2.25319" />
    <path
       inkscape:connector-curvature="0"
       id="path224"
       style="fill:none;stroke:#000000;stroke-width:0.46335241;stroke-linecap:round;stroke-linejoin:round;stroke-miterlimit:10;stroke-dasharray:none;stroke-opacity:1"
       d="m 105.11634,51.79408 v 0" />
    <path
       inkscape:connector-curvature="0"
       id="path226"
       style="fill:none;stroke:#000000;stroke-width:0.46335241;stroke-linecap:round;stroke-linejoin:round;stroke-miterlimit:10;stroke-dasharray:none;stroke-opacity:1"
       d="m 104.97029,51.91402 -0.75529,2.05176 -0.75495,2.05352" />
    <path
       inkscape:connector-curvature="0"
       id="path228"
       style="fill:none;stroke:#000000;stroke-width:0.46335241;stroke-linecap:round;stroke-linejoin:round;stroke-miterlimit:10;stroke-dasharray:none;stroke-opacity:1"
       d="m 105.01827,50.06864 v -0.0607 l -0.01,-0.0603 -0.0579,0.0508 -0.0674,0.0801 -0.0483,0.0702 -0.0194,0.0896 -0.0289,0.0607 -0.0385,0.0907 -0.0194,0.0801 -0.0385,0.0593 -0.0402,0.0607 -0.01,0.0797 -0.0384,0.0815 -0.0194,0.0593 -0.0289,0.0607 v 0.16122 l -0.01,0.0797 v 0.34043 l 0.01,0.0815 0.0385,0.1404 0.0289,0.0593 0.0289,0.0607 0.0402,0.0303 0.0384,0.0303 0.0579,0.0399 h 0.23142 l 0.0677,-0.01 0.0688,-0.0303 0.0677,-0.0512 0.0579,-0.0303 0.0674,-0.0289 0.0384,-0.0413 0.0483,-0.0399 0.0688,-0.0593 0.0677,-0.0702 0.0289,-0.0511 0.0385,-0.0399 0.0289,-0.0607 0.0483,-0.0702 0.0289,-0.0702 v -0.23988 l 0.0194,-0.091 v -0.21097 l -0.01,-0.0593 -0.0385,-0.121 -0.0483,-0.0593 -0.048,-0.0607 -0.0579,-0.0399 -0.0787,-0.0303 -0.0483,-0.01 h -0.15416 l -0.0868,-0.0109 -0.0579,-0.009 -0.0692,0.009 -0.0289,0.091 v 0.0797 l 0.0194,0.0706" />
    <path
       inkscape:connector-curvature="0"
       id="path230"
       style="fill:none;stroke:#000000;stroke-width:0.49741665;stroke-linecap:round;stroke-linejoin:round;stroke-miterlimit:10;stroke-dasharray:none;stroke-opacity:1"
       d="m 105.20983,49.49538 -0.14464,-1.84503" />
    <path
       inkscape:connector-curvature="0"
       id="path232"
       style="fill:none;stroke:#000000;stroke-width:0.49741665;stroke-linecap:round;stroke-linejoin:round;stroke-miterlimit:10;stroke-dasharray:none;stroke-opacity:1"
       d="m 105.25534,47.51947 1.88807,-0.0938 3.7786,-0.18733" />
    <path
       inkscape:connector-curvature="0"
       id="path234"
       style="fill:none;stroke:#000000;stroke-width:0.49741665;stroke-linecap:round;stroke-linejoin:round;stroke-miterlimit:10;stroke-dasharray:none;stroke-opacity:1"
       d="m 105.23206,56.27965 0.0483,1.87677 0.0466,1.87537 0.0483,1.87713 0.0469,1.87678" />
    <path
       inkscape:connector-curvature="0"
       id="path236"
       style="fill:none;stroke:#000000;stroke-width:0.49741665;stroke-linecap:round;stroke-linejoin:round;stroke-miterlimit:10;stroke-dasharray:none;stroke-opacity:1"
       d="m 106.00252,63.59414 -0.0441,-0.0399 -0.0677,-0.0497 -0.0441,-0.0303 -0.0564,-0.0702 -0.0787,-0.01 -0.0441,0.0399 -0.0441,0.0607 -0.0674,0.0797 -0.0663,0.11042 -0.13476,0.22049 -0.0554,0.11994 -0.0441,0.10054 -0.0342,0.0811 -0.0663,0.23989 -0.0109,0.091 v 0.0797 l -0.0109,0.091 v 0.28117 l 0.055,0.0399 0.11148,0.0497 0.0554,0.0208 0.0674,0.01 0.055,0.01 0.0677,0.01 0.0783,-0.01 h 0.0663 l 0.0564,-0.01 0.0773,-0.0399 0.0674,-0.091 0.0332,-0.0593 0.0346,-0.0811 0.0219,-0.0801 0.0222,-0.10054 0.0109,-0.0896 v -0.18062 l -0.0222,-0.0811 -0.0219,-0.0706 -0.0236,-0.0702 -0.0441,-0.0593 -0.055,-0.0508 -0.0564,-0.0402 -0.0663,-0.0399 -0.0893,-0.01 h -0.0568 l -0.055,0.0303 -0.0455,0.0289 -0.055,0.0607 -0.0674,0.0508 -0.0663,0.0593 -0.0674,0.0512 -0.0554,0.0593 -0.0452,0.0508 -0.0441,0.0402 -0.0554,0.0702 -0.0455,0.0607 -0.0328,0.0797 -0.0113,0.10054 v 0.0706 l 0.0113,0.0593 0.0219,0.0603 0.0564,0.0402 0.0441,0.0399 0.0787,0.0303 0.10054,0.0204 0.0663,0.0194 0.11148,0.01 0.0896,-0.01 0.066,-0.0303 0.10089,-0.0399 0.0564,-0.0593 0.0328,-0.0702 0.0441,-0.0815 0.0113,-0.0702 0.0124,-0.0801 0.0109,-0.0797 v -0.17075 l -0.0109,-0.0896 -0.0455,-0.0815 -0.0441,-0.0702 -0.0564,-0.0702 -0.0663,-0.0497 -0.0455,-0.0399 -0.055,-0.0303 -0.0564,-0.0303 h -0.0773 l -0.0783,0.01 -0.0787,0.0607 -0.0441,0.0497 -0.055,0.0702 -0.0455,0.0811 -0.0441,0.0896 v 0.11042 l -0.0222,0.12136 -0.0109,0.11959 v 0.11994 l 0.0109,0.13088 0.0222,0.13124 0.0219,0.11006 0.0554,0.11042 0.0452,0.0797 0.0663,0.0607 0.0674,0.0399 0.0677,0.0208 0.0882,0.01 h 0.0674 l 0.11183,-0.0303 0.12242,-0.0494 0.0896,-0.0815 0.11183,-0.0896 0.0769,-0.10054 0.0677,-0.11994 0.066,-0.12101 0.0455,-0.11994 0.0222,-0.11995 0.0109,-0.11183 -0.0109,-0.0892 -0.0113,-0.091 -0.0328,-0.0801 -0.0787,-0.0896 -0.0787,-0.0811 -0.10054,-0.0801 -0.0882,-0.0607 -0.15699,-0.0991 -0.0773,-0.0303 -0.0674,-0.0205 -0.0787,-0.01 h -0.0773 l -0.0896,0.0399 -0.0783,0.0402 -0.10054,0.0702 -0.0773,0.0801 -0.0677,0.0811 -0.0896,0.0991 -0.055,0.10055 -0.0332,0.10089 -0.0451,0.10054 -0.0332,0.10054 -0.0109,0.0896 -0.0222,0.0702 -0.0109,0.0607 v 0.0896 l 0.0441,0.0702 0.0565,0.0208 0.0991,0.0303 0.11183,0.019 0.11148,0.0208 0.12276,0.01 h 0.12242 l 0.12277,-0.0194 0.11147,-0.0508 0.11183,-0.0702 0.0896,-0.0896 0.0674,-0.10054 0.0441,-0.11042 0.0109,-0.11006 0.0332,-0.10055 v -0.10089 l -0.0109,-0.10054 -0.0332,-0.0896 -0.055,-0.091 -0.10054,-0.0702 -0.11183,-0.0593 -0.1337,-0.0508 -0.14605,-0.0303 -0.1337,-0.0194 -0.12242,-0.0109 h -0.15593 l -0.0565,0.0204 -0.0441,0.0402 -0.055,0.10054 -0.0346,0.0797 -0.0328,0.0607 -0.0113,0.0801 -0.0109,0.091 v 0.0797 l 0.0109,0.10054 0.0441,0.1009 0.0564,0.0892 0.0554,0.10089 0.0896,0.0702 0.10055,0.0497 0.10054,0.0399 0.11148,0.0109 0.11183,0.01 0.11006,-0.01 0.0896,-0.0303 0.0896,-0.0508 0.0896,-0.0896 0.0773,-0.10089 0.0674,-0.11959 0.055,-0.12136 0.0346,-0.11994 0.0222,-0.11007 0.0109,-0.11042 V 63.9366 l -0.0332,-0.0801 -0.0564,-0.0907 -0.0773,-0.0607 -0.10054,-0.0497 -0.11148,-0.0497 -0.0787,-0.0303 -0.10054,-0.0205 -0.0882,0.0109 -0.0787,0.0399 -0.0787,0.0593 -0.0441,0.10089 -0.0328,0.11007 -0.0124,0.13088 -0.0222,0.14076 v 0.49177 l 0.0346,0.11042 0.0328,0.11007 0.0663,0.0801 0.0674,0.0797 0.0677,0.0512 0.0882,0.0399 0.0674,0.0303 h 0.0787 l 0.055,0.01 0.0674,-0.01 0.0554,-0.0109 0.0564,-0.0402 0.055,-0.0593 0.0441,-0.0907 0.0346,-0.10055 0.0441,-0.11042 0.0219,-0.11041 0.0222,-0.10055 v -0.0896 l -0.0222,-0.0702 -0.0441,-0.0797 -0.0896,-0.0607 -0.22295,-0.12135 -0.15593,-0.0399 -0.1337,-0.0303 -0.1337,-0.0194 -0.11148,-0.01 h -0.10055 l -0.0677,0.0399 -0.055,0.0702 -0.0346,0.11042 -0.055,0.1404 -0.0109,0.15981 -0.0222,0.1711 -0.0219,0.16122 v 0.44097 l 0.0219,0.11007 0.0332,0.091 0.055,0.0593 0.0677,0.0399 0.0674,0.0303 0.0773,0.0208 0.0787,0.0194 h 0.0783 l 0.0882,-0.0289 0.0787,-0.0607 0.10055,-0.0801 0.0896,-0.11007 0.0882,-0.11183 0.0787,-0.11007 0.0441,-0.11041 0.0455,-0.11995 0.0219,-0.11007 v -0.10048 l -0.0441,-0.1009 -0.0564,-0.0893 -0.10054,-0.0706 -0.12277,-0.0702 -0.12277,-0.0607 -0.13335,-0.0303 -0.0896,-0.0303 h -0.1778 l -0.0564,0.0303 -0.0554,0.0402 -0.0455,0.0607 -0.0328,0.0702 -0.0222,0.0607 -0.0332,0.0494 -0.0219,0.0607 -0.0346,0.11042 -0.0219,0.0797 v 0.1711 l 0.0219,0.0797 0.0346,0.0702 0.0441,0.0497 0.066,0.0303 0.0568,0.0303 0.0674,-0.01 0.0663,-0.03 0.0674,-0.0607 0.0773,-0.0896 0.0674,-0.10054 0.0663,-0.11994 0.0455,-0.11184 0.0328,-0.11994 0.0109,-0.11959 V 64.3769 l -0.0328,-0.0991 -0.0564,-0.10089 -0.0773,-0.10055 -0.10054,-0.0702 -0.11183,-0.0607 -0.10054,-0.0399 -0.0896,-0.0194 -0.0773,-0.0109 -0.0783,-0.01 -0.0896,0.0607 -0.0332,0.0593 -0.0332,0.0907 -0.0109,0.10055 -0.0109,0.12982 v 0.40217 l 0.0109,0.11994 0.0332,0.091 0.0441,0.0593 0.0674,0.0399 0.0787,0.0208 0.0773,0.01 h 0.10054 l 0.0896,-0.0399 0.0773,-0.0607 0.0783,-0.0896 0.0564,-0.11007 0.0441,-0.10089 0.0441,-0.11007 0.0236,-0.12135 v -0.32103 l -0.0346,-0.0991 -0.0773,-0.0702 -0.0674,-0.0706 -0.11148,-0.0508 -0.11183,-0.0303 -0.11148,-0.0194 h -0.0896 l -0.0882,0.0194 -0.0677,0.0204 -0.055,0.0607 -0.0455,0.0801 -0.0441,0.10054 -0.0219,0.11994 -0.0236,0.13089 -0.0109,0.12946 0.0236,0.13089 0.0219,0.12135 0.0441,0.0896 0.0674,0.0702 0.0663,0.0399 0.0896,0.0208 0.11148,0.0194 0.11183,-0.0194 0.10054,-0.0399 0.0773,-0.0702 0.0674,-0.1009 0.0441,-0.10054 0.0233,-0.11006 0.0222,-0.10055 v -0.10089 l -0.0332,-0.0797 -0.0455,-0.0607 -0.0783,-0.0303 -0.0882,-0.0194 -0.0677,0.01 -0.0787,0.0399 -0.055,0.0811 -0.0109,0.11042 -0.0222,0.12947 0.0332,0.10054 0.0332,0.0702" />
    <path
       inkscape:connector-curvature="0"
       id="path238"
       style="fill:none;stroke:#000000;stroke-width:0.49741665;stroke-linecap:round;stroke-linejoin:round;stroke-miterlimit:10;stroke-dasharray:none;stroke-opacity:1"
       d="m 99.376648,64.51736 1.777652,-0.0399 1.77906,-0.0399 1.77764,-0.0399 1.77906,-0.0402 1.77765,-0.0399 1.77906,-0.0399 1.77764,-0.0416" />
    <path
       inkscape:connector-curvature="0"
       id="path240"
       style="fill:none;stroke:#000000;stroke-width:0.49741665;stroke-linecap:round;stroke-linejoin:round;stroke-miterlimit:10;stroke-dasharray:none;stroke-opacity:1"
       d="m 96.508918,59.17913 3.712632,0.0413 1.85632,0.019 1.85455,0.0208 1.85632,0.0194 1.85632,0.0204 1.85596,0.0194 1.8549,0.0208" />
    <path
       inkscape:connector-curvature="0"
       id="path242"
       style="fill:none;stroke:#000000;stroke-width:0.49741665;stroke-linecap:round;stroke-linejoin:round;stroke-miterlimit:10;stroke-dasharray:none;stroke-opacity:1"
       d="m 95.293598,45.79262 2.09197,0.036 2.09056,0.0342" />
    <text
       id="text246"
       style="font-variant:normal;font-weight:normal;font-size:4.23333311px;font-family:'DejaVu Sans';-inkscape-font-specification:DejaVuSans;writing-mode:lr-tb;fill:#000000;fill-opacity:1;fill-rule:nonzero;stroke:none;stroke-width:0.35277775"
       x="97.876068"
       y="57.822273">
      <tspan
         style="stroke-width:0.35277775"
         id="tspan244"
         y="57.822273"
         x="97.876068">1</tspan>
    </text>
    <text
       id="text250"
       style="font-variant:normal;font-weight:normal;font-size:2.95279145px;font-family:'DejaVu Sans';-inkscape-font-specification:DejaVuSans;writing-mode:lr-tb;fill:#000000;fill-opacity:1;fill-rule:nonzero;stroke:none;stroke-width:0.35277775"
       x="98.762131"
       y="68.232674">
      <tspan
         style="stroke-width:0.35277775"
         id="tspan248"
         sodipodi:role="line"
         y="68.232674"
         x="98.762131 100.64012 101.70312">1-0</tspan>
    </text>
    <text
       id="text254"
       style="font-variant:normal;font-weight:normal;font-size:3.22598743px;font-family:'DejaVu Sans';-inkscape-font-specification:DejaVuSans;writing-mode:lr-tb;fill:#000000;fill-opacity:1;fill-rule:nonzero;stroke:none;stroke-width:0.35277775"
       x="102.35468"
       y="46.410057">
      <tspan
         style="stroke-width:0.35277775"
         id="tspan252"
         sodipodi:role="line"
         y="46.410057"
         x="102.35468 104.40642 105.56776">0-1</tspan>
    </text>
    <path
       inkscape:connector-curvature="0"
       id="path256"
       style="fill:none;stroke:#00ff00;stroke-width:0.49741665;stroke-linecap:round;stroke-linejoin:round;stroke-miterlimit:10;stroke-dasharray:none;stroke-opacity:1"
       d="m 45.403058,46.36588 -0.0674,0.0194 -0.0663,0.0208 0.0663,-0.0303 0.0674,-0.0607 0.0441,-0.0402 0.0346,-0.0494 0.066,-0.0512 0.0677,-0.0593 0.0773,-0.0607 0.0674,-0.0603 0.055,-0.0706 0.0677,-0.0607 0.0328,-0.0702 0.0787,-0.0593 0.0332,-0.0508 0.0219,-0.0593 0.0455,-0.0607 0.0332,-0.11041 0.0564,-0.0607 0.0441,-0.0702 0.055,-0.0702 0.0677,-0.0702 0.0328,-0.0801 0.0455,-0.0702 0.0222,-0.0702 0.0219,-0.0801 0.0222,-0.0702 0.0219,-0.0797 0.0113,-0.0815 0.0233,-0.0801 0.0222,-0.0797 0.0109,-0.0702 0.0219,-0.0801 0.0222,-0.0607 0.0109,-0.0607 0.0233,-0.0593 v -0.11148 l 0.0222,-0.0801 0.0109,-0.0593 0.0222,-0.10054 v -0.0607 l 0.0219,-0.0494 v -0.0607 l 0.0109,-0.0607 v -0.0593 l 0.0113,-0.0702 0.0124,-0.0607 0.0219,-0.12136 V 43.0542 l 0.0332,-0.0815 0.0109,-0.0702 0.0113,-0.0801 0.0219,-0.0896 0.0109,-0.10055 v -0.34184 l -0.0109,-0.0603 -0.0219,-0.11042 v -0.0593 l -0.0222,-0.12135 v -0.11007 l -0.0109,-0.0801 -0.0222,-0.0607 -0.0219,-0.11959 -0.0236,-0.0801 -0.0328,-0.0811 v -0.0705 l -0.0222,-0.0797 -0.0109,-0.0607 -0.0222,-0.0702 -0.0124,-0.0706 -0.0219,-0.0688 -0.0441,-0.0607 -0.0109,-0.0702 -0.0455,-0.0607 -0.0113,-0.0607 -0.0328,-0.11007 -0.0332,-0.0801 -0.0222,-0.0702 -0.0342,-0.0702 -0.0222,-0.0801 -0.0332,-0.0607 -0.0219,-0.0702 -0.0233,-0.0702 -0.0332,-0.0702 -0.0222,-0.0706 -0.0328,-0.0593 -0.0346,-0.0508 -0.0441,-0.0593 -0.0332,-0.0512 -0.0219,-0.0494 -0.0568,-0.0815 -0.0441,-0.0688 -0.0342,-0.0702 -0.0332,-0.0702 -0.0441,-0.0607 -0.0455,-0.0607 -0.0332,-0.0607 v -0.0593 l -0.0219,-0.0607 -0.0441,-0.0702 -0.0455,-0.0801 -0.0222,-0.0603 -0.0674,-0.0801 -0.066,-0.0702 -0.0332,-0.0607 -0.0346,-0.0593 -0.0109,-0.0607 -0.0332,-0.0607 -0.0674,-0.01 -0.0332,-0.0607 -0.055,-0.0593 -0.0564,0.0399 0.0109,0.0702 0.0109,0.0995 v 0.11148 l 0.0222,0.11995 0.0124,0.0801 v 0.40075 l 0.0219,0.10054 v 0.0815 l 0.0113,0.0797 v 0.0593 l 0.0109,0.1009 0.0109,0.0702 0.0332,0.091 v 0.0702 l 0.0219,-0.0607 -0.0219,-0.0607 -0.0332,-0.0593 -0.0109,-0.0607 -0.0109,-0.0797 -0.0332,-0.0607 -0.0236,-0.0497 -0.0109,-0.091 -0.0219,-0.0896 -0.0222,-0.0603 -0.0219,-0.0512 -0.0346,-0.0497 -0.0222,-0.0797 -0.0109,-0.0801 v -0.14041 l -0.011,-0.0607 v -0.0702 l -0.0109,-0.0801 -0.0222,-0.0811 v -0.0705 l -0.0109,-0.0688 0.0332,-0.0508 h 0.0783 l 0.0882,-0.01 h 0.44662 l 0.0674,0.0194 0.0773,0.0109 0.0896,0.01 h 0.0787 l 0.066,-0.01 h 0.13511 l 0.0773,0.0303 0.0332,0.0801 0.0233,0.0797" />
    <text
       id="text270"
       style="font-variant:normal;font-weight:normal;font-size:4.23333311px;font-family:'DejaVu Sans';-inkscape-font-specification:DejaVuSans;writing-mode:lr-tb;fill:#000000;fill-opacity:1;fill-rule:nonzero;stroke:none;stroke-width:0.35277775"
       x="96.25824"
       y="18.264322">
      <tspan
         style="stroke-width:0.35277775"
         id="tspan258"
         sodipodi:role="line"
         y="18.264322"
         x="96.25824 99.153839 101.9817 104.93658 106.27853 108.60265 111.28235 113.87315 116.55284 119.23677 121.84027 124.04161 125.38356 126.87372 128.52048 131.10704 135.23032 136.57228 139.26466 141.95708 144.64948 145.99144 147.65091 150.23747 151.57944 154.27184 156.96425">ABC changes from 111 to 110</tspan>
      <tspan
         style="stroke-width:0.35277775"
         id="tspan260"
         sodipodi:role="line"
         y="23.192194"
         x="96.25824 97.909241 100.4958 103.17551 104.34814 106.85005 108.19202 111.14688 112.48885 114.81294 117.49265 120.08345 122.76315 125.44707 128.05058 130.25191 131.59387 134.28627 135.81027 138.50269">(only C changes 1-0)</tspan>
      <tspan
         style="stroke-width:0.35277775"
         id="tspan262"
         sodipodi:role="line"
         y="43.310158"
         x="124.19659 126.88899 128.41299 131.10538 132.62939">0-0-1</tspan>
      <tspan
         style="stroke-width:0.35277775"
         id="tspan264"
         sodipodi:role="line"
         y="64.625648"
         x="124.66513 127.35751 128.88152 131.57391 133.09792">1-0-0</tspan>
      <tspan
         style="stroke-width:0.35277775"
         id="tspan266"
         sodipodi:role="line"
         y="47.646843"
         x="165.44678 168.13918 169.66318 172.35558 173.87958">1-0-1</tspan>
      <tspan
         style="stroke-width:0.35277775"
         id="tspan268"
         sodipodi:role="line"
         y="72.310966"
         x="133.3261 135.90843 138.58812 139.76076 141.9621 143.30406 147.42734 150.01813 152.52002 153.86198 156.1861 158.86578 161.45659 164.13629 166.82022 169.42372 170.76569 172.42516 175.01172 176.3537 178.57195 181.17545 182.82224 185.40878">This may change to zero</tspan>
    </text>
    <text
       id="text274"
       style="font-variant:normal;font-weight:normal;font-size:4.23333311px;font-family:'DejaVu Sans';-inkscape-font-specification:DejaVuSans;writing-mode:lr-tb;fill:#000000;fill-opacity:1;fill-rule:nonzero;stroke:none;stroke-width:0.35277775"
       x="133.3261"
       y="77.238838">
      <tspan
         style="stroke-width:0.35277775"
         id="tspan272"
         y="77.238838"
         x="133.3261"></tspan>
    </text>
    <text
       id="text280"
       style="font-variant:normal;font-weight:normal;font-size:4.23333311px;font-family:'DejaVu Sans';-inkscape-font-specification:DejaVuSans;writing-mode:lr-tb;fill:#000000;fill-opacity:1;fill-rule:nonzero;stroke:none;stroke-width:0.35277775"
       x="135.98886"
       y="77.238838">
      <tspan
         style="stroke-width:0.35277775"
         id="tspan276"
         sodipodi:role="line"
         y="77.238838"
         x="135.98886 137.72876 139.9301 141.58955 142.93153 145.61546 148.21896 149.70909 152.29565 153.94241 156.54593 157.88788 159.54736 162.22705 164.83055 166.17252 168.75909 170.41855 173.09825 175.70175 177.44165">rst before the other</tspan>
      <tspan
         style="stroke-width:0.35277775"
         id="tspan278"
         sodipodi:role="line"
         y="82.166695"
         x="133.3261 136.01001 137.65678 140.24336 142.92729 145.60699 147.93109 149.59056 150.93253 152.59198 155.1955 156.85918 160.98245 162.32442 165.00836 167.59492 170.19843 172.39975 173.74173 175.40118 177.98773 179.32971 181.91629 184.59598">product term goes to one</tspan>
    </text>
    <path
       inkscape:connector-curvature="0"
       id="path282"
       style="fill:none;stroke:#000000;stroke-width:0.49741665;stroke-linecap:round;stroke-linejoin:round;stroke-miterlimit:10;stroke-dasharray:none;stroke-opacity:1"
       d="m 130.11947,65.7923 -0.0564,-0.0607 -0.0773,-0.0402 h -0.0674 l -0.0554,0.0607 0.0109,0.10054 0.0113,0.11042 0.0109,0.0801 0.0109,0.0603 0.0113,0.0705 0.0109,0.0593 0.0109,0.0811 0.0124,0.0593 v 0.0815 l 0.0222,0.0702 0.0109,0.0702 0.0219,0.0801 v 0.0603 l 0.0222,0.0801 0.0109,0.0593 v 0.091 l 0.0109,0.091 0.0113,0.0593 v 0.13088 l 0.0123,0.0702 0.0109,0.0702 v 0.0801 l 0.0109,0.10054 0.0222,0.0896 0.0109,0.0607 0.0222,0.0702 0.0109,0.0607 v 0.0607 l 0.0109,0.0688 0.0233,0.0811 0.0222,0.0896 0.0332,0.0815 0.0219,0.0896 0.0222,0.0603 0.0233,0.0706 0.0332,0.0797 0.0332,0.0702 0.0219,0.0607 0.0236,0.0497 0.055,0.0801 0.0783,0.0907 0.0441,0.0607 0.0441,0.0801 0.0677,0.0702 0.0332,0.0593 0.0564,0.0413 0.0441,0.0399 0.0455,0.0303 0.0441,0.0593 0.0441,0.0303 0.15699,0.0801 0.0882,0.0508 0.0787,0.0402 0.0783,0.0494 0.0663,0.0113" />
    <path
       inkscape:connector-curvature="0"
       id="path284"
       style="fill:none;stroke:#000000;stroke-width:0.49741665;stroke-linecap:round;stroke-linejoin:round;stroke-miterlimit:10;stroke-dasharray:none;stroke-opacity:1"
       d="m 129.74058,66.21387 -0.0568,-0.01 -0.0769,0.0797 -0.0787,0.0702 -0.0564,0.10089 -0.0663,0.0991 -0.0674,0.12136 -0.0773,0.11959 -0.0564,0.12135 -0.0332,0.11042 -0.0455,0.11007 -0.0441,0.15981 -0.0219,0.091 v -0.0702 l 0.0109,-0.0702 0.0109,-0.091 0.0222,-0.0896 0.0219,-0.10054 0.0236,-0.091 0.0219,-0.0896 0.0332,-0.091 0.0332,-0.0797 0.0233,-0.0801 0.0441,-0.0797 0.0332,-0.0706 0.0346,-0.0811 0.0219,-0.0593 0.0222,-0.0512 0.0219,-0.0494 0.0222,-0.0702 v -0.21096 l 0.0564,0.0204 0.12241,0.0402 0.0663,0.0303 0.0787,0.0399 0.20109,0.0801 0.12276,0.0603 0.11148,0.0402 0.0896,0.0399 0.0882,0.0607 0.0674,0.0289 0.0787,0.0303 0.0773,0.0303 0.0674,0.0205 0.0663,0.0194 0.0455,0.0303 0.066,0.0208 0.10054,0.0399 0.0564,0.0194 0.0772,0.0205 0.0564,0.01 0.0773,0.0303 0.0564,0.01 0.0896,0.0205 0.10054,0.0303 0.0773,0.0402 0.0564,0.0399 0.0441,0.0607 0.0109,0.0593" />
    <path
       inkscape:connector-curvature="0"
       id="path286"
       style="fill:none;stroke:#000000;stroke-width:0.49741665;stroke-linecap:round;stroke-linejoin:round;stroke-miterlimit:10;stroke-dasharray:none;stroke-opacity:1"
       d="m 171.34755,43.37574 -0.0441,-0.0512 -0.055,-0.0497 -0.0346,-0.0702 -0.0109,-0.0702 -0.0222,-0.091 v -0.0593 l -0.0109,-0.11147 v -0.34044 l -0.0109,-0.10054 v -0.0607 l -0.0109,-0.0991 v -0.39158 l -0.0113,-0.0603 v -0.0607 l -0.0123,-0.1009 -0.0109,-0.0892 -0.0109,-0.0801 -0.0113,-0.0811 v -0.0593 l -0.0109,-0.0706 -0.0109,-0.0607 v -0.0702 l -0.0109,-0.11006 -0.0113,-0.10055 v -0.0607 l -0.0109,-0.11041 -0.0109,-0.10055 -0.0233,-0.11006 -0.0113,-0.0593 -0.0109,-0.0607 -0.0109,-0.10054 -0.0109,-0.0896 -0.0222,-0.10055 -0.0109,-0.0607 -0.0222,-0.11042 -0.0124,-0.0607 -0.0109,-0.0593 -0.0222,-0.10054 -0.0109,-0.0797 -0.0109,-0.0815 -0.0109,-0.0593 -0.0113,-0.0607 -0.0219,-0.0607 -0.0236,-0.0797 -0.0219,-0.0607 -0.0222,-0.0593 -0.0219,-0.0607 -0.0222,-0.0702 -0.0233,-0.0607 -0.0219,-0.0593 -0.0332,-0.0702 -0.0222,-0.0702 -0.0328,-0.0607 -0.0236,-0.0497 -0.0441,-0.0508 -0.0332,-0.0607 -0.0565,-0.0705 -0.0109,-0.0688 0.0222,-0.11148 0.0233,-0.0593" />
    <path
       inkscape:connector-curvature="0"
       id="path288"
       style="fill:none;stroke:#000000;stroke-width:0.49741665;stroke-linecap:round;stroke-linejoin:round;stroke-miterlimit:10;stroke-dasharray:none;stroke-opacity:1"
       d="m 170.23277,42.25108 -0.0332,-0.0702 -0.0346,-0.0607 0.0236,0.0815 0.0219,0.0593 0.0222,0.0508 0.0441,0.0593 0.0455,0.0811 0.0441,0.0593 0.0441,0.0815 0.0342,0.0702 0.0441,0.0702 0.0441,0.0801 0.0346,0.0702 0.0441,0.0801 0.0222,0.0702 0.0342,0.0702 0.0332,0.0607 0.0219,0.0702 0.0332,0.0593 0.0109,0.0607 0.0346,0.10055 0.0222,0.0607 0.0109,0.0593 0.055,-0.01 0.0455,-0.11042 0.0441,-0.091 0.0455,-0.10055 0.0441,-0.0991 0.0674,-0.10054 0.0441,-0.11042 0.0441,-0.10054 0.0677,-0.091 0.0328,-0.0797 0.0332,-0.0702 0.0455,-0.0607 0.055,-0.0801 0.0236,-0.0494 0.055,-0.0801 0.055,-0.0702 0.0455,-0.0702 0.0441,-0.0607 0.0564,-0.0801 0.0554,-0.0607 -0.0222,0.0497" />
    <text
       id="text296"
       style="font-variant:normal;font-weight:normal;font-size:4.23333311px;font-family:'DejaVu Sans';-inkscape-font-specification:DejaVuSans;writing-mode:lr-tb;fill:#000000;fill-opacity:1;fill-rule:nonzero;stroke:none;stroke-width:0.35277775"
       x="151.32465"
       y="36.045143">
      <tspan
         style="stroke-width:0.35277775"
         id="tspan290"
         sodipodi:role="line"
         y="36.045143"
         x="151.32465 154.97377 157.56033 161.68361 164.28711 166.9668 168.62628 171.21707 172.95697 175.45888 176.80084">Momentary 0</tspan>
      <tspan
         style="stroke-width:0.35277775"
         id="tspan292"
         sodipodi:role="line"
         y="66.276543"
         x="26.376554 30.025694 31.198332 33.878021 35.050659 39.17392 41.764709 42.937347 44.279327 46.963257 50.294891 52.847595">Minimal SOP:</tspan>
      <tspan
         style="stroke-width:0.35277775"
         id="tspan294"
         sodipodi:role="line"
         y="71.204414"
         x="26.376554 27.866697 29.208647 32.751953 34.093933 36.91333 39.868195 41.210144 44.753448 46.095428 48.927521">f = AC + BC</tspan>
    </text>
    <path
       inkscape:connector-curvature="0"
       id="path298"
       style="fill:none;stroke:#000000;stroke-width:0.49741665;stroke-linecap:round;stroke-linejoin:round;stroke-miterlimit:10;stroke-dasharray:none;stroke-opacity:1"
       d="m 37.402408,67.80278 h 2.48321" />
  </g>
</svg>
