<?xml version="1.0" encoding="UTF-8" standalone="no"?>
<!-- Created with Inkscape (http://www.inkscape.org/) -->

<svg
   xmlns:dc="http://purl.org/dc/elements/1.1/"
   xmlns:cc="http://creativecommons.org/ns#"
   xmlns:rdf="http://www.w3.org/1999/02/22-rdf-syntax-ns#"
   xmlns:svg="http://www.w3.org/2000/svg"
   xmlns="http://www.w3.org/2000/svg"
   xmlns:sodipodi="http://sodipodi.sourceforge.net/DTD/sodipodi-0.dtd"
   xmlns:inkscape="http://www.inkscape.org/namespaces/inkscape"
   width="175.35471mm"
   height="99.000175mm"
   viewBox="0 0 175.35471 99.000175"
   version="1.1"
   id="svg2942"
   inkscape:version="0.92.5 (2060ec1f9f, 2020-04-08)"
   sodipodi:docname="functionally-equiv-networks.svg">
  <defs
     id="defs2936" />
  <sodipodi:namedview
     id="base"
     pagecolor="#ffffff"
     bordercolor="#666666"
     borderopacity="1.0"
     inkscape:pageopacity="0.0"
     inkscape:pageshadow="2"
     inkscape:zoom="0.98994949"
     inkscape:cx="392.32673"
     inkscape:cy="56.121828"
     inkscape:document-units="mm"
     inkscape:current-layer="layer1"
     showgrid="false"
     fit-margin-top="0"
     fit-margin-left="0"
     fit-margin-right="0"
     fit-margin-bottom="0"
     inkscape:window-width="1159"
     inkscape:window-height="996"
     inkscape:window-x="757"
     inkscape:window-y="82"
     inkscape:window-maximized="0" />
  <metadata
     id="metadata2939">
    <rdf:RDF>
      <cc:Work
         rdf:about="">
        <dc:format>image/svg+xml</dc:format>
        <dc:type
           rdf:resource="http://purl.org/dc/dcmitype/StillImage" />
        <dc:title></dc:title>
      </cc:Work>
    </rdf:RDF>
  </metadata>
  <g
     inkscape:label="Layer 1"
     inkscape:groupmode="layer"
     id="layer1"
     transform="translate(-12.864312,-15.422535)">
    <path
       inkscape:connector-curvature="0"
       id="path20"
       style="fill:none;stroke:#000000;stroke-width:0.29280552;stroke-linecap:round;stroke-linejoin:round;stroke-miterlimit:10;stroke-dasharray:none;stroke-opacity:1"
       d="m 36.462484,22.501376 0.004,1.0421 0.003,1.04034 0.004,1.03611 v 1.04176 l 0.003,1.04069 0.004,1.04034 0.003,1.03752 0.004,1.04034 v 1.0407 l 0.003,1.04034 0.004,1.03752" />
    <path
       inkscape:connector-curvature="0"
       id="path22"
       style="fill:none;stroke:#000000;stroke-width:0.46566665;stroke-linecap:round;stroke-linejoin:round;stroke-miterlimit:10;stroke-dasharray:none;stroke-opacity:1"
       d="m 51.342654,28.280936 h 0.0205" />
    <path
       inkscape:connector-curvature="0"
       id="path24"
       style="fill:none;stroke:#000000;stroke-width:0.29280552;stroke-linecap:round;stroke-linejoin:round;stroke-miterlimit:10;stroke-dasharray:none;stroke-opacity:1"
       d="m 36.367234,22.533126 0.96626,0.48119 3.88056,1.91805 0.96731,0.47942 0.97014,0.48401 1.94028,0.95885 0.9659,0.48119 1.94028,0.95885" />
    <path
       inkscape:connector-curvature="0"
       id="path26"
       style="fill:none;stroke:#000000;stroke-width:0.29280552;stroke-linecap:round;stroke-linejoin:round;stroke-miterlimit:10;stroke-dasharray:none;stroke-opacity:1"
       d="m 47.997964,28.294686 -0.95638,0.47696 -0.95215,0.47554 -0.95637,0.47661 -0.95215,0.47554 -0.95497,0.47272 -0.95638,0.47661 -0.95215,0.47695 -0.95638,0.47519 -0.95638,0.47696 -0.95215,0.47272 -0.95638,0.47519 -0.9525,0.47696" />
    <path
       inkscape:connector-curvature="0"
       id="path28"
       style="fill:none;stroke:#000000;stroke-width:0.19050001;stroke-linecap:round;stroke-linejoin:round;stroke-miterlimit:10;stroke-dasharray:none;stroke-opacity:1"
       d="m 51.046324,28.353956 -0.0702,0.40252 -0.20532,0.36795 -0.32138,0.28786 -0.40076,0.18486 -0.4452,0.0632 -0.44803,-0.0632 -0.40217,-0.18486 -0.32103,-0.28786 -0.2039,-0.36795 -0.072,-0.40252 0.072,-0.40499 0.2039,-0.36371 0.32103,-0.28963 0.40217,-0.18592 0.44803,-0.0635 0.4452,0.0635 0.40076,0.18592 0.32138,0.28963 0.20532,0.36371 0.0702,0.40499" />
    <path
       inkscape:connector-curvature="0"
       id="path30"
       style="fill:none;stroke:#000000;stroke-width:0.63147217;stroke-linecap:round;stroke-linejoin:round;stroke-miterlimit:10;stroke-dasharray:none;stroke-opacity:1"
       d="m 91.283444,20.893416 0.43145,0.32808 0.41204,0.36654 0.39124,0.40922 0.37076,0.44097 0.34326,0.4766 0.31679,0.50871 0.2854,0.53587 0.25752,0.56091 0.22614,0.58562 0.19438,0.60219 0.15839,0.62159 0.12418,0.63535 0.0907,0.64488 0.054,0.65299 0.0166,0.65617" />
    <path
       inkscape:connector-curvature="0"
       id="path32"
       style="fill:none;stroke:#000000;stroke-width:0.63147217;stroke-linecap:round;stroke-linejoin:round;stroke-miterlimit:10;stroke-dasharray:none;stroke-opacity:1"
       d="m 94.956214,28.919106 -0.0166,0.65299 -0.054,0.65194 -0.0907,0.64628 -0.12418,0.63536 -0.15839,0.62018 -0.19439,0.6036 -0.22613,0.58561 -0.25752,0.56339 -0.2854,0.5334 -0.3168,0.50871 -0.34325,0.47519 -0.37077,0.4452 -0.39123,0.40499 -0.41204,0.36654 -0.43145,0.32808 -0.44767,0.28681" />
    <path
       inkscape:connector-curvature="0"
       id="path34"
       style="fill:none;stroke:#000000;stroke-width:0.2363611;stroke-linecap:round;stroke-linejoin:round;stroke-miterlimit:10;stroke-dasharray:none;stroke-opacity:1"
       d="m 108.00193,28.975546 -0.2674,0.39829 -0.28928,0.39546 -0.30304,0.39124 -0.32526,0.3817 -0.33902,0.37359 -0.3556,0.36654 -0.375,0.35701 -0.39123,0.34854 -0.40499,0.33902 -0.42333,0.33197 -0.43815,0.32138 -0.4505,0.30974 -0.46567,0.29915 -0.48118,0.29351 -0.49319,0.27835 -0.50447,0.26458 -0.51823,0.25788 -0.52917,0.24377 -0.5401,0.23283 -0.549626,0.21767 -0.56091,0.20813 -0.56939,0.19439 -0.57714,0.18062 -0.58561,0.16933 -0.5969,0.15452 -0.59937,0.14181 -0.60784,0.12665 -0.61313,0.11324 -0.61736,0.0977 -0.62159,0.0882 -0.62407,0.0716 -0.63111,0.0564 -0.62865,0.0416 -0.63359,0.0289" />
    <path
       inkscape:connector-curvature="0"
       id="path36"
       style="fill:none;stroke:#000000;stroke-width:0.2363611;stroke-linecap:round;stroke-linejoin:round;stroke-miterlimit:10;stroke-dasharray:none;stroke-opacity:1"
       d="m 90.840004,20.357186 0.63112,0.0275 0.63112,0.043 0.6283,0.0603 0.62441,0.0706 0.62407,0.084 0.61736,0.0991 0.61066,0.11571 0.6103,0.12842 0.59937,0.1404 0.59267,0.15558 0.58984,0.16545 0.57468,0.18344 0.57185,0.19403 0.56092,0.20426 0.54962,0.22296 0.540106,0.22895 0.52916,0.24377 0.51823,0.25788 0.50448,0.2674 0.49459,0.27835 0.47978,0.28927 0.46566,0.30022 0.4505,0.31009 0.43815,0.32138 0.42051,0.33196 0.40782,0.33902 0.38876,0.34855 0.37324,0.35983 0.36124,0.36654 0.33761,0.37465 0.32526,0.38029 0.30304,0.38876 0.28539,0.39405 0.26847,0.40252 0.25082,0.4064" />
    <path
       inkscape:connector-curvature="0"
       id="path38"
       style="fill:none;stroke:#000000;stroke-width:0.35277775;stroke-linecap:round;stroke-linejoin:round;stroke-miterlimit:10;stroke-dasharray:none;stroke-opacity:1"
       d="m 90.903154,20.470436 v 0.0455 h 0.0497" />
    <path
       inkscape:connector-curvature="0"
       id="path40"
       style="fill:none;stroke:#000000;stroke-width:0.56797218;stroke-linecap:round;stroke-linejoin:round;stroke-miterlimit:10;stroke-dasharray:none;stroke-opacity:1"
       d="m 90.903154,20.696206 v -0.0427 l -0.0455,-0.0455 v -0.0921 h -0.0466 v -0.0455 h 0.0466" />
    <path
       inkscape:connector-curvature="0"
       id="path42"
       style="fill:none;stroke:#000000;stroke-width:0.56797218;stroke-linecap:round;stroke-linejoin:round;stroke-miterlimit:10;stroke-dasharray:none;stroke-opacity:1"
       d="m 90.715824,20.240066 h 0.70979 v 0.0469 h 0.85302 l 0.0494,0.0455 h 0.37782 l 0.0494,0.0455 h 0.80504 l 0.048,0.0469 h 0.23707 l 0.0455,0.0455 h 0.14463 v 0.0455 h 0.14217 v 0.0452 h 0.19015 l 0.0455,0.0469 h 0.0949 l 0.0497,0.0455 h 0.0455 v 0.0427 h 0.14182 l 0.0497,0.0455 h 0.19014 l 0.0455,0.0455 h 0.23672 l 0.0483,0.0469 h 0.42721 v 0.0455 h 0.0952 l 0.0466,0.0455 h 0.14076 l 0.0494,0.0455 h 0.0455 l 0.0497,0.0466 h 0.1404 l 0.0469,0.0455 h 0.14464 l 0.0455,0.0455 h 0.0497 l 0.0455,0.0455 h 0.19015 l 0.0469,0.0469 h 0.33055 l 0.0497,0.0413 h 0.33196 l 0.0455,0.0469 h 0.14464 l 0.0455,0.0455 h 0.23707 l 0.0497,0.0455 0.0455,0.0469 h 0.19015 l 0.0455,0.0452 h 0.14463 l 0.0469,0.091 h 0.0949 v 0.0469 h 0.0497 l 0.0455,0.0455 h 0.0455 v 0.0455 h 0.0494 l 0.0455,0.0469 h 0.0497 l 0.0455,0.0413 h 0.0494 l 0.0455,0.0469 h 0.0497 l 0.0469,0.0455 h 0.0452 v 0.0455 h 0.0497 l 0.0455,0.0452 h 0.0497 l 0.0455,0.0469 0.0949,0.0455 0.0469,0.0455 0.0949,0.0469 h 0.0483 l 0.0469,0.091 h 0.0497 l 0.0451,0.0455 h 0.0497 l 0.0455,0.0427 h 0.140406 l 0.0967,0.0455 0.0949,0.0466 0.0952,0.0455 h 0.0949 l 0.0455,0.0455 h 0.0497 l 0.0455,0.0455 0.0497,0.0469 0.0452,0.0455" />
    <path
       inkscape:connector-curvature="0"
       id="path44"
       style="fill:none;stroke:#000000;stroke-width:0.56797218;stroke-linecap:round;stroke-linejoin:round;stroke-miterlimit:10;stroke-dasharray:none;stroke-opacity:1"
       d="m 100.62535,22.473856 h 0.0949 v 0.0455 h 0.0967 l 0.0455,0.0455 0.0494,0.0469 0.0455,0.0455 h 0.0497 l 0.0455,0.0455 h 0.0949 v 0.0469 h 0.0952 l 0.0469,0.0452 h 0.0949 v 0.0455 h 0.0497 v 0.0427 h 0.0455 v 0.0455 h 0.0494 l 0.0455,0.0455 h 0.0952 l 0.0455,0.0469 0.0494,0.0455 0.0455,0.0455 h 0.0497 v 0.0469 h 0.0469 l 0.048,0.0455 h 0.0469 v 0.0455 h 0.0497 l 0.091,0.0452 h 0.0494 l 0.0455,0.0469 0.0497,0.0455 0.0455,0.0427 h 0.0494 l 0.0455,0.0455 h 0.0469 l 0.0497,0.0455 h 0.0455 l 0.0949,0.0469 0.0497,0.0455 0.0455,0.0455 0.0494,0.0455 h 0.0455 l 0.0455,0.0466 0.0497,0.0455 0.0469,0.0455 0.0949,0.0455 0.0497,0.0469 0.0455,0.0455 0.0494,0.0427 0.0455,0.0455 h 0.0455 v 0.0455 h 0.0497 l 0.0455,0.0469 0.0494,0.0451 0.0952,0.091 0.0469,0.0469 h 0.048 l 0.0469,0.0455 h 0.0455 l 0.0497,0.0455 0.0949,0.0469 0.0455,0.0455 0.0497,0.0427 0.0455,0.0455 h 0.0494 l 0.0924,0.0455 0.0497,0.0452 0.0452,0.0469 0.0952,0.0455 0.0497,0.0455 v 0.0469 h 0.0455 l 0.0494,0.0455 0.0455,0.0455 h 0.0469 l 0.0483,0.0455 h 0.0466 v 0.0466 h 0.0483 l 0.0967,0.0416 v 0.0466 l 0.0451,0.0455 0.0497,0.0455 h 0.0455 l 0.0455,0.0455 0.0497,0.0469 0.0452,0.0455 h 0.0497 v 0.0455 h 0.0469 l 0.0483,0.0469 0.0466,0.0452 0.0455,0.0455 h 0.0497 l 0.0455,0.0455 0.0494,0.0427 0.0455,0.0455 0.0497,0.0469 0.0455,0.0455 0.0497,0.0455 0.0452,0.0469 0.0469,0.0455 v 0.0455 l 0.0497,0.0452 h 0.0455 l 0.0494,0.0469 0.0455,0.0455 0.0497,0.0455 0.0455,0.0427 0.0494,0.0455 v 0.0469 l 0.0455,0.0455 h 0.0455 v 0.0455 l 0.0497,0.0455 0.0469,0.0466 0.048,0.0455 0.0469,0.0455 0.0497,0.0455 v 0.0469 l 0.0455,0.0455 0.0494,0.0427 0.0455,0.091 0.0455,0.0921 0.0497,0.0455 v 0.0455 l 0.0455,0.0469 0.0494,0.0455 v 0.0455 h 0.0455 v 0.0469 l 0.0497,0.0882 v 0.0455 l 0.0469,0.0455 0.0949,0.0921 v 0.0455 l 0.0455,0.0924 h 0.0497 l 0.0455,0.0455 v 0.0455 l 0.0494,0.0455 0.0455,0.0882 v 0.0921 l 0.0497,0.0455 0.0455,0.0455 0.0494,0.0924 v 0.0455 l 0.0455,0.0469 v 0.0452 l 0.0469,0.0455 v 0.0455 l 0.0497,0.0469 0.0455,0.0413 0.0494,0.0469 v 0.0455 h 0.0455 l 0.0497,0.0455 v 0.0469 h 0.0455 v 0.0455 l 0.0494,0.0455 h 0.0455 v 0.0452" />
    <path
       inkscape:connector-curvature="0"
       id="path46"
       style="fill:none;stroke:#000000;stroke-width:0.56797218;stroke-linecap:round;stroke-linejoin:round;stroke-miterlimit:10;stroke-dasharray:none;stroke-opacity:1"
       d="m 91.093294,37.238316 v -0.0427 h 0.52247 l 0.0494,-0.0455 h 0.091 l 0.0497,-0.0469 h 0.19156 l 0.0455,-0.0455 h 0.23565 l 0.0494,-0.0455 h 0.37783 l 0.0494,-0.0469 0.0455,-0.0452 h 0.19014 l 0.0469,-0.0455 h 0.33479 l 0.0455,-0.0455 h 0.85443 l 0.0455,-0.0469 h 0.19014 l 0.0497,-0.0455 h 0.18733 l 0.0497,-0.0455 h 0.0949 l 0.0953,-0.0427 h 0.0907 l 0.0497,-0.0455 h 0.61736 l 0.0469,-0.0469 h 0.0949 l 0.0952,-0.0455 h 0.2854 l 0.0452,-0.0455 h 0.33231 l 0.0949,-0.0452 h 0.0455 l 0.0497,-0.0469 h 0.0949 l 0.0469,-0.0455 h 0.19015 l 0.0455,-0.0455 h 0.0952 l 0.0494,-0.0469 h 0.0952 l 0.0469,-0.0455 h 0.0949 l 0.0952,-0.0455 h 0.0949 l 0.0455,-0.0427 h 0.0497 l 0.0455,-0.0455 h 0.19156 l 0.0455,-0.0455 h 0.19015 l 0.0455,-0.0466 h 0.14464 l 0.0469,-0.0455 h 0.0949 l 0.0497,-0.0455 h 0.0455 l 0.0455,-0.0455 h 0.0949 l 0.0497,-0.0469 h 0.0455 l 0.0949,-0.0455 h 0.0967 l 0.0452,-0.0455 h 0.0497 l 0.0455,-0.0469 h 0.0497 l 0.0455,-0.0452 0.0494,-0.043 0.0455,-0.0452 0.14181,-0.0455 0.0952,-0.0455 0.0497,-0.0469 0.0949,-0.0455 0.0455,-0.0455 0.0455,-0.0924 0.0497,-0.0455 h 0.0452 l 0.0497,-0.0452 0.0952,-0.0469 0.0466,-0.0413 0.0483,-0.0469 0.0924,-0.0455 0.0494,-0.0455 0.0455,-0.0469 h 0.0497 l 0.0455,-0.0455 h 0.0949 v -0.0455 h 0.0967 v -0.0455 h 0.0455 l 0.0949,-0.0466 0.0497,-0.0455 h 0.19009 l 0.0455,-0.0455 0.0469,-0.0455 0.048,-0.0427 h 0.0469 l 0.0497,-0.0455 0.0455,-0.0469 h 0.0949 l 0.0497,-0.091 0.091,-0.0469 v -0.0452 l 0.0494,-0.0455 0.0455,-0.0455 h 0.0967 v -0.0469 h 0.048 l 0.0469,-0.0455 0.0497,-0.0455 h 0.0455 l 0.0455,-0.0427 h 0.0494 v -0.0455 h 0.0455 l 0.0497,-0.0469 h 0.0455 l 0.0494,-0.0455 h 0.0924 v -0.0455 h 0.0497 l 0.0949,-0.0452 0.0455,-0.0469 h 0.0953 v -0.0455 l 0.0949,-0.0455 0.0952,-0.0469 h 0.0469 l 0.048,-0.0455 0.0469,-0.0455 0.0497,-0.0427 h 0.14041 v -0.0455 h 0.0455 l 0.0497,-0.0455 h 0.0455 l 0.0494,-0.0466 h 0.0455 l 0.0497,-0.0455 h 0.0469 l 0.048,-0.0455 0.0469,-0.0455 0.0455,-0.0469 0.0952,-0.0455 v -0.0455 h 0.0494 l 0.0455,-0.0469 v -0.0452 l 0.0497,-0.0455 0.0455,-0.0427 h 0.0494 v -0.0455 l 0.0924,-0.0924 v -0.0455 h 0.0497 l 0.0452,-0.0924 v -0.0455 h 0.0497 l 0.0455,-0.0455 0.0497,-0.0452 0.0455,-0.0469 0.0494,-0.0455 h 0.0455 v -0.0427 h 0.0952 v -0.0455 l 0.0949,-0.0455 0.0469,-0.0469 0.0497,-0.0455 0.0452,-0.0455 h 0.0497 l 0.0455,-0.0455 h 0.0455 v -0.0466 h 0.0497 l 0.0452,-0.0455 0.0497,-0.0455 0.0469,-0.0455 0.0483,-0.0469 0.0466,-0.0413 v -0.0469 l 0.0455,-0.0455 0.0497,-0.0455 v -0.0469 h 0.0455 v -0.0452 h 0.0494 l 0.0455,-0.0455 v -0.0455 h 0.0497 v -0.0469 h 0.0455 v -0.0455 h 0.0949 v -0.0455 0.0455 l -0.0452,0.0455" />
    <path
       inkscape:connector-curvature="0"
       id="path48"
       style="fill:none;stroke:#000000;stroke-width:0.56797218;stroke-linecap:round;stroke-linejoin:round;stroke-miterlimit:10;stroke-dasharray:none;stroke-opacity:1"
       d="m 105.70218,31.314116 h 0.0452 l 0.0469,-0.0455 v -0.0455 h 0.0952 v -0.0469 l 0.0949,-0.0413 0.0497,-0.0469 h 0.0455 l 0.0494,-0.0455 0.091,-0.0907 0.0497,-0.0469 0.0469,-0.0455 h 0.048 l 0.0469,-0.0924 h 0.0497 l 0.0455,-0.0455 0.0494,-0.0455 0.0455,-0.0455 0.0455,-0.0427 0.0497,-0.0921 h 0.0455 l 0.0494,-0.091 h 0.0455 l 0.0497,-0.0924 0.0469,-0.0455 h 0.048 v -0.0455 l 0.0469,-0.0921 0.0455,-0.0455 v -0.0427 l 0.0497,-0.0455 0.0455,-0.0455 v -0.0469 l 0.0494,-0.0455 0.0455,-0.0924 0.0497,-0.0455 v -0.0455 l 0.0455,-0.0921 0.0494,-0.0455 0.0455,-0.0427 0.0967,-0.13794 0.0455,-0.091 v -0.0921 l 0.0494,-0.0455 v -0.0455 l 0.0455,-0.0455 v -0.0882 h 0.0497 v -0.0469 l 0.0455,-0.0455 0.0494,-0.0455 v -0.0921" />
    <path
       inkscape:connector-curvature="0"
       id="path50"
       style="fill:none;stroke:#000000;stroke-width:0.37041664;stroke-linecap:round;stroke-linejoin:round;stroke-miterlimit:10;stroke-dasharray:none;stroke-opacity:1"
       d="m 156.33954,24.328766 0.53305,0.0109 0.53199,0.0427 0.52634,0.0843 0.51823,0.11712 0.50835,0.15135 0.49778,0.18344 0.47942,0.21907 0.46179,0.24942 0.44097,0.28257 0.42016,0.31151 0.39546,0.3376 0.36654,0.36795 0.33478,0.387 0.31009,0.40957 0.27588,0.42969 0.23953,0.44944 0.20532,0.46143 0.17251,0.47696 0.13335,0.48648 0.0967,0.49318 0.055,0.49742 0.0222,0.50165" />
    <path
       inkscape:connector-curvature="0"
       id="path52"
       style="fill:none;stroke:#000000;stroke-width:0.37041664;stroke-linecap:round;stroke-linejoin:round;stroke-miterlimit:10;stroke-dasharray:none;stroke-opacity:1"
       d="m 163.865,31.279546 -0.0222,0.50024 -0.055,0.50165 -0.0967,0.49353 -0.13335,0.48366 -0.17251,0.47519 -0.20532,0.4632 -0.23953,0.44767 -0.27588,0.43004 -0.31009,0.41346 -0.33478,0.38735 -0.36654,0.36371 -0.39546,0.33902 -0.42016,0.31009 -0.44097,0.28222 -0.46179,0.25083 -0.47942,0.21801 -0.49778,0.18733 -0.50835,0.15169 -0.51823,0.11713 -0.52634,0.0797 -0.53199,0.0469 -0.53305,0.007" />
    <path
       inkscape:connector-curvature="0"
       id="path54"
       style="fill:none;stroke:#000000;stroke-width:0.35630554;stroke-linecap:round;stroke-linejoin:round;stroke-miterlimit:10;stroke-dasharray:none;stroke-opacity:1"
       d="M 156.33672,24.294186 H 144.06393" />
    <path
       inkscape:connector-curvature="0"
       id="path56"
       style="fill:none;stroke:#000000;stroke-width:0.35630554;stroke-linecap:round;stroke-linejoin:round;stroke-miterlimit:10;stroke-dasharray:none;stroke-opacity:1"
       d="M 156.35471,38.267716 H 144.08439" />
    <path
       inkscape:connector-curvature="0"
       id="path58"
       style="fill:none;stroke:#000000;stroke-width:0.35630554;stroke-linecap:round;stroke-linejoin:round;stroke-miterlimit:10;stroke-dasharray:none;stroke-opacity:1"
       d="m 143.87238,24.220106 0.004,1.27318 0.003,1.27035 0.004,1.27353 0.004,1.27035 0.003,1.27353 0.004,1.26894 0.003,1.27494 0.004,1.27317 0.003,1.2693 0.004,1.27317 0.003,1.27071" />
    <path
       inkscape:connector-curvature="0"
       id="path60"
       style="fill:none;stroke:#000000;stroke-width:0.57149994;stroke-linecap:round;stroke-linejoin:round;stroke-miterlimit:10;stroke-dasharray:none;stroke-opacity:1"
       d="m 164.45061,31.152896 h 0.0247" />
    <path
       inkscape:connector-curvature="0"
       id="path62"
       style="fill:none;stroke:#000000;stroke-width:0.29280552;stroke-linecap:round;stroke-linejoin:round;stroke-miterlimit:10;stroke-dasharray:none;stroke-opacity:1"
       d="m 121.72181,23.161776 0.004,1.04034 v 1.04175 l 0.003,1.04034 0.004,1.04034 0.003,1.03788 0.004,1.04034 0.003,1.04034 v 1.04034 l 0.004,1.03787 0.004,1.04035 0.003,1.04034" />
    <path
       inkscape:connector-curvature="0"
       id="path64"
       style="fill:none;stroke:#000000;stroke-width:0.46566665;stroke-linecap:round;stroke-linejoin:round;stroke-miterlimit:10;stroke-dasharray:none;stroke-opacity:1"
       d="m 136.60163,28.943796 h 0.0222" />
    <path
       inkscape:connector-curvature="0"
       id="path66"
       style="fill:none;stroke:#000000;stroke-width:0.29280552;stroke-linecap:round;stroke-linejoin:round;stroke-miterlimit:10;stroke-dasharray:none;stroke-opacity:1"
       d="m 121.62233,23.193166 1.94028,0.95921 0.97013,0.48083 0.97014,0.4826 0.96767,0.48084 2.91042,1.43863 0.96591,0.47942 1.94027,0.9592 0.97014,0.48366" />
    <path
       inkscape:connector-curvature="0"
       id="path68"
       style="fill:none;stroke:#000000;stroke-width:0.29280552;stroke-linecap:round;stroke-linejoin:round;stroke-miterlimit:10;stroke-dasharray:none;stroke-opacity:1"
       d="m 133.25729,28.957556 -0.95497,0.47273 -0.95356,0.47695 -0.95497,0.47519 -0.95638,0.47696 -0.95214,0.4766 -0.95638,0.47272 -0.95638,0.47555 -0.9525,0.4766 -0.95603,0.47554 -0.9525,0.47696 -0.95638,0.4766 -0.95638,0.47273" />
    <path
       inkscape:connector-curvature="0"
       id="path70"
       style="fill:none;stroke:#000000;stroke-width:0.19050001;stroke-linecap:round;stroke-linejoin:round;stroke-miterlimit:10;stroke-dasharray:none;stroke-opacity:1"
       d="m 136.30564,29.014006 -0.0705,0.40675 -0.20532,0.3623 -0.32103,0.28928 -0.4011,0.18768 -0.44768,0.0632 -0.44521,-0.0632 -0.40498,-0.18768 -0.31856,-0.28928 -0.20391,-0.3623 -0.0744,-0.40675 0.0744,-0.40499 0.20391,-0.36372 0.31856,-0.28963 0.40498,-0.18732 0.44521,-0.0635 0.44768,0.0635 0.4011,0.18732 0.32103,0.28963 0.20532,0.36372 0.0705,0.40499" />
    <path
       inkscape:connector-curvature="0"
       id="path72"
       style="fill:none;stroke:#000000;stroke-width:0.37041664;stroke-linecap:round;stroke-linejoin:round;stroke-miterlimit:10;stroke-dasharray:none;stroke-opacity:1"
       d="m 73.560594,18.050376 0.5334,0.01 0.53199,0.0466 0.52635,0.0815 0.51823,0.11571 0.50694,0.1517 0.49742,0.18309 0.48118,0.22189 0.46144,0.25083 0.44097,0.27834 0.42051,0.31433 0.39123,0.33902 0.36654,0.36371 0.33902,0.38735 0.30586,0.40922 0.27551,0.4311 0.24413,0.44802 0.2039,0.46179 0.17357,0.4766 0.12947,0.48648 0.0995,0.49319 0.0564,0.49777 0.0177,0.50129" />
    <path
       inkscape:connector-curvature="0"
       id="path74"
       style="fill:none;stroke:#000000;stroke-width:0.37041664;stroke-linecap:round;stroke-linejoin:round;stroke-miterlimit:10;stroke-dasharray:none;stroke-opacity:1"
       d="m 81.081824,24.999746 -0.0177,0.50447 -0.0564,0.49742 -0.0995,0.49353 -0.12948,0.4879 -0.17356,0.47237 -0.20391,0.46601 -0.24412,0.44768 -0.27552,0.4258 -0.30586,0.41346 -0.33902,0.38876 -0.36653,0.3623 -0.39123,0.33902 -0.42051,0.31009 -0.44098,0.28258 -0.46143,0.25082 -0.48119,0.21908 -0.49741,0.18591 -0.50695,0.1517 -0.51823,0.11712 -0.52634,0.0811 -0.53199,0.0455 -0.5334,0.007" />
    <path
       inkscape:connector-curvature="0"
       id="path76"
       style="fill:none;stroke:#000000;stroke-width:0.35630554;stroke-linecap:round;stroke-linejoin:round;stroke-miterlimit:10;stroke-dasharray:none;stroke-opacity:1"
       d="M 73.556364,18.014746 H 61.283574" />
    <path
       inkscape:connector-curvature="0"
       id="path78"
       style="fill:none;stroke:#000000;stroke-width:0.35630554;stroke-linecap:round;stroke-linejoin:round;stroke-miterlimit:10;stroke-dasharray:none;stroke-opacity:1"
       d="M 73.574354,31.987916 H 61.305804" />
    <path
       inkscape:connector-curvature="0"
       id="path80"
       style="fill:none;stroke:#000000;stroke-width:0.35630554;stroke-linecap:round;stroke-linejoin:round;stroke-miterlimit:10;stroke-dasharray:none;stroke-opacity:1"
       d="m 61.093434,17.940306 0.003,1.27318 0.004,1.2707 0.004,1.27318 0.002,1.27317 0.004,1.27071 0.003,1.27317 0.004,1.27071 0.002,1.27317 0.004,1.27071 0.004,1.27318 0.003,1.27352" />
    <path
       inkscape:connector-curvature="0"
       id="path82"
       style="fill:none;stroke:#000000;stroke-width:0.57149994;stroke-linecap:round;stroke-linejoin:round;stroke-miterlimit:10;stroke-dasharray:none;stroke-opacity:1"
       d="m 81.670254,24.873096 h 0.0251" />
    <path
       inkscape:connector-curvature="0"
       id="path84"
       style="fill:none;stroke:#000000;stroke-width:0.49741665;stroke-linecap:round;stroke-linejoin:round;stroke-miterlimit:10;stroke-dasharray:none;stroke-opacity:1"
       d="M 35.440134,27.761646 H 18.255974" />
    <path
       inkscape:connector-curvature="0"
       id="path86"
       style="fill:none;stroke:#000000;stroke-width:0.49741665;stroke-linecap:round;stroke-linejoin:round;stroke-miterlimit:10;stroke-dasharray:none;stroke-opacity:1"
       d="m 51.303844,28.421686 h 9.25372" />
    <path
       inkscape:connector-curvature="0"
       id="path88"
       style="fill:none;stroke:#000000;stroke-width:0.49741665;stroke-linecap:round;stroke-linejoin:round;stroke-miterlimit:10;stroke-dasharray:none;stroke-opacity:1"
       d="M 60.557564,20.160336 H 19.246574" />
    <path
       inkscape:connector-curvature="0"
       id="path90"
       style="fill:none;stroke:#000000;stroke-width:0.49741665;stroke-linecap:round;stroke-linejoin:round;stroke-miterlimit:10;stroke-dasharray:none;stroke-opacity:1"
       d="m 80.715284,24.456816 1.88665,0.0455 1.88807,0.0497 1.89054,0.0455 1.88806,0.0455 1.88631,0.0494 1.88806,0.0455 1.89054,0.0497" />
    <path
       inkscape:connector-curvature="0"
       id="path92"
       style="fill:none;stroke:#000000;stroke-width:0.49741665;stroke-linecap:round;stroke-linejoin:round;stroke-miterlimit:10;stroke-dasharray:none;stroke-opacity:1"
       d="m 93.270644,32.718166 h -7.59989" />
    <path
       inkscape:connector-curvature="0"
       id="path94"
       style="fill:none;stroke:#000000;stroke-width:0.49741665;stroke-linecap:round;stroke-linejoin:round;stroke-miterlimit:10;stroke-dasharray:none;stroke-opacity:1"
       d="m 85.670754,32.718166 v 3.96628" />
    <path
       inkscape:connector-curvature="0"
       id="path96"
       style="fill:none;stroke:#000000;stroke-width:0.49741665;stroke-linecap:round;stroke-linejoin:round;stroke-miterlimit:10;stroke-dasharray:none;stroke-opacity:1"
       d="m 85.340194,36.352136 -1.76388,0.0109 -1.76813,0.007 -1.76389,0.01 -1.76671,0.008 -1.76389,0.007 -1.76388,0.01 -1.76777,0.007 -1.76389,0.0109 -1.76671,0.007 -1.76389,0.0109 -1.76389,0.007 -1.76812,0.0109 -1.76389,0.007 -1.76812,0.0113 -1.76389,0.007 -1.76671,0.01 -1.76389,0.007 -1.76389,0.009 -1.76777,0.01 -1.76389,0.007 -1.76671,0.0113 -1.76389,0.007 -1.76389,0.0109 -1.76812,0.007 -1.76389,0.0109 -1.76671,0.007 -1.76389,0.01 -1.76389,0.009 -1.76777,0.01 -1.76389,0.007 -1.76671,0.0113 -1.76389,0.007 -1.76812,0.007 -1.76389,0.0109 -1.76389,0.007 -1.76812,0.0109 -1.76389,0.007 -1.76636,0.0113" />
    <path
       inkscape:connector-curvature="0"
       id="path98"
       style="fill:none;stroke:#000000;stroke-width:0.49741665;stroke-linecap:round;stroke-linejoin:round;stroke-miterlimit:10;stroke-dasharray:none;stroke-opacity:1"
       d="m 107.47982,28.421686 1.98297,-0.0455 1.98296,-0.0497 1.98296,-0.0455 1.98155,-0.0494 1.98297,-0.0455 1.98296,-0.0469 1.98579,-0.0497" />
    <path
       inkscape:connector-curvature="0"
       id="path100"
       style="fill:none;stroke:#000000;stroke-width:0.49741665;stroke-linecap:round;stroke-linejoin:round;stroke-miterlimit:10;stroke-dasharray:none;stroke-opacity:1"
       d="m 136.23121,28.421686 h 6.93949" />
    <path
       inkscape:connector-curvature="0"
       id="path102"
       style="fill:none;stroke:#000000;stroke-width:0.49741665;stroke-linecap:round;stroke-linejoin:round;stroke-miterlimit:10;stroke-dasharray:none;stroke-opacity:1"
       d="m 143.1707,33.710536 h -6.93949" />
    <path
       inkscape:connector-curvature="0"
       id="path104"
       style="fill:none;stroke:#000000;stroke-width:0.49741665;stroke-linecap:round;stroke-linejoin:round;stroke-miterlimit:10;stroke-dasharray:none;stroke-opacity:1"
       d="m 136.55894,33.710536 v 8.58943" />
    <path
       inkscape:connector-curvature="0"
       id="path106"
       style="fill:none;stroke:#000000;stroke-width:0.49741665;stroke-linecap:round;stroke-linejoin:round;stroke-miterlimit:10;stroke-dasharray:none;stroke-opacity:1"
       d="m 136.55894,42.299966 -1.78435,0.0247 -1.78894,0.0247 -1.78858,0.0275 -1.7847,0.0251 -3.57717,0.0494 -1.7847,0.0251 -3.57717,0.0494 -1.78611,0.0247 -1.78718,0.0251 -1.78893,0.0247 -1.78576,0.0247 -1.78858,0.0279 -1.78894,0.0247 -1.78717,0.0247 -1.78612,0.0247 -3.57716,0.0497 -1.7847,0.0247 -1.788586,0.0251 -1.78858,0.0233 -1.78471,0.0247 -1.78858,0.0289 -1.78893,0.0251 -1.78435,0.0247 -3.57752,0.0497 -1.78576,0.0233 -1.78894,0.0247 -1.78717,0.0251 -1.78858,0.0247 -1.78612,0.0247 -1.78858,0.0289 -1.78894,0.0251 -1.78435,0.0233 -3.57752,0.0497 -1.78435,0.0247 -3.57752,0.0497 -1.7847,0.0247 -3.57717,0.0497 -1.78611,0.0275 -1.78717,0.0247 -3.57752,0.0497 -1.78576,0.0247 -3.57752,0.0497 -1.78435,0.0247 -3.57752,0.0497 -1.7847,0.0275 -3.57717,0.0494 -1.7847,0.0251 -3.57752,0.0494 -1.78435,0.0251 -1.78859,0.0247 -1.78893,0.0233 -1.78859,0.0251 -1.78611,0.0289 -1.78858,0.0247" />
    <text
       id="text116"
       style="font-variant:normal;font-size:4.23333311px;font-family:CairoFont-0;-inkscape-font-specification:CairoFont-0-0;writing-mode:lr-tb;fill:#000000;fill-opacity:1;fill-rule:nonzero;stroke:none;stroke-width:0.35277775"
       x="14.879653"
       y="18.508652">
      <tspan
         style="stroke-width:0.35277775"
         id="tspan108"
         y="18.508652"
         x="14.879653">A</tspan>
      <tspan
         style="stroke-width:0.35277775"
         id="tspan110"
         y="26.880234"
         x="14.402846">B</tspan>
      <tspan
         style="stroke-width:0.35277775"
         id="tspan112"
         y="35.98494"
         x="14.329818">C</tspan>
      <tspan
         style="stroke-width:0.35277775"
         id="tspan114"
         y="43.696457"
         x="14.255401">D</tspan>
    </text>
    <path
       inkscape:connector-curvature="0"
       id="path118"
       style="fill:none;stroke:#000000;stroke-width:0.49741665;stroke-linecap:round;stroke-linejoin:round;stroke-miterlimit:10;stroke-dasharray:none;stroke-opacity:1"
       d="m 164.02763,30.806816 1.84079,0.0138 1.84115,0.0113 1.84256,0.01 1.84079,0.0109 1.84115,0.0138 1.84256,0.0113 1.84114,0.0109 1.8408,0.01 1.84114,0.0109 1.84256,0.0141 1.84115,0.0109 1.84079,0.009 1.84256,0.0109" />
    <text
       id="text134"
       style="font-variant:normal;font-size:6.4240694px;font-family:CairoFont-0;-inkscape-font-specification:CairoFont-0-0;writing-mode:lr-tb;fill:#000000;fill-opacity:1;fill-rule:nonzero;stroke:none;stroke-width:0.35277775"
       x="12.233825"
       y="68.857681">
      <tspan
         style="stroke-width:0.35277775"
         id="tspan132"
         sodipodi:role="line"
         y="68.857681"
         x="12.233825 15.57434 19.640778 23.707199 27.214752 29.732986 31.512451 35.437546 39.503998 43.416245 45.195709 46.975189 50.771805 52.788971 56.739761 60.812637 64.879074 66.639267 70.435883 74.367416 76.146881 80.078415 84.144852 86.663086 88.699509 92.765945 96.716751 99.234985 104.46419 108.3893 111.02959 114.74911 118.08963">Functionally equivalent networks:</tspan>
    </text>
    <path
       inkscape:connector-curvature="0"
       id="path136"
       style="fill:none;stroke:#000000;stroke-width:0.67027777;stroke-linecap:round;stroke-linejoin:round;stroke-miterlimit:10;stroke-dasharray:none;stroke-opacity:1"
       d="m 133.22978,87.070996 0.89993,0.0204 0.8957,0.0882 0.88865,0.15592 0.87524,0.2286 0.8569,0.29352 0.83644,0.35983 0.81033,0.42721 0.77999,0.48648 0.74436,0.54963 0.70556,0.6036 0.66392,0.65582 0.62019,0.70979 0.56797,0.75811 0.51929,0.79764 0.46602,0.83255 0.40498,0.86819 0.34855,0.89958 0.28681,0.92745 0.22578,0.94545 0.16121,0.95638 0.0995,0.97014 0.0318,0.976844" />
    <path
       inkscape:connector-curvature="0"
       id="path138"
       style="fill:none;stroke:#000000;stroke-width:0.67027777;stroke-linecap:round;stroke-linejoin:round;stroke-miterlimit:10;stroke-dasharray:none;stroke-opacity:1"
       d="m 145.91884,100.58239 -0.0318,0.97719 -0.0995,0.96591 -0.16121,0.95638 -0.22578,0.94544 -0.28681,0.92463 -0.34855,0.90276 -0.40498,0.86819 -0.46602,0.83643 -0.51929,0.79622 -0.56797,0.75953 -0.62019,0.70556 -0.66392,0.65581 -0.70556,0.60643 -0.74436,0.54433 -0.77999,0.49319 -0.81033,0.42051 -0.83644,0.36653 -0.8569,0.2921 -0.87524,0.22613 -0.88865,0.15558 -0.8957,0.0882 -0.89993,0.018" />
    <path
       inkscape:connector-curvature="0"
       id="path140"
       style="fill:none;stroke:#000000;stroke-width:0.49741665;stroke-linecap:round;stroke-linejoin:round;stroke-miterlimit:10;stroke-dasharray:none;stroke-opacity:1"
       d="M 132.74329,87.003256 H 120.4691" />
    <path
       inkscape:connector-curvature="0"
       id="path142"
       style="fill:none;stroke:#000000;stroke-width:0.49741665;stroke-linecap:round;stroke-linejoin:round;stroke-miterlimit:10;stroke-dasharray:none;stroke-opacity:1"
       d="M 132.75988,114.16433 H 120.49097" />
    <path
       inkscape:connector-curvature="0"
       id="path144"
       style="fill:none;stroke:#000000;stroke-width:0.49741665;stroke-linecap:round;stroke-linejoin:round;stroke-miterlimit:10;stroke-dasharray:none;stroke-opacity:1"
       d="m 120.27895,86.862856 0.004,2.47368 0.002,2.46944 0.004,2.47191 0.003,2.47368 0.004,2.46945 0.002,2.472264 0.004,2.47368 0.004,2.46944 0.003,2.47192 0.004,2.47368 0.003,2.47368" />
    <path
       inkscape:connector-curvature="0"
       id="path146"
       style="fill:none;stroke:#000000;stroke-width:0.29280552;stroke-linecap:round;stroke-linejoin:round;stroke-miterlimit:10;stroke-dasharray:none;stroke-opacity:1"
       d="m 92.067674,96.003326 0.003,1.03752 0.004,1.04069 0.002,1.04458 0.004,1.040344 v 1.03611 l 0.004,1.03787 0.003,1.04034 0.004,1.04458 0.003,1.03364 v 1.04422 l 0.004,1.03787" />
    <path
       inkscape:connector-curvature="0"
       id="path148"
       style="fill:none;stroke:#000000;stroke-width:0.46566665;stroke-linecap:round;stroke-linejoin:round;stroke-miterlimit:10;stroke-dasharray:none;stroke-opacity:1"
       d="m 106.94783,101.78148 h 0.0205" />
    <path
       inkscape:connector-curvature="0"
       id="path150"
       style="fill:none;stroke:#000000;stroke-width:0.29280552;stroke-linecap:round;stroke-linejoin:round;stroke-miterlimit:10;stroke-dasharray:none;stroke-opacity:1"
       d="m 91.972774,96.035076 0.97014,0.4766 0.9659,0.4826 0.97014,0.47661 0.97014,0.48648 0.97014,0.47695 0.97014,0.47943 0.96591,0.48365 1.940266,0.959214 0.97014,0.4766 0.96732,0.4826 0.97014,0.48084" />
    <path
       inkscape:connector-curvature="0"
       id="path152"
       style="fill:none;stroke:#000000;stroke-width:0.29280552;stroke-linecap:round;stroke-linejoin:round;stroke-miterlimit:10;stroke-dasharray:none;stroke-opacity:1"
       d="m 103.60315,101.79665 -0.95215,0.47272 -0.95638,0.47942 -0.95638,0.47273 -0.952146,0.47942 -0.95638,0.47272 -0.95215,0.47273 -0.95638,0.47942 -0.95497,0.47272 -0.95356,0.47978 -0.95496,0.47237 -0.95356,0.47696 -0.95497,0.47695" />
    <path
       inkscape:connector-curvature="0"
       id="path154"
       style="fill:none;stroke:#000000;stroke-width:0.19050001;stroke-linecap:round;stroke-linejoin:round;stroke-miterlimit:10;stroke-dasharray:none;stroke-opacity:1"
       d="m 106.65432,101.85591 -0.0702,0.40499 -0.20814,0.36125 -0.31714,0.2921 -0.4064,0.18732 -0.4438,0.0635 -0.44768,-0.0635 -0.40251,-0.18732 -0.32103,-0.2921 -0.20532,-0.36125 -0.0702,-0.40499 0.0702,-0.40922 0.20532,-0.36406 0.32103,-0.28505 0.40251,-0.18733 0.44768,-0.0635 0.4438,0.0635 0.4064,0.18733 0.31714,0.28505 0.20814,0.36406 0.0702,0.40922" />
    <path
       inkscape:connector-curvature="0"
       id="path156"
       style="fill:none;stroke:#000000;stroke-width:0.29280552;stroke-linecap:round;stroke-linejoin:round;stroke-miterlimit:10;stroke-dasharray:none;stroke-opacity:1"
       d="m 34.567714,78.156296 0.004,1.04458 0.002,1.04034 0.004,1.03364 v 1.04034 l 0.004,1.04034 0.003,1.04458 0.004,1.03787 0.003,1.04034 v 1.03752 l 0.004,1.04069 0.003,1.04035" />
    <path
       inkscape:connector-curvature="0"
       id="path158"
       style="fill:none;stroke:#000000;stroke-width:0.46566665;stroke-linecap:round;stroke-linejoin:round;stroke-miterlimit:10;stroke-dasharray:none;stroke-opacity:1"
       d="m 49.447884,83.938676 h 0.0219" />
    <path
       inkscape:connector-curvature="0"
       id="path160"
       style="fill:none;stroke:#000000;stroke-width:0.29280552;stroke-linecap:round;stroke-linejoin:round;stroke-miterlimit:10;stroke-dasharray:none;stroke-opacity:1"
       d="m 34.472464,78.188046 0.97014,0.48366 0.96767,0.47943 0.97014,0.47978 0.97014,0.4766 0.97014,0.4826 0.9659,0.4766 0.97014,0.48648 0.97014,0.47696 0.97014,0.47942 0.97014,0.48366 0.96591,0.47943 0.97013,0.47977" />
    <path
       inkscape:connector-curvature="0"
       id="path162"
       style="fill:none;stroke:#000000;stroke-width:0.29280552;stroke-linecap:round;stroke-linejoin:round;stroke-miterlimit:10;stroke-dasharray:none;stroke-opacity:1"
       d="m 46.103194,83.952436 -0.95497,0.47273 -0.95214,0.47942 -0.95638,0.47272 -0.95215,0.47661 -0.95638,0.47554 -0.95638,0.47413 -0.95215,0.47555 -0.95638,0.4766 -0.9525,0.47942 -1.91241,0.94545 -0.9525,0.47695" />
    <path
       inkscape:connector-curvature="0"
       id="path164"
       style="fill:none;stroke:#000000;stroke-width:0.19050001;stroke-linecap:round;stroke-linejoin:round;stroke-miterlimit:10;stroke-dasharray:none;stroke-opacity:1"
       d="m 49.155434,84.008886 -0.0741,0.40252 -0.20426,0.36653 -0.31821,0.28928 -0.40499,0.18345 -0.4452,0.0632 -0.44803,-0.0632 -0.40217,-0.18345 -0.32102,-0.28928 -0.20426,-0.36653 -0.0702,-0.40252 0.0702,-0.40252 0.20426,-0.36372 0.32102,-0.2921 0.40217,-0.18344 0.44803,-0.0632 0.4452,0.0632 0.40499,0.18344 0.31821,0.2921 0.20426,0.36372 0.0741,0.40252" />
    <path
       inkscape:connector-curvature="0"
       id="path168"
       style="fill:none;stroke:#000000;stroke-width:0.63147217;stroke-linecap:round;stroke-linejoin:round;stroke-miterlimit:10;stroke-dasharray:none;stroke-opacity:1"
       d="m 57.886684,81.399036 0.43003,0.32385 0.41346,0.37041 0.39123,0.40252 0.37077,0.44768 0.34184,0.47554 0.31679,0.50589 0.28681,0.53199 0.25753,0.56761 0.22472,0.58561 0.19438,0.60361 0.1584,0.61736 0.12418,0.63817 0.0882,0.64206 0.0564,0.65581 0.018,0.65335" />
    <path
       inkscape:connector-curvature="0"
       id="path170"
       style="fill:none;stroke:#000000;stroke-width:0.63147217;stroke-linecap:round;stroke-linejoin:round;stroke-miterlimit:10;stroke-dasharray:none;stroke-opacity:1"
       d="m 61.559444,89.420496 -0.018,0.65299 -0.0564,0.65616 -0.0882,0.64488 -0.12418,0.63253 -0.15839,0.62019 -0.19438,0.6036 -0.22472,0.58843 -0.25753,0.5581 -0.28681,0.53587 -0.31679,0.51117 -0.34184,0.47272 -0.37077,0.44098 -0.39123,0.41345 -0.41346,0.36231 -0.43004,0.33231 -0.44767,0.28258" />
    <path
       inkscape:connector-curvature="0"
       id="path172"
       style="fill:none;stroke:#000000;stroke-width:0.2363611;stroke-linecap:round;stroke-linejoin:round;stroke-miterlimit:10;stroke-dasharray:none;stroke-opacity:1"
       d="m 74.605174,89.476936 -0.26882,0.39829 -0.28928,0.39546 -0.30303,0.39546 -0.32385,0.37748 -0.33902,0.37359 -0.35701,0.36653 -0.37748,0.35984 -0.38735,0.34995 -0.4064,0.33479 -0.42298,0.33196 -0.43709,0.32385 -0.45191,0.3101 -0.46566,0.30056 -0.47978,0.28505 -0.49318,0.28257 -0.50589,0.26458 -0.51787,0.25789 -0.52917,0.24659 -0.54046,0.23283 -0.54962,0.21484 -0.56092,0.21238 -0.56797,0.19437 -0.57856,0.17922 -0.58843,0.16933 -0.59408,0.15558 -0.59937,0.13793 -0.60642,0.12947 -0.61454,0.11324 -0.61736,0.0991 -0.62019,0.084 -0.6283,0.0744 -0.62688,0.0536 -0.63253,0.0455 -0.63112,0.0251" />
    <path
       inkscape:connector-curvature="0"
       id="path174"
       style="fill:none;stroke:#000000;stroke-width:0.2363611;stroke-linecap:round;stroke-linejoin:round;stroke-miterlimit:10;stroke-dasharray:none;stroke-opacity:1"
       d="m 57.441824,80.861396 0.63253,0.0247 0.63112,0.043 0.62689,0.0603 0.62583,0.0706 0.62406,0.084 0.61736,0.0991 0.61066,0.11571 0.60607,0.13088 0.6036,0.13794 0.59267,0.1517 0.58561,0.16933 0.57891,0.18062 0.57044,0.19685 0.56092,0.20814 0.55104,0.21519 0.53904,0.23707 0.52917,0.24236 0.51929,0.25506 0.50447,0.2674 0.49318,0.28223 0.47696,0.28539 0.46849,0.30304 0.45191,0.3115 0.43709,0.31715 0.42016,0.33196 0.40499,0.33902 0.39299,0.34855 0.37324,0.35983 0.35983,0.37042 0.33902,0.37359 0.32385,0.3817 0.30304,0.38453 0.28681,0.39829 0.26705,0.40216 0.25082,0.40252" />
    <path
       inkscape:connector-curvature="0"
       id="path176"
       style="fill:none;stroke:#000000;stroke-width:0.35277775;stroke-linecap:round;stroke-linejoin:round;stroke-miterlimit:10;stroke-dasharray:none;stroke-opacity:1"
       d="m 57.504974,80.971816 v 0.0455 h 0.0497" />
    <path
       inkscape:connector-curvature="0"
       id="path178"
       style="fill:none;stroke:#000000;stroke-width:0.56797218;stroke-linecap:round;stroke-linejoin:round;stroke-miterlimit:10;stroke-dasharray:none;stroke-opacity:1"
       d="m 57.504974,81.200416 v -0.0497 l -0.0452,-0.0452 v -0.0882 h -0.0497 v -0.0455 h 0.0497" />
    <path
       inkscape:connector-curvature="0"
       id="path180"
       style="fill:none;stroke:#000000;stroke-width:0.56797218;stroke-linecap:round;stroke-linejoin:round;stroke-miterlimit:10;stroke-dasharray:none;stroke-opacity:1"
       d="m 57.319064,80.745686 h 0.70837 v 0.0455 h 0.85443 l 0.0494,0.0427 h 0.37783 l 0.048,0.0455 h 0.80504 l 0.0494,0.0469 h 0.23565 l 0.0469,0.0455 h 0.14464 v 0.0455 h 0.14075 v 0.0451 h 0.19015 l 0.0469,0.043 h 0.0949 l 0.0455,0.0452 h 0.0497 v 0.0497 h 0.14041 l 0.0497,0.0427 h 0.18732 l 0.0497,0.0497 h 0.23566 l 0.0494,0.0427 h 0.42298 v 0.0483 h 0.0953 l 0.0497,0.0427 h 0.14181 l 0.0483,0.0494 h 0.0466 l 0.0455,0.0427 h 0.14464 l 0.0455,0.0483 h 0.14499 l 0.0452,0.0427 h 0.0469 l 0.0497,0.0455 h 0.19015 l 0.0455,0.0427 h 0.33196 l 0.0497,0.0497 h 0.33056 l 0.0455,0.0427 h 0.14464 l 0.0469,0.0497 h 0.23565 l 0.0497,0.0452 0.0455,0.0455 h 0.19156 l 0.0455,0.0455 h 0.14464 l 0.0455,0.0924 h 0.0949 v 0.0427 h 0.0455 l 0.0497,0.0455 h 0.0469 v 0.0455 h 0.048 l 0.0469,0.0427 h 0.0497 l 0.0455,0.0455 h 0.0455 l 0.0494,0.0469 h 0.0455 l 0.0497,0.0455 h 0.0455 v 0.0455 h 0.0494 l 0.0455,0.0452 h 0.0497 l 0.0469,0.0497 0.0949,0.0427 0.0455,0.0497 0.0953,0.0427 h 0.0494 l 0.0455,0.0882 h 0.0497 l 0.0455,0.0483 h 0.0466 l 0.0483,0.0427 h 0.14182 l 0.0952,0.0494 0.0952,0.0427 0.0949,0.0483 h 0.0953 l 0.0466,0.0427 h 0.0483 l 0.0469,0.0497 0.0497,0.0427 0.0452,0.0497" />
    <path
       inkscape:connector-curvature="0"
       id="path182"
       style="fill:none;stroke:#000000;stroke-width:0.56797218;stroke-linecap:round;stroke-linejoin:round;stroke-miterlimit:10;stroke-dasharray:none;stroke-opacity:1"
       d="m 67.228584,82.978066 h 0.0949 v 0.0427 h 0.0952 l 0.0455,0.0497 0.0497,0.0427 0.0451,0.0497 h 0.0497 l 0.0469,0.0452 h 0.0949 v 0.0455 h 0.0952 l 0.0455,0.0455 h 0.0949 v 0.0427 h 0.0497 v 0.0455 h 0.0455 v 0.0469 h 0.0497 l 0.0452,0.0455 h 0.0967 l 0.0455,0.0427 0.0494,0.0455 0.0455,0.0455 h 0.0497 v 0.0469 h 0.0455 l 0.0455,0.0455 h 0.0494 v 0.0455 h 0.0455 l 0.0967,0.0452 h 0.048 l 0.0469,0.0497 0.0497,0.0385 0.0455,0.0497 h 0.0455 l 0.0494,0.0427 h 0.0455 l 0.0497,0.0497 h 0.0455 l 0.0949,0.0427 0.0497,0.0483 0.0469,0.0427 0.0455,0.0494 h 0.0494 l 0.0455,0.0427 0.0497,0.0483 0.0455,0.0427 0.0949,0.0497 0.0497,0.0385 0.0455,0.0497 0.0469,0.0427 0.048,0.0497 h 0.0469 v 0.0452 h 0.0497 l 0.0455,0.0455 0.0494,0.0455 0.0952,0.0924 0.0455,0.0455 h 0.0455 l 0.0494,0.0427 h 0.0455 l 0.0497,0.0455 0.0949,0.0427 0.0469,0.0455 0.0497,0.0469 0.0455,0.0455 h 0.0455 l 0.0949,0.0455 0.0497,0.0452 0.0455,0.0497 0.0949,0.0427 0.0497,0.0497 v 0.0427 h 0.0469 l 0.0452,0.0483 0.0497,0.0427 h 0.0455 l 0.0497,0.0455 h 0.0455 v 0.0427 h 0.0494 l 0.0924,0.0494 v 0.0427 l 0.0483,0.0483 0.0466,0.0427 h 0.0483 l 0.0469,0.0497 0.0497,0.0427 0.0452,0.0497 h 0.0497 v 0.0452 h 0.0455 l 0.0455,0.0455 0.0497,0.0455 0.0452,0.0427 h 0.0497 l 0.0469,0.0455 0.0483,0.0469 0.0466,0.0455 0.0483,0.0455 0.0469,0.0427 0.0455,0.0455 0.0494,0.0469 0.0455,0.0455 v 0.0455 l 0.0497,0.0452 h 0.0455 l 0.0497,0.0497 0.0452,0.0385 0.0497,0.0497 0.0469,0.0427 0.0455,0.0497 v 0.0427 l 0.0494,0.0483 h 0.0455 v 0.0427 l 0.0497,0.0494 0.0455,0.0427 0.0494,0.0483 0.0455,0.0427 0.0497,0.0497 v 0.0384 l 0.0455,0.0497 0.0469,0.0427 0.048,0.0949 0.0469,0.091 0.0497,0.0469 v 0.0455 l 0.0455,0.0427 0.0494,0.0455 v 0.0455 h 0.0455 v 0.0469 l 0.0497,0.0882 v 0.0455 l 0.14041,0.14041 v 0.0427 l 0.0455,0.0924 h 0.0497 l 0.0469,0.0483 v 0.0427 l 0.048,0.0494 0.0469,0.0882 v 0.091 l 0.0497,0.0427 0.0455,0.0497 0.0455,0.0924 v 0.0452 l 0.0494,0.0455 v 0.0455 l 0.0455,0.0469 v 0.0413 l 0.0497,0.0469 0.0455,0.0455 0.0494,0.0427 v 0.0455 h 0.0455 l 0.0469,0.0455 v 0.0469 h 0.0497 v 0.0455 l 0.0455,0.0455 h 0.0494 v 0.0452" />
    <path
       inkscape:connector-curvature="0"
       id="path184"
       style="fill:none;stroke:#000000;stroke-width:0.56797218;stroke-linecap:round;stroke-linejoin:round;stroke-miterlimit:10;stroke-dasharray:none;stroke-opacity:1"
       d="m 57.696534,97.739696 v -0.0427 h 0.52246 l 0.0455,-0.0455 h 0.0949 l 0.0497,-0.0427 h 0.19015 l 0.0455,-0.0497 h 0.23706 l 0.0494,-0.0427 h 0.37783 l 0.048,-0.0497 0.0469,-0.0452 h 0.19014 l 0.0455,-0.0455 h 0.33232 l 0.0494,-0.0455 h 0.85302 l 0.0455,-0.0469 h 0.19156 l 0.0455,-0.0455 h 0.19015 l 0.0497,-0.0427 h 0.0949 l 0.0924,-0.0455 h 0.0949 l 0.0497,-0.0455 h 0.61313 l 0.0497,-0.0427 h 0.0952 l 0.0949,-0.0455 h 0.28257 l 0.0494,-0.0469 h 0.33232 l 0.0949,-0.0455 h 0.0455 l 0.0497,-0.0455 h 0.0949 l 0.0455,-0.0452 h 0.19015 l 0.0469,-0.0497 h 0.0952 l 0.0494,-0.0427 h 0.091 l 0.0497,-0.0497 h 0.0949 l 0.0952,-0.0427 h 0.0949 l 0.0469,-0.0483 h 0.0455 l 0.0497,-0.0427 h 0.19014 l 0.0455,-0.0455 h 0.19156 l 0.0455,-0.0427 h 0.14464 l 0.0455,-0.0494 h 0.0949 l 0.0455,-0.0427 h 0.0497 l 0.0469,-0.0483 h 0.0949 l 0.0497,-0.0427 h 0.0455 l 0.0949,-0.0497 h 0.0952 l 0.0455,-0.0427 h 0.0494 l 0.0455,-0.0497 h 0.0497 l 0.0469,-0.0452 0.0452,-0.0455 0.0497,-0.0455 0.14076,-0.0427 0.0949,-0.0455 0.0497,-0.0469 0.0921,-0.0455 0.0483,-0.0427 0.0469,-0.091 0.0497,-0.0469 h 0.0452 l 0.0497,-0.0455 0.0952,-0.0455 0.0455,-0.0452 0.0452,-0.0497 0.0967,-0.0385 0.0483,-0.0497 0.0466,-0.0427 h 0.0483 l 0.0469,-0.0497 h 0.0949 v -0.0427 h 0.0953 v -0.0483 h 0.0455 l 0.0949,-0.0427 0.0497,-0.0494 h 0.18726 l 0.0497,-0.0427 0.0455,-0.0483 0.0494,-0.0427 h 0.0455 l 0.0497,-0.0497 0.0455,-0.0385 h 0.0949 l 0.0469,-0.0924 0.0952,-0.0497 v -0.0452 l 0.0494,-0.0455 0.0455,-0.0455 h 0.0952 v -0.0469 h 0.0455 l 0.0494,-0.0455 0.0455,-0.0455 h 0.0497 l 0.0469,-0.0427 h 0.048 v -0.0455 h 0.0469 l 0.0497,-0.0427 h 0.0455 l 0.0455,-0.0455 h 0.0949 v -0.0469 h 0.0497 l 0.0949,-0.0455 0.0455,-0.0455 h 0.0967 v -0.0452 l 0.0949,-0.0497 0.0952,-0.0427 h 0.0455 l 0.0494,-0.0497 0.0455,-0.0427 0.0497,-0.0483 h 0.14041 v -0.0427 h 0.0469 l 0.0497,-0.0455 h 0.0455 l 0.0494,-0.0427 h 0.0455 l 0.0497,-0.0494 h 0.0455 l 0.0455,-0.0427 0.0494,-0.0483 0.0455,-0.0427 0.0967,-0.0497 v -0.0427 h 0.0479 l 0.0469,-0.0497 v -0.0452 l 0.0497,-0.0455 0.0455,-0.0455 h 0.0455 v -0.0427 l 0.0949,-0.0924 v -0.0455 h 0.0497 l 0.0455,-0.0882 v -0.0455 h 0.0494 l 0.0455,-0.0469 0.0497,-0.0455 0.0469,-0.0455 0.0452,-0.0452 h 0.0497 v -0.0497 h 0.0953 v -0.0384 l 0.0949,-0.0497 0.0455,-0.0427 0.0469,-0.0497 0.0483,-0.0427 h 0.0466 l 0.0483,-0.0483 h 0.0469 v -0.0427 h 0.0497 l 0.0452,-0.0494 0.0497,-0.0427 0.0455,-0.0483 0.0455,-0.0427 0.0497,-0.0497 v -0.0427 l 0.0452,-0.0455 0.0497,-0.0427 v -0.0497 h 0.0469 v -0.0452 h 0.0483 l 0.0466,-0.0455 v -0.0455 h 0.0483 v -0.0469 h 0.0469 v -0.0455 h 0.0949 v -0.0427 0.0427 l -0.0494,0.0455" />
    <path
       inkscape:connector-curvature="0"
       id="path186"
       style="fill:none;stroke:#000000;stroke-width:0.56797218;stroke-linecap:round;stroke-linejoin:round;stroke-miterlimit:10;stroke-dasharray:none;stroke-opacity:1"
       d="m 72.301184,91.815496 h 0.0494 l 0.0455,-0.0455 v -0.0427 h 0.0953 v -0.0455 l 0.0949,-0.0455 0.0497,-0.0469 h 0.0469 l 0.0455,-0.0413 0.0494,-0.0469 0.0455,-0.0455 0.0497,-0.0455 0.0455,-0.0452 h 0.0494 l 0.0455,-0.0924 h 0.0497 l 0.0455,-0.0497 0.0469,-0.0427 0.048,-0.0483 0.0469,-0.0427 0.0497,-0.0882 h 0.0455 l 0.0494,-0.0921 h 0.0455 l 0.0497,-0.091 0.0455,-0.0497 h 0.0455 v -0.0427 l 0.0494,-0.0949 0.0455,-0.0455 v -0.0455 l 0.0497,-0.0469 0.0469,-0.0413 v -0.0469 l 0.048,-0.0455 0.0469,-0.0882 0.0497,-0.0455 v -0.0469 l 0.0455,-0.091 0.0949,-0.0949 0.0952,-0.13088 0.0455,-0.0924 v -0.091 l 0.0494,-0.0494 v -0.0427 l 0.0455,-0.0483 v -0.0924 h 0.0469 v -0.0427 l 0.0497,-0.0455 0.0455,-0.0427 v -0.0949" />
    <path
       inkscape:connector-curvature="0"
       id="path188"
       style="fill:none;stroke:#000000;stroke-width:0.49741665;stroke-linecap:round;stroke-linejoin:round;stroke-miterlimit:10;stroke-dasharray:none;stroke-opacity:1"
       d="M 33.823704,83.253586 H 15.535714" />
    <path
       inkscape:connector-curvature="0"
       id="path190"
       style="fill:none;stroke:#000000;stroke-width:0.49741665;stroke-linecap:round;stroke-linejoin:round;stroke-miterlimit:10;stroke-dasharray:none;stroke-opacity:1"
       d="m 49.024554,83.913636 2.11419,0.0455 2.11667,0.0427 2.11243,0.0455 2.11667,0.0427 2.11243,0.0455" />
    <path
       inkscape:connector-curvature="0"
       id="path192"
       style="fill:none;stroke:#000000;stroke-width:0.49741665;stroke-linecap:round;stroke-linejoin:round;stroke-miterlimit:10;stroke-dasharray:none;stroke-opacity:1"
       d="m 60.256994,92.507296 -1.77059,-0.0109 -1.77094,-0.007 -1.7706,-0.0138 -1.77094,-0.004 -1.77059,-0.0138 -1.77236,-0.007 -1.77059,-0.0113 -5.31248,-0.0205 -1.77483,-0.0109 -1.77094,-0.007 -1.77059,-0.0138 -1.77095,-0.004 -1.77059,-0.0138 -1.77094,-0.007 -1.77059,-0.0113 -1.77236,-0.007 -3.54154,-0.0138 -1.77059,-0.0109 -1.77518,-0.007 -1.77059,-0.0138 -1.77094,-0.004 -1.77059,-0.0138" />
    <path
       inkscape:connector-curvature="0"
       id="path194"
       style="fill:none;stroke:#000000;stroke-width:0.49741665;stroke-linecap:round;stroke-linejoin:round;stroke-miterlimit:10;stroke-dasharray:none;stroke-opacity:1"
       d="m 91.323664,101.53489 -1.79987,0.007 -1.79952,0.004 -1.79846,0.007 -1.79988,0.007 h -1.7981 l -3.5994,0.0138 -1.79846,0.007 -1.79987,0.004 -1.79811,0.007 -1.79987,0.004 -1.79952,0.007 -1.79846,0.003 -1.79987,0.004 -1.79811,0.002 -1.79987,0.009 -1.79952,0.003 -1.79846,0.007 -1.79988,0.004 -1.7981,0.01 -3.5994,0.009 -1.79846,0.003 -1.79987,0.0109 -1.79811,0.003 -1.79987,0.007 -1.79952,0.004 -1.79846,0.007 -1.79987,0.004 -1.79811,0.003 -1.79987,0.004 -1.79952,0.007 -1.79846,0.004 -1.79987,0.007 -1.79811,0.003 -1.79988,0.0109 -1.79951,0.003 -1.79847,0.004 -1.79987,0.004 -1.79811,0.003 -1.79987,0.0109 -1.79952,0.003" />
    <path
       inkscape:connector-curvature="0"
       id="path196"
       style="fill:none;stroke:#000000;stroke-width:0.49741665;stroke-linecap:round;stroke-linejoin:round;stroke-miterlimit:10;stroke-dasharray:none;stroke-opacity:1"
       d="M 106.74252,101.75678 H 119.9618" />
    <path
       inkscape:connector-curvature="0"
       id="path198"
       style="fill:none;stroke:#000000;stroke-width:0.49741665;stroke-linecap:round;stroke-linejoin:round;stroke-miterlimit:10;stroke-dasharray:none;stroke-opacity:1"
       d="m 119.74273,110.13243 -1.76777,0.018 -1.76671,0.0138 -1.76389,0.0177 -1.76812,0.0208 -1.76671,0.0208 -1.76389,0.0177 -1.76777,0.018 -1.76671,0.018 -1.76389,0.018 -1.76812,0.0205 -1.76812,0.018 -1.763886,0.018 -1.76671,0.0204 -1.76389,0.0208 -1.76777,0.018 -1.76671,0.0138 -1.76389,0.018 -1.76813,0.0247 -1.76671,0.018 -1.76389,0.018 -1.76776,0.0162 -1.76671,0.018 -1.76389,0.018 -1.76813,0.0247 -1.76812,0.018 -1.76389,0.0138 -1.76636,0.018 -1.76812,0.0208 -1.76389,0.0204 -1.76671,0.0152 -1.76812,0.0208 -1.76389,0.0205 -1.76636,0.018 -1.76389,0.018 -3.53624,0.0356 -1.76389,0.0208 -1.76671,0.0208 -1.76777,0.0177 -1.76389,0.0138 -1.76671,0.0222 -1.76812,0.018 -1.76389,0.0204 -1.76671,0.018 -1.76777,0.018 -1.76389,0.0205 -1.76671,0.0141 -1.76812,0.0247 -1.76389,0.0138 -1.76812,0.018 -1.76672,0.0204 -1.76388,0.0222 -1.76777,0.018 -1.76389,0.0138 -1.76671,0.0204 -1.76813,0.018 -1.76388,0.0208 -1.76672,0.0177 -1.76776,0.018" />
    <path
       inkscape:connector-curvature="0"
       id="path200"
       style="fill:none;stroke:#000000;stroke-width:0.49741665;stroke-linecap:round;stroke-linejoin:round;stroke-miterlimit:10;stroke-dasharray:none;stroke-opacity:1"
       d="m 74.139504,89.198596 1.82986,0.0275 1.8355,0.0289 1.83021,0.0208 1.8341,0.0289 1.8355,0.0275 1.83021,0.0247 1.8355,0.0275 1.82986,0.0289 1.83444,0.0208 1.83127,0.0289 1.83409,0.0275 1.8341,0.0289 1.83162,0.0208 1.83409,0.0289 1.831266,0.0275 1.83444,0.0247 1.83127,0.0275 1.8341,0.0289 1.83444,0.0208 1.83127,0.0289 1.83409,0.0275 1.83162,0.0289 1.83409,0.0208 1.83409,0.0289 1.83127,0.0275" />
    <path
       inkscape:connector-curvature="0"
       id="path202"
       style="fill:none;stroke:#000000;stroke-width:0.49741665;stroke-linecap:round;stroke-linejoin:round;stroke-miterlimit:10;stroke-dasharray:none;stroke-opacity:1"
       d="m 145.51632,100.21197 1.79282,0.0289 1.78858,0.0318 1.78893,0.0247 1.79141,0.0275 1.78858,0.0275 1.79141,0.0247 1.78858,0.0317 1.78894,0.0289 1.79282,0.0251 1.78858,0.0247 1.7914,0.0318 1.78894,0.0275 1.78858,0.0247 1.79282,0.0317 1.78717,0.0247 1.79282,0.0251" />
    <text
       id="text212"
       style="font-variant:normal;font-size:4.23333311px;font-family:CairoFont-0;-inkscape-font-specification:CairoFont-0-0;writing-mode:lr-tb;fill:#000000;fill-opacity:1;fill-rule:nonzero;stroke:none;stroke-width:0.35277775"
       x="13.552596"
       y="81.013718">
      <tspan
         style="stroke-width:0.35277775"
         id="tspan204"
         y="81.013718"
         x="13.552596">A</tspan>
      <tspan
         style="stroke-width:0.35277775"
         id="tspan206"
         y="90.048141"
         x="13.552596">B</tspan>
      <tspan
         style="stroke-width:0.35277775"
         id="tspan208"
         y="99.735733"
         x="12.893905">C</tspan>
      <tspan
         style="stroke-width:0.35277775"
         id="tspan210"
         y="109.65486"
         x="12.893905">D</tspan>
    </text>
    <text
       id="text216"
       style="font-variant:normal;font-size:7.01318073px;font-family:CairoFont-0;-inkscape-font-specification:CairoFont-0-0;writing-mode:lr-tb;fill:#000000;fill-opacity:1;fill-rule:nonzero;stroke:none;stroke-width:0.35277775"
       x="161.37752"
       y="98.135147">
      <tspan
         style="stroke-width:0.35277775"
         id="tspan214"
         y="98.135147"
         x="161.37752">f</tspan>
    </text>
  </g>
</svg>
