<?xml version="1.0" encoding="UTF-8" standalone="no"?>
<!-- Created with Inkscape (http://www.inkscape.org/) -->

<svg
   xmlns:dc="http://purl.org/dc/elements/1.1/"
   xmlns:cc="http://creativecommons.org/ns#"
   xmlns:rdf="http://www.w3.org/1999/02/22-rdf-syntax-ns#"
   xmlns:svg="http://www.w3.org/2000/svg"
   xmlns="http://www.w3.org/2000/svg"
   xmlns:sodipodi="http://sodipodi.sourceforge.net/DTD/sodipodi-0.dtd"
   xmlns:inkscape="http://www.inkscape.org/namespaces/inkscape"
   width="173.65549mm"
   height="32.824703mm"
   viewBox="0 0 173.65549 32.824703"
   version="1.1"
   id="svg15901"
   inkscape:version="0.92.5 (2060ec1f9f, 2020-04-08)"
   sodipodi:docname="network_example_no_expression.svg">
  <defs
     id="defs15895" />
  <sodipodi:namedview
     id="base"
     pagecolor="#ffffff"
     bordercolor="#666666"
     borderopacity="1.0"
     inkscape:pageopacity="0.0"
     inkscape:pageshadow="2"
     inkscape:zoom="1.4"
     inkscape:cx="338.43595"
     inkscape:cy="-64.056428"
     inkscape:document-units="mm"
     inkscape:current-layer="g15893"
     showgrid="false"
     fit-margin-top="0"
     fit-margin-left="0"
     fit-margin-right="0"
     fit-margin-bottom="0"
     inkscape:window-width="1350"
     inkscape:window-height="1316"
     inkscape:window-x="3126"
     inkscape:window-y="122"
     inkscape:window-maximized="0" />
  <metadata
     id="metadata15898">
    <rdf:RDF>
      <cc:Work
         rdf:about="">
        <dc:format>image/svg+xml</dc:format>
        <dc:type
           rdf:resource="http://purl.org/dc/dcmitype/StillImage" />
        <dc:title></dc:title>
      </cc:Work>
    </rdf:RDF>
  </metadata>
  <g
     inkscape:label="Layer 1"
     inkscape:groupmode="layer"
     id="layer1"
     transform="translate(-19.761544,-30.367411)">
    <g
       transform="matrix(0.35277777,0,0,0.35277777,-12.895893,-18.896876)"
       id="g15893">
      <path
         d="m 154.648,171.191 0.012,2.938 v 2.949 l 0.012,2.953 0.008,2.949 0.011,2.942 0.008,2.949 v 2.949 l 0.012,2.95 0.008,2.941 0.011,2.949 0.008,2.949"
         style="fill:none;stroke:#000000;stroke-width:0.82999998;stroke-linecap:round;stroke-linejoin:round;stroke-miterlimit:10;stroke-dasharray:none;stroke-opacity:1"
         id="path46"
         inkscape:connector-curvature="0" />
      <path
         d="m 196.828,187.57 h 0.063"
         style="fill:none;stroke:#000000;stroke-width:1.32000005;stroke-linecap:round;stroke-linejoin:round;stroke-miterlimit:10;stroke-dasharray:none;stroke-opacity:1"
         id="path48"
         inkscape:connector-curvature="0" />
      <path
         d="m 154.371,171.27 5.5,2.718 2.75,1.371 2.738,1.36 2.75,1.359 2.75,1.363 5.5,2.719 2.743,1.36 2.75,1.359 2.75,1.371 2.75,1.359"
         style="fill:none;stroke:#000000;stroke-width:0.82999998;stroke-linecap:round;stroke-linejoin:round;stroke-miterlimit:10;stroke-dasharray:none;stroke-opacity:1"
         id="path50"
         inkscape:connector-curvature="0" />
      <path
         d="m 187.352,187.609 -2.711,1.352 -2.711,1.34 -2.7,1.347 -2.71,1.352 -2.7,1.352 -2.711,1.347 -2.711,1.34 -2.699,1.352 -2.711,1.347 -2.699,1.352 -2.711,1.351 -2.707,1.34"
         style="fill:none;stroke:#000000;stroke-width:0.82999998;stroke-linecap:round;stroke-linejoin:round;stroke-miterlimit:10;stroke-dasharray:none;stroke-opacity:1"
         id="path52"
         inkscape:connector-curvature="0" />
      <path
         d="m 195.988,187.77 -0.199,1.152 -0.578,1.027 -0.91,0.821 -1.141,0.531 -1.269,0.179 -1.262,-0.179 -1.149,-0.531 -0.902,-0.821 -0.59,-1.027 -0.199,-1.152 0.199,-1.141 0.59,-1.039 0.902,-0.82 1.149,-0.532 1.262,-0.179 1.269,0.179 1.141,0.532 0.91,0.82 0.578,1.039 0.199,1.141"
         style="fill:none;stroke:#000000;stroke-width:0.54000002;stroke-linecap:round;stroke-linejoin:round;stroke-miterlimit:10;stroke-dasharray:none;stroke-opacity:1"
         id="path54"
         inkscape:connector-curvature="0" />
      <path
         d="m 310.051,166.629 1.219,0.93 1.171,1.043 1.11,1.148 1.051,1.25 0.968,1.352 0.891,1.437 0.82,1.52 0.731,1.589 0.636,1.661 0.543,1.722 0.457,1.758 0.352,1.801 0.25,1.82 0.16,1.852 0.051,1.859"
         style="fill:none;stroke:#000000;stroke-width:1.78999996;stroke-linecap:round;stroke-linejoin:round;stroke-miterlimit:10;stroke-dasharray:none;stroke-opacity:1"
         id="path56"
         inkscape:connector-curvature="0" />
      <path
         d="m 320.461,189.371 -0.051,1.859 -0.16,1.848 -0.25,1.82 -0.352,1.801 -0.457,1.77 -0.543,1.711 -0.636,1.66 -0.731,1.59 -0.82,1.519 -0.891,1.442 -0.968,1.347 -1.051,1.25 -1.11,1.153 -1.171,1.039 -1.219,0.929 -1.281,0.821"
         style="fill:none;stroke:#000000;stroke-width:1.78999996;stroke-linecap:round;stroke-linejoin:round;stroke-miterlimit:10;stroke-dasharray:none;stroke-opacity:1"
         id="path58"
         inkscape:connector-curvature="0" />
      <path
         d="m 357.441,189.531 -0.769,1.141 -0.813,1.117 -0.859,1.102 -0.922,1.078 -0.957,1.062 -1.019,1.039 -1.063,1.008 -1.098,0.992 -1.16,0.969 -1.191,0.941 -1.238,0.911 -1.282,0.879 -1.32,0.851 -1.359,0.82 -1.403,0.789 -1.429,0.758 -1.469,0.731 -1.5,0.691 -1.531,0.649 -1.559,0.632 -1.59,0.579 -1.609,0.55 -1.641,0.52 -1.672,0.469 -1.679,0.441 -1.7,0.398 -1.718,0.364 -1.743,0.328 -1.75,0.281 -1.757,0.238 -1.782,0.2 -1.781,0.171 -1.789,0.122 -1.789,0.078"
         style="fill:none;stroke:#000000;stroke-width:0.67000002;stroke-linecap:round;stroke-linejoin:round;stroke-miterlimit:10;stroke-dasharray:none;stroke-opacity:1"
         id="path60"
         inkscape:connector-curvature="0" />
      <path
         d="m 308.789,165.109 1.789,0.082 1.793,0.118 1.777,0.16 1.774,0.203 1.758,0.25 1.761,0.277 1.731,0.321 1.719,0.359 1.711,0.402 1.679,0.438 1.66,0.48 1.637,0.512 1.621,0.551 1.59,0.59 1.563,0.617 1.527,0.66 1.5,0.691 1.461,0.719 1.441,0.762 1.391,0.789 1.359,0.82 1.321,0.86 1.277,0.878 1.242,0.911 1.199,0.941 1.149,0.961 1.109,0.988 1.063,1.012 1.007,1.039 0.973,1.059 0.91,1.082 0.867,1.097 0.813,1.133 0.758,1.129 0.711,1.16"
         style="fill:none;stroke:#000000;stroke-width:0.67000002;stroke-linecap:round;stroke-linejoin:round;stroke-miterlimit:10;stroke-dasharray:none;stroke-opacity:1"
         id="path62"
         inkscape:connector-curvature="0" />
      <path
         d="m 308.969,165.422 v 0.129 h 0.14"
         style="fill:none;stroke:#000000;stroke-width:1;stroke-linecap:round;stroke-linejoin:round;stroke-miterlimit:10;stroke-dasharray:none;stroke-opacity:1"
         id="path64"
         inkscape:connector-curvature="0" />
      <path
         d="m 308.969,166.07 v -0.129 l -0.129,-0.132 v -0.258 h -0.141 v -0.129 h 0.141"
         style="fill:none;stroke:#000000;stroke-width:1.61000001;stroke-linecap:round;stroke-linejoin:round;stroke-miterlimit:10;stroke-dasharray:none;stroke-opacity:1"
         id="path66"
         inkscape:connector-curvature="0" />
      <path
         d="m 308.43,164.781 h 2.019 v 0.129 h 2.422 l 0.129,0.129 h 1.078 l 0.133,0.121 h 2.289 l 0.129,0.129 h 0.68 l 0.132,0.133 h 0.399 v 0.129 h 0.41 v 0.129 h 0.531 l 0.141,0.129 h 0.269 l 0.129,0.132 h 0.141 v 0.129 h 0.398 l 0.129,0.129 h 0.543 l 0.141,0.129 h 0.668 l 0.129,0.133 h 1.211 v 0.129 h 0.269 l 0.141,0.129 h 0.398 l 0.133,0.121 h 0.141 l 0.129,0.129 h 0.41 l 0.129,0.133 h 0.398 l 0.141,0.128 h 0.133 l 0.136,0.129 h 0.543 l 0.129,0.129 h 0.942 l 0.136,0.133 h 0.942 l 0.129,0.129 h 0.402 l 0.141,0.129 h 0.668 l 0.128,0.133 0.141,0.129 h 0.539 l 0.133,0.129 h 0.398 l 0.141,0.25 h 0.27 v 0.128 h 0.128 l 0.141,0.133 h 0.133 v 0.129 h 0.137 l 0.132,0.129 h 0.129 l 0.141,0.133 h 0.129 l 0.14,0.129 h 0.129 l 0.141,0.129 h 0.129 v 0.129 h 0.141 l 0.128,0.132 h 0.133 l 0.141,0.129 0.269,0.121 0.129,0.129 0.27,0.129 h 0.14 l 0.129,0.262 h 0.129 l 0.141,0.129 h 0.133 l 0.136,0.129 h 0.403 l 0.269,0.133 0.539,0.257 h 0.27 l 0.133,0.129 h 0.129 l 0.14,0.133 0.129,0.117 0.141,0.133"
         style="fill:none;stroke:#000000;stroke-width:1.61000001;stroke-linecap:round;stroke-linejoin:round;stroke-miterlimit:10;stroke-dasharray:none;stroke-opacity:1"
         id="path68"
         inkscape:connector-curvature="0" />
      <path
         d="m 336.531,171.109 h 0.27 v 0.129 h 0.269 l 0.129,0.133 0.141,0.117 0.129,0.133 h 0.133 l 0.136,0.129 h 0.274 v 0.129 h 0.269 l 0.129,0.133 h 0.27 v 0.129 h 0.129 v 0.129 h 0.14 v 0.128 h 0.129 l 0.141,0.133 h 0.269 l 0.133,0.129 0.141,0.129 0.129,0.133 h 0.129 v 0.117 h 0.14 l 0.129,0.133 h 0.141 v 0.129 h 0.129 l 0.269,0.129 h 0.141 l 0.133,0.129 0.128,0.132 0.141,0.129 h 0.129 l 0.141,0.129 h 0.129 l 0.14,0.129 h 0.129 l 0.27,0.133 0.132,0.129 0.137,0.129 0.133,0.121 h 0.141 l 0.128,0.129 0.141,0.133 0.129,0.128 0.27,0.129 0.128,0.129 0.141,0.133 0.133,0.129 0.137,0.129 h 0.132 v 0.133 h 0.137 l 0.133,0.129 0.129,0.129 0.269,0.25 0.141,0.128 h 0.129 l 0.141,0.133 h 0.128 l 0.141,0.129 0.262,0.129 0.14,0.133 0.129,0.129 0.141,0.129 h 0.129 l 0.269,0.129 0.141,0.132 0.129,0.129 0.269,0.121 0.133,0.129 v 0.129 h 0.141 l 0.129,0.129 0.14,0.133 h 0.129 l 0.141,0.129 h 0.129 v 0.129 h 0.129 l 0.269,0.133 v 0.128 l 0.141,0.129 0.133,0.129 h 0.136 l 0.133,0.133 0.141,0.117 0.129,0.133 h 0.129 v 0.129 h 0.14 l 0.129,0.129 0.141,0.133 0.129,0.129 h 0.14 l 0.129,0.129 0.141,0.128 0.262,0.262 0.14,0.129 0.129,0.133 0.141,0.129 0.129,0.121 v 0.129 l 0.14,0.129 h 0.129 l 0.141,0.129 0.129,0.132 0.133,0.129 0.136,0.129 0.133,0.129 v 0.133 l 0.141,0.129 h 0.129 v 0.129 l 0.14,0.133 0.129,0.117 0.129,0.133 0.141,0.128 0.129,0.129 v 0.129 l 0.14,0.133 0.129,0.129 0.141,0.262 0.133,0.258 0.136,0.128 v 0.122 l 0.133,0.128 0.129,0.133 v 0.129 h 0.141 v 0.129 l 0.129,0.262 v 0.129 l 0.14,0.129 0.27,0.261 v 0.129 l 0.129,0.25 h 0.14 l 0.129,0.129 v 0.133 l 0.133,0.129 0.141,0.262 v 0.257 l 0.128,0.129 0.141,0.133 0.129,0.25 v 0.129 l 0.141,0.129 v 0.133 l 0.129,0.129 v 0.129 l 0.14,0.128 0.129,0.133 0.133,0.129 v 0.129 h 0.137 l 0.132,0.133 v 0.129 h 0.137 v 0.121 l 0.133,0.129 h 0.141 v 0.129"
         style="fill:none;stroke:#000000;stroke-width:1.61000001;stroke-linecap:round;stroke-linejoin:round;stroke-miterlimit:10;stroke-dasharray:none;stroke-opacity:1"
         id="path70"
         inkscape:connector-curvature="0" />
      <path
         d="m 309.512,212.961 v -0.133 h 1.476 l 0.133,-0.129 h 0.27 l 0.14,-0.129 h 0.528 l 0.14,-0.129 h 0.672 L 313,212.309 h 1.078 l 0.133,-0.129 0.141,-0.121 h 0.539 l 0.129,-0.129 h 0.941 l 0.141,-0.129 h 2.418 l 0.128,-0.129 h 0.543 l 0.129,-0.133 h 0.539 l 0.129,-0.129 h 0.274 l 0.269,-0.129 h 0.27 l 0.14,-0.133 h 1.739 l 0.14,-0.128 h 0.27 l 0.269,-0.129 h 0.801 l 0.141,-0.129 h 0.937 l 0.274,-0.133 h 0.129 l 0.14,-0.117 h 0.258 l 0.141,-0.133 h 0.539 l 0.133,-0.129 h 0.269 l 0.129,-0.129 h 0.27 l 0.14,-0.133 h 0.27 l 0.261,-0.129 h 0.27 l 0.141,-0.129 h 0.128 l 0.141,-0.128 h 0.527 l 0.141,-0.133 h 0.539 l 0.133,-0.129 h 0.398 l 0.141,-0.129 h 0.27 l 0.128,-0.133 h 0.141 l 0.133,-0.117 h 0.269 l 0.129,-0.133 h 0.141 l 0.269,-0.129 h 0.27 l 0.129,-0.129 h 0.141 l 0.128,-0.129 h 0.133 l 0.141,-0.132 0.129,-0.129 0.14,-0.129 0.399,-0.129 0.269,-0.133 0.129,-0.129 0.274,-0.129 0.136,-0.121 0.133,-0.262 0.141,-0.128 h 0.129 l 0.14,-0.129 0.258,-0.129 0.141,-0.133 0.129,-0.129 0.269,-0.129 0.141,-0.133 0.133,-0.129 h 0.129 l 0.14,-0.129 h 0.27 v -0.128 h 0.269 v -0.122 h 0.129 l 0.27,-0.128 0.133,-0.133 h 0.539 l 0.14,-0.129 0.129,-0.129 0.141,-0.133 h 0.129 l 0.129,-0.129 0.14,-0.129 h 0.27 l 0.133,-0.261 0.269,-0.129 v -0.129 l 0.141,-0.121 0.129,-0.129 h 0.269 v -0.129 h 0.129 l 0.141,-0.133 0.129,-0.129 h 0.14 l 0.129,-0.129 h 0.141 v -0.133 h 0.133 l 0.128,-0.128 h 0.141 l 0.129,-0.129 h 0.27 v -0.129 h 0.14 l 0.27,-0.133 0.129,-0.129 h 0.269 v -0.121 l 0.274,-0.129 0.269,-0.129 h 0.129 l 0.141,-0.133 0.257,-0.258 h 0.411 v -0.128 h 0.132 l 0.137,-0.133 h 0.133 l 0.129,-0.129 h 0.14 l 0.129,-0.129 H 345 l 0.129,-0.133 0.141,-0.129 0.128,-0.121 0.274,-0.129 v -0.129 h 0.129 l 0.14,-0.129 v -0.132 l 0.129,-0.129 0.141,-0.129 h 0.129 v -0.129 l 0.269,-0.262 v -0.129 h 0.141 l 0.129,-0.25 v -0.133 h 0.133 l 0.136,-0.128 0.133,-0.129 0.141,-0.129 0.129,-0.133 h 0.14 v -0.129 h 0.27 v -0.129 l 0.258,-0.133 0.14,-0.129 0.129,-0.129 0.141,-0.128 h 0.133 l 0.136,-0.122 h 0.133 v -0.128 h 0.141 l 0.129,-0.133 0.129,-0.129 0.14,-0.129 0.129,-0.133 0.141,-0.129 v -0.129 l 0.129,-0.129 0.14,-0.132 v -0.129 h 0.129 v -0.129 h 0.141 l 0.133,-0.121 v -0.129 h 0.129 v -0.129 h 0.14 v -0.133 h 0.27 v -0.129 0.129 l -0.141,0.133"
         style="fill:none;stroke:#000000;stroke-width:1.61000001;stroke-linecap:round;stroke-linejoin:round;stroke-miterlimit:10;stroke-dasharray:none;stroke-opacity:1"
         id="path72"
         inkscape:connector-curvature="0" />
      <path
         d="m 350.91,196.172 h 0.141 l 0.129,-0.133 v -0.129 h 0.269 v -0.129 l 0.27,-0.133 0.133,-0.128 h 0.136 l 0.133,-0.129 0.141,-0.129 0.129,-0.133 0.14,-0.129 0.129,-0.121 h 0.129 l 0.141,-0.258 h 0.129 l 0.14,-0.133 0.129,-0.129 0.141,-0.129 0.133,-0.128 0.136,-0.262 h 0.133 L 354,193.578 h 0.141 l 0.129,-0.25 0.14,-0.129 h 0.129 v -0.129 l 0.141,-0.261 0.129,-0.129 v -0.129 l 0.14,-0.129 0.129,-0.133 v -0.129 l 0.133,-0.129 0.141,-0.261 0.128,-0.122 v -0.128 l 0.141,-0.258 0.129,-0.133 0.141,-0.129 0.269,-0.391 0.129,-0.257 v -0.25 l 0.133,-0.133 v -0.129 l 0.137,-0.129 v -0.262 h 0.132 v -0.129 l 0.137,-0.129 0.133,-0.132 v -0.258"
         style="fill:none;stroke:#000000;stroke-width:1.61000001;stroke-linecap:round;stroke-linejoin:round;stroke-miterlimit:10;stroke-dasharray:none;stroke-opacity:1"
         id="path74"
         inkscape:connector-curvature="0" />
      <path
         d="m 494.461,176.371 1.508,0.02 1.511,0.129 1.489,0.23 1.472,0.328 1.438,0.434 1.41,0.527 1.359,0.621 1.313,0.711 1.25,0.801 1.187,0.879 1.114,0.961 1.039,1.027 0.961,1.102 0.867,1.16 0.781,1.219 0.692,1.269 0.578,1.313 0.48,1.347 0.379,1.379 0.27,1.402 0.171,1.411 0.051,1.429"
         style="fill:none;stroke:#000000;stroke-width:1.04999995;stroke-linecap:round;stroke-linejoin:round;stroke-miterlimit:10;stroke-dasharray:none;stroke-opacity:1"
         id="path76"
         inkscape:connector-curvature="0" />
      <path
         d="m 515.781,196.07 -0.051,1.418 -0.171,1.41 -0.27,1.403 -0.379,1.379 -0.48,1.351 -0.578,1.309 -0.692,1.269 -0.781,1.219 -0.867,1.16 -0.961,1.102 -1.039,1.031 -1.114,0.957 -1.187,0.883 -1.25,0.801 -1.313,0.707 -1.359,0.621 -1.41,0.531 -1.438,0.43 -1.472,0.328 -1.489,0.23 -1.511,0.129 -1.508,0.032"
         style="fill:none;stroke:#000000;stroke-width:1.04999995;stroke-linecap:round;stroke-linejoin:round;stroke-miterlimit:10;stroke-dasharray:none;stroke-opacity:1"
         id="path78"
         inkscape:connector-curvature="0" />
      <path
         d="M 494.449,176.262 H 459.66"
         style="fill:none;stroke:#000000;stroke-width:1.00999999;stroke-linecap:round;stroke-linejoin:round;stroke-miterlimit:10;stroke-dasharray:none;stroke-opacity:1"
         id="path80"
         inkscape:connector-curvature="0" />
      <path
         d="M 494.5,215.871 H 459.719"
         style="fill:none;stroke:#000000;stroke-width:1.00999999;stroke-linecap:round;stroke-linejoin:round;stroke-miterlimit:10;stroke-dasharray:none;stroke-opacity:1"
         id="path82"
         inkscape:connector-curvature="0" />
      <path
         d="m 459.121,176.051 0.008,3.609 0.012,3.61 0.007,3.601 0.012,3.609 0.012,3.598 0.008,3.613 0.011,3.61 0.008,3.597 0.012,3.614 0.008,3.597 0.011,3.61"
         style="fill:none;stroke:#000000;stroke-width:1.00999999;stroke-linecap:round;stroke-linejoin:round;stroke-miterlimit:10;stroke-dasharray:none;stroke-opacity:1"
         id="path84"
         inkscape:connector-curvature="0" />
      <path
         d="m 517.449,195.711 h 0.071"
         style="fill:none;stroke:#000000;stroke-width:1.62;stroke-linecap:round;stroke-linejoin:round;stroke-miterlimit:10;stroke-dasharray:none;stroke-opacity:1"
         id="path86"
         inkscape:connector-curvature="0" />
      <path
         d="m 396.328,173.059 v 2.953 l 0.012,2.937 0.012,2.949 0.007,2.954 0.012,2.949 v 2.949 l 0.008,2.941 0.012,2.95 0.007,2.949 0.012,2.949 v 2.941"
         style="fill:none;stroke:#000000;stroke-width:0.82999998;stroke-linecap:round;stroke-linejoin:round;stroke-miterlimit:10;stroke-dasharray:none;stroke-opacity:1"
         id="path88"
         inkscape:connector-curvature="0" />
      <path
         d="m 438.512,189.441 h 0.058"
         style="fill:none;stroke:#000000;stroke-width:1.32000005;stroke-linecap:round;stroke-linejoin:round;stroke-miterlimit:10;stroke-dasharray:none;stroke-opacity:1"
         id="path90"
         inkscape:connector-curvature="0" />
      <path
         d="m 396.051,173.148 2.75,1.364 2.75,1.359 2.738,1.359 8.25,4.079 2.75,1.363 2.742,1.367 2.75,1.359 2.75,1.364 2.75,1.359 2.739,1.359"
         style="fill:none;stroke:#000000;stroke-width:0.82999998;stroke-linecap:round;stroke-linejoin:round;stroke-miterlimit:10;stroke-dasharray:none;stroke-opacity:1"
         id="path92"
         inkscape:connector-curvature="0" />
      <path
         d="m 429.02,189.48 -2.7,1.348 -2.711,1.352 -2.699,1.351 -2.711,1.34 -2.711,1.348 -2.699,1.351 -2.711,1.352 -2.699,1.348 -2.707,1.339 -2.711,1.352 -2.699,1.348 -2.711,1.351"
         style="fill:none;stroke:#000000;stroke-width:0.82999998;stroke-linecap:round;stroke-linejoin:round;stroke-miterlimit:10;stroke-dasharray:none;stroke-opacity:1"
         id="path94"
         inkscape:connector-curvature="0" />
      <path
         d="m 437.672,189.641 -0.203,1.148 -0.578,1.031 -0.911,0.821 -1.14,0.531 -1.27,0.18 -1.269,-0.18 -1.141,-0.531 -0.91,-0.821 -0.578,-1.031 -0.203,-1.148 0.203,-1.141 0.578,-1.031 0.91,-0.828 1.141,-0.52 1.269,-0.18 1.27,0.18 1.14,0.52 0.911,0.828 0.578,1.031 0.203,1.141"
         style="fill:none;stroke:#000000;stroke-width:0.54000002;stroke-linecap:round;stroke-linejoin:round;stroke-miterlimit:10;stroke-dasharray:none;stroke-opacity:1"
         id="path96"
         inkscape:connector-curvature="0" />
      <path
         d="m 259.801,158.57 1.519,0.02 1.5,0.129 1.5,0.23 1.469,0.332 1.441,0.43 1.399,0.527 1.359,0.621 1.313,0.711 1.258,0.801 1.179,0.879 1.121,0.961 1.039,1.027 0.961,1.102 0.871,1.172 0.782,1.218 0.679,1.258 0.59,1.321 0.481,1.339 0.379,1.383 0.269,1.399 0.168,1.422 0.051,1.418"
         style="fill:none;stroke:#000000;stroke-width:1.04999995;stroke-linecap:round;stroke-linejoin:round;stroke-miterlimit:10;stroke-dasharray:none;stroke-opacity:1"
         id="path98"
         inkscape:connector-curvature="0" />
      <path
         d="m 281.129,178.27 -0.051,1.421 -0.168,1.411 -0.269,1.398 -0.379,1.379 -0.481,1.351 -0.59,1.309 -0.679,1.27 -0.782,1.222 -0.871,1.16 -0.961,1.098 -1.039,1.039 -1.121,0.961 -1.179,0.883 -1.258,0.789 -1.313,0.719 -1.359,0.621 -1.399,0.519 -1.441,0.43 -1.469,0.328 -1.5,0.231 -1.5,0.132 -1.519,0.028"
         style="fill:none;stroke:#000000;stroke-width:1.04999995;stroke-linecap:round;stroke-linejoin:round;stroke-miterlimit:10;stroke-dasharray:none;stroke-opacity:1"
         id="path100"
         inkscape:connector-curvature="0" />
      <path
         d="M 259.789,158.461 H 225.012"
         style="fill:none;stroke:#000000;stroke-width:1.00999999;stroke-linecap:round;stroke-linejoin:round;stroke-miterlimit:10;stroke-dasharray:none;stroke-opacity:1"
         id="path102"
         inkscape:connector-curvature="0" />
      <path
         d="M 259.852,198.078 H 225.059"
         style="fill:none;stroke:#000000;stroke-width:1.00999999;stroke-linecap:round;stroke-linejoin:round;stroke-miterlimit:10;stroke-dasharray:none;stroke-opacity:1"
         id="path104"
         inkscape:connector-curvature="0" />
      <path
         d="m 224.469,158.262 0.011,3.597 0.008,3.61 0.012,3.601 0.012,3.61 0.008,3.609 0.011,3.602 0.008,3.609 0.012,3.602 0.008,3.609 0.011,3.598 0.008,3.613"
         style="fill:none;stroke:#000000;stroke-width:1.00999999;stroke-linecap:round;stroke-linejoin:round;stroke-miterlimit:10;stroke-dasharray:none;stroke-opacity:1"
         id="path106"
         inkscape:connector-curvature="0" />
      <path
         d="m 282.789,177.91 h 0.082"
         style="fill:none;stroke:#000000;stroke-width:1.62;stroke-linecap:round;stroke-linejoin:round;stroke-miterlimit:10;stroke-dasharray:none;stroke-opacity:1"
         id="path108"
         inkscape:connector-curvature="0" />
      <path
         d="M 151.75,186.09 H 103.039"
         style="fill:none;stroke:#000000;stroke-width:1.40999997;stroke-linecap:round;stroke-linejoin:round;stroke-miterlimit:10;stroke-dasharray:none;stroke-opacity:1"
         id="path110"
         inkscape:connector-curvature="0" />
      <path
         d="m 196.711,187.961 h 26.23"
         style="fill:none;stroke:#000000;stroke-width:1.40999997;stroke-linecap:round;stroke-linejoin:round;stroke-miterlimit:10;stroke-dasharray:none;stroke-opacity:1"
         id="path112"
         inkscape:connector-curvature="0" />
      <path
         d="M 222.941,164.551 H 105.852"
         style="fill:none;stroke:#000000;stroke-width:1.40999997;stroke-linecap:round;stroke-linejoin:round;stroke-miterlimit:10;stroke-dasharray:none;stroke-opacity:1"
         id="path114"
         inkscape:connector-curvature="0" />
      <path
         d="m 280.078,176.719 5.363,0.14 5.348,0.129 5.352,0.133 5.347,0.141 5.364,0.129 5.347,0.14 5.352,0.129"
         style="fill:none;stroke:#000000;stroke-width:1.40999997;stroke-linecap:round;stroke-linejoin:round;stroke-miterlimit:10;stroke-dasharray:none;stroke-opacity:1"
         id="path116"
         inkscape:connector-curvature="0" />
      <path
         d="M 315.68,200.141 H 294.129"
         style="fill:none;stroke:#000000;stroke-width:1.40999997;stroke-linecap:round;stroke-linejoin:round;stroke-miterlimit:10;stroke-dasharray:none;stroke-opacity:1"
         id="path118"
         inkscape:connector-curvature="0" />
      <path
         d="m 294.129,200.141 v 11.238"
         style="fill:none;stroke:#000000;stroke-width:1.40999997;stroke-linecap:round;stroke-linejoin:round;stroke-miterlimit:10;stroke-dasharray:none;stroke-opacity:1"
         id="path120"
         inkscape:connector-curvature="0" />
      <path
         d="m 293.199,210.449 -5.008,0.02 -5,0.031 -5,0.02 -5.011,0.019 -5,0.031 -5.008,0.02 -5,0.031 -5.012,0.02 -5,0.031 -5,0.019 -5.012,0.028 -5,0.019 -5.007,0.032 -5,0.019 -5,0.031 -5.012,0.02 -5,0.019 -5.008,0.032 -5,0.019 -5,0.031 -5.012,0.02 -5,0.027 -5.007,0.024 -5,0.027 -5.012,0.02 -5,0.031 -5,0.019 -5.012,0.032 -5,0.019 -5.008,0.031 -10,0.039 -5.011,0.032 -5,0.019 -5.008,0.028 -5,0.019 -5.012,0.031 -5,0.02"
         style="fill:none;stroke:#000000;stroke-width:1.40999997;stroke-linecap:round;stroke-linejoin:round;stroke-miterlimit:10;stroke-dasharray:none;stroke-opacity:1"
         id="path122"
         inkscape:connector-curvature="0" />
      <path
         d="m 355.961,187.961 5.617,-0.133 5.621,-0.129 5.621,-0.14 5.621,-0.129 5.618,-0.129 5.621,-0.141 5.621,-0.129"
         style="fill:none;stroke:#000000;stroke-width:1.40999997;stroke-linecap:round;stroke-linejoin:round;stroke-miterlimit:10;stroke-dasharray:none;stroke-opacity:1"
         id="path124"
         inkscape:connector-curvature="0" />
      <path
         d="m 437.461,187.961 h 19.668"
         style="fill:none;stroke:#000000;stroke-width:1.40999997;stroke-linecap:round;stroke-linejoin:round;stroke-miterlimit:10;stroke-dasharray:none;stroke-opacity:1"
         id="path126"
         inkscape:connector-curvature="0" />
      <path
         d="M 457.129,202.949 H 437.461"
         style="fill:none;stroke:#000000;stroke-width:1.40999997;stroke-linecap:round;stroke-linejoin:round;stroke-miterlimit:10;stroke-dasharray:none;stroke-opacity:1"
         id="path128"
         inkscape:connector-curvature="0" />
      <path
         d="m 438.391,202.949 v 24.36"
         style="fill:none;stroke:#000000;stroke-width:1.40999997;stroke-linecap:round;stroke-linejoin:round;stroke-miterlimit:10;stroke-dasharray:none;stroke-opacity:1"
         id="path130"
         inkscape:connector-curvature="0" />
      <path
         d="m 438.391,227.309 -5.071,0.07 -5.058,0.07 -10.141,0.141 -5.062,0.07 -5.071,0.07 -5.066,0.071 -5.063,0.07 -5.07,0.078 -5.07,0.071 -5.059,0.07 -10.14,0.14 -5.059,0.071 -15.211,0.211 -5.059,0.066 -5.07,0.082 -5.07,0.07 -5.063,0.071 -5.066,0.07 -5.07,0.07 -5.063,0.071 -5.07,0.066 -5.071,0.07 -5.058,0.071 -5.07,0.07 -5.071,0.082 -5.058,0.07 -5.071,0.071 -5.07,0.066 -5.07,0.07 -5.059,0.071 -10.141,0.14 -5.058,0.071 -10.141,0.14 -5.062,0.078 -10.141,0.141 -5.058,0.07 -10.141,0.141 -5.059,0.07 -15.211,0.211 -5.058,0.078 -10.141,0.141 -5.058,0.07 -10.141,0.141 -5.063,0.07 -5.07,0.071 -5.066,0.07 -5.063,0.066 -5.07,0.082 -5.07,0.071 -5.059,0.07 -15.211,0.211 -5.059,0.066"
         style="fill:none;stroke:#000000;stroke-width:1.40999997;stroke-linecap:round;stroke-linejoin:round;stroke-miterlimit:10;stroke-dasharray:none;stroke-opacity:1"
         id="path132"
         inkscape:connector-curvature="0" />
      <text
         y="159.86914"
         x="93.46875"
         style="font-variant:normal;font-size:12px;font-family:CairoFont-0;-inkscape-font-specification:CairoFont-0-0;writing-mode:lr-tb;fill:#000000;fill-opacity:1;fill-rule:nonzero;stroke:none"
         id="text142">
        <tspan
           x="93.46875"
           y="159.86914"
           id="tspan134">A</tspan>
        <tspan
           x="92.109375"
           y="183.59961"
           id="tspan136">B</tspan>
        <tspan
           x="91.898438"
           y="209.4082"
           id="tspan138">C</tspan>
        <tspan
           x="91.699219"
           y="231.26758"
           id="tspan140">D</tspan>
      </text>
      <path
         d="m 516.238,194.73 5.223,0.032 5.23,0.027 5.219,0.039 5.219,0.031 5.223,0.032 5.218,0.031 5.219,0.027 5.223,0.039 10.437,0.063 5.223,0.027 5.219,0.031 5.218,0.039"
         style="fill:none;stroke:#000000;stroke-width:1.40999997;stroke-linecap:round;stroke-linejoin:round;stroke-miterlimit:10;stroke-dasharray:none;stroke-opacity:1"
         id="path144"
         inkscape:connector-curvature="0" />
      <path
         d="m 445.262,162.199 0.418,6.461 0.41,6.449 0.422,6.45"
         style="fill:none;stroke:#000000;stroke-width:1.40999997;stroke-linecap:round;stroke-linejoin:round;stroke-miterlimit:10;stroke-dasharray:none;stroke-opacity:1"
         id="path226"
         inkscape:connector-curvature="0" />
      <text
         y="187.08008"
         x="286.01953"
         style="font-variant:normal;font-size:12px;font-family:CairoFont-0;-inkscape-font-specification:CairoFont-0-0;writing-mode:lr-tb;fill:#000000;fill-opacity:1;fill-rule:nonzero;stroke:none"
         id="text234">
        <tspan
           x="286.01953"
           y="187.08008"
           id="tspan228">g</tspan>
        <tspan
           x="364.69922"
           y="200.81836"
           id="tspan230">h</tspan>
        <tspan
           x="440.26953"
           y="198.31837"
           id="tspan232">k</tspan>
      </text>
      <path
         d="m 419.516,196.617 v 0"
         style="fill:none;stroke:#000000;stroke-width:2.25999999;stroke-linecap:round;stroke-linejoin:round;stroke-miterlimit:10;stroke-dasharray:none;stroke-opacity:1"
         id="path742"
         inkscape:connector-curvature="0" />
      <text
         xml:space="preserve"
         style="font-style:normal;font-weight:normal;font-size:16px;line-height:1.25;font-family:sans-serif;text-align:start;letter-spacing:0px;word-spacing:0px;text-anchor:start;fill:#000000;fill-opacity:1;stroke:none;stroke-width:0.75"
         x="544.71533"
         y="191.1346"
         id="text108"><tspan
           sodipodi:role="line"
           x="544.71533"
           y="191.1346"
           id="tspan106"
           style="stroke-width:0.75"><tspan
             x="544.71533"
             y="191.1346"
             id="tspan104"
             style="stroke-width:0.75">f</tspan></tspan></text>
    </g>
  </g>
</svg>
